G04 #@! TF.GenerationSoftware,KiCad,Pcbnew,6.0.2+dfsg-1*
G04 #@! TF.CreationDate,2024-08-21T11:00:15+10:00*
G04 #@! TF.ProjectId,MQTTDecoderExpansionBoard,4d515454-4465-4636-9f64-657245787061,A*
G04 #@! TF.SameCoordinates,Original*
G04 #@! TF.FileFunction,Copper,L1,Top*
G04 #@! TF.FilePolarity,Positive*
%FSLAX46Y46*%
G04 Gerber Fmt 4.6, Leading zero omitted, Abs format (unit mm)*
G04 Created by KiCad (PCBNEW 6.0.2+dfsg-1) date 2024-08-21 11:00:15*
%MOMM*%
%LPD*%
G01*
G04 APERTURE LIST*
G04 #@! TA.AperFunction,ComponentPad*
%ADD10R,1.700000X1.700000*%
G04 #@! TD*
G04 #@! TA.AperFunction,ComponentPad*
%ADD11O,1.700000X1.700000*%
G04 #@! TD*
G04 #@! TA.AperFunction,ComponentPad*
%ADD12C,1.600000*%
G04 #@! TD*
G04 #@! TA.AperFunction,ComponentPad*
%ADD13O,1.600000X1.600000*%
G04 #@! TD*
G04 #@! TA.AperFunction,SMDPad,CuDef*
%ADD14R,3.500000X1.700000*%
G04 #@! TD*
G04 #@! TA.AperFunction,SMDPad,CuDef*
%ADD15R,1.700000X3.500000*%
G04 #@! TD*
G04 #@! TA.AperFunction,ComponentPad*
%ADD16R,2.200000X2.200000*%
G04 #@! TD*
G04 #@! TA.AperFunction,ComponentPad*
%ADD17O,2.200000X2.200000*%
G04 #@! TD*
G04 #@! TA.AperFunction,ComponentPad*
%ADD18R,1.905000X2.000000*%
G04 #@! TD*
G04 #@! TA.AperFunction,ComponentPad*
%ADD19O,1.905000X2.000000*%
G04 #@! TD*
G04 #@! TA.AperFunction,ComponentPad*
%ADD20R,1.980000X3.960000*%
G04 #@! TD*
G04 #@! TA.AperFunction,ComponentPad*
%ADD21O,1.980000X3.960000*%
G04 #@! TD*
G04 #@! TA.AperFunction,Conductor*
%ADD22C,0.760000*%
G04 #@! TD*
G04 #@! TA.AperFunction,Conductor*
%ADD23C,0.750000*%
G04 #@! TD*
G04 #@! TA.AperFunction,Conductor*
%ADD24C,0.250000*%
G04 #@! TD*
G04 APERTURE END LIST*
D10*
X160020000Y-53340000D03*
D11*
X160020000Y-55880000D03*
X160020000Y-58420000D03*
X160020000Y-60960000D03*
X160020000Y-63500000D03*
X160020000Y-66040000D03*
X160020000Y-68580000D03*
X160020000Y-71120000D03*
X160020000Y-73660000D03*
X160020000Y-76200000D03*
X160020000Y-78740000D03*
X160020000Y-81280000D03*
X160020000Y-83820000D03*
X160020000Y-86360000D03*
X160020000Y-88900000D03*
X160020000Y-91440000D03*
D12*
X154940000Y-116840000D03*
D13*
X165100000Y-116840000D03*
D10*
X127000000Y-53340000D03*
D11*
X127000000Y-55880000D03*
X127000000Y-58420000D03*
X127000000Y-60960000D03*
X127000000Y-63500000D03*
X127000000Y-66040000D03*
X127000000Y-68580000D03*
X127000000Y-71120000D03*
X127000000Y-73660000D03*
X127000000Y-76200000D03*
X127000000Y-78740000D03*
X127000000Y-81280000D03*
X127000000Y-83820000D03*
X127000000Y-86360000D03*
X127000000Y-88900000D03*
X127000000Y-91440000D03*
X127000000Y-93980000D03*
X127000000Y-96520000D03*
X127000000Y-99060000D03*
X127000000Y-101600000D03*
D10*
X167640000Y-53340000D03*
D11*
X167640000Y-55880000D03*
X167640000Y-58420000D03*
X167640000Y-60960000D03*
X167640000Y-63500000D03*
X167640000Y-66040000D03*
X167640000Y-68580000D03*
X167640000Y-71120000D03*
X167640000Y-73660000D03*
X167640000Y-76200000D03*
X167640000Y-78740000D03*
X167640000Y-81280000D03*
X167640000Y-83820000D03*
X167640000Y-86360000D03*
X167640000Y-88900000D03*
X167640000Y-91440000D03*
D14*
X131180000Y-53340000D03*
D11*
X132080000Y-53340000D03*
D14*
X131180000Y-55880000D03*
D11*
X132080000Y-55880000D03*
D10*
X132080000Y-58420000D03*
D14*
X131180000Y-58420000D03*
D11*
X132080000Y-60960000D03*
D14*
X131180000Y-60960000D03*
X131180000Y-63500000D03*
D11*
X132080000Y-63500000D03*
D14*
X131180000Y-66040000D03*
D11*
X132080000Y-66040000D03*
D14*
X131180000Y-68580000D03*
D11*
X132080000Y-68580000D03*
D14*
X131180000Y-71120000D03*
D10*
X132080000Y-71120000D03*
D11*
X132080000Y-73660000D03*
D14*
X131180000Y-73660000D03*
D11*
X132080000Y-76200000D03*
D14*
X131180000Y-76200000D03*
D11*
X132080000Y-78740000D03*
D14*
X131180000Y-78740000D03*
X131180000Y-81280000D03*
D11*
X132080000Y-81280000D03*
D10*
X132080000Y-83820000D03*
D14*
X131180000Y-83820000D03*
D11*
X132080000Y-86360000D03*
D14*
X131180000Y-86360000D03*
X131180000Y-88900000D03*
D11*
X132080000Y-88900000D03*
X132080000Y-91440000D03*
D14*
X131180000Y-91440000D03*
X131180000Y-93980000D03*
D11*
X132080000Y-93980000D03*
D14*
X131180000Y-96520000D03*
D10*
X132080000Y-96520000D03*
D11*
X132080000Y-99060000D03*
D14*
X131180000Y-99060000D03*
D11*
X132080000Y-101600000D03*
D14*
X131180000Y-101600000D03*
D11*
X149860000Y-101600000D03*
D14*
X150760000Y-101600000D03*
D11*
X149860000Y-99060000D03*
D14*
X150760000Y-99060000D03*
D10*
X149860000Y-96520000D03*
D14*
X150760000Y-96520000D03*
X150760000Y-93980000D03*
D11*
X149860000Y-93980000D03*
X149860000Y-91440000D03*
D14*
X150760000Y-91440000D03*
D11*
X149860000Y-88900000D03*
D14*
X150760000Y-88900000D03*
D11*
X149860000Y-86360000D03*
D14*
X150760000Y-86360000D03*
D10*
X149860000Y-83820000D03*
D14*
X150760000Y-83820000D03*
X150760000Y-81280000D03*
D11*
X149860000Y-81280000D03*
X149860000Y-78740000D03*
D14*
X150760000Y-78740000D03*
X150760000Y-76200000D03*
D11*
X149860000Y-76200000D03*
X149860000Y-73660000D03*
D14*
X150760000Y-73660000D03*
D10*
X149860000Y-71120000D03*
D14*
X150760000Y-71120000D03*
X150760000Y-68580000D03*
D11*
X149860000Y-68580000D03*
D14*
X150760000Y-66040000D03*
D11*
X149860000Y-66040000D03*
X149860000Y-63500000D03*
D14*
X150760000Y-63500000D03*
X150760000Y-60960000D03*
D11*
X149860000Y-60960000D03*
D14*
X150760000Y-58420000D03*
D10*
X149860000Y-58420000D03*
D11*
X149860000Y-55880000D03*
D14*
X150760000Y-55880000D03*
X150760000Y-53340000D03*
D11*
X149860000Y-53340000D03*
X138430000Y-101370000D03*
D15*
X138430000Y-102270000D03*
X140970000Y-102270000D03*
D10*
X140970000Y-101370000D03*
D15*
X143510000Y-102270000D03*
D11*
X143510000Y-101370000D03*
D16*
X124460000Y-111760000D03*
D17*
X134620000Y-111760000D03*
D18*
X144780000Y-109220000D03*
D19*
X142240000Y-109220000D03*
X139700000Y-109220000D03*
D10*
X162560000Y-53340000D03*
D11*
X162560000Y-55880000D03*
X162560000Y-58420000D03*
X162560000Y-60960000D03*
X162560000Y-63500000D03*
X162560000Y-66040000D03*
X162560000Y-68580000D03*
X162560000Y-71120000D03*
X162560000Y-73660000D03*
X162560000Y-76200000D03*
X162560000Y-78740000D03*
X162560000Y-81280000D03*
X162560000Y-83820000D03*
X162560000Y-86360000D03*
X162560000Y-88900000D03*
X162560000Y-91440000D03*
D10*
X165100000Y-53340000D03*
D11*
X165100000Y-55880000D03*
X165100000Y-58420000D03*
X165100000Y-60960000D03*
X165100000Y-63500000D03*
X165100000Y-66040000D03*
X165100000Y-68580000D03*
X165100000Y-71120000D03*
X165100000Y-73660000D03*
X165100000Y-76200000D03*
X165100000Y-78740000D03*
X165100000Y-81280000D03*
X165100000Y-83820000D03*
X165100000Y-86360000D03*
X165100000Y-88900000D03*
X165100000Y-91440000D03*
D10*
X119380000Y-53340000D03*
D11*
X119380000Y-55880000D03*
X119380000Y-58420000D03*
X119380000Y-60960000D03*
X119380000Y-63500000D03*
X119380000Y-66040000D03*
X119380000Y-68580000D03*
X119380000Y-71120000D03*
X119380000Y-73660000D03*
X119380000Y-76200000D03*
X119380000Y-78740000D03*
X119380000Y-81280000D03*
X119380000Y-83820000D03*
X119380000Y-86360000D03*
X119380000Y-88900000D03*
X119380000Y-91440000D03*
D10*
X116840000Y-53340000D03*
D11*
X116840000Y-55880000D03*
X116840000Y-58420000D03*
X116840000Y-60960000D03*
X116840000Y-63500000D03*
X116840000Y-66040000D03*
X116840000Y-68580000D03*
X116840000Y-71120000D03*
X116840000Y-73660000D03*
X116840000Y-76200000D03*
X116840000Y-78740000D03*
X116840000Y-81280000D03*
X116840000Y-83820000D03*
X116840000Y-86360000D03*
X116840000Y-88900000D03*
X116840000Y-91440000D03*
D12*
X165100000Y-121920000D03*
D13*
X154940000Y-121920000D03*
D20*
X119165000Y-124470000D03*
D21*
X124165000Y-124470000D03*
X129165000Y-124470000D03*
D10*
X154940000Y-53340000D03*
D11*
X154940000Y-55880000D03*
X154940000Y-58420000D03*
X154940000Y-60960000D03*
X154940000Y-63500000D03*
X154940000Y-66040000D03*
X154940000Y-68580000D03*
X154940000Y-71120000D03*
X154940000Y-73660000D03*
X154940000Y-76200000D03*
X154940000Y-78740000D03*
X154940000Y-81280000D03*
X154940000Y-83820000D03*
X154940000Y-86360000D03*
X154940000Y-88900000D03*
X154940000Y-91440000D03*
X154940000Y-93980000D03*
X154940000Y-96520000D03*
X154940000Y-99060000D03*
X154940000Y-101600000D03*
D16*
X160020000Y-111760000D03*
D17*
X149860000Y-111760000D03*
D10*
X119380000Y-96520000D03*
D11*
X119380000Y-99060000D03*
X119380000Y-101600000D03*
X119380000Y-104140000D03*
X119380000Y-106680000D03*
X119380000Y-109220000D03*
X119380000Y-111760000D03*
X119380000Y-114300000D03*
D10*
X116840000Y-96520000D03*
D11*
X116840000Y-99060000D03*
X116840000Y-101600000D03*
X116840000Y-104140000D03*
X116840000Y-106680000D03*
X116840000Y-109220000D03*
X116840000Y-111760000D03*
X116840000Y-114300000D03*
D10*
X121920000Y-53340000D03*
D11*
X121920000Y-55880000D03*
X121920000Y-58420000D03*
X121920000Y-60960000D03*
X121920000Y-63500000D03*
X121920000Y-66040000D03*
X121920000Y-68580000D03*
X121920000Y-71120000D03*
X121920000Y-73660000D03*
X121920000Y-76200000D03*
X121920000Y-78740000D03*
X121920000Y-81280000D03*
X121920000Y-83820000D03*
X121920000Y-86360000D03*
X121920000Y-88900000D03*
X121920000Y-91440000D03*
D22*
X149764492Y-105720480D02*
X146360480Y-102316468D01*
X119380000Y-53340000D02*
X119380000Y-93980000D01*
D23*
X119380000Y-53340000D02*
X119380000Y-60960000D01*
D22*
X121215480Y-97837115D02*
X129098845Y-105720480D01*
X153980480Y-105720480D02*
X149764492Y-105720480D01*
X119380000Y-93980000D02*
X121215480Y-95815480D01*
X160020000Y-111760000D02*
X153980480Y-105720480D01*
X146360480Y-102316468D02*
X146360480Y-56839520D01*
X129098845Y-105720480D02*
X149764492Y-105720480D01*
D23*
X149860000Y-53340000D02*
X154940000Y-53340000D01*
D22*
X121215480Y-95815480D02*
X121215480Y-97837115D01*
X146360480Y-56839520D02*
X149860000Y-53340000D01*
X142240000Y-109220000D02*
X142240000Y-111760000D01*
X134620000Y-111760000D02*
X137160000Y-111760000D01*
X149860000Y-111760000D02*
X147320000Y-111760000D01*
X124460000Y-111760000D02*
X124460000Y-124175000D01*
X124460000Y-124175000D02*
X124165000Y-124470000D01*
X157480000Y-93389080D02*
X158050602Y-93959682D01*
X119380000Y-109220000D02*
X120959511Y-107640489D01*
X154940000Y-60960000D02*
X157480000Y-63500000D01*
X157480000Y-63500000D02*
X157480000Y-93389080D01*
X158050602Y-93959682D02*
X160040318Y-93959682D01*
X119380000Y-114300000D02*
X119380000Y-96520000D01*
X163989511Y-51910489D02*
X162560000Y-53340000D01*
X157480000Y-116840000D02*
X160020000Y-119380000D01*
X169069511Y-51910489D02*
X163989511Y-51910489D01*
X169069511Y-115410489D02*
X169069511Y-51910489D01*
X165100000Y-119380000D02*
X169069511Y-115410489D01*
X120959511Y-107640489D02*
X152177455Y-107640489D01*
X157480000Y-112943034D02*
X157480000Y-116840000D01*
D24*
X149860000Y-60960000D02*
X154940000Y-60960000D01*
D22*
X162560000Y-53340000D02*
X162560000Y-91440000D01*
X152177455Y-107640489D02*
X157480000Y-112943034D01*
X160020000Y-119380000D02*
X165100000Y-119380000D01*
X160040318Y-93959682D02*
X162560000Y-91440000D01*
D24*
X127000000Y-53340000D02*
X132080000Y-53340000D01*
X121920000Y-53340000D02*
X127000000Y-53340000D01*
X132080000Y-55880000D02*
X127000000Y-55880000D01*
X121920000Y-55880000D02*
X127000000Y-55880000D01*
X124460000Y-60960000D02*
X127000000Y-60960000D01*
X121920000Y-58420000D02*
X124460000Y-60960000D01*
X127000000Y-60960000D02*
X132080000Y-60960000D01*
X121920000Y-60960000D02*
X124460000Y-63500000D01*
X124460000Y-63500000D02*
X127000000Y-63500000D01*
X132080000Y-63500000D02*
X127000000Y-63500000D01*
X124460000Y-66040000D02*
X127000000Y-66040000D01*
X127000000Y-66040000D02*
X132080000Y-66040000D01*
X121920000Y-63500000D02*
X124460000Y-66040000D01*
X124460000Y-68580000D02*
X127000000Y-68580000D01*
X132080000Y-68580000D02*
X127000000Y-68580000D01*
X121920000Y-66040000D02*
X124460000Y-68580000D01*
X127000000Y-73660000D02*
X121920000Y-68580000D01*
X132080000Y-73660000D02*
X127000000Y-73660000D01*
X127000000Y-76200000D02*
X132080000Y-76200000D01*
X121920000Y-71120000D02*
X127000000Y-76200000D01*
X121920000Y-73660000D02*
X127000000Y-78740000D01*
X132080000Y-78740000D02*
X127000000Y-78740000D01*
X127000000Y-81280000D02*
X132080000Y-81280000D01*
X121920000Y-76200000D02*
X127000000Y-81280000D01*
X121920000Y-78740000D02*
X125825489Y-82645489D01*
X127000000Y-86360000D02*
X132080000Y-86360000D01*
X125825489Y-82645489D02*
X125825489Y-85185489D01*
X125825489Y-85185489D02*
X127000000Y-86360000D01*
X127000000Y-88900000D02*
X132080000Y-88900000D01*
X125375969Y-87275969D02*
X127000000Y-88900000D01*
X121920000Y-81280000D02*
X125375969Y-84735969D01*
X125375969Y-84735969D02*
X125375969Y-87275969D01*
X123993551Y-85893551D02*
X121920000Y-83820000D01*
X127000000Y-91440000D02*
X132080000Y-91440000D01*
X123993551Y-88433551D02*
X123993551Y-85893551D01*
X127000000Y-91440000D02*
X123993551Y-88433551D01*
X132080000Y-93980000D02*
X127000000Y-93980000D01*
X127000000Y-93980000D02*
X123544031Y-90524031D01*
X123544031Y-87984031D02*
X121920000Y-86360000D01*
X123544031Y-90524031D02*
X123544031Y-87984031D01*
X123094511Y-95154511D02*
X123094511Y-90074511D01*
X132080000Y-99060000D02*
X127000000Y-99060000D01*
X127000000Y-99060000D02*
X123094511Y-95154511D01*
X123094511Y-90074511D02*
X121920000Y-88900000D01*
X127000000Y-101600000D02*
X121920000Y-96520000D01*
X127000000Y-101600000D02*
X132080000Y-101600000D01*
X121920000Y-96520000D02*
X121920000Y-91440000D01*
D22*
X124095000Y-129540000D02*
X120105978Y-129540000D01*
X160020000Y-53340000D02*
X158590489Y-51910489D01*
X165100000Y-109220000D02*
X160640960Y-104760960D01*
X147320000Y-60960000D02*
X149860000Y-58420000D01*
X116840000Y-126274022D02*
X116840000Y-114300000D01*
X160640960Y-104760960D02*
X150161938Y-104760960D01*
X150161938Y-104760960D02*
X147320000Y-101919022D01*
D23*
X116840000Y-53340000D02*
X116840000Y-58420000D01*
D22*
X165100000Y-116840000D02*
X165100000Y-109220000D01*
X120105978Y-129540000D02*
X116840000Y-126274022D01*
X129165000Y-124470000D02*
X124095000Y-129540000D01*
X118269511Y-51910489D02*
X116840000Y-53340000D01*
D23*
X116840000Y-91440000D02*
X116840000Y-58420000D01*
D22*
X158590489Y-51910489D02*
X118269511Y-51910489D01*
D23*
X149860000Y-58420000D02*
X154940000Y-58420000D01*
D22*
X147320000Y-101919022D02*
X147320000Y-60960000D01*
D23*
X160020000Y-91440000D02*
X160020000Y-53340000D01*
X116840000Y-114300000D02*
X116840000Y-91440000D01*
D24*
X127000000Y-58420000D02*
X132080000Y-58420000D01*
X127000000Y-71120000D02*
X132080000Y-71120000D01*
X127000000Y-83820000D02*
X132080000Y-83820000D01*
X154940000Y-99060000D02*
X149860000Y-99060000D01*
X160020000Y-99060000D02*
X167640000Y-91440000D01*
X167640000Y-91440000D02*
X167640000Y-53340000D01*
X154940000Y-99060000D02*
X160020000Y-99060000D01*
X154940000Y-55880000D02*
X149860000Y-55880000D01*
X149860000Y-63500000D02*
X154940000Y-63500000D01*
X149860000Y-66040000D02*
X154940000Y-66040000D01*
X149860000Y-68580000D02*
X154940000Y-68580000D01*
X149860000Y-71120000D02*
X154940000Y-71120000D01*
X149860000Y-73660000D02*
X154940000Y-73660000D01*
X149860000Y-76200000D02*
X154940000Y-76200000D01*
X149860000Y-78740000D02*
X154940000Y-78740000D01*
X149860000Y-81280000D02*
X154940000Y-81280000D01*
X149860000Y-83820000D02*
X154940000Y-83820000D01*
X149860000Y-86360000D02*
X154940000Y-86360000D01*
X149860000Y-88900000D02*
X154940000Y-88900000D01*
X149860000Y-91440000D02*
X154940000Y-91440000D01*
X165100000Y-91440000D02*
X165100000Y-53340000D01*
X148685489Y-100425489D02*
X148685489Y-97885489D01*
X149860000Y-101600000D02*
X154940000Y-101600000D01*
X148685489Y-97885489D02*
X158654511Y-97885489D01*
X149860000Y-101600000D02*
X148685489Y-100425489D01*
X158654511Y-97885489D02*
X165100000Y-91440000D01*
D22*
X139700000Y-109220000D02*
X121920000Y-109220000D01*
X121920000Y-121715000D02*
X119165000Y-124470000D01*
X121920000Y-109220000D02*
X121920000Y-121715000D01*
X139700000Y-109220000D02*
X137160000Y-109220000D01*
D24*
X132080000Y-96520000D02*
X127000000Y-96520000D01*
X149860000Y-96520000D02*
X154940000Y-96520000D01*
X149860000Y-93980000D02*
X154940000Y-93980000D01*
D22*
X144780000Y-109220000D02*
X152400000Y-109220000D01*
X152400000Y-109220000D02*
X154940000Y-111760000D01*
X154940000Y-121920000D02*
X154940000Y-116840000D01*
X154940000Y-111760000D02*
X154940000Y-116840000D01*
G04 #@! TA.AperFunction,Conductor*
G36*
X143261121Y-108548991D02*
G01*
X143307614Y-108602647D01*
X143319000Y-108654989D01*
X143319000Y-110268134D01*
X143325755Y-110330316D01*
X143376885Y-110466705D01*
X143464239Y-110583261D01*
X143580795Y-110670615D01*
X143717184Y-110721745D01*
X143779366Y-110728500D01*
X145780634Y-110728500D01*
X145842816Y-110721745D01*
X145979205Y-110670615D01*
X146095761Y-110583261D01*
X146183115Y-110466705D01*
X146234245Y-110330316D01*
X146241000Y-110268134D01*
X146241000Y-110234500D01*
X146261002Y-110166379D01*
X146314658Y-110119886D01*
X146367000Y-110108500D01*
X151979782Y-110108500D01*
X152047903Y-110128502D01*
X152068877Y-110145405D01*
X154014595Y-112091124D01*
X154048621Y-112153436D01*
X154051500Y-112180219D01*
X154051500Y-115825812D01*
X154031498Y-115893933D01*
X154014595Y-115914907D01*
X153933802Y-115995700D01*
X153930645Y-116000208D01*
X153930643Y-116000211D01*
X153875902Y-116078389D01*
X153802477Y-116183251D01*
X153800154Y-116188233D01*
X153800151Y-116188238D01*
X153720184Y-116359730D01*
X153705716Y-116390757D01*
X153704294Y-116396064D01*
X153704293Y-116396067D01*
X153656869Y-116573055D01*
X153646457Y-116611913D01*
X153626502Y-116840000D01*
X153646457Y-117068087D01*
X153647881Y-117073400D01*
X153647881Y-117073402D01*
X153684241Y-117209096D01*
X153705716Y-117289243D01*
X153708039Y-117294224D01*
X153708039Y-117294225D01*
X153800151Y-117491762D01*
X153800154Y-117491767D01*
X153802477Y-117496749D01*
X153933802Y-117684300D01*
X154014595Y-117765093D01*
X154048621Y-117827405D01*
X154051500Y-117854188D01*
X154051500Y-120905812D01*
X154031498Y-120973933D01*
X154014595Y-120994907D01*
X153933802Y-121075700D01*
X153802477Y-121263251D01*
X153800154Y-121268233D01*
X153800151Y-121268238D01*
X153708039Y-121465775D01*
X153705716Y-121470757D01*
X153646457Y-121691913D01*
X153626502Y-121920000D01*
X153646457Y-122148087D01*
X153705716Y-122369243D01*
X153708039Y-122374224D01*
X153708039Y-122374225D01*
X153800151Y-122571762D01*
X153800154Y-122571767D01*
X153802477Y-122576749D01*
X153933802Y-122764300D01*
X154095700Y-122926198D01*
X154100208Y-122929355D01*
X154100211Y-122929357D01*
X154178389Y-122984098D01*
X154283251Y-123057523D01*
X154288233Y-123059846D01*
X154288238Y-123059849D01*
X154485775Y-123151961D01*
X154490757Y-123154284D01*
X154496065Y-123155706D01*
X154496067Y-123155707D01*
X154706598Y-123212119D01*
X154706600Y-123212119D01*
X154711913Y-123213543D01*
X154940000Y-123233498D01*
X155168087Y-123213543D01*
X155173400Y-123212119D01*
X155173402Y-123212119D01*
X155383933Y-123155707D01*
X155383935Y-123155706D01*
X155389243Y-123154284D01*
X155394225Y-123151961D01*
X155591762Y-123059849D01*
X155591767Y-123059846D01*
X155596749Y-123057523D01*
X155701611Y-122984098D01*
X155779789Y-122929357D01*
X155779792Y-122929355D01*
X155784300Y-122926198D01*
X155946198Y-122764300D01*
X156077523Y-122576749D01*
X156079846Y-122571767D01*
X156079849Y-122571762D01*
X156171961Y-122374225D01*
X156171961Y-122374224D01*
X156174284Y-122369243D01*
X156233543Y-122148087D01*
X156253498Y-121920000D01*
X156233543Y-121691913D01*
X156174284Y-121470757D01*
X156171961Y-121465775D01*
X156079849Y-121268238D01*
X156079846Y-121268233D01*
X156077523Y-121263251D01*
X155946198Y-121075700D01*
X155865405Y-120994907D01*
X155831379Y-120932595D01*
X155828500Y-120905812D01*
X155828500Y-117854188D01*
X155848502Y-117786067D01*
X155865405Y-117765093D01*
X155946198Y-117684300D01*
X156077523Y-117496749D01*
X156079846Y-117491767D01*
X156079849Y-117491762D01*
X156171961Y-117294225D01*
X156171961Y-117294224D01*
X156174284Y-117289243D01*
X156195760Y-117209096D01*
X156232119Y-117073402D01*
X156232119Y-117073400D01*
X156233543Y-117068087D01*
X156253498Y-116840000D01*
X156233543Y-116611913D01*
X156223131Y-116573055D01*
X156175707Y-116396067D01*
X156175706Y-116396064D01*
X156174284Y-116390757D01*
X156159816Y-116359730D01*
X156079849Y-116188238D01*
X156079846Y-116188233D01*
X156077523Y-116183251D01*
X156004098Y-116078389D01*
X155949357Y-116000211D01*
X155949355Y-116000208D01*
X155946198Y-115995700D01*
X155865405Y-115914907D01*
X155831379Y-115852595D01*
X155828500Y-115825812D01*
X155828500Y-112852252D01*
X155848502Y-112784131D01*
X155902158Y-112737638D01*
X155972432Y-112727534D01*
X156037012Y-112757028D01*
X156043595Y-112763157D01*
X156554595Y-113274157D01*
X156588621Y-113336469D01*
X156591500Y-113363252D01*
X156591500Y-116760160D01*
X156589949Y-116779870D01*
X156587831Y-116793243D01*
X156588176Y-116799831D01*
X156588176Y-116799835D01*
X156591327Y-116859957D01*
X156591500Y-116866551D01*
X156591500Y-116886563D01*
X156591845Y-116889848D01*
X156591846Y-116889861D01*
X156593592Y-116906468D01*
X156594109Y-116913040D01*
X156597605Y-116979758D01*
X156601110Y-116992837D01*
X156604714Y-117012283D01*
X156606129Y-117025747D01*
X156626779Y-117089302D01*
X156628646Y-117095603D01*
X156645945Y-117160164D01*
X156648942Y-117166046D01*
X156652094Y-117172233D01*
X156659658Y-117190494D01*
X156661801Y-117197090D01*
X156661803Y-117197095D01*
X156663844Y-117203376D01*
X156695123Y-117257553D01*
X156697253Y-117261242D01*
X156700400Y-117267038D01*
X156714253Y-117294225D01*
X156730737Y-117326577D01*
X156738847Y-117336591D01*
X156739256Y-117337097D01*
X156750457Y-117353395D01*
X156753926Y-117359404D01*
X156753929Y-117359408D01*
X156757229Y-117365124D01*
X156761644Y-117370028D01*
X156761646Y-117370030D01*
X156801954Y-117414796D01*
X156806233Y-117419806D01*
X156818811Y-117435339D01*
X156832936Y-117449464D01*
X156837477Y-117454248D01*
X156882203Y-117503921D01*
X156893169Y-117511888D01*
X156908197Y-117524725D01*
X159335278Y-119951807D01*
X159348115Y-119966836D01*
X159356079Y-119977797D01*
X159360981Y-119982210D01*
X159360982Y-119982212D01*
X159405742Y-120022514D01*
X159410526Y-120027055D01*
X159424660Y-120041189D01*
X159427225Y-120043266D01*
X159440204Y-120053776D01*
X159445225Y-120058064D01*
X159489970Y-120098354D01*
X159489973Y-120098356D01*
X159494876Y-120102771D01*
X159500597Y-120106074D01*
X159506609Y-120109546D01*
X159522894Y-120120738D01*
X159528293Y-120125110D01*
X159528299Y-120125114D01*
X159533423Y-120129263D01*
X159539301Y-120132258D01*
X159592962Y-120159600D01*
X159598758Y-120162747D01*
X159656624Y-120196156D01*
X159662905Y-120198197D01*
X159662910Y-120198199D01*
X159669506Y-120200342D01*
X159687767Y-120207906D01*
X159693954Y-120211058D01*
X159699836Y-120214055D01*
X159764397Y-120231354D01*
X159770698Y-120233221D01*
X159834253Y-120253871D01*
X159847717Y-120255286D01*
X159867157Y-120258889D01*
X159880242Y-120262395D01*
X159886831Y-120262740D01*
X159886836Y-120262741D01*
X159924028Y-120264689D01*
X159946960Y-120265891D01*
X159953532Y-120266408D01*
X159970139Y-120268154D01*
X159970152Y-120268155D01*
X159973437Y-120268500D01*
X159993449Y-120268500D01*
X160000043Y-120268673D01*
X160060164Y-120271824D01*
X160060168Y-120271824D01*
X160066756Y-120272169D01*
X160080129Y-120270051D01*
X160099839Y-120268500D01*
X165020160Y-120268500D01*
X165039870Y-120270051D01*
X165053243Y-120272169D01*
X165059831Y-120271824D01*
X165059835Y-120271824D01*
X165119957Y-120268673D01*
X165126551Y-120268500D01*
X165146563Y-120268500D01*
X165149848Y-120268155D01*
X165149861Y-120268154D01*
X165166468Y-120266408D01*
X165173040Y-120265891D01*
X165195972Y-120264689D01*
X165233164Y-120262741D01*
X165233169Y-120262740D01*
X165239758Y-120262395D01*
X165252843Y-120258889D01*
X165272283Y-120255286D01*
X165285747Y-120253871D01*
X165349302Y-120233221D01*
X165355603Y-120231354D01*
X165420164Y-120214055D01*
X165426046Y-120211058D01*
X165432233Y-120207906D01*
X165450494Y-120200342D01*
X165457090Y-120198199D01*
X165457095Y-120198197D01*
X165463376Y-120196156D01*
X165521242Y-120162747D01*
X165527038Y-120159600D01*
X165580696Y-120132260D01*
X165580699Y-120132258D01*
X165586577Y-120129263D01*
X165597096Y-120120744D01*
X165613395Y-120109543D01*
X165619404Y-120106074D01*
X165619408Y-120106071D01*
X165625124Y-120102771D01*
X165674796Y-120058046D01*
X165679812Y-120053762D01*
X165695339Y-120041189D01*
X165709473Y-120027055D01*
X165714248Y-120022523D01*
X165759018Y-119982212D01*
X165759019Y-119982210D01*
X165763921Y-119977797D01*
X165771888Y-119966831D01*
X165784725Y-119951803D01*
X169456905Y-116279624D01*
X169519217Y-116245598D01*
X169590033Y-116250663D01*
X169646868Y-116293210D01*
X169671679Y-116359730D01*
X169672000Y-116368719D01*
X169672000Y-131446000D01*
X169651998Y-131514121D01*
X169598342Y-131560614D01*
X169546000Y-131572000D01*
X132206000Y-131572000D01*
X132137879Y-131551998D01*
X132091386Y-131498342D01*
X132080000Y-131446000D01*
X132080000Y-127132703D01*
X162990743Y-127132703D01*
X163028268Y-127417734D01*
X163104129Y-127695036D01*
X163216923Y-127959476D01*
X163364561Y-128206161D01*
X163544313Y-128430528D01*
X163752851Y-128628423D01*
X163986317Y-128796186D01*
X163990112Y-128798195D01*
X163990113Y-128798196D01*
X164011869Y-128809715D01*
X164240392Y-128930712D01*
X164510373Y-129029511D01*
X164791264Y-129090755D01*
X164819841Y-129093004D01*
X165014282Y-129108307D01*
X165014291Y-129108307D01*
X165016739Y-129108500D01*
X165172271Y-129108500D01*
X165174407Y-129108354D01*
X165174418Y-129108354D01*
X165382548Y-129094165D01*
X165382554Y-129094164D01*
X165386825Y-129093873D01*
X165391020Y-129093004D01*
X165391022Y-129093004D01*
X165527584Y-129064723D01*
X165668342Y-129035574D01*
X165939343Y-128939607D01*
X166194812Y-128807750D01*
X166198313Y-128805289D01*
X166198317Y-128805287D01*
X166312418Y-128725095D01*
X166430023Y-128642441D01*
X166640622Y-128446740D01*
X166822713Y-128224268D01*
X166972927Y-127979142D01*
X167088483Y-127715898D01*
X167167244Y-127439406D01*
X167207751Y-127154784D01*
X167207845Y-127136951D01*
X167209235Y-126871583D01*
X167209235Y-126871576D01*
X167209257Y-126867297D01*
X167171732Y-126582266D01*
X167095871Y-126304964D01*
X166983077Y-126040524D01*
X166835439Y-125793839D01*
X166655687Y-125569472D01*
X166447149Y-125371577D01*
X166213683Y-125203814D01*
X166191843Y-125192250D01*
X166168654Y-125179972D01*
X165959608Y-125069288D01*
X165689627Y-124970489D01*
X165408736Y-124909245D01*
X165377685Y-124906801D01*
X165185718Y-124891693D01*
X165185709Y-124891693D01*
X165183261Y-124891500D01*
X165027729Y-124891500D01*
X165025593Y-124891646D01*
X165025582Y-124891646D01*
X164817452Y-124905835D01*
X164817446Y-124905836D01*
X164813175Y-124906127D01*
X164808980Y-124906996D01*
X164808978Y-124906996D01*
X164672417Y-124935276D01*
X164531658Y-124964426D01*
X164260657Y-125060393D01*
X164005188Y-125192250D01*
X164001687Y-125194711D01*
X164001683Y-125194713D01*
X163991594Y-125201804D01*
X163769977Y-125357559D01*
X163559378Y-125553260D01*
X163377287Y-125775732D01*
X163227073Y-126020858D01*
X163111517Y-126284102D01*
X163032756Y-126560594D01*
X162992249Y-126845216D01*
X162992227Y-126849505D01*
X162992226Y-126849512D01*
X162990765Y-127128417D01*
X162990743Y-127132703D01*
X132080000Y-127132703D01*
X132080000Y-110234500D01*
X132100002Y-110166379D01*
X132153658Y-110119886D01*
X132206000Y-110108500D01*
X138435850Y-110108500D01*
X138503971Y-110128502D01*
X138535681Y-110157625D01*
X138535691Y-110157638D01*
X138538498Y-110161977D01*
X138700186Y-110339670D01*
X138777017Y-110400347D01*
X138884670Y-110485367D01*
X138884675Y-110485370D01*
X138888724Y-110488568D01*
X138893240Y-110491061D01*
X138893243Y-110491063D01*
X139094526Y-110602177D01*
X139094530Y-110602179D01*
X139099050Y-110604674D01*
X139103919Y-110606398D01*
X139103923Y-110606400D01*
X139320640Y-110683144D01*
X139320644Y-110683145D01*
X139325515Y-110684870D01*
X139330608Y-110685777D01*
X139330611Y-110685778D01*
X139556948Y-110726095D01*
X139556954Y-110726096D01*
X139562037Y-110727001D01*
X139649400Y-110728068D01*
X139797093Y-110729873D01*
X139797095Y-110729873D01*
X139802263Y-110729936D01*
X140039744Y-110693596D01*
X140151997Y-110656906D01*
X140263183Y-110620566D01*
X140263189Y-110620563D01*
X140268101Y-110618958D01*
X140272687Y-110616571D01*
X140272691Y-110616569D01*
X140476607Y-110510416D01*
X140481200Y-110508025D01*
X140596170Y-110421703D01*
X140669185Y-110366882D01*
X140669188Y-110366880D01*
X140673320Y-110363777D01*
X140820860Y-110209385D01*
X140835728Y-110193827D01*
X140839301Y-110190088D01*
X140974686Y-109991622D01*
X141075837Y-109773710D01*
X141140040Y-109542202D01*
X141161000Y-109346072D01*
X141161000Y-109111598D01*
X141158965Y-109086837D01*
X141146746Y-108938224D01*
X141146322Y-108933063D01*
X141097653Y-108739304D01*
X141089054Y-108705071D01*
X141089053Y-108705068D01*
X141087794Y-108700056D01*
X141085824Y-108695526D01*
X141082811Y-108624660D01*
X141118622Y-108563357D01*
X141181891Y-108531146D01*
X141205106Y-108528989D01*
X143193000Y-108528989D01*
X143261121Y-108548991D01*
G37*
G04 #@! TD.AperFunction*
G04 #@! TA.AperFunction,Conductor*
G36*
X124136287Y-41168002D02*
G01*
X124180864Y-41217651D01*
X129059192Y-50974307D01*
X129067642Y-50996028D01*
X129069044Y-51000932D01*
X129071512Y-51009565D01*
X129084627Y-51030351D01*
X129093756Y-51044820D01*
X129099892Y-51055706D01*
X129101944Y-51059810D01*
X129104492Y-51063488D01*
X129104494Y-51063491D01*
X129114629Y-51078119D01*
X129117612Y-51082630D01*
X129149160Y-51132631D01*
X129155678Y-51138388D01*
X129156280Y-51139170D01*
X129158174Y-51141301D01*
X129158877Y-51141987D01*
X129163828Y-51149133D01*
X129207422Y-51184415D01*
X129209784Y-51186327D01*
X129213921Y-51189825D01*
X129258228Y-51228956D01*
X129266100Y-51232652D01*
X129266902Y-51233238D01*
X129269303Y-51234742D01*
X129270178Y-51235207D01*
X129276938Y-51240678D01*
X129285220Y-51244140D01*
X129285227Y-51244144D01*
X129331483Y-51263479D01*
X129336438Y-51265676D01*
X129389948Y-51290799D01*
X129398541Y-51292137D01*
X129399473Y-51292473D01*
X129402199Y-51293243D01*
X129403173Y-51293444D01*
X129411196Y-51296798D01*
X129420121Y-51297797D01*
X129420122Y-51297797D01*
X129441026Y-51300136D01*
X129469923Y-51303370D01*
X129475288Y-51304086D01*
X129500423Y-51308000D01*
X129505287Y-51308000D01*
X129507885Y-51308201D01*
X129518292Y-51308782D01*
X129546886Y-51311982D01*
X129546889Y-51311982D01*
X129555808Y-51312980D01*
X129573532Y-51309882D01*
X129595227Y-51308000D01*
X152373912Y-51308000D01*
X152384062Y-51308409D01*
X152431601Y-51312251D01*
X152483750Y-51301470D01*
X152491343Y-51300143D01*
X152544045Y-51292595D01*
X152552220Y-51288878D01*
X152558826Y-51286946D01*
X152565307Y-51284609D01*
X152574102Y-51282791D01*
X152621113Y-51257816D01*
X152628049Y-51254401D01*
X152668338Y-51236083D01*
X152668340Y-51236082D01*
X152676510Y-51232367D01*
X152683312Y-51226506D01*
X152689127Y-51222787D01*
X152694682Y-51218732D01*
X152702608Y-51214521D01*
X152740714Y-51177361D01*
X152746435Y-51172116D01*
X152762552Y-51158229D01*
X152786747Y-51137381D01*
X152814837Y-51094044D01*
X152819768Y-51086977D01*
X156745473Y-45852703D01*
X162990743Y-45852703D01*
X163028268Y-46137734D01*
X163104129Y-46415036D01*
X163216923Y-46679476D01*
X163364561Y-46926161D01*
X163544313Y-47150528D01*
X163752851Y-47348423D01*
X163986317Y-47516186D01*
X163990112Y-47518195D01*
X163990113Y-47518196D01*
X164011869Y-47529715D01*
X164240392Y-47650712D01*
X164510373Y-47749511D01*
X164791264Y-47810755D01*
X164819841Y-47813004D01*
X165014282Y-47828307D01*
X165014291Y-47828307D01*
X165016739Y-47828500D01*
X165172271Y-47828500D01*
X165174407Y-47828354D01*
X165174418Y-47828354D01*
X165382548Y-47814165D01*
X165382554Y-47814164D01*
X165386825Y-47813873D01*
X165391020Y-47813004D01*
X165391022Y-47813004D01*
X165527583Y-47784724D01*
X165668342Y-47755574D01*
X165939343Y-47659607D01*
X166194812Y-47527750D01*
X166198313Y-47525289D01*
X166198317Y-47525287D01*
X166312417Y-47445096D01*
X166430023Y-47362441D01*
X166640622Y-47166740D01*
X166822713Y-46944268D01*
X166972927Y-46699142D01*
X167088483Y-46435898D01*
X167167244Y-46159406D01*
X167207751Y-45874784D01*
X167207845Y-45856951D01*
X167209235Y-45591583D01*
X167209235Y-45591576D01*
X167209257Y-45587297D01*
X167171732Y-45302266D01*
X167095871Y-45024964D01*
X166983077Y-44760524D01*
X166835439Y-44513839D01*
X166655687Y-44289472D01*
X166447149Y-44091577D01*
X166213683Y-43923814D01*
X166191843Y-43912250D01*
X166168654Y-43899972D01*
X165959608Y-43789288D01*
X165689627Y-43690489D01*
X165408736Y-43629245D01*
X165377685Y-43626801D01*
X165185718Y-43611693D01*
X165185709Y-43611693D01*
X165183261Y-43611500D01*
X165027729Y-43611500D01*
X165025593Y-43611646D01*
X165025582Y-43611646D01*
X164817452Y-43625835D01*
X164817446Y-43625836D01*
X164813175Y-43626127D01*
X164808980Y-43626996D01*
X164808978Y-43626996D01*
X164672416Y-43655277D01*
X164531658Y-43684426D01*
X164260657Y-43780393D01*
X164005188Y-43912250D01*
X164001687Y-43914711D01*
X164001683Y-43914713D01*
X163991594Y-43921804D01*
X163769977Y-44077559D01*
X163559378Y-44273260D01*
X163377287Y-44495732D01*
X163227073Y-44740858D01*
X163111517Y-45004102D01*
X163032756Y-45280594D01*
X162992249Y-45565216D01*
X162992227Y-45569505D01*
X162992226Y-45569512D01*
X162990765Y-45848417D01*
X162990743Y-45852703D01*
X156745473Y-45852703D01*
X160236200Y-41198400D01*
X160293074Y-41155905D01*
X160337000Y-41148000D01*
X169546000Y-41148000D01*
X169614121Y-41168002D01*
X169660614Y-41221658D01*
X169672000Y-41274000D01*
X169672000Y-51012128D01*
X169651998Y-51080249D01*
X169598342Y-51126742D01*
X169528068Y-51136846D01*
X169494755Y-51127236D01*
X169479462Y-51120427D01*
X169467723Y-51114445D01*
X169438605Y-51097634D01*
X169438603Y-51097633D01*
X169432887Y-51094333D01*
X169394633Y-51081904D01*
X169382325Y-51077179D01*
X169351622Y-51063509D01*
X169351623Y-51063509D01*
X169345585Y-51060821D01*
X169319928Y-51055367D01*
X169306243Y-51052458D01*
X169293508Y-51049046D01*
X169255258Y-51036618D01*
X169231929Y-51034166D01*
X169215262Y-51032414D01*
X169202238Y-51030351D01*
X169169355Y-51023362D01*
X169169356Y-51023362D01*
X169162896Y-51021989D01*
X164069351Y-51021989D01*
X164049641Y-51020438D01*
X164042785Y-51019352D01*
X164042784Y-51019352D01*
X164036268Y-51018320D01*
X164029680Y-51018665D01*
X164029676Y-51018665D01*
X163969555Y-51021816D01*
X163962961Y-51021989D01*
X163942948Y-51021989D01*
X163939679Y-51022333D01*
X163939672Y-51022333D01*
X163923046Y-51024081D01*
X163916479Y-51024598D01*
X163887225Y-51026131D01*
X163856348Y-51027748D01*
X163856343Y-51027749D01*
X163849754Y-51028094D01*
X163836669Y-51031600D01*
X163817227Y-51035203D01*
X163803764Y-51036618D01*
X163797483Y-51038659D01*
X163797482Y-51038659D01*
X163740229Y-51057261D01*
X163733906Y-51059134D01*
X163675733Y-51074722D01*
X163675726Y-51074725D01*
X163669347Y-51076434D01*
X163663464Y-51079431D01*
X163663460Y-51079433D01*
X163657278Y-51082583D01*
X163639017Y-51090147D01*
X163632421Y-51092290D01*
X163632416Y-51092292D01*
X163626135Y-51094333D01*
X163572953Y-51125038D01*
X163568269Y-51127742D01*
X163562473Y-51130889D01*
X163508815Y-51158229D01*
X163508812Y-51158231D01*
X163502934Y-51161226D01*
X163492920Y-51169336D01*
X163492414Y-51169745D01*
X163476116Y-51180946D01*
X163470107Y-51184415D01*
X163470103Y-51184418D01*
X163464387Y-51187718D01*
X163459483Y-51192133D01*
X163459481Y-51192135D01*
X163414715Y-51232443D01*
X163409705Y-51236722D01*
X163394172Y-51249300D01*
X163380047Y-51263425D01*
X163375263Y-51267966D01*
X163330578Y-51308201D01*
X163325590Y-51312692D01*
X163317623Y-51323658D01*
X163304786Y-51338686D01*
X162698877Y-51944595D01*
X162636565Y-51978621D01*
X162609782Y-51981500D01*
X161661866Y-51981500D01*
X161599684Y-51988255D01*
X161463295Y-52039385D01*
X161346739Y-52126739D01*
X161259385Y-52243295D01*
X161208255Y-52379684D01*
X161201500Y-52441866D01*
X161201500Y-54238134D01*
X161208255Y-54300316D01*
X161259385Y-54436705D01*
X161346739Y-54553261D01*
X161463295Y-54640615D01*
X161471704Y-54643767D01*
X161471705Y-54643768D01*
X161580451Y-54684535D01*
X161637216Y-54727176D01*
X161661916Y-54793738D01*
X161646709Y-54863087D01*
X161627316Y-54889568D01*
X161500629Y-55022138D01*
X161374743Y-55206680D01*
X161327715Y-55307993D01*
X161283328Y-55403618D01*
X161280688Y-55409305D01*
X161220989Y-55624570D01*
X161197251Y-55846695D01*
X161197548Y-55851848D01*
X161197548Y-55851851D01*
X161209719Y-56062939D01*
X161210110Y-56069715D01*
X161211247Y-56074761D01*
X161211248Y-56074767D01*
X161229284Y-56154795D01*
X161259222Y-56287639D01*
X161343266Y-56494616D01*
X161390306Y-56571379D01*
X161457291Y-56680688D01*
X161459987Y-56685088D01*
X161606250Y-56853938D01*
X161625985Y-56870322D01*
X161665620Y-56929223D01*
X161671500Y-56967266D01*
X161671500Y-57332808D01*
X161651498Y-57400929D01*
X161636594Y-57419859D01*
X161629888Y-57426877D01*
X161500629Y-57562138D01*
X161497720Y-57566403D01*
X161497714Y-57566411D01*
X161479838Y-57592617D01*
X161374743Y-57746680D01*
X161280688Y-57949305D01*
X161220989Y-58164570D01*
X161197251Y-58386695D01*
X161197548Y-58391848D01*
X161197548Y-58391851D01*
X161203011Y-58486590D01*
X161210110Y-58609715D01*
X161211247Y-58614761D01*
X161211248Y-58614767D01*
X161231119Y-58702939D01*
X161259222Y-58827639D01*
X161343266Y-59034616D01*
X161392285Y-59114608D01*
X161457291Y-59220688D01*
X161459987Y-59225088D01*
X161606250Y-59393938D01*
X161625985Y-59410322D01*
X161665620Y-59469223D01*
X161671500Y-59507266D01*
X161671500Y-59872808D01*
X161651498Y-59940929D01*
X161636594Y-59959859D01*
X161629888Y-59966877D01*
X161500629Y-60102138D01*
X161374743Y-60286680D01*
X161280688Y-60489305D01*
X161220989Y-60704570D01*
X161197251Y-60926695D01*
X161197548Y-60931848D01*
X161197548Y-60931851D01*
X161204968Y-61060532D01*
X161210110Y-61149715D01*
X161211247Y-61154761D01*
X161211248Y-61154767D01*
X161231119Y-61242939D01*
X161259222Y-61367639D01*
X161320673Y-61518976D01*
X161324000Y-61527168D01*
X161343266Y-61574616D01*
X161390306Y-61651379D01*
X161457291Y-61760688D01*
X161459987Y-61765088D01*
X161606250Y-61933938D01*
X161625985Y-61950322D01*
X161665620Y-62009223D01*
X161671500Y-62047266D01*
X161671500Y-62412808D01*
X161651498Y-62480929D01*
X161636594Y-62499859D01*
X161629888Y-62506877D01*
X161500629Y-62642138D01*
X161374743Y-62826680D01*
X161346195Y-62888182D01*
X161285332Y-63019301D01*
X161280688Y-63029305D01*
X161220989Y-63244570D01*
X161197251Y-63466695D01*
X161197548Y-63471848D01*
X161197548Y-63471851D01*
X161209812Y-63684547D01*
X161210110Y-63689715D01*
X161211247Y-63694761D01*
X161211248Y-63694767D01*
X161224418Y-63753204D01*
X161259222Y-63907639D01*
X161320673Y-64058976D01*
X161324000Y-64067168D01*
X161343266Y-64114616D01*
X161390306Y-64191379D01*
X161457291Y-64300688D01*
X161459987Y-64305088D01*
X161606250Y-64473938D01*
X161625985Y-64490322D01*
X161665620Y-64549223D01*
X161671500Y-64587266D01*
X161671500Y-64952808D01*
X161651498Y-65020929D01*
X161636594Y-65039859D01*
X161629888Y-65046877D01*
X161500629Y-65182138D01*
X161374743Y-65366680D01*
X161280688Y-65569305D01*
X161220989Y-65784570D01*
X161197251Y-66006695D01*
X161197548Y-66011848D01*
X161197548Y-66011851D01*
X161209812Y-66224547D01*
X161210110Y-66229715D01*
X161211247Y-66234761D01*
X161211248Y-66234767D01*
X161231119Y-66322939D01*
X161259222Y-66447639D01*
X161320673Y-66598976D01*
X161324000Y-66607168D01*
X161343266Y-66654616D01*
X161390306Y-66731379D01*
X161457291Y-66840688D01*
X161459987Y-66845088D01*
X161606250Y-67013938D01*
X161625985Y-67030322D01*
X161665620Y-67089223D01*
X161671500Y-67127266D01*
X161671500Y-67492808D01*
X161651498Y-67560929D01*
X161636594Y-67579859D01*
X161629888Y-67586877D01*
X161500629Y-67722138D01*
X161374743Y-67906680D01*
X161280688Y-68109305D01*
X161220989Y-68324570D01*
X161197251Y-68546695D01*
X161197548Y-68551848D01*
X161197548Y-68551851D01*
X161209812Y-68764547D01*
X161210110Y-68769715D01*
X161211247Y-68774761D01*
X161211248Y-68774767D01*
X161231119Y-68862939D01*
X161259222Y-68987639D01*
X161320673Y-69138976D01*
X161324000Y-69147168D01*
X161343266Y-69194616D01*
X161390306Y-69271379D01*
X161457291Y-69380688D01*
X161459987Y-69385088D01*
X161606250Y-69553938D01*
X161625985Y-69570322D01*
X161665620Y-69629223D01*
X161671500Y-69667266D01*
X161671500Y-70032808D01*
X161651498Y-70100929D01*
X161636594Y-70119859D01*
X161629888Y-70126877D01*
X161500629Y-70262138D01*
X161374743Y-70446680D01*
X161280688Y-70649305D01*
X161220989Y-70864570D01*
X161197251Y-71086695D01*
X161197548Y-71091848D01*
X161197548Y-71091851D01*
X161203011Y-71186590D01*
X161210110Y-71309715D01*
X161211247Y-71314761D01*
X161211248Y-71314767D01*
X161231119Y-71402939D01*
X161259222Y-71527639D01*
X161343266Y-71734616D01*
X161390306Y-71811379D01*
X161457291Y-71920688D01*
X161459987Y-71925088D01*
X161606250Y-72093938D01*
X161625985Y-72110322D01*
X161665620Y-72169223D01*
X161671500Y-72207266D01*
X161671500Y-72572808D01*
X161651498Y-72640929D01*
X161636594Y-72659859D01*
X161629888Y-72666877D01*
X161500629Y-72802138D01*
X161374743Y-72986680D01*
X161280688Y-73189305D01*
X161220989Y-73404570D01*
X161197251Y-73626695D01*
X161197548Y-73631848D01*
X161197548Y-73631851D01*
X161205117Y-73763118D01*
X161210110Y-73849715D01*
X161211247Y-73854761D01*
X161211248Y-73854767D01*
X161231119Y-73942939D01*
X161259222Y-74067639D01*
X161343266Y-74274616D01*
X161390306Y-74351379D01*
X161457291Y-74460688D01*
X161459987Y-74465088D01*
X161606250Y-74633938D01*
X161625985Y-74650322D01*
X161665620Y-74709223D01*
X161671500Y-74747266D01*
X161671500Y-75112808D01*
X161651498Y-75180929D01*
X161636594Y-75199859D01*
X161629888Y-75206877D01*
X161500629Y-75342138D01*
X161374743Y-75526680D01*
X161280688Y-75729305D01*
X161220989Y-75944570D01*
X161197251Y-76166695D01*
X161197548Y-76171848D01*
X161197548Y-76171851D01*
X161205117Y-76303118D01*
X161210110Y-76389715D01*
X161211247Y-76394761D01*
X161211248Y-76394767D01*
X161231119Y-76482939D01*
X161259222Y-76607639D01*
X161343266Y-76814616D01*
X161390306Y-76891379D01*
X161457291Y-77000688D01*
X161459987Y-77005088D01*
X161606250Y-77173938D01*
X161625985Y-77190322D01*
X161665620Y-77249223D01*
X161671500Y-77287266D01*
X161671500Y-77652808D01*
X161651498Y-77720929D01*
X161636594Y-77739859D01*
X161629888Y-77746877D01*
X161500629Y-77882138D01*
X161374743Y-78066680D01*
X161280688Y-78269305D01*
X161220989Y-78484570D01*
X161197251Y-78706695D01*
X161197548Y-78711848D01*
X161197548Y-78711851D01*
X161205117Y-78843118D01*
X161210110Y-78929715D01*
X161211247Y-78934761D01*
X161211248Y-78934767D01*
X161231119Y-79022939D01*
X161259222Y-79147639D01*
X161343266Y-79354616D01*
X161390306Y-79431379D01*
X161457291Y-79540688D01*
X161459987Y-79545088D01*
X161606250Y-79713938D01*
X161625985Y-79730322D01*
X161665620Y-79789223D01*
X161671500Y-79827266D01*
X161671500Y-80192808D01*
X161651498Y-80260929D01*
X161636594Y-80279859D01*
X161629888Y-80286877D01*
X161500629Y-80422138D01*
X161374743Y-80606680D01*
X161280688Y-80809305D01*
X161220989Y-81024570D01*
X161197251Y-81246695D01*
X161197548Y-81251848D01*
X161197548Y-81251851D01*
X161205117Y-81383118D01*
X161210110Y-81469715D01*
X161211247Y-81474761D01*
X161211248Y-81474767D01*
X161231119Y-81562939D01*
X161259222Y-81687639D01*
X161343266Y-81894616D01*
X161390306Y-81971379D01*
X161457291Y-82080688D01*
X161459987Y-82085088D01*
X161606250Y-82253938D01*
X161625985Y-82270322D01*
X161665620Y-82329223D01*
X161671500Y-82367266D01*
X161671500Y-82732808D01*
X161651498Y-82800929D01*
X161636594Y-82819859D01*
X161629888Y-82826877D01*
X161500629Y-82962138D01*
X161374743Y-83146680D01*
X161280688Y-83349305D01*
X161220989Y-83564570D01*
X161197251Y-83786695D01*
X161197548Y-83791848D01*
X161197548Y-83791851D01*
X161203011Y-83886590D01*
X161210110Y-84009715D01*
X161211247Y-84014761D01*
X161211248Y-84014767D01*
X161231119Y-84102939D01*
X161259222Y-84227639D01*
X161343266Y-84434616D01*
X161390306Y-84511379D01*
X161457291Y-84620688D01*
X161459987Y-84625088D01*
X161606250Y-84793938D01*
X161625985Y-84810322D01*
X161665620Y-84869223D01*
X161671500Y-84907266D01*
X161671500Y-85272808D01*
X161651498Y-85340929D01*
X161636594Y-85359859D01*
X161528633Y-85472834D01*
X161500629Y-85502138D01*
X161497720Y-85506403D01*
X161497714Y-85506411D01*
X161489149Y-85518967D01*
X161374743Y-85686680D01*
X161327716Y-85787992D01*
X161297218Y-85853695D01*
X161280688Y-85889305D01*
X161220989Y-86104570D01*
X161197251Y-86326695D01*
X161197548Y-86331848D01*
X161197548Y-86331851D01*
X161209812Y-86544547D01*
X161210110Y-86549715D01*
X161211247Y-86554761D01*
X161211248Y-86554767D01*
X161231119Y-86642939D01*
X161259222Y-86767639D01*
X161343266Y-86974616D01*
X161390306Y-87051379D01*
X161457291Y-87160688D01*
X161459987Y-87165088D01*
X161606250Y-87333938D01*
X161625985Y-87350322D01*
X161665620Y-87409223D01*
X161671500Y-87447266D01*
X161671500Y-87812808D01*
X161651498Y-87880929D01*
X161636594Y-87899859D01*
X161629888Y-87906877D01*
X161500629Y-88042138D01*
X161374743Y-88226680D01*
X161280688Y-88429305D01*
X161220989Y-88644570D01*
X161197251Y-88866695D01*
X161197548Y-88871848D01*
X161197548Y-88871851D01*
X161205117Y-89003118D01*
X161210110Y-89089715D01*
X161211247Y-89094761D01*
X161211248Y-89094767D01*
X161231119Y-89182939D01*
X161259222Y-89307639D01*
X161343266Y-89514616D01*
X161390306Y-89591379D01*
X161457291Y-89700688D01*
X161459987Y-89705088D01*
X161606250Y-89873938D01*
X161625985Y-89890322D01*
X161665620Y-89949223D01*
X161671500Y-89987266D01*
X161671500Y-90352808D01*
X161651498Y-90420929D01*
X161636594Y-90439859D01*
X161629888Y-90446877D01*
X161500629Y-90582138D01*
X161374743Y-90766680D01*
X161280688Y-90969305D01*
X161220989Y-91184570D01*
X161197251Y-91406695D01*
X161197548Y-91411848D01*
X161197548Y-91411852D01*
X161201605Y-91482215D01*
X161185557Y-91551374D01*
X161164909Y-91578562D01*
X159709195Y-93034277D01*
X159646883Y-93068302D01*
X159620100Y-93071182D01*
X158494500Y-93071182D01*
X158426379Y-93051180D01*
X158379886Y-92997524D01*
X158368500Y-92945182D01*
X158368500Y-63579839D01*
X158370051Y-63560128D01*
X158371137Y-63553272D01*
X158372169Y-63546756D01*
X158371646Y-63536763D01*
X158368673Y-63480043D01*
X158368500Y-63473449D01*
X158368500Y-63453437D01*
X158368155Y-63450152D01*
X158368154Y-63450139D01*
X158366408Y-63433532D01*
X158365890Y-63426949D01*
X158365890Y-63426936D01*
X158362395Y-63360242D01*
X158358889Y-63347157D01*
X158355286Y-63327716D01*
X158354561Y-63320818D01*
X158353871Y-63314253D01*
X158333221Y-63250698D01*
X158331352Y-63244390D01*
X158315762Y-63186208D01*
X158314055Y-63179836D01*
X158307906Y-63167767D01*
X158300342Y-63149506D01*
X158298199Y-63142910D01*
X158298197Y-63142905D01*
X158296156Y-63136624D01*
X158262747Y-63078758D01*
X158259600Y-63072962D01*
X158232258Y-63019301D01*
X158229263Y-63013423D01*
X158225114Y-63008299D01*
X158225110Y-63008293D01*
X158220738Y-63002894D01*
X158209546Y-62986609D01*
X158206074Y-62980597D01*
X158202771Y-62974876D01*
X158158058Y-62925218D01*
X158153776Y-62920204D01*
X158143266Y-62907225D01*
X158141189Y-62904660D01*
X158127055Y-62890526D01*
X158122514Y-62885742D01*
X158082212Y-62840982D01*
X158082210Y-62840981D01*
X158077797Y-62836079D01*
X158066840Y-62828119D01*
X158051807Y-62815278D01*
X157213291Y-61976762D01*
X156338799Y-61102271D01*
X156304774Y-61039959D01*
X156301932Y-61010098D01*
X156303074Y-60963365D01*
X156303074Y-60963361D01*
X156303156Y-60960000D01*
X156284852Y-60737361D01*
X156230431Y-60520702D01*
X156141354Y-60315840D01*
X156020014Y-60128277D01*
X155869670Y-59963051D01*
X155865619Y-59959852D01*
X155865615Y-59959848D01*
X155698414Y-59827800D01*
X155698410Y-59827798D01*
X155694359Y-59824598D01*
X155498789Y-59716638D01*
X155493920Y-59714914D01*
X155493916Y-59714912D01*
X155293087Y-59643795D01*
X155293083Y-59643794D01*
X155288212Y-59642069D01*
X155283119Y-59641162D01*
X155283116Y-59641161D01*
X155073373Y-59603800D01*
X155073367Y-59603799D01*
X155068284Y-59602894D01*
X154994452Y-59601992D01*
X154850081Y-59600228D01*
X154850079Y-59600228D01*
X154844911Y-59600165D01*
X154624091Y-59633955D01*
X154411756Y-59703357D01*
X154381443Y-59719137D01*
X154307017Y-59757881D01*
X154213607Y-59806507D01*
X154209474Y-59809610D01*
X154209471Y-59809612D01*
X154125302Y-59872808D01*
X154034965Y-59940635D01*
X153880629Y-60102138D01*
X153877720Y-60106403D01*
X153877714Y-60106411D01*
X153765095Y-60271504D01*
X153710184Y-60316507D01*
X153661007Y-60326500D01*
X153144500Y-60326500D01*
X153076379Y-60306498D01*
X153029886Y-60252842D01*
X153018500Y-60200500D01*
X153018500Y-60061866D01*
X153011745Y-59999684D01*
X152960615Y-59863295D01*
X152873261Y-59746739D01*
X152756705Y-59659385D01*
X152620316Y-59608255D01*
X152558134Y-59601500D01*
X149874985Y-59601500D01*
X149873446Y-59601491D01*
X149770081Y-59600228D01*
X149770079Y-59600228D01*
X149764911Y-59600165D01*
X149759797Y-59600948D01*
X149756289Y-59601193D01*
X149747496Y-59601500D01*
X148961866Y-59601500D01*
X148899684Y-59608255D01*
X148763295Y-59659385D01*
X148646739Y-59746739D01*
X148559385Y-59863295D01*
X148508255Y-59999684D01*
X148501500Y-60061866D01*
X148501500Y-60880219D01*
X148500787Y-60893607D01*
X148497251Y-60926695D01*
X148497548Y-60931848D01*
X148497548Y-60931851D01*
X148501291Y-60996763D01*
X148501500Y-61004016D01*
X148501500Y-61858134D01*
X148508255Y-61920316D01*
X148559385Y-62056705D01*
X148613499Y-62128909D01*
X148632630Y-62154435D01*
X148657478Y-62220941D01*
X148642425Y-62290324D01*
X148632632Y-62305562D01*
X148559385Y-62403295D01*
X148508255Y-62539684D01*
X148501500Y-62601866D01*
X148501500Y-63420219D01*
X148500787Y-63433607D01*
X148497251Y-63466695D01*
X148497548Y-63471848D01*
X148497548Y-63471851D01*
X148501291Y-63536763D01*
X148501500Y-63544016D01*
X148501500Y-64398134D01*
X148508255Y-64460316D01*
X148559385Y-64596705D01*
X148613499Y-64668909D01*
X148632630Y-64694435D01*
X148657478Y-64760941D01*
X148642425Y-64830324D01*
X148632632Y-64845562D01*
X148559385Y-64943295D01*
X148508255Y-65079684D01*
X148501500Y-65141866D01*
X148501500Y-65960219D01*
X148500787Y-65973607D01*
X148497251Y-66006695D01*
X148497548Y-66011848D01*
X148497548Y-66011851D01*
X148501291Y-66076763D01*
X148501500Y-66084016D01*
X148501500Y-66938134D01*
X148508255Y-67000316D01*
X148559385Y-67136705D01*
X148613499Y-67208909D01*
X148632630Y-67234435D01*
X148657478Y-67300941D01*
X148642425Y-67370324D01*
X148632632Y-67385562D01*
X148559385Y-67483295D01*
X148508255Y-67619684D01*
X148501500Y-67681866D01*
X148501500Y-68500219D01*
X148500787Y-68513607D01*
X148497251Y-68546695D01*
X148497548Y-68551848D01*
X148497548Y-68551851D01*
X148501291Y-68616763D01*
X148501500Y-68624016D01*
X148501500Y-69478134D01*
X148508255Y-69540316D01*
X148559385Y-69676705D01*
X148613499Y-69748909D01*
X148632630Y-69774435D01*
X148657478Y-69840941D01*
X148642425Y-69910324D01*
X148632632Y-69925562D01*
X148559385Y-70023295D01*
X148508255Y-70159684D01*
X148501500Y-70221866D01*
X148501500Y-72018134D01*
X148508255Y-72080316D01*
X148559385Y-72216705D01*
X148613499Y-72288909D01*
X148632630Y-72314435D01*
X148657478Y-72380941D01*
X148642425Y-72450324D01*
X148632632Y-72465562D01*
X148559385Y-72563295D01*
X148508255Y-72699684D01*
X148501500Y-72761866D01*
X148501500Y-73580219D01*
X148500787Y-73593607D01*
X148497251Y-73626695D01*
X148497548Y-73631848D01*
X148497548Y-73631851D01*
X148501291Y-73696763D01*
X148501500Y-73704016D01*
X148501500Y-74558134D01*
X148508255Y-74620316D01*
X148559385Y-74756705D01*
X148613499Y-74828909D01*
X148632630Y-74854435D01*
X148657478Y-74920941D01*
X148642425Y-74990324D01*
X148632632Y-75005562D01*
X148559385Y-75103295D01*
X148508255Y-75239684D01*
X148501500Y-75301866D01*
X148501500Y-76120219D01*
X148500787Y-76133607D01*
X148497251Y-76166695D01*
X148497548Y-76171848D01*
X148497548Y-76171851D01*
X148501291Y-76236763D01*
X148501500Y-76244016D01*
X148501500Y-77098134D01*
X148508255Y-77160316D01*
X148559385Y-77296705D01*
X148613499Y-77368909D01*
X148632630Y-77394435D01*
X148657478Y-77460941D01*
X148642425Y-77530324D01*
X148632632Y-77545562D01*
X148559385Y-77643295D01*
X148508255Y-77779684D01*
X148501500Y-77841866D01*
X148501500Y-78660219D01*
X148500787Y-78673607D01*
X148497251Y-78706695D01*
X148497548Y-78711848D01*
X148497548Y-78711851D01*
X148501291Y-78776763D01*
X148501500Y-78784016D01*
X148501500Y-79638134D01*
X148508255Y-79700316D01*
X148559385Y-79836705D01*
X148613499Y-79908909D01*
X148632630Y-79934435D01*
X148657478Y-80000941D01*
X148642425Y-80070324D01*
X148632632Y-80085562D01*
X148559385Y-80183295D01*
X148508255Y-80319684D01*
X148501500Y-80381866D01*
X148501500Y-81200219D01*
X148500787Y-81213607D01*
X148497251Y-81246695D01*
X148497548Y-81251848D01*
X148497548Y-81251851D01*
X148501291Y-81316763D01*
X148501500Y-81324016D01*
X148501500Y-82178134D01*
X148508255Y-82240316D01*
X148559385Y-82376705D01*
X148613499Y-82448909D01*
X148632630Y-82474435D01*
X148657478Y-82540941D01*
X148642425Y-82610324D01*
X148632632Y-82625562D01*
X148559385Y-82723295D01*
X148508255Y-82859684D01*
X148501500Y-82921866D01*
X148501500Y-84718134D01*
X148508255Y-84780316D01*
X148559385Y-84916705D01*
X148613499Y-84988909D01*
X148632630Y-85014435D01*
X148657478Y-85080941D01*
X148642425Y-85150324D01*
X148632632Y-85165562D01*
X148559385Y-85263295D01*
X148508255Y-85399684D01*
X148501500Y-85461866D01*
X148501500Y-86280219D01*
X148500787Y-86293607D01*
X148497251Y-86326695D01*
X148497548Y-86331848D01*
X148497548Y-86331851D01*
X148501291Y-86396763D01*
X148501500Y-86404016D01*
X148501500Y-87258134D01*
X148508255Y-87320316D01*
X148559385Y-87456705D01*
X148614988Y-87530896D01*
X148632630Y-87554435D01*
X148657478Y-87620941D01*
X148642425Y-87690324D01*
X148632632Y-87705562D01*
X148559385Y-87803295D01*
X148508255Y-87939684D01*
X148501500Y-88001866D01*
X148501500Y-88820219D01*
X148500787Y-88833607D01*
X148497251Y-88866695D01*
X148497548Y-88871848D01*
X148497548Y-88871851D01*
X148501291Y-88936763D01*
X148501500Y-88944016D01*
X148501500Y-89798134D01*
X148508255Y-89860316D01*
X148559385Y-89996705D01*
X148613499Y-90068909D01*
X148632630Y-90094435D01*
X148657478Y-90160941D01*
X148642425Y-90230324D01*
X148632632Y-90245562D01*
X148559385Y-90343295D01*
X148508255Y-90479684D01*
X148501500Y-90541866D01*
X148501500Y-91360219D01*
X148500787Y-91373607D01*
X148497251Y-91406695D01*
X148497548Y-91411848D01*
X148497548Y-91411851D01*
X148501291Y-91476763D01*
X148501500Y-91484016D01*
X148501500Y-92338134D01*
X148508255Y-92400316D01*
X148559385Y-92536705D01*
X148611958Y-92606853D01*
X148632630Y-92634435D01*
X148657478Y-92700941D01*
X148642425Y-92770324D01*
X148632632Y-92785562D01*
X148559385Y-92883295D01*
X148508255Y-93019684D01*
X148501500Y-93081866D01*
X148501500Y-93900219D01*
X148500787Y-93913607D01*
X148497251Y-93946695D01*
X148497548Y-93951848D01*
X148497548Y-93951851D01*
X148501291Y-94016763D01*
X148501500Y-94024016D01*
X148501500Y-94878134D01*
X148508255Y-94940316D01*
X148559385Y-95076705D01*
X148623212Y-95161869D01*
X148632630Y-95174435D01*
X148657478Y-95240941D01*
X148642425Y-95310324D01*
X148632632Y-95325562D01*
X148559385Y-95423295D01*
X148508255Y-95559684D01*
X148501500Y-95621866D01*
X148501500Y-97187625D01*
X148481498Y-97255746D01*
X148428298Y-97301844D01*
X148428325Y-97301901D01*
X148428122Y-97301997D01*
X148427842Y-97302239D01*
X148426480Y-97302769D01*
X148421155Y-97305275D01*
X148413614Y-97307725D01*
X148406918Y-97311975D01*
X148406917Y-97311975D01*
X148406658Y-97312139D01*
X148385531Y-97322904D01*
X148385243Y-97323018D01*
X148385238Y-97323021D01*
X148377872Y-97325937D01*
X148371464Y-97330593D01*
X148371458Y-97330596D01*
X148332437Y-97358947D01*
X148325900Y-97363390D01*
X148278471Y-97393489D01*
X148273045Y-97399267D01*
X148273044Y-97399268D01*
X148272830Y-97399496D01*
X148255043Y-97415177D01*
X148254798Y-97415355D01*
X148254796Y-97415357D01*
X148248382Y-97420017D01*
X148243328Y-97426126D01*
X148243327Y-97426127D01*
X148212586Y-97463285D01*
X148207355Y-97469219D01*
X148174331Y-97504387D01*
X148174329Y-97504390D01*
X148168903Y-97510168D01*
X148164934Y-97517388D01*
X148151608Y-97536995D01*
X148151409Y-97537235D01*
X148151405Y-97537242D01*
X148146356Y-97543345D01*
X148142982Y-97550516D01*
X148122442Y-97594165D01*
X148118860Y-97601197D01*
X148091794Y-97650429D01*
X148089824Y-97658104D01*
X148089821Y-97658110D01*
X148089745Y-97658408D01*
X148081713Y-97680717D01*
X148081583Y-97680992D01*
X148081580Y-97681000D01*
X148078206Y-97688171D01*
X148067684Y-97743332D01*
X148065960Y-97751047D01*
X148051989Y-97805459D01*
X148051989Y-97813696D01*
X148049757Y-97837305D01*
X148048214Y-97845395D01*
X148048712Y-97853306D01*
X148051740Y-97901440D01*
X148051989Y-97909351D01*
X148051989Y-100346722D01*
X148051462Y-100357905D01*
X148049787Y-100365398D01*
X148050036Y-100373324D01*
X148050036Y-100373325D01*
X148051927Y-100433475D01*
X148051989Y-100437434D01*
X148051989Y-100465345D01*
X148052486Y-100469279D01*
X148052486Y-100469280D01*
X148052494Y-100469345D01*
X148053427Y-100481182D01*
X148054816Y-100525378D01*
X148059506Y-100541520D01*
X148060467Y-100544828D01*
X148064476Y-100564189D01*
X148067015Y-100584286D01*
X148069934Y-100591657D01*
X148069934Y-100591659D01*
X148083293Y-100625401D01*
X148087138Y-100636631D01*
X148099471Y-100679082D01*
X148103504Y-100685901D01*
X148103506Y-100685906D01*
X148109782Y-100696517D01*
X148118477Y-100714265D01*
X148125937Y-100733106D01*
X148130599Y-100739522D01*
X148130599Y-100739523D01*
X148151925Y-100768876D01*
X148158441Y-100778796D01*
X148180947Y-100816851D01*
X148195268Y-100831172D01*
X148208108Y-100846205D01*
X148220017Y-100862596D01*
X148226123Y-100867647D01*
X148254094Y-100890787D01*
X148262873Y-100898777D01*
X148464595Y-101100499D01*
X148498621Y-101162811D01*
X148501500Y-101189594D01*
X148501500Y-101520219D01*
X148500787Y-101533607D01*
X148497251Y-101566695D01*
X148497548Y-101571848D01*
X148497548Y-101571851D01*
X148501291Y-101636763D01*
X148501500Y-101644016D01*
X148501500Y-102498134D01*
X148508255Y-102560316D01*
X148559385Y-102696705D01*
X148646739Y-102813261D01*
X148763295Y-102900615D01*
X148899684Y-102951745D01*
X148961866Y-102958500D01*
X149830826Y-102958500D01*
X149835443Y-102958585D01*
X149916673Y-102961564D01*
X149916677Y-102961564D01*
X149921837Y-102961753D01*
X149926957Y-102961097D01*
X149926959Y-102961097D01*
X149939261Y-102959521D01*
X149955271Y-102958500D01*
X152558134Y-102958500D01*
X152620316Y-102951745D01*
X152756705Y-102900615D01*
X152873261Y-102813261D01*
X152960615Y-102696705D01*
X153011745Y-102560316D01*
X153018500Y-102498134D01*
X153018500Y-102359500D01*
X153038502Y-102291379D01*
X153092158Y-102244886D01*
X153144500Y-102233500D01*
X153664274Y-102233500D01*
X153732395Y-102253502D01*
X153771707Y-102293665D01*
X153839987Y-102405088D01*
X153986250Y-102573938D01*
X154158126Y-102716632D01*
X154351000Y-102829338D01*
X154559692Y-102909030D01*
X154564760Y-102910061D01*
X154564763Y-102910062D01*
X154659523Y-102929341D01*
X154778597Y-102953567D01*
X154783772Y-102953757D01*
X154783774Y-102953757D01*
X154996673Y-102961564D01*
X154996677Y-102961564D01*
X155001837Y-102961753D01*
X155006957Y-102961097D01*
X155006959Y-102961097D01*
X155218288Y-102934025D01*
X155218289Y-102934025D01*
X155223416Y-102933368D01*
X155236839Y-102929341D01*
X155432429Y-102870661D01*
X155432434Y-102870659D01*
X155437384Y-102869174D01*
X155637994Y-102770896D01*
X155819860Y-102641173D01*
X155844357Y-102616762D01*
X155965892Y-102495650D01*
X155978096Y-102483489D01*
X156037594Y-102400689D01*
X156105435Y-102306277D01*
X156108453Y-102302077D01*
X156112145Y-102294608D01*
X156205136Y-102106453D01*
X156205137Y-102106451D01*
X156207430Y-102101811D01*
X156261747Y-101923033D01*
X156270865Y-101893023D01*
X156270865Y-101893021D01*
X156272370Y-101888069D01*
X156301529Y-101666590D01*
X156303156Y-101600000D01*
X156284852Y-101377361D01*
X156230431Y-101160702D01*
X156141354Y-100955840D01*
X156051438Y-100816851D01*
X156022822Y-100772617D01*
X156022820Y-100772614D01*
X156020014Y-100768277D01*
X155869670Y-100603051D01*
X155865619Y-100599852D01*
X155865615Y-100599848D01*
X155698414Y-100467800D01*
X155698410Y-100467798D01*
X155694359Y-100464598D01*
X155653053Y-100441796D01*
X155603084Y-100391364D01*
X155588312Y-100321921D01*
X155613428Y-100255516D01*
X155640780Y-100228909D01*
X155684603Y-100197650D01*
X155819860Y-100101173D01*
X155844357Y-100076762D01*
X155963400Y-99958134D01*
X155978096Y-99943489D01*
X156037594Y-99860689D01*
X156105435Y-99766277D01*
X156108453Y-99762077D01*
X156110746Y-99757437D01*
X156112446Y-99754608D01*
X156164674Y-99706518D01*
X156220451Y-99693500D01*
X159941233Y-99693500D01*
X159952416Y-99694027D01*
X159959909Y-99695702D01*
X159967835Y-99695453D01*
X159967836Y-99695453D01*
X160027986Y-99693562D01*
X160031945Y-99693500D01*
X160059856Y-99693500D01*
X160063791Y-99693003D01*
X160063856Y-99692995D01*
X160075693Y-99692062D01*
X160107951Y-99691048D01*
X160111970Y-99690922D01*
X160119889Y-99690673D01*
X160139343Y-99685021D01*
X160158700Y-99681013D01*
X160170930Y-99679468D01*
X160170931Y-99679468D01*
X160178797Y-99678474D01*
X160186168Y-99675555D01*
X160186170Y-99675555D01*
X160219912Y-99662196D01*
X160231142Y-99658351D01*
X160265983Y-99648229D01*
X160265984Y-99648229D01*
X160273593Y-99646018D01*
X160280412Y-99641985D01*
X160280417Y-99641983D01*
X160291028Y-99635707D01*
X160308776Y-99627012D01*
X160327617Y-99619552D01*
X160363387Y-99593564D01*
X160373307Y-99587048D01*
X160404535Y-99568580D01*
X160404538Y-99568578D01*
X160411362Y-99564542D01*
X160425683Y-99550221D01*
X160440717Y-99537380D01*
X160450694Y-99530131D01*
X160457107Y-99525472D01*
X160485298Y-99491395D01*
X160493288Y-99482616D01*
X167184549Y-92791355D01*
X167246861Y-92757329D01*
X167298762Y-92756979D01*
X167478597Y-92793567D01*
X167483772Y-92793757D01*
X167483774Y-92793757D01*
X167696673Y-92801564D01*
X167696677Y-92801564D01*
X167701837Y-92801753D01*
X167706957Y-92801097D01*
X167706959Y-92801097D01*
X167918288Y-92774025D01*
X167918289Y-92774025D01*
X167923416Y-92773368D01*
X167928373Y-92771881D01*
X167928377Y-92771880D01*
X168018803Y-92744751D01*
X168089798Y-92744333D01*
X168149749Y-92782365D01*
X168179621Y-92846772D01*
X168181011Y-92865436D01*
X168181011Y-105648467D01*
X168161009Y-105716588D01*
X168107353Y-105763081D01*
X168055011Y-105774467D01*
X155343185Y-105774467D01*
X155275064Y-105754465D01*
X155254090Y-105737562D01*
X154665205Y-105148677D01*
X154652368Y-105133649D01*
X154644401Y-105122683D01*
X154594728Y-105077957D01*
X154589944Y-105073416D01*
X154575819Y-105059291D01*
X154560286Y-105046713D01*
X154555276Y-105042434D01*
X154510510Y-105002126D01*
X154510508Y-105002124D01*
X154505604Y-104997709D01*
X154499888Y-104994409D01*
X154499884Y-104994406D01*
X154493875Y-104990937D01*
X154477577Y-104979736D01*
X154477071Y-104979327D01*
X154467057Y-104971217D01*
X154461179Y-104968222D01*
X154461176Y-104968220D01*
X154407518Y-104940880D01*
X154401722Y-104937733D01*
X154398033Y-104935603D01*
X154343856Y-104904324D01*
X154337575Y-104902283D01*
X154337570Y-104902281D01*
X154330974Y-104900138D01*
X154312713Y-104892574D01*
X154306526Y-104889422D01*
X154300644Y-104886425D01*
X154236083Y-104869126D01*
X154229782Y-104867259D01*
X154166227Y-104846609D01*
X154152763Y-104845194D01*
X154133323Y-104841591D01*
X154120238Y-104838085D01*
X154113649Y-104837740D01*
X154113644Y-104837739D01*
X154076452Y-104835791D01*
X154053520Y-104834589D01*
X154046948Y-104834072D01*
X154030341Y-104832326D01*
X154030328Y-104832325D01*
X154027043Y-104831980D01*
X154007031Y-104831980D01*
X154000437Y-104831807D01*
X153940315Y-104828656D01*
X153940311Y-104828656D01*
X153933723Y-104828311D01*
X153927207Y-104829343D01*
X153920351Y-104830429D01*
X153900640Y-104831980D01*
X150184710Y-104831980D01*
X150116589Y-104811978D01*
X150095615Y-104795075D01*
X147285885Y-101985345D01*
X147251859Y-101923033D01*
X147248980Y-101896250D01*
X147248980Y-57259738D01*
X147268982Y-57191617D01*
X147285885Y-57170643D01*
X148286405Y-56170123D01*
X148348717Y-56136097D01*
X148419532Y-56141162D01*
X148476368Y-56183709D01*
X148501179Y-56250229D01*
X148501500Y-56259218D01*
X148501500Y-56778134D01*
X148508255Y-56840316D01*
X148559385Y-56976705D01*
X148646739Y-57093261D01*
X148763295Y-57180615D01*
X148899684Y-57231745D01*
X148961866Y-57238500D01*
X149830826Y-57238500D01*
X149835443Y-57238585D01*
X149916673Y-57241564D01*
X149916677Y-57241564D01*
X149921837Y-57241753D01*
X149926957Y-57241097D01*
X149926959Y-57241097D01*
X149939261Y-57239521D01*
X149955271Y-57238500D01*
X152558134Y-57238500D01*
X152620316Y-57231745D01*
X152756705Y-57180615D01*
X152873261Y-57093261D01*
X152960615Y-56976705D01*
X153011745Y-56840316D01*
X153018500Y-56778134D01*
X153018500Y-56639500D01*
X153038502Y-56571379D01*
X153092158Y-56524886D01*
X153144500Y-56513500D01*
X153664274Y-56513500D01*
X153732395Y-56533502D01*
X153771707Y-56573665D01*
X153839987Y-56685088D01*
X153986250Y-56853938D01*
X154158126Y-56996632D01*
X154351000Y-57109338D01*
X154559692Y-57189030D01*
X154564760Y-57190061D01*
X154564763Y-57190062D01*
X154646734Y-57206739D01*
X154778597Y-57233567D01*
X154783772Y-57233757D01*
X154783774Y-57233757D01*
X154996673Y-57241564D01*
X154996677Y-57241564D01*
X155001837Y-57241753D01*
X155006957Y-57241097D01*
X155006959Y-57241097D01*
X155218288Y-57214025D01*
X155218289Y-57214025D01*
X155223416Y-57213368D01*
X155242815Y-57207548D01*
X155432429Y-57150661D01*
X155432434Y-57150659D01*
X155437384Y-57149174D01*
X155637994Y-57050896D01*
X155819860Y-56921173D01*
X155841460Y-56899649D01*
X155963400Y-56778134D01*
X155978096Y-56763489D01*
X156013734Y-56713894D01*
X156105435Y-56586277D01*
X156108453Y-56582077D01*
X156112145Y-56574608D01*
X156205136Y-56386453D01*
X156205137Y-56386451D01*
X156207430Y-56381811D01*
X156272370Y-56168069D01*
X156301529Y-55946590D01*
X156303156Y-55880000D01*
X156284852Y-55657361D01*
X156230431Y-55440702D01*
X156141354Y-55235840D01*
X156020014Y-55048277D01*
X156016532Y-55044450D01*
X155872798Y-54886488D01*
X155841746Y-54822642D01*
X155850141Y-54752143D01*
X155895317Y-54697375D01*
X155921761Y-54683706D01*
X156028297Y-54643767D01*
X156036705Y-54640615D01*
X156153261Y-54553261D01*
X156240615Y-54436705D01*
X156291745Y-54300316D01*
X156298500Y-54238134D01*
X156298500Y-52441866D01*
X156291745Y-52379684D01*
X156240615Y-52243295D01*
X156153261Y-52126739D01*
X156036705Y-52039385D01*
X155900316Y-51988255D01*
X155838134Y-51981500D01*
X154041866Y-51981500D01*
X153979684Y-51988255D01*
X153843295Y-52039385D01*
X153726739Y-52126739D01*
X153639385Y-52243295D01*
X153636233Y-52251703D01*
X153590112Y-52374730D01*
X153547470Y-52431494D01*
X153480909Y-52456194D01*
X153472130Y-52456500D01*
X153127870Y-52456500D01*
X153059749Y-52436498D01*
X153013256Y-52382842D01*
X153009888Y-52374730D01*
X152963767Y-52251703D01*
X152960615Y-52243295D01*
X152873261Y-52126739D01*
X152756705Y-52039385D01*
X152620316Y-51988255D01*
X152558134Y-51981500D01*
X149874985Y-51981500D01*
X149873446Y-51981491D01*
X149770081Y-51980228D01*
X149770079Y-51980228D01*
X149764911Y-51980165D01*
X149759797Y-51980948D01*
X149756289Y-51981193D01*
X149747496Y-51981500D01*
X148961866Y-51981500D01*
X148899684Y-51988255D01*
X148763295Y-52039385D01*
X148646739Y-52126739D01*
X148559385Y-52243295D01*
X148508255Y-52379684D01*
X148501500Y-52441866D01*
X148501500Y-53260219D01*
X148500787Y-53273607D01*
X148497251Y-53306695D01*
X148497548Y-53311848D01*
X148497548Y-53311851D01*
X148501291Y-53376763D01*
X148501500Y-53384016D01*
X148501500Y-53389781D01*
X148481498Y-53457902D01*
X148464595Y-53478876D01*
X145788677Y-56154795D01*
X145773649Y-56167632D01*
X145762683Y-56175599D01*
X145758270Y-56180501D01*
X145758268Y-56180502D01*
X145717957Y-56225272D01*
X145713416Y-56230056D01*
X145699291Y-56244181D01*
X145694394Y-56250229D01*
X145686718Y-56259708D01*
X145682434Y-56264724D01*
X145663182Y-56286106D01*
X145637709Y-56314396D01*
X145634409Y-56320112D01*
X145634406Y-56320116D01*
X145630937Y-56326125D01*
X145619736Y-56342423D01*
X145611217Y-56352943D01*
X145608222Y-56358821D01*
X145608220Y-56358824D01*
X145580880Y-56412482D01*
X145577733Y-56418278D01*
X145544324Y-56476144D01*
X145542283Y-56482425D01*
X145542281Y-56482430D01*
X145540138Y-56489026D01*
X145532574Y-56507287D01*
X145526425Y-56519356D01*
X145511873Y-56573665D01*
X145509128Y-56583910D01*
X145507259Y-56590218D01*
X145486609Y-56653773D01*
X145485919Y-56660338D01*
X145485194Y-56667236D01*
X145481591Y-56686677D01*
X145478085Y-56699762D01*
X145477740Y-56706351D01*
X145477739Y-56706356D01*
X145474590Y-56766469D01*
X145474072Y-56773052D01*
X145472326Y-56789659D01*
X145472325Y-56789672D01*
X145471980Y-56792957D01*
X145471980Y-56812969D01*
X145471807Y-56819563D01*
X145468869Y-56875632D01*
X145468311Y-56886277D01*
X145469343Y-56892793D01*
X145470429Y-56899649D01*
X145471980Y-56919360D01*
X145471980Y-102236628D01*
X145470429Y-102256338D01*
X145468311Y-102269711D01*
X145468656Y-102276299D01*
X145468656Y-102276303D01*
X145471807Y-102336425D01*
X145471980Y-102343019D01*
X145471980Y-102363031D01*
X145472325Y-102366316D01*
X145472326Y-102366329D01*
X145474072Y-102382936D01*
X145474589Y-102389508D01*
X145478085Y-102456226D01*
X145481590Y-102469305D01*
X145485194Y-102488751D01*
X145486609Y-102502215D01*
X145507259Y-102565770D01*
X145509126Y-102572071D01*
X145526425Y-102636632D01*
X145529422Y-102642514D01*
X145532574Y-102648701D01*
X145540138Y-102666962D01*
X145542281Y-102673558D01*
X145542283Y-102673563D01*
X145544324Y-102679844D01*
X145565564Y-102716632D01*
X145577733Y-102737710D01*
X145580880Y-102743506D01*
X145604268Y-102789406D01*
X145611217Y-102803045D01*
X145619327Y-102813059D01*
X145619736Y-102813565D01*
X145630937Y-102829863D01*
X145634406Y-102835872D01*
X145634409Y-102835876D01*
X145637709Y-102841592D01*
X145642124Y-102846496D01*
X145642126Y-102846498D01*
X145682434Y-102891264D01*
X145686713Y-102896274D01*
X145699291Y-102911807D01*
X145713416Y-102925932D01*
X145717957Y-102930716D01*
X145762683Y-102980389D01*
X145773649Y-102988356D01*
X145788677Y-103001193D01*
X147404369Y-104616885D01*
X147438395Y-104679197D01*
X147433330Y-104750012D01*
X147390783Y-104806848D01*
X147324263Y-104831659D01*
X147315274Y-104831980D01*
X129519064Y-104831980D01*
X129450943Y-104811978D01*
X129429969Y-104795075D01*
X127626547Y-102991653D01*
X127592521Y-102929341D01*
X127597586Y-102858526D01*
X127640133Y-102801690D01*
X127660210Y-102789406D01*
X127693359Y-102773167D01*
X127693362Y-102773165D01*
X127697994Y-102770896D01*
X127879860Y-102641173D01*
X127904357Y-102616762D01*
X128025892Y-102495650D01*
X128038096Y-102483489D01*
X128097594Y-102400689D01*
X128165435Y-102306277D01*
X128168453Y-102302077D01*
X128170746Y-102297437D01*
X128172446Y-102294608D01*
X128224674Y-102246518D01*
X128280451Y-102233500D01*
X128795500Y-102233500D01*
X128863621Y-102253502D01*
X128910114Y-102307158D01*
X128921500Y-102359500D01*
X128921500Y-102498134D01*
X128928255Y-102560316D01*
X128979385Y-102696705D01*
X129066739Y-102813261D01*
X129183295Y-102900615D01*
X129319684Y-102951745D01*
X129381866Y-102958500D01*
X132050826Y-102958500D01*
X132055443Y-102958585D01*
X132136673Y-102961564D01*
X132136677Y-102961564D01*
X132141837Y-102961753D01*
X132146957Y-102961097D01*
X132146959Y-102961097D01*
X132159261Y-102959521D01*
X132175271Y-102958500D01*
X132978134Y-102958500D01*
X133040316Y-102951745D01*
X133176705Y-102900615D01*
X133293261Y-102813261D01*
X133380615Y-102696705D01*
X133431745Y-102560316D01*
X133438500Y-102498134D01*
X133438500Y-101697856D01*
X133439578Y-101681409D01*
X133441092Y-101669908D01*
X133441529Y-101666590D01*
X133443156Y-101600000D01*
X133438924Y-101548524D01*
X133438500Y-101538200D01*
X133438500Y-101336695D01*
X137067251Y-101336695D01*
X137067548Y-101341848D01*
X137067548Y-101341851D01*
X137071291Y-101406763D01*
X137071500Y-101414016D01*
X137071500Y-104068134D01*
X137078255Y-104130316D01*
X137129385Y-104266705D01*
X137216739Y-104383261D01*
X137333295Y-104470615D01*
X137469684Y-104521745D01*
X137531866Y-104528500D01*
X139328134Y-104528500D01*
X139390316Y-104521745D01*
X139526705Y-104470615D01*
X139624436Y-104397370D01*
X139690941Y-104372522D01*
X139760324Y-104387575D01*
X139775562Y-104397368D01*
X139873295Y-104470615D01*
X140009684Y-104521745D01*
X140071866Y-104528500D01*
X141868134Y-104528500D01*
X141930316Y-104521745D01*
X142066705Y-104470615D01*
X142164436Y-104397370D01*
X142230941Y-104372522D01*
X142300324Y-104387575D01*
X142315562Y-104397368D01*
X142413295Y-104470615D01*
X142549684Y-104521745D01*
X142611866Y-104528500D01*
X144408134Y-104528500D01*
X144470316Y-104521745D01*
X144606705Y-104470615D01*
X144723261Y-104383261D01*
X144810615Y-104266705D01*
X144861745Y-104130316D01*
X144868500Y-104068134D01*
X144868500Y-101467856D01*
X144869578Y-101451409D01*
X144871092Y-101439908D01*
X144871529Y-101436590D01*
X144873156Y-101370000D01*
X144868924Y-101318524D01*
X144868500Y-101308200D01*
X144868500Y-100471866D01*
X144861745Y-100409684D01*
X144810615Y-100273295D01*
X144723261Y-100156739D01*
X144606705Y-100069385D01*
X144470316Y-100018255D01*
X144408134Y-100011500D01*
X143524985Y-100011500D01*
X143523446Y-100011491D01*
X143420081Y-100010228D01*
X143420079Y-100010228D01*
X143414911Y-100010165D01*
X143409797Y-100010948D01*
X143406289Y-100011193D01*
X143397496Y-100011500D01*
X142611866Y-100011500D01*
X142549684Y-100018255D01*
X142413295Y-100069385D01*
X142315565Y-100142630D01*
X142249059Y-100167478D01*
X142179676Y-100152425D01*
X142164435Y-100142630D01*
X142066705Y-100069385D01*
X141930316Y-100018255D01*
X141868134Y-100011500D01*
X140071866Y-100011500D01*
X140009684Y-100018255D01*
X139873295Y-100069385D01*
X139775565Y-100142630D01*
X139709059Y-100167478D01*
X139639676Y-100152425D01*
X139624435Y-100142630D01*
X139526705Y-100069385D01*
X139390316Y-100018255D01*
X139328134Y-100011500D01*
X138444985Y-100011500D01*
X138443446Y-100011491D01*
X138340081Y-100010228D01*
X138340079Y-100010228D01*
X138334911Y-100010165D01*
X138329797Y-100010948D01*
X138326289Y-100011193D01*
X138317496Y-100011500D01*
X137531866Y-100011500D01*
X137469684Y-100018255D01*
X137333295Y-100069385D01*
X137216739Y-100156739D01*
X137129385Y-100273295D01*
X137078255Y-100409684D01*
X137071500Y-100471866D01*
X137071500Y-101290219D01*
X137070787Y-101303607D01*
X137067251Y-101336695D01*
X133438500Y-101336695D01*
X133438500Y-100701866D01*
X133431745Y-100639684D01*
X133380615Y-100503295D01*
X133307370Y-100405564D01*
X133282522Y-100339059D01*
X133297575Y-100269676D01*
X133307370Y-100254435D01*
X133326501Y-100228909D01*
X133380615Y-100156705D01*
X133431745Y-100020316D01*
X133438500Y-99958134D01*
X133438500Y-99157856D01*
X133439578Y-99141409D01*
X133441092Y-99129908D01*
X133441529Y-99126590D01*
X133443156Y-99060000D01*
X133438924Y-99008524D01*
X133438500Y-98998200D01*
X133438500Y-98161866D01*
X133431745Y-98099684D01*
X133380615Y-97963295D01*
X133307370Y-97865564D01*
X133282522Y-97799059D01*
X133297575Y-97729676D01*
X133307370Y-97714435D01*
X133332434Y-97680992D01*
X133380615Y-97616705D01*
X133431745Y-97480316D01*
X133438500Y-97418134D01*
X133438500Y-95621866D01*
X133431745Y-95559684D01*
X133380615Y-95423295D01*
X133307370Y-95325564D01*
X133282522Y-95259059D01*
X133297575Y-95189676D01*
X133307370Y-95174435D01*
X133316788Y-95161869D01*
X133380615Y-95076705D01*
X133431745Y-94940316D01*
X133438500Y-94878134D01*
X133438500Y-94077856D01*
X133439578Y-94061409D01*
X133441092Y-94049908D01*
X133441529Y-94046590D01*
X133442646Y-94000888D01*
X133443074Y-93983365D01*
X133443074Y-93983361D01*
X133443156Y-93980000D01*
X133438924Y-93928524D01*
X133438500Y-93918200D01*
X133438500Y-93081866D01*
X133431745Y-93019684D01*
X133380615Y-92883295D01*
X133307370Y-92785564D01*
X133282522Y-92719059D01*
X133297575Y-92649676D01*
X133307370Y-92634435D01*
X133328042Y-92606853D01*
X133380615Y-92536705D01*
X133431745Y-92400316D01*
X133438500Y-92338134D01*
X133438500Y-91537856D01*
X133439578Y-91521409D01*
X133441092Y-91509908D01*
X133441529Y-91506590D01*
X133442169Y-91480388D01*
X133443074Y-91443365D01*
X133443074Y-91443361D01*
X133443156Y-91440000D01*
X133438924Y-91388524D01*
X133438500Y-91378200D01*
X133438500Y-90541866D01*
X133431745Y-90479684D01*
X133380615Y-90343295D01*
X133307370Y-90245564D01*
X133282522Y-90179059D01*
X133297575Y-90109676D01*
X133307370Y-90094435D01*
X133326501Y-90068909D01*
X133380615Y-89996705D01*
X133431745Y-89860316D01*
X133438500Y-89798134D01*
X133438500Y-88997856D01*
X133439578Y-88981409D01*
X133441092Y-88969908D01*
X133441529Y-88966590D01*
X133443156Y-88900000D01*
X133438924Y-88848524D01*
X133438500Y-88838200D01*
X133438500Y-88001866D01*
X133431745Y-87939684D01*
X133380615Y-87803295D01*
X133307370Y-87705564D01*
X133282522Y-87639059D01*
X133297575Y-87569676D01*
X133307370Y-87554435D01*
X133325012Y-87530896D01*
X133380615Y-87456705D01*
X133431745Y-87320316D01*
X133438500Y-87258134D01*
X133438500Y-86457856D01*
X133439578Y-86441409D01*
X133441092Y-86429908D01*
X133441529Y-86426590D01*
X133443156Y-86360000D01*
X133438924Y-86308524D01*
X133438500Y-86298200D01*
X133438500Y-85461866D01*
X133431745Y-85399684D01*
X133380615Y-85263295D01*
X133307370Y-85165564D01*
X133282522Y-85099059D01*
X133297575Y-85029676D01*
X133307370Y-85014435D01*
X133326501Y-84988909D01*
X133380615Y-84916705D01*
X133431745Y-84780316D01*
X133438500Y-84718134D01*
X133438500Y-82921866D01*
X133431745Y-82859684D01*
X133380615Y-82723295D01*
X133307370Y-82625564D01*
X133282522Y-82559059D01*
X133297575Y-82489676D01*
X133307370Y-82474435D01*
X133326501Y-82448909D01*
X133380615Y-82376705D01*
X133431745Y-82240316D01*
X133438500Y-82178134D01*
X133438500Y-81377856D01*
X133439578Y-81361409D01*
X133441092Y-81349908D01*
X133441529Y-81346590D01*
X133443156Y-81280000D01*
X133438924Y-81228524D01*
X133438500Y-81218200D01*
X133438500Y-80381866D01*
X133431745Y-80319684D01*
X133380615Y-80183295D01*
X133307370Y-80085564D01*
X133282522Y-80019059D01*
X133297575Y-79949676D01*
X133307370Y-79934435D01*
X133326501Y-79908909D01*
X133380615Y-79836705D01*
X133431745Y-79700316D01*
X133438500Y-79638134D01*
X133438500Y-78837856D01*
X133439578Y-78821409D01*
X133441092Y-78809908D01*
X133441529Y-78806590D01*
X133443156Y-78740000D01*
X133438924Y-78688524D01*
X133438500Y-78678200D01*
X133438500Y-77841866D01*
X133431745Y-77779684D01*
X133380615Y-77643295D01*
X133307370Y-77545564D01*
X133282522Y-77479059D01*
X133297575Y-77409676D01*
X133307370Y-77394435D01*
X133326501Y-77368909D01*
X133380615Y-77296705D01*
X133431745Y-77160316D01*
X133438500Y-77098134D01*
X133438500Y-76297856D01*
X133439578Y-76281409D01*
X133441092Y-76269908D01*
X133441529Y-76266590D01*
X133443156Y-76200000D01*
X133438924Y-76148524D01*
X133438500Y-76138200D01*
X133438500Y-75301866D01*
X133431745Y-75239684D01*
X133380615Y-75103295D01*
X133307370Y-75005564D01*
X133282522Y-74939059D01*
X133297575Y-74869676D01*
X133307370Y-74854435D01*
X133326501Y-74828909D01*
X133380615Y-74756705D01*
X133431745Y-74620316D01*
X133438500Y-74558134D01*
X133438500Y-73757856D01*
X133439578Y-73741409D01*
X133441092Y-73729908D01*
X133441529Y-73726590D01*
X133443156Y-73660000D01*
X133438924Y-73608524D01*
X133438500Y-73598200D01*
X133438500Y-72761866D01*
X133431745Y-72699684D01*
X133380615Y-72563295D01*
X133307370Y-72465564D01*
X133282522Y-72399059D01*
X133297575Y-72329676D01*
X133307370Y-72314435D01*
X133326501Y-72288909D01*
X133380615Y-72216705D01*
X133431745Y-72080316D01*
X133438500Y-72018134D01*
X133438500Y-70221866D01*
X133431745Y-70159684D01*
X133380615Y-70023295D01*
X133307370Y-69925564D01*
X133282522Y-69859059D01*
X133297575Y-69789676D01*
X133307370Y-69774435D01*
X133326501Y-69748909D01*
X133380615Y-69676705D01*
X133431745Y-69540316D01*
X133438500Y-69478134D01*
X133438500Y-68677856D01*
X133439578Y-68661409D01*
X133441092Y-68649908D01*
X133441529Y-68646590D01*
X133443156Y-68580000D01*
X133438924Y-68528524D01*
X133438500Y-68518200D01*
X133438500Y-67681866D01*
X133431745Y-67619684D01*
X133380615Y-67483295D01*
X133307370Y-67385564D01*
X133282522Y-67319059D01*
X133297575Y-67249676D01*
X133307370Y-67234435D01*
X133326501Y-67208909D01*
X133380615Y-67136705D01*
X133431745Y-67000316D01*
X133438500Y-66938134D01*
X133438500Y-66137856D01*
X133439578Y-66121409D01*
X133441092Y-66109908D01*
X133441529Y-66106590D01*
X133443156Y-66040000D01*
X133438924Y-65988524D01*
X133438500Y-65978200D01*
X133438500Y-65141866D01*
X133431745Y-65079684D01*
X133380615Y-64943295D01*
X133307370Y-64845564D01*
X133282522Y-64779059D01*
X133297575Y-64709676D01*
X133307370Y-64694435D01*
X133326501Y-64668909D01*
X133380615Y-64596705D01*
X133431745Y-64460316D01*
X133438500Y-64398134D01*
X133438500Y-63597856D01*
X133439578Y-63581409D01*
X133441092Y-63569908D01*
X133441529Y-63566590D01*
X133441687Y-63560128D01*
X133443074Y-63503365D01*
X133443074Y-63503361D01*
X133443156Y-63500000D01*
X133438924Y-63448524D01*
X133438500Y-63438200D01*
X133438500Y-62601866D01*
X133431745Y-62539684D01*
X133380615Y-62403295D01*
X133307370Y-62305564D01*
X133282522Y-62239059D01*
X133297575Y-62169676D01*
X133307370Y-62154435D01*
X133326501Y-62128909D01*
X133380615Y-62056705D01*
X133431745Y-61920316D01*
X133438500Y-61858134D01*
X133438500Y-61057856D01*
X133439578Y-61041409D01*
X133441092Y-61029908D01*
X133441529Y-61026590D01*
X133443156Y-60960000D01*
X133438924Y-60908524D01*
X133438500Y-60898200D01*
X133438500Y-60061866D01*
X133431745Y-59999684D01*
X133380615Y-59863295D01*
X133307370Y-59765564D01*
X133282522Y-59699059D01*
X133297575Y-59629676D01*
X133307370Y-59614435D01*
X133312641Y-59607402D01*
X133380615Y-59516705D01*
X133431745Y-59380316D01*
X133438500Y-59318134D01*
X133438500Y-57521866D01*
X133431745Y-57459684D01*
X133380615Y-57323295D01*
X133307370Y-57225564D01*
X133282522Y-57159059D01*
X133297575Y-57089676D01*
X133307370Y-57074435D01*
X133327263Y-57047892D01*
X133380615Y-56976705D01*
X133431745Y-56840316D01*
X133438500Y-56778134D01*
X133438500Y-56500000D01*
X137281693Y-56500000D01*
X137300885Y-56719371D01*
X137357880Y-56932076D01*
X137374770Y-56968297D01*
X137448618Y-57126666D01*
X137448621Y-57126671D01*
X137450944Y-57131653D01*
X137454100Y-57136160D01*
X137454101Y-57136162D01*
X137527905Y-57241564D01*
X137577251Y-57312038D01*
X137732962Y-57467749D01*
X137913346Y-57594056D01*
X138112924Y-57687120D01*
X138325629Y-57744115D01*
X138545000Y-57763307D01*
X138764371Y-57744115D01*
X138977076Y-57687120D01*
X139176654Y-57594056D01*
X139357038Y-57467749D01*
X139512749Y-57312038D01*
X139562096Y-57241564D01*
X139635899Y-57136162D01*
X139635900Y-57136160D01*
X139639056Y-57131653D01*
X139641379Y-57126671D01*
X139641382Y-57126666D01*
X139715230Y-56968297D01*
X139732120Y-56932076D01*
X139789115Y-56719371D01*
X139808307Y-56500000D01*
X142131693Y-56500000D01*
X142150885Y-56719371D01*
X142207880Y-56932076D01*
X142224770Y-56968297D01*
X142298618Y-57126666D01*
X142298621Y-57126671D01*
X142300944Y-57131653D01*
X142304100Y-57136160D01*
X142304101Y-57136162D01*
X142377905Y-57241564D01*
X142427251Y-57312038D01*
X142582962Y-57467749D01*
X142763346Y-57594056D01*
X142962924Y-57687120D01*
X143175629Y-57744115D01*
X143395000Y-57763307D01*
X143614371Y-57744115D01*
X143827076Y-57687120D01*
X144026654Y-57594056D01*
X144207038Y-57467749D01*
X144362749Y-57312038D01*
X144412096Y-57241564D01*
X144485899Y-57136162D01*
X144485900Y-57136160D01*
X144489056Y-57131653D01*
X144491379Y-57126671D01*
X144491382Y-57126666D01*
X144565230Y-56968297D01*
X144582120Y-56932076D01*
X144639115Y-56719371D01*
X144658307Y-56500000D01*
X144639115Y-56280629D01*
X144582120Y-56067924D01*
X144529476Y-55955028D01*
X144491382Y-55873334D01*
X144491379Y-55873329D01*
X144489056Y-55868347D01*
X144485899Y-55863838D01*
X144365908Y-55692473D01*
X144365906Y-55692470D01*
X144362749Y-55687962D01*
X144207038Y-55532251D01*
X144026654Y-55405944D01*
X143827076Y-55312880D01*
X143614371Y-55255885D01*
X143395000Y-55236693D01*
X143175629Y-55255885D01*
X142962924Y-55312880D01*
X142869562Y-55356415D01*
X142768334Y-55403618D01*
X142768329Y-55403621D01*
X142763347Y-55405944D01*
X142758840Y-55409100D01*
X142758838Y-55409101D01*
X142587473Y-55529092D01*
X142587470Y-55529094D01*
X142582962Y-55532251D01*
X142427251Y-55687962D01*
X142424094Y-55692470D01*
X142424092Y-55692473D01*
X142304101Y-55863838D01*
X142300944Y-55868347D01*
X142298621Y-55873329D01*
X142298618Y-55873334D01*
X142260524Y-55955028D01*
X142207880Y-56067924D01*
X142150885Y-56280629D01*
X142131693Y-56500000D01*
X139808307Y-56500000D01*
X139789115Y-56280629D01*
X139732120Y-56067924D01*
X139679476Y-55955028D01*
X139641382Y-55873334D01*
X139641379Y-55873329D01*
X139639056Y-55868347D01*
X139635899Y-55863838D01*
X139515908Y-55692473D01*
X139515906Y-55692470D01*
X139512749Y-55687962D01*
X139357038Y-55532251D01*
X139176654Y-55405944D01*
X138977076Y-55312880D01*
X138764371Y-55255885D01*
X138545000Y-55236693D01*
X138325629Y-55255885D01*
X138112924Y-55312880D01*
X138019562Y-55356415D01*
X137918334Y-55403618D01*
X137918329Y-55403621D01*
X137913347Y-55405944D01*
X137908840Y-55409100D01*
X137908838Y-55409101D01*
X137737473Y-55529092D01*
X137737470Y-55529094D01*
X137732962Y-55532251D01*
X137577251Y-55687962D01*
X137574094Y-55692470D01*
X137574092Y-55692473D01*
X137454101Y-55863838D01*
X137450944Y-55868347D01*
X137448621Y-55873329D01*
X137448618Y-55873334D01*
X137410524Y-55955028D01*
X137357880Y-56067924D01*
X137300885Y-56280629D01*
X137281693Y-56500000D01*
X133438500Y-56500000D01*
X133438500Y-55977856D01*
X133439578Y-55961409D01*
X133441092Y-55949908D01*
X133441529Y-55946590D01*
X133443156Y-55880000D01*
X133438924Y-55828524D01*
X133438500Y-55818200D01*
X133438500Y-54981866D01*
X133431745Y-54919684D01*
X133380615Y-54783295D01*
X133307370Y-54685564D01*
X133282522Y-54619059D01*
X133297575Y-54549676D01*
X133307370Y-54534435D01*
X133375229Y-54443891D01*
X133380615Y-54436705D01*
X133431745Y-54300316D01*
X133438500Y-54238134D01*
X133438500Y-53437856D01*
X133438656Y-53435469D01*
X136832095Y-53435469D01*
X136832392Y-53440622D01*
X136832392Y-53440625D01*
X136838067Y-53539041D01*
X136845427Y-53666697D01*
X136846564Y-53671743D01*
X136846565Y-53671749D01*
X136878741Y-53814523D01*
X136896346Y-53892642D01*
X136898288Y-53897424D01*
X136898289Y-53897428D01*
X136952681Y-54031379D01*
X136983484Y-54107237D01*
X137104501Y-54304719D01*
X137256147Y-54479784D01*
X137434349Y-54627730D01*
X137634322Y-54744584D01*
X137850694Y-54827209D01*
X137855760Y-54828240D01*
X137855761Y-54828240D01*
X137908846Y-54839040D01*
X138077656Y-54873385D01*
X138208324Y-54878176D01*
X138303949Y-54881683D01*
X138303953Y-54881683D01*
X138309113Y-54881872D01*
X138314233Y-54881216D01*
X138314235Y-54881216D01*
X138387270Y-54871860D01*
X138538847Y-54852442D01*
X138543795Y-54850957D01*
X138543802Y-54850956D01*
X138755747Y-54787369D01*
X138760690Y-54785886D01*
X138765979Y-54783295D01*
X138964049Y-54686262D01*
X138964052Y-54686260D01*
X138968684Y-54683991D01*
X139157243Y-54549494D01*
X139321303Y-54386005D01*
X139456458Y-54197917D01*
X139503641Y-54102450D01*
X139556784Y-53994922D01*
X139556785Y-53994920D01*
X139559078Y-53990280D01*
X139626408Y-53768671D01*
X139656640Y-53539041D01*
X139658327Y-53470000D01*
X139655488Y-53435469D01*
X142282095Y-53435469D01*
X142282392Y-53440622D01*
X142282392Y-53440625D01*
X142288067Y-53539041D01*
X142295427Y-53666697D01*
X142296564Y-53671743D01*
X142296565Y-53671749D01*
X142328741Y-53814523D01*
X142346346Y-53892642D01*
X142348288Y-53897424D01*
X142348289Y-53897428D01*
X142402681Y-54031379D01*
X142433484Y-54107237D01*
X142554501Y-54304719D01*
X142706147Y-54479784D01*
X142884349Y-54627730D01*
X143084322Y-54744584D01*
X143300694Y-54827209D01*
X143305760Y-54828240D01*
X143305761Y-54828240D01*
X143358846Y-54839040D01*
X143527656Y-54873385D01*
X143658324Y-54878176D01*
X143753949Y-54881683D01*
X143753953Y-54881683D01*
X143759113Y-54881872D01*
X143764233Y-54881216D01*
X143764235Y-54881216D01*
X143837270Y-54871860D01*
X143988847Y-54852442D01*
X143993795Y-54850957D01*
X143993802Y-54850956D01*
X144205747Y-54787369D01*
X144210690Y-54785886D01*
X144215979Y-54783295D01*
X144414049Y-54686262D01*
X144414052Y-54686260D01*
X144418684Y-54683991D01*
X144607243Y-54549494D01*
X144771303Y-54386005D01*
X144906458Y-54197917D01*
X144953641Y-54102450D01*
X145006784Y-53994922D01*
X145006785Y-53994920D01*
X145009078Y-53990280D01*
X145076408Y-53768671D01*
X145106640Y-53539041D01*
X145108327Y-53470000D01*
X145100960Y-53380388D01*
X145089773Y-53244318D01*
X145089772Y-53244312D01*
X145089349Y-53239167D01*
X145032925Y-53014533D01*
X145030866Y-53009797D01*
X144942630Y-52806868D01*
X144942628Y-52806865D01*
X144940570Y-52802131D01*
X144814764Y-52607665D01*
X144658887Y-52436358D01*
X144654836Y-52433159D01*
X144654832Y-52433155D01*
X144481177Y-52296011D01*
X144481172Y-52296008D01*
X144477123Y-52292810D01*
X144472607Y-52290317D01*
X144472604Y-52290315D01*
X144278879Y-52183373D01*
X144278875Y-52183371D01*
X144274355Y-52180876D01*
X144269486Y-52179152D01*
X144269482Y-52179150D01*
X144060903Y-52105288D01*
X144060899Y-52105287D01*
X144056028Y-52103562D01*
X144050935Y-52102655D01*
X144050932Y-52102654D01*
X143833095Y-52063851D01*
X143833089Y-52063850D01*
X143828006Y-52062945D01*
X143755096Y-52062054D01*
X143601581Y-52060179D01*
X143601579Y-52060179D01*
X143596411Y-52060116D01*
X143367464Y-52095150D01*
X143147314Y-52167106D01*
X143142726Y-52169494D01*
X143142722Y-52169496D01*
X142984804Y-52251703D01*
X142941872Y-52274052D01*
X142937739Y-52277155D01*
X142937736Y-52277157D01*
X142796977Y-52382842D01*
X142756655Y-52413117D01*
X142596639Y-52580564D01*
X142593725Y-52584836D01*
X142593724Y-52584837D01*
X142578152Y-52607665D01*
X142466119Y-52771899D01*
X142368602Y-52981981D01*
X142306707Y-53205169D01*
X142282095Y-53435469D01*
X139655488Y-53435469D01*
X139650960Y-53380388D01*
X139639773Y-53244318D01*
X139639772Y-53244312D01*
X139639349Y-53239167D01*
X139582925Y-53014533D01*
X139580866Y-53009797D01*
X139492630Y-52806868D01*
X139492628Y-52806865D01*
X139490570Y-52802131D01*
X139364764Y-52607665D01*
X139208887Y-52436358D01*
X139204836Y-52433159D01*
X139204832Y-52433155D01*
X139031177Y-52296011D01*
X139031172Y-52296008D01*
X139027123Y-52292810D01*
X139022607Y-52290317D01*
X139022604Y-52290315D01*
X138828879Y-52183373D01*
X138828875Y-52183371D01*
X138824355Y-52180876D01*
X138819486Y-52179152D01*
X138819482Y-52179150D01*
X138610903Y-52105288D01*
X138610899Y-52105287D01*
X138606028Y-52103562D01*
X138600935Y-52102655D01*
X138600932Y-52102654D01*
X138383095Y-52063851D01*
X138383089Y-52063850D01*
X138378006Y-52062945D01*
X138305096Y-52062054D01*
X138151581Y-52060179D01*
X138151579Y-52060179D01*
X138146411Y-52060116D01*
X137917464Y-52095150D01*
X137697314Y-52167106D01*
X137692726Y-52169494D01*
X137692722Y-52169496D01*
X137534804Y-52251703D01*
X137491872Y-52274052D01*
X137487739Y-52277155D01*
X137487736Y-52277157D01*
X137346977Y-52382842D01*
X137306655Y-52413117D01*
X137146639Y-52580564D01*
X137143725Y-52584836D01*
X137143724Y-52584837D01*
X137128152Y-52607665D01*
X137016119Y-52771899D01*
X136918602Y-52981981D01*
X136856707Y-53205169D01*
X136832095Y-53435469D01*
X133438656Y-53435469D01*
X133439578Y-53421409D01*
X133441092Y-53409908D01*
X133441529Y-53406590D01*
X133443156Y-53340000D01*
X133438924Y-53288524D01*
X133438500Y-53278200D01*
X133438500Y-52441866D01*
X133431745Y-52379684D01*
X133380615Y-52243295D01*
X133293261Y-52126739D01*
X133176705Y-52039385D01*
X133040316Y-51988255D01*
X132978134Y-51981500D01*
X132094985Y-51981500D01*
X132093446Y-51981491D01*
X131990081Y-51980228D01*
X131990079Y-51980228D01*
X131984911Y-51980165D01*
X131979797Y-51980948D01*
X131976289Y-51981193D01*
X131967496Y-51981500D01*
X129381866Y-51981500D01*
X129319684Y-51988255D01*
X129183295Y-52039385D01*
X129066739Y-52126739D01*
X128979385Y-52243295D01*
X128928255Y-52379684D01*
X128921500Y-52441866D01*
X128921500Y-52580500D01*
X128901498Y-52648621D01*
X128847842Y-52695114D01*
X128795500Y-52706500D01*
X128484500Y-52706500D01*
X128416379Y-52686498D01*
X128369886Y-52632842D01*
X128358500Y-52580500D01*
X128358500Y-52441866D01*
X128351745Y-52379684D01*
X128300615Y-52243295D01*
X128213261Y-52126739D01*
X128096705Y-52039385D01*
X127960316Y-51988255D01*
X127898134Y-51981500D01*
X126101866Y-51981500D01*
X126039684Y-51988255D01*
X125903295Y-52039385D01*
X125786739Y-52126739D01*
X125699385Y-52243295D01*
X125648255Y-52379684D01*
X125641500Y-52441866D01*
X125641500Y-52580500D01*
X125621498Y-52648621D01*
X125567842Y-52695114D01*
X125515500Y-52706500D01*
X123404500Y-52706500D01*
X123336379Y-52686498D01*
X123289886Y-52632842D01*
X123278500Y-52580500D01*
X123278500Y-52441866D01*
X123271745Y-52379684D01*
X123220615Y-52243295D01*
X123133261Y-52126739D01*
X123016705Y-52039385D01*
X122880316Y-51988255D01*
X122818134Y-51981500D01*
X121021866Y-51981500D01*
X120959684Y-51988255D01*
X120823295Y-52039385D01*
X120737664Y-52103562D01*
X120725565Y-52112630D01*
X120659059Y-52137478D01*
X120589676Y-52122425D01*
X120574435Y-52112630D01*
X120562336Y-52103562D01*
X120476705Y-52039385D01*
X120340316Y-51988255D01*
X120278134Y-51981500D01*
X118481866Y-51981500D01*
X118419684Y-51988255D01*
X118283295Y-52039385D01*
X118166739Y-52126739D01*
X118079385Y-52243295D01*
X118028255Y-52379684D01*
X118021500Y-52441866D01*
X118021500Y-54238134D01*
X118028255Y-54300316D01*
X118079385Y-54436705D01*
X118166739Y-54553261D01*
X118283295Y-54640615D01*
X118291704Y-54643767D01*
X118291705Y-54643768D01*
X118400451Y-54684535D01*
X118457216Y-54727176D01*
X118481916Y-54793738D01*
X118466709Y-54863087D01*
X118447316Y-54889568D01*
X118320629Y-55022138D01*
X118194743Y-55206680D01*
X118147715Y-55307993D01*
X118103328Y-55403618D01*
X118100688Y-55409305D01*
X118040989Y-55624570D01*
X118017251Y-55846695D01*
X118017548Y-55851848D01*
X118017548Y-55851851D01*
X118029719Y-56062939D01*
X118030110Y-56069715D01*
X118031247Y-56074761D01*
X118031248Y-56074767D01*
X118049284Y-56154795D01*
X118079222Y-56287639D01*
X118163266Y-56494616D01*
X118210306Y-56571379D01*
X118277291Y-56680688D01*
X118279987Y-56685088D01*
X118426250Y-56853938D01*
X118445985Y-56870322D01*
X118485620Y-56929223D01*
X118491500Y-56967266D01*
X118491500Y-57332808D01*
X118471498Y-57400929D01*
X118456594Y-57419859D01*
X118449888Y-57426877D01*
X118320629Y-57562138D01*
X118317720Y-57566403D01*
X118317714Y-57566411D01*
X118299838Y-57592617D01*
X118194743Y-57746680D01*
X118100688Y-57949305D01*
X118040989Y-58164570D01*
X118017251Y-58386695D01*
X118017548Y-58391848D01*
X118017548Y-58391851D01*
X118023011Y-58486590D01*
X118030110Y-58609715D01*
X118031247Y-58614761D01*
X118031248Y-58614767D01*
X118051119Y-58702939D01*
X118079222Y-58827639D01*
X118163266Y-59034616D01*
X118212285Y-59114608D01*
X118277291Y-59220688D01*
X118279987Y-59225088D01*
X118426250Y-59393938D01*
X118445985Y-59410322D01*
X118485620Y-59469223D01*
X118491500Y-59507266D01*
X118491500Y-59872808D01*
X118471498Y-59940929D01*
X118456594Y-59959859D01*
X118449888Y-59966877D01*
X118320629Y-60102138D01*
X118194743Y-60286680D01*
X118100688Y-60489305D01*
X118040989Y-60704570D01*
X118017251Y-60926695D01*
X118017548Y-60931848D01*
X118017548Y-60931851D01*
X118024968Y-61060532D01*
X118030110Y-61149715D01*
X118031247Y-61154761D01*
X118031248Y-61154767D01*
X118051119Y-61242939D01*
X118079222Y-61367639D01*
X118140673Y-61518976D01*
X118144000Y-61527168D01*
X118163266Y-61574616D01*
X118210306Y-61651379D01*
X118277291Y-61760688D01*
X118279987Y-61765088D01*
X118426250Y-61933938D01*
X118445985Y-61950322D01*
X118485620Y-62009223D01*
X118491500Y-62047266D01*
X118491500Y-62412808D01*
X118471498Y-62480929D01*
X118456594Y-62499859D01*
X118449888Y-62506877D01*
X118320629Y-62642138D01*
X118194743Y-62826680D01*
X118166195Y-62888182D01*
X118105332Y-63019301D01*
X118100688Y-63029305D01*
X118040989Y-63244570D01*
X118017251Y-63466695D01*
X118017548Y-63471848D01*
X118017548Y-63471851D01*
X118029812Y-63684547D01*
X118030110Y-63689715D01*
X118031247Y-63694761D01*
X118031248Y-63694767D01*
X118044418Y-63753204D01*
X118079222Y-63907639D01*
X118140673Y-64058976D01*
X118144000Y-64067168D01*
X118163266Y-64114616D01*
X118210306Y-64191379D01*
X118277291Y-64300688D01*
X118279987Y-64305088D01*
X118426250Y-64473938D01*
X118445985Y-64490322D01*
X118485620Y-64549223D01*
X118491500Y-64587266D01*
X118491500Y-64952808D01*
X118471498Y-65020929D01*
X118456594Y-65039859D01*
X118449888Y-65046877D01*
X118320629Y-65182138D01*
X118194743Y-65366680D01*
X118100688Y-65569305D01*
X118040989Y-65784570D01*
X118017251Y-66006695D01*
X118017548Y-66011848D01*
X118017548Y-66011851D01*
X118029812Y-66224547D01*
X118030110Y-66229715D01*
X118031247Y-66234761D01*
X118031248Y-66234767D01*
X118051119Y-66322939D01*
X118079222Y-66447639D01*
X118140673Y-66598976D01*
X118144000Y-66607168D01*
X118163266Y-66654616D01*
X118210306Y-66731379D01*
X118277291Y-66840688D01*
X118279987Y-66845088D01*
X118426250Y-67013938D01*
X118445985Y-67030322D01*
X118485620Y-67089223D01*
X118491500Y-67127266D01*
X118491500Y-67492808D01*
X118471498Y-67560929D01*
X118456594Y-67579859D01*
X118449888Y-67586877D01*
X118320629Y-67722138D01*
X118194743Y-67906680D01*
X118100688Y-68109305D01*
X118040989Y-68324570D01*
X118017251Y-68546695D01*
X118017548Y-68551848D01*
X118017548Y-68551851D01*
X118029812Y-68764547D01*
X118030110Y-68769715D01*
X118031247Y-68774761D01*
X118031248Y-68774767D01*
X118051119Y-68862939D01*
X118079222Y-68987639D01*
X118140673Y-69138976D01*
X118144000Y-69147168D01*
X118163266Y-69194616D01*
X118210306Y-69271379D01*
X118277291Y-69380688D01*
X118279987Y-69385088D01*
X118426250Y-69553938D01*
X118445985Y-69570322D01*
X118485620Y-69629223D01*
X118491500Y-69667266D01*
X118491500Y-70032808D01*
X118471498Y-70100929D01*
X118456594Y-70119859D01*
X118449888Y-70126877D01*
X118320629Y-70262138D01*
X118194743Y-70446680D01*
X118100688Y-70649305D01*
X118040989Y-70864570D01*
X118017251Y-71086695D01*
X118017548Y-71091848D01*
X118017548Y-71091851D01*
X118023011Y-71186590D01*
X118030110Y-71309715D01*
X118031247Y-71314761D01*
X118031248Y-71314767D01*
X118051119Y-71402939D01*
X118079222Y-71527639D01*
X118163266Y-71734616D01*
X118210306Y-71811379D01*
X118277291Y-71920688D01*
X118279987Y-71925088D01*
X118426250Y-72093938D01*
X118445985Y-72110322D01*
X118485620Y-72169223D01*
X118491500Y-72207266D01*
X118491500Y-72572808D01*
X118471498Y-72640929D01*
X118456594Y-72659859D01*
X118449888Y-72666877D01*
X118320629Y-72802138D01*
X118194743Y-72986680D01*
X118100688Y-73189305D01*
X118040989Y-73404570D01*
X118017251Y-73626695D01*
X118017548Y-73631848D01*
X118017548Y-73631851D01*
X118025117Y-73763118D01*
X118030110Y-73849715D01*
X118031247Y-73854761D01*
X118031248Y-73854767D01*
X118051119Y-73942939D01*
X118079222Y-74067639D01*
X118163266Y-74274616D01*
X118210306Y-74351379D01*
X118277291Y-74460688D01*
X118279987Y-74465088D01*
X118426250Y-74633938D01*
X118445985Y-74650322D01*
X118485620Y-74709223D01*
X118491500Y-74747266D01*
X118491500Y-75112808D01*
X118471498Y-75180929D01*
X118456594Y-75199859D01*
X118449888Y-75206877D01*
X118320629Y-75342138D01*
X118194743Y-75526680D01*
X118100688Y-75729305D01*
X118040989Y-75944570D01*
X118017251Y-76166695D01*
X118017548Y-76171848D01*
X118017548Y-76171851D01*
X118025117Y-76303118D01*
X118030110Y-76389715D01*
X118031247Y-76394761D01*
X118031248Y-76394767D01*
X118051119Y-76482939D01*
X118079222Y-76607639D01*
X118163266Y-76814616D01*
X118210306Y-76891379D01*
X118277291Y-77000688D01*
X118279987Y-77005088D01*
X118426250Y-77173938D01*
X118445985Y-77190322D01*
X118485620Y-77249223D01*
X118491500Y-77287266D01*
X118491500Y-77652808D01*
X118471498Y-77720929D01*
X118456594Y-77739859D01*
X118449888Y-77746877D01*
X118320629Y-77882138D01*
X118194743Y-78066680D01*
X118100688Y-78269305D01*
X118040989Y-78484570D01*
X118017251Y-78706695D01*
X118017548Y-78711848D01*
X118017548Y-78711851D01*
X118025117Y-78843118D01*
X118030110Y-78929715D01*
X118031247Y-78934761D01*
X118031248Y-78934767D01*
X118051119Y-79022939D01*
X118079222Y-79147639D01*
X118163266Y-79354616D01*
X118210306Y-79431379D01*
X118277291Y-79540688D01*
X118279987Y-79545088D01*
X118426250Y-79713938D01*
X118445985Y-79730322D01*
X118485620Y-79789223D01*
X118491500Y-79827266D01*
X118491500Y-80192808D01*
X118471498Y-80260929D01*
X118456594Y-80279859D01*
X118449888Y-80286877D01*
X118320629Y-80422138D01*
X118194743Y-80606680D01*
X118100688Y-80809305D01*
X118040989Y-81024570D01*
X118017251Y-81246695D01*
X118017548Y-81251848D01*
X118017548Y-81251851D01*
X118025117Y-81383118D01*
X118030110Y-81469715D01*
X118031247Y-81474761D01*
X118031248Y-81474767D01*
X118051119Y-81562939D01*
X118079222Y-81687639D01*
X118163266Y-81894616D01*
X118210306Y-81971379D01*
X118277291Y-82080688D01*
X118279987Y-82085088D01*
X118426250Y-82253938D01*
X118445985Y-82270322D01*
X118485620Y-82329223D01*
X118491500Y-82367266D01*
X118491500Y-82732808D01*
X118471498Y-82800929D01*
X118456594Y-82819859D01*
X118449888Y-82826877D01*
X118320629Y-82962138D01*
X118194743Y-83146680D01*
X118100688Y-83349305D01*
X118040989Y-83564570D01*
X118017251Y-83786695D01*
X118017548Y-83791848D01*
X118017548Y-83791851D01*
X118023011Y-83886590D01*
X118030110Y-84009715D01*
X118031247Y-84014761D01*
X118031248Y-84014767D01*
X118051119Y-84102939D01*
X118079222Y-84227639D01*
X118163266Y-84434616D01*
X118210306Y-84511379D01*
X118277291Y-84620688D01*
X118279987Y-84625088D01*
X118426250Y-84793938D01*
X118445985Y-84810322D01*
X118485620Y-84869223D01*
X118491500Y-84907266D01*
X118491500Y-85272808D01*
X118471498Y-85340929D01*
X118456594Y-85359859D01*
X118348633Y-85472834D01*
X118320629Y-85502138D01*
X118317720Y-85506403D01*
X118317714Y-85506411D01*
X118309149Y-85518967D01*
X118194743Y-85686680D01*
X118147716Y-85787992D01*
X118117218Y-85853695D01*
X118100688Y-85889305D01*
X118040989Y-86104570D01*
X118017251Y-86326695D01*
X118017548Y-86331848D01*
X118017548Y-86331851D01*
X118029812Y-86544547D01*
X118030110Y-86549715D01*
X118031247Y-86554761D01*
X118031248Y-86554767D01*
X118051119Y-86642939D01*
X118079222Y-86767639D01*
X118163266Y-86974616D01*
X118210306Y-87051379D01*
X118277291Y-87160688D01*
X118279987Y-87165088D01*
X118426250Y-87333938D01*
X118445985Y-87350322D01*
X118485620Y-87409223D01*
X118491500Y-87447266D01*
X118491500Y-87812808D01*
X118471498Y-87880929D01*
X118456594Y-87899859D01*
X118449888Y-87906877D01*
X118320629Y-88042138D01*
X118194743Y-88226680D01*
X118100688Y-88429305D01*
X118040989Y-88644570D01*
X118017251Y-88866695D01*
X118017548Y-88871848D01*
X118017548Y-88871851D01*
X118025117Y-89003118D01*
X118030110Y-89089715D01*
X118031247Y-89094761D01*
X118031248Y-89094767D01*
X118051119Y-89182939D01*
X118079222Y-89307639D01*
X118163266Y-89514616D01*
X118210306Y-89591379D01*
X118277291Y-89700688D01*
X118279987Y-89705088D01*
X118426250Y-89873938D01*
X118445985Y-89890322D01*
X118485620Y-89949223D01*
X118491500Y-89987266D01*
X118491500Y-90352808D01*
X118471498Y-90420929D01*
X118456594Y-90439859D01*
X118449888Y-90446877D01*
X118320629Y-90582138D01*
X118194743Y-90766680D01*
X118100688Y-90969305D01*
X118040989Y-91184570D01*
X118017251Y-91406695D01*
X118017548Y-91411848D01*
X118017548Y-91411851D01*
X118024857Y-91538614D01*
X118030110Y-91629715D01*
X118031247Y-91634761D01*
X118031248Y-91634767D01*
X118051119Y-91722939D01*
X118079222Y-91847639D01*
X118163266Y-92054616D01*
X118210306Y-92131379D01*
X118277291Y-92240688D01*
X118279987Y-92245088D01*
X118426250Y-92413938D01*
X118445985Y-92430322D01*
X118485620Y-92489223D01*
X118491500Y-92527266D01*
X118491500Y-93900160D01*
X118489949Y-93919870D01*
X118487831Y-93933243D01*
X118488176Y-93939831D01*
X118488176Y-93939835D01*
X118491327Y-93999957D01*
X118491500Y-94006551D01*
X118491500Y-94026563D01*
X118491845Y-94029848D01*
X118491846Y-94029861D01*
X118493592Y-94046468D01*
X118494109Y-94053040D01*
X118497605Y-94119758D01*
X118501110Y-94132837D01*
X118504714Y-94152283D01*
X118506129Y-94165747D01*
X118526779Y-94229302D01*
X118528646Y-94235603D01*
X118545945Y-94300164D01*
X118548942Y-94306046D01*
X118552094Y-94312233D01*
X118559658Y-94330494D01*
X118561801Y-94337090D01*
X118561803Y-94337095D01*
X118563844Y-94343376D01*
X118586488Y-94382596D01*
X118597253Y-94401242D01*
X118600400Y-94407038D01*
X118622545Y-94450499D01*
X118630737Y-94466577D01*
X118638847Y-94476591D01*
X118639256Y-94477097D01*
X118650457Y-94493395D01*
X118653926Y-94499404D01*
X118653929Y-94499408D01*
X118657229Y-94505124D01*
X118661644Y-94510028D01*
X118661646Y-94510030D01*
X118701954Y-94554796D01*
X118706233Y-94559806D01*
X118718811Y-94575339D01*
X118732936Y-94589464D01*
X118737477Y-94594248D01*
X118776627Y-94637728D01*
X118782203Y-94643921D01*
X118793169Y-94651888D01*
X118808197Y-94664725D01*
X119089877Y-94946405D01*
X119123903Y-95008717D01*
X119118838Y-95079532D01*
X119076291Y-95136368D01*
X119009771Y-95161179D01*
X119000782Y-95161500D01*
X118481866Y-95161500D01*
X118419684Y-95168255D01*
X118283295Y-95219385D01*
X118166739Y-95306739D01*
X118079385Y-95423295D01*
X118028255Y-95559684D01*
X118021500Y-95621866D01*
X118021500Y-97418134D01*
X118028255Y-97480316D01*
X118079385Y-97616705D01*
X118166739Y-97733261D01*
X118283295Y-97820615D01*
X118291704Y-97823767D01*
X118291705Y-97823768D01*
X118400451Y-97864535D01*
X118457216Y-97907176D01*
X118481916Y-97973738D01*
X118466709Y-98043087D01*
X118447316Y-98069568D01*
X118384317Y-98135493D01*
X118320629Y-98202138D01*
X118194743Y-98386680D01*
X118100688Y-98589305D01*
X118040989Y-98804570D01*
X118017251Y-99026695D01*
X118017548Y-99031848D01*
X118017548Y-99031851D01*
X118025117Y-99163118D01*
X118030110Y-99249715D01*
X118031247Y-99254761D01*
X118031248Y-99254767D01*
X118051119Y-99342939D01*
X118079222Y-99467639D01*
X118139014Y-99614890D01*
X118156662Y-99658351D01*
X118163266Y-99674616D01*
X118182816Y-99706518D01*
X118277291Y-99860688D01*
X118279987Y-99865088D01*
X118426250Y-100033938D01*
X118445985Y-100050322D01*
X118485620Y-100109223D01*
X118491500Y-100147266D01*
X118491500Y-100512808D01*
X118471498Y-100580929D01*
X118456594Y-100599859D01*
X118347255Y-100714276D01*
X118320629Y-100742138D01*
X118317715Y-100746410D01*
X118317714Y-100746411D01*
X118253531Y-100840500D01*
X118194743Y-100926680D01*
X118100688Y-101129305D01*
X118040989Y-101344570D01*
X118017251Y-101566695D01*
X118017548Y-101571848D01*
X118017548Y-101571851D01*
X118029812Y-101784547D01*
X118030110Y-101789715D01*
X118031247Y-101794761D01*
X118031248Y-101794767D01*
X118051119Y-101882939D01*
X118079222Y-102007639D01*
X118163266Y-102214616D01*
X118182816Y-102246518D01*
X118277291Y-102400688D01*
X118279987Y-102405088D01*
X118426250Y-102573938D01*
X118445985Y-102590322D01*
X118485620Y-102649223D01*
X118491500Y-102687266D01*
X118491500Y-103052808D01*
X118471498Y-103120929D01*
X118456594Y-103139859D01*
X118449888Y-103146877D01*
X118320629Y-103282138D01*
X118194743Y-103466680D01*
X118100688Y-103669305D01*
X118040989Y-103884570D01*
X118017251Y-104106695D01*
X118017548Y-104111848D01*
X118017548Y-104111851D01*
X118023011Y-104206590D01*
X118030110Y-104329715D01*
X118031247Y-104334761D01*
X118031248Y-104334767D01*
X118043390Y-104388642D01*
X118079222Y-104547639D01*
X118163266Y-104754616D01*
X118279987Y-104945088D01*
X118426250Y-105113938D01*
X118445985Y-105130322D01*
X118485620Y-105189223D01*
X118491500Y-105227266D01*
X118491500Y-105592808D01*
X118471498Y-105660929D01*
X118456594Y-105679859D01*
X118366184Y-105774467D01*
X114808000Y-105774467D01*
X114808000Y-45852703D01*
X117270743Y-45852703D01*
X117308268Y-46137734D01*
X117384129Y-46415036D01*
X117496923Y-46679476D01*
X117644561Y-46926161D01*
X117824313Y-47150528D01*
X118032851Y-47348423D01*
X118266317Y-47516186D01*
X118270112Y-47518195D01*
X118270113Y-47518196D01*
X118291869Y-47529715D01*
X118520392Y-47650712D01*
X118790373Y-47749511D01*
X119071264Y-47810755D01*
X119099841Y-47813004D01*
X119294282Y-47828307D01*
X119294291Y-47828307D01*
X119296739Y-47828500D01*
X119452271Y-47828500D01*
X119454407Y-47828354D01*
X119454418Y-47828354D01*
X119662548Y-47814165D01*
X119662554Y-47814164D01*
X119666825Y-47813873D01*
X119671020Y-47813004D01*
X119671022Y-47813004D01*
X119807583Y-47784724D01*
X119948342Y-47755574D01*
X120219343Y-47659607D01*
X120474812Y-47527750D01*
X120478313Y-47525289D01*
X120478317Y-47525287D01*
X120592417Y-47445096D01*
X120710023Y-47362441D01*
X120920622Y-47166740D01*
X121102713Y-46944268D01*
X121252927Y-46699142D01*
X121368483Y-46435898D01*
X121447244Y-46159406D01*
X121487751Y-45874784D01*
X121487845Y-45856951D01*
X121489235Y-45591583D01*
X121489235Y-45591576D01*
X121489257Y-45587297D01*
X121451732Y-45302266D01*
X121375871Y-45024964D01*
X121263077Y-44760524D01*
X121115439Y-44513839D01*
X120935687Y-44289472D01*
X120727149Y-44091577D01*
X120493683Y-43923814D01*
X120471843Y-43912250D01*
X120448654Y-43899972D01*
X120239608Y-43789288D01*
X119969627Y-43690489D01*
X119688736Y-43629245D01*
X119657685Y-43626801D01*
X119465718Y-43611693D01*
X119465709Y-43611693D01*
X119463261Y-43611500D01*
X119307729Y-43611500D01*
X119305593Y-43611646D01*
X119305582Y-43611646D01*
X119097452Y-43625835D01*
X119097446Y-43625836D01*
X119093175Y-43626127D01*
X119088980Y-43626996D01*
X119088978Y-43626996D01*
X118952416Y-43655277D01*
X118811658Y-43684426D01*
X118540657Y-43780393D01*
X118285188Y-43912250D01*
X118281687Y-43914711D01*
X118281683Y-43914713D01*
X118271594Y-43921804D01*
X118049977Y-44077559D01*
X117839378Y-44273260D01*
X117657287Y-44495732D01*
X117507073Y-44740858D01*
X117391517Y-45004102D01*
X117312756Y-45280594D01*
X117272249Y-45565216D01*
X117272227Y-45569505D01*
X117272226Y-45569512D01*
X117270765Y-45848417D01*
X117270743Y-45852703D01*
X114808000Y-45852703D01*
X114808000Y-41274000D01*
X114828002Y-41205879D01*
X114881658Y-41159386D01*
X114934000Y-41148000D01*
X124068166Y-41148000D01*
X124136287Y-41168002D01*
G37*
G04 #@! TD.AperFunction*
G04 #@! TA.AperFunction,Conductor*
G36*
X118279987Y-104945088D02*
G01*
X118426250Y-105113938D01*
X118445985Y-105130322D01*
X118485620Y-105189223D01*
X118491500Y-105227266D01*
X118491500Y-105592808D01*
X118471498Y-105660929D01*
X118456594Y-105679859D01*
X118449888Y-105686877D01*
X118320629Y-105822138D01*
X118194743Y-106006680D01*
X118100688Y-106209305D01*
X118040989Y-106424570D01*
X118017251Y-106646695D01*
X118017548Y-106651848D01*
X118017548Y-106651851D01*
X118024848Y-106778455D01*
X118030110Y-106869715D01*
X118031247Y-106874761D01*
X118031248Y-106874767D01*
X118040928Y-106917718D01*
X118079222Y-107087639D01*
X118163266Y-107294616D01*
X118279987Y-107485088D01*
X118426250Y-107653938D01*
X118445985Y-107670322D01*
X118485620Y-107729223D01*
X118491500Y-107767266D01*
X118491500Y-108132808D01*
X118471498Y-108200929D01*
X118456594Y-108219859D01*
X118320629Y-108362138D01*
X118194743Y-108546680D01*
X118100688Y-108749305D01*
X118040989Y-108964570D01*
X118017251Y-109186695D01*
X118017548Y-109191848D01*
X118017548Y-109191851D01*
X118023011Y-109286590D01*
X118030110Y-109409715D01*
X118031247Y-109414761D01*
X118031248Y-109414767D01*
X118049572Y-109496074D01*
X118079222Y-109627639D01*
X118117461Y-109721811D01*
X118156437Y-109817797D01*
X118163266Y-109834616D01*
X118279987Y-110025088D01*
X118426250Y-110193938D01*
X118445985Y-110210322D01*
X118485620Y-110269223D01*
X118491500Y-110307266D01*
X118491500Y-110672808D01*
X118471498Y-110740929D01*
X118456594Y-110759859D01*
X118449888Y-110766877D01*
X118320629Y-110902138D01*
X118194743Y-111086680D01*
X118100688Y-111289305D01*
X118040989Y-111504570D01*
X118017251Y-111726695D01*
X118017548Y-111731848D01*
X118017548Y-111731851D01*
X118023011Y-111826590D01*
X118030110Y-111949715D01*
X118031247Y-111954761D01*
X118031248Y-111954767D01*
X118051119Y-112042939D01*
X118079222Y-112167639D01*
X118163266Y-112374616D01*
X118279987Y-112565088D01*
X118426250Y-112733938D01*
X118445985Y-112750322D01*
X118485620Y-112809223D01*
X118491500Y-112847266D01*
X118491500Y-113212808D01*
X118471498Y-113280929D01*
X118456594Y-113299859D01*
X118449888Y-113306877D01*
X118320629Y-113442138D01*
X118194743Y-113626680D01*
X118100688Y-113829305D01*
X118040989Y-114044570D01*
X118017251Y-114266695D01*
X118017548Y-114271848D01*
X118017548Y-114271851D01*
X118023011Y-114366590D01*
X118030110Y-114489715D01*
X118031247Y-114494761D01*
X118031248Y-114494767D01*
X118051119Y-114582939D01*
X118079222Y-114707639D01*
X118163266Y-114914616D01*
X118279987Y-115105088D01*
X118426250Y-115273938D01*
X118598126Y-115416632D01*
X118791000Y-115529338D01*
X118999692Y-115609030D01*
X119004760Y-115610061D01*
X119004763Y-115610062D01*
X119112017Y-115631883D01*
X119218597Y-115653567D01*
X119223772Y-115653757D01*
X119223774Y-115653757D01*
X119436673Y-115661564D01*
X119436677Y-115661564D01*
X119441837Y-115661753D01*
X119446957Y-115661097D01*
X119446959Y-115661097D01*
X119658288Y-115634025D01*
X119658289Y-115634025D01*
X119663416Y-115633368D01*
X119668366Y-115631883D01*
X119872429Y-115570661D01*
X119872434Y-115570659D01*
X119877384Y-115569174D01*
X120077994Y-115470896D01*
X120259860Y-115341173D01*
X120418096Y-115183489D01*
X120477594Y-115100689D01*
X120545435Y-115006277D01*
X120548453Y-115002077D01*
X120647430Y-114801811D01*
X120712370Y-114588069D01*
X120741529Y-114366590D01*
X120743156Y-114300000D01*
X120724852Y-114077361D01*
X120670431Y-113860702D01*
X120581354Y-113655840D01*
X120541906Y-113594862D01*
X120462822Y-113472617D01*
X120462820Y-113472614D01*
X120460014Y-113468277D01*
X120309670Y-113303051D01*
X120308100Y-113301811D01*
X120272390Y-113241520D01*
X120268500Y-113210452D01*
X120268500Y-112844883D01*
X120288502Y-112776762D01*
X120305561Y-112755632D01*
X120414430Y-112647144D01*
X120414440Y-112647132D01*
X120418096Y-112643489D01*
X120477594Y-112560689D01*
X120545435Y-112466277D01*
X120548453Y-112462077D01*
X120647430Y-112261811D01*
X120712370Y-112048069D01*
X120741529Y-111826590D01*
X120743156Y-111760000D01*
X120724852Y-111537361D01*
X120670431Y-111320702D01*
X120581354Y-111115840D01*
X120460014Y-110928277D01*
X120309670Y-110763051D01*
X120308100Y-110761811D01*
X120272390Y-110701520D01*
X120268500Y-110670452D01*
X120268500Y-110304883D01*
X120288502Y-110236762D01*
X120305561Y-110215632D01*
X120414430Y-110107144D01*
X120414440Y-110107132D01*
X120418096Y-110103489D01*
X120477594Y-110020689D01*
X120545435Y-109926277D01*
X120548453Y-109922077D01*
X120647430Y-109721811D01*
X120712370Y-109508069D01*
X120741529Y-109286590D01*
X120743156Y-109220000D01*
X120739837Y-109179629D01*
X120754190Y-109110098D01*
X120776318Y-109080210D01*
X120816405Y-109040123D01*
X120878717Y-109006097D01*
X120949532Y-109011162D01*
X121006368Y-109053709D01*
X121031179Y-109120229D01*
X121031500Y-109129218D01*
X121031500Y-121294781D01*
X121011498Y-121362902D01*
X120994595Y-121383876D01*
X120413524Y-121964947D01*
X120351212Y-121998973D01*
X120280202Y-121993835D01*
X120272717Y-121991029D01*
X120272713Y-121991028D01*
X120265316Y-121988255D01*
X120203134Y-121981500D01*
X118126866Y-121981500D01*
X118064684Y-121988255D01*
X117928295Y-122039385D01*
X117811739Y-122126739D01*
X117724385Y-122243295D01*
X117673255Y-122379684D01*
X117666500Y-122441866D01*
X117666500Y-126498134D01*
X117673255Y-126560316D01*
X117724385Y-126696705D01*
X117811739Y-126813261D01*
X117928295Y-126900615D01*
X118064684Y-126951745D01*
X118126866Y-126958500D01*
X120203134Y-126958500D01*
X120265316Y-126951745D01*
X120401705Y-126900615D01*
X120518261Y-126813261D01*
X120605615Y-126696705D01*
X120656745Y-126560316D01*
X120663500Y-126498134D01*
X120663500Y-124280218D01*
X120683502Y-124212097D01*
X120700405Y-124191123D01*
X122491807Y-122399722D01*
X122506841Y-122386881D01*
X122512458Y-122382800D01*
X122517797Y-122378921D01*
X122562514Y-122329258D01*
X122567055Y-122324474D01*
X122581189Y-122310340D01*
X122593776Y-122294796D01*
X122598064Y-122289775D01*
X122638354Y-122245030D01*
X122638356Y-122245027D01*
X122642771Y-122240124D01*
X122646615Y-122233467D01*
X122649546Y-122228391D01*
X122660738Y-122212106D01*
X122665110Y-122206707D01*
X122665114Y-122206701D01*
X122669263Y-122201577D01*
X122699600Y-122142038D01*
X122702747Y-122136242D01*
X122704877Y-122132553D01*
X122736156Y-122078376D01*
X122738197Y-122072095D01*
X122738199Y-122072090D01*
X122740342Y-122065494D01*
X122747906Y-122047233D01*
X122751058Y-122041046D01*
X122754055Y-122035164D01*
X122771354Y-121970603D01*
X122773221Y-121964302D01*
X122793871Y-121900747D01*
X122795286Y-121887283D01*
X122798890Y-121867837D01*
X122802395Y-121854758D01*
X122805891Y-121788040D01*
X122806408Y-121781468D01*
X122808154Y-121764861D01*
X122808155Y-121764848D01*
X122808500Y-121761563D01*
X122808500Y-121741551D01*
X122808673Y-121734957D01*
X122811824Y-121674836D01*
X122811824Y-121674832D01*
X122812169Y-121668244D01*
X122810051Y-121654871D01*
X122808500Y-121635161D01*
X122808500Y-113334074D01*
X122828502Y-113265953D01*
X122882158Y-113219460D01*
X122952432Y-113209356D01*
X123010064Y-113233248D01*
X123113295Y-113310615D01*
X123249684Y-113361745D01*
X123311866Y-113368500D01*
X123445500Y-113368500D01*
X123513621Y-113388502D01*
X123560114Y-113442158D01*
X123571500Y-113494500D01*
X123571500Y-122023026D01*
X123551498Y-122091147D01*
X123503680Y-122134789D01*
X123363748Y-122207633D01*
X123359615Y-122210736D01*
X123359612Y-122210738D01*
X123170832Y-122352479D01*
X123166697Y-122355584D01*
X123163125Y-122359322D01*
X123015998Y-122513281D01*
X122996455Y-122533731D01*
X122993541Y-122538003D01*
X122993540Y-122538004D01*
X122860515Y-122733011D01*
X122860512Y-122733016D01*
X122857596Y-122737291D01*
X122855420Y-122741980D01*
X122855416Y-122741986D01*
X122756025Y-122956106D01*
X122753848Y-122960797D01*
X122752468Y-122965775D01*
X122752466Y-122965779D01*
X122742854Y-123000441D01*
X122687998Y-123198247D01*
X122666500Y-123399406D01*
X122666500Y-125522469D01*
X122666712Y-125525042D01*
X122666712Y-125525053D01*
X122681131Y-125700432D01*
X122681132Y-125700438D01*
X122681555Y-125705583D01*
X122741584Y-125944570D01*
X122743642Y-125949303D01*
X122743643Y-125949306D01*
X122758683Y-125983894D01*
X122839840Y-126170544D01*
X122842644Y-126174878D01*
X122842646Y-126174882D01*
X122970874Y-126373092D01*
X122970879Y-126373098D01*
X122973685Y-126377436D01*
X123139523Y-126559690D01*
X123143574Y-126562889D01*
X123143578Y-126562893D01*
X123174763Y-126587521D01*
X123332901Y-126712410D01*
X123415682Y-126758108D01*
X123515591Y-126813261D01*
X123548625Y-126831497D01*
X123780903Y-126913750D01*
X123785995Y-126914657D01*
X124018407Y-126956057D01*
X124018411Y-126956057D01*
X124023495Y-126956963D01*
X124102914Y-126957933D01*
X124264718Y-126959910D01*
X124264720Y-126959910D01*
X124269888Y-126959973D01*
X124513464Y-126922701D01*
X124747682Y-126846147D01*
X124752270Y-126843759D01*
X124752274Y-126843757D01*
X124961663Y-126734756D01*
X124961664Y-126734755D01*
X124966252Y-126732367D01*
X124970385Y-126729264D01*
X124970388Y-126729262D01*
X125159168Y-126587521D01*
X125159170Y-126587519D01*
X125163303Y-126584416D01*
X125333545Y-126406269D01*
X125356177Y-126373092D01*
X125469485Y-126206989D01*
X125469488Y-126206984D01*
X125472404Y-126202709D01*
X125474580Y-126198020D01*
X125474584Y-126198014D01*
X125573975Y-125983894D01*
X125573977Y-125983889D01*
X125576152Y-125979203D01*
X125585757Y-125944570D01*
X125640623Y-125746726D01*
X125640623Y-125746725D01*
X125642002Y-125741753D01*
X125663500Y-125540594D01*
X125663500Y-123417531D01*
X125661736Y-123396071D01*
X125648869Y-123239568D01*
X125648868Y-123239562D01*
X125648445Y-123234417D01*
X125588416Y-122995430D01*
X125586357Y-122990694D01*
X125492220Y-122774193D01*
X125492218Y-122774190D01*
X125490160Y-122769456D01*
X125469352Y-122737291D01*
X125368708Y-122581721D01*
X125348500Y-122513281D01*
X125348500Y-113494500D01*
X125368502Y-113426379D01*
X125422158Y-113379886D01*
X125474500Y-113368500D01*
X125608134Y-113368500D01*
X125670316Y-113361745D01*
X125806705Y-113310615D01*
X125923261Y-113223261D01*
X126010615Y-113106705D01*
X126061745Y-112970316D01*
X126068500Y-112908134D01*
X126068500Y-110611866D01*
X126061745Y-110549684D01*
X126010615Y-110413295D01*
X125933248Y-110310064D01*
X125908400Y-110243559D01*
X125923453Y-110174176D01*
X125973627Y-110123946D01*
X126034074Y-110108500D01*
X130473991Y-110108500D01*
X130542112Y-110128502D01*
X130588605Y-110182158D01*
X130599991Y-110234500D01*
X130599991Y-131446000D01*
X130579989Y-131514121D01*
X130526333Y-131560614D01*
X130473991Y-131572000D01*
X114934000Y-131572000D01*
X114865879Y-131551998D01*
X114819386Y-131498342D01*
X114808000Y-131446000D01*
X114808000Y-104938588D01*
X118276004Y-104938588D01*
X118279987Y-104945088D01*
G37*
G04 #@! TD.AperFunction*
M02*
