G04 #@! TF.GenerationSoftware,KiCad,Pcbnew,8.0.7*
G04 #@! TF.CreationDate,2025-01-17T18:29:13+11:00*
G04 #@! TF.ProjectId,MQTTDecoderExpansionBoard,4d515454-4465-4636-9f64-657245787061,A*
G04 #@! TF.SameCoordinates,Original*
G04 #@! TF.FileFunction,Copper,L2,Bot*
G04 #@! TF.FilePolarity,Positive*
%FSLAX46Y46*%
G04 Gerber Fmt 4.6, Leading zero omitted, Abs format (unit mm)*
G04 Created by KiCad (PCBNEW 8.0.7) date 2025-01-17 18:29:13*
%MOMM*%
%LPD*%
G01*
G04 APERTURE LIST*
G04 #@! TA.AperFunction,ComponentPad*
%ADD10R,1.700000X1.700000*%
G04 #@! TD*
G04 #@! TA.AperFunction,ComponentPad*
%ADD11O,1.700000X1.700000*%
G04 #@! TD*
G04 #@! TA.AperFunction,ComponentPad*
%ADD12R,1.050000X1.500000*%
G04 #@! TD*
G04 #@! TA.AperFunction,ComponentPad*
%ADD13O,1.050000X1.500000*%
G04 #@! TD*
G04 #@! TA.AperFunction,ComponentPad*
%ADD14R,2.000000X1.905000*%
G04 #@! TD*
G04 #@! TA.AperFunction,ComponentPad*
%ADD15O,2.000000X1.905000*%
G04 #@! TD*
G04 #@! TA.AperFunction,ComponentPad*
%ADD16R,1.980000X3.960000*%
G04 #@! TD*
G04 #@! TA.AperFunction,ComponentPad*
%ADD17O,1.980000X3.960000*%
G04 #@! TD*
G04 #@! TA.AperFunction,ViaPad*
%ADD18C,0.800000*%
G04 #@! TD*
G04 #@! TA.AperFunction,Conductor*
%ADD19C,0.750000*%
G04 #@! TD*
G04 #@! TA.AperFunction,Conductor*
%ADD20C,0.250000*%
G04 #@! TD*
G04 APERTURE END LIST*
D10*
X120650000Y-54610000D03*
D11*
X120650000Y-57150000D03*
X120650000Y-59690000D03*
X120650000Y-62230000D03*
X120650000Y-64770000D03*
X120650000Y-67310000D03*
X120650000Y-69850000D03*
X120650000Y-72390000D03*
X120650000Y-74930000D03*
X120650000Y-77470000D03*
X120650000Y-80010000D03*
X120650000Y-82550000D03*
X120650000Y-85090000D03*
X120650000Y-87630000D03*
X120650000Y-90170000D03*
X120650000Y-92710000D03*
X134110000Y-44870000D03*
X134110000Y-47410000D03*
D10*
X134110000Y-49950000D03*
D11*
X134110000Y-52490000D03*
X134110000Y-55030000D03*
X134110000Y-57570000D03*
X134110000Y-60110000D03*
D10*
X134110000Y-62650000D03*
D11*
X134110000Y-65190000D03*
X134110000Y-67730000D03*
X134110000Y-70270000D03*
X134110000Y-72810000D03*
D10*
X134110000Y-75350000D03*
D11*
X134110000Y-77890000D03*
X134110000Y-80430000D03*
X134110000Y-82970000D03*
X134110000Y-85510000D03*
D10*
X134110000Y-88050000D03*
D11*
X134110000Y-90590000D03*
X134110000Y-93130000D03*
X151890000Y-93130000D03*
X151890000Y-90590000D03*
D10*
X151890000Y-88050000D03*
D11*
X151890000Y-85510000D03*
X151890000Y-82970000D03*
X151890000Y-80430000D03*
X151890000Y-77890000D03*
D10*
X151890000Y-75350000D03*
D11*
X151890000Y-72810000D03*
X151890000Y-70270000D03*
X151890000Y-67730000D03*
X151890000Y-65190000D03*
D10*
X151890000Y-62650000D03*
D11*
X151890000Y-60110000D03*
X151890000Y-57570000D03*
X151890000Y-55030000D03*
X151890000Y-52490000D03*
D10*
X151890000Y-49950000D03*
D11*
X151890000Y-47410000D03*
X151890000Y-44870000D03*
X140460000Y-92900000D03*
D10*
X143000000Y-92900000D03*
D11*
X145540000Y-92900000D03*
D12*
X164730000Y-87500000D03*
D13*
X166000000Y-87500000D03*
X167270000Y-87500000D03*
D10*
X118110000Y-54610000D03*
D11*
X118110000Y-57150000D03*
X118110000Y-59690000D03*
X118110000Y-62230000D03*
X118110000Y-64770000D03*
X118110000Y-67310000D03*
X118110000Y-69850000D03*
X118110000Y-72390000D03*
X118110000Y-74930000D03*
X118110000Y-77470000D03*
X118110000Y-80010000D03*
X118110000Y-82550000D03*
X118110000Y-85090000D03*
X118110000Y-87630000D03*
X118110000Y-90170000D03*
X118110000Y-92710000D03*
D14*
X139000000Y-100960000D03*
D15*
X139000000Y-103500000D03*
X139000000Y-106040000D03*
D10*
X161270000Y-54610000D03*
D11*
X161270000Y-57150000D03*
X161270000Y-59690000D03*
X161270000Y-62230000D03*
X161270000Y-64770000D03*
X161270000Y-67310000D03*
X161270000Y-69850000D03*
X161270000Y-72390000D03*
D10*
X123190000Y-54610000D03*
D11*
X123190000Y-57150000D03*
X123190000Y-59690000D03*
X123190000Y-62230000D03*
X123190000Y-64770000D03*
X123190000Y-67310000D03*
X123190000Y-69850000D03*
X123190000Y-72390000D03*
X123190000Y-74930000D03*
X123190000Y-77470000D03*
X123190000Y-80010000D03*
X123190000Y-82550000D03*
X123190000Y-85090000D03*
X123190000Y-87630000D03*
X123190000Y-90170000D03*
X123190000Y-92710000D03*
D16*
X118000000Y-102500000D03*
D17*
X123000000Y-102500000D03*
X128000000Y-102500000D03*
D10*
X163830000Y-54610000D03*
D11*
X163830000Y-57150000D03*
X163830000Y-59690000D03*
X163830000Y-62230000D03*
X163830000Y-64770000D03*
X163830000Y-67310000D03*
X163830000Y-69850000D03*
X163830000Y-72390000D03*
D10*
X166370000Y-54610000D03*
D11*
X166370000Y-57150000D03*
X166370000Y-59690000D03*
X166370000Y-62230000D03*
X166370000Y-64770000D03*
X166370000Y-67310000D03*
X166370000Y-69850000D03*
X166370000Y-72390000D03*
D12*
X158960000Y-87500000D03*
D13*
X160230000Y-87500000D03*
X161500000Y-87500000D03*
D10*
X125730000Y-54610000D03*
D11*
X125730000Y-57150000D03*
X125730000Y-59690000D03*
X125730000Y-62230000D03*
X125730000Y-64770000D03*
X125730000Y-67310000D03*
X125730000Y-69850000D03*
X125730000Y-72390000D03*
X125730000Y-74930000D03*
X125730000Y-77470000D03*
X125730000Y-80010000D03*
X125730000Y-82550000D03*
X125730000Y-85090000D03*
X125730000Y-87630000D03*
X125730000Y-90170000D03*
X125730000Y-92710000D03*
D18*
X165735000Y-80645000D03*
X165735000Y-79375000D03*
D19*
X136485000Y-92770255D02*
X134700255Y-94555000D01*
X151890000Y-44870000D02*
X136485000Y-60275000D01*
X125035000Y-94555000D02*
X123190000Y-92710000D01*
X134700255Y-94555000D02*
X125035000Y-94555000D01*
X136485000Y-60275000D02*
X136485000Y-92770255D01*
X163419365Y-86000000D02*
X163419365Y-87405635D01*
X135093758Y-95505000D02*
X145415000Y-85183758D01*
X120905000Y-95505000D02*
X135093758Y-95505000D01*
X118110000Y-92710000D02*
X120905000Y-95505000D01*
X160230000Y-88010635D02*
X160230000Y-87500000D01*
X151890000Y-52490000D02*
X150075000Y-52490000D01*
X162000000Y-88825000D02*
X161044365Y-88825000D01*
X166000000Y-86000000D02*
X163419365Y-86000000D01*
X145415000Y-85183758D02*
X145415000Y-57150000D01*
X160230000Y-75990000D02*
X163830000Y-72390000D01*
X161044365Y-88825000D02*
X160230000Y-88010635D01*
X150075000Y-52490000D02*
X145415000Y-57150000D01*
X163419365Y-87405635D02*
X162000000Y-88825000D01*
X160230000Y-87500000D02*
X160230000Y-75990000D01*
X166000000Y-87500000D02*
X166000000Y-86000000D01*
X135535000Y-76775000D02*
X135535000Y-86625000D01*
X135535000Y-61225000D02*
X135535000Y-51375000D01*
X125310000Y-49950000D02*
X120650000Y-54610000D01*
X134110000Y-62650000D02*
X135535000Y-64075000D01*
X150465000Y-76775000D02*
X151890000Y-75350000D01*
X150465000Y-86625000D02*
X150465000Y-76775000D01*
X151890000Y-88050000D02*
X150465000Y-86625000D01*
X134110000Y-62650000D02*
X135535000Y-61225000D01*
X151890000Y-75350000D02*
X153670000Y-73570000D01*
X135535000Y-86625000D02*
X134110000Y-88050000D01*
X135535000Y-51375000D02*
X134110000Y-49950000D01*
X135535000Y-73925000D02*
X134110000Y-75350000D01*
X153670000Y-73570000D02*
X153670000Y-51730000D01*
X134110000Y-49950000D02*
X125310000Y-49950000D01*
X135535000Y-64075000D02*
X135535000Y-73925000D01*
X134110000Y-75350000D02*
X135535000Y-76775000D01*
X153670000Y-51730000D02*
X151890000Y-49950000D01*
D20*
X161500000Y-84880000D02*
X161500000Y-87500000D01*
X165735000Y-80645000D02*
X161500000Y-84880000D01*
X167270000Y-80910000D02*
X167270000Y-87500000D01*
X165735000Y-79375000D02*
X167270000Y-80910000D01*
X151890000Y-93130000D02*
X153330000Y-93130000D01*
X153330000Y-93130000D02*
X158960000Y-87500000D01*
X150715000Y-94200000D02*
X150820000Y-94305000D01*
X150820000Y-94305000D02*
X157925000Y-94305000D01*
X151890000Y-90590000D02*
X150715000Y-91765000D01*
X150715000Y-91765000D02*
X150715000Y-94200000D01*
X157925000Y-94305000D02*
X164730000Y-87500000D01*
G04 #@! TA.AperFunction,Conductor*
G36*
X132710720Y-50853185D02*
G01*
X132756475Y-50905989D01*
X132759862Y-50914166D01*
X132809110Y-51046203D01*
X132809111Y-51046204D01*
X132896739Y-51163261D01*
X133013796Y-51250889D01*
X133065737Y-51270262D01*
X133131595Y-51294827D01*
X133187528Y-51336699D01*
X133211944Y-51402163D01*
X133197092Y-51470436D01*
X133179490Y-51494991D01*
X133034279Y-51652730D01*
X133034278Y-51652732D01*
X132911140Y-51841207D01*
X132820703Y-52047385D01*
X132765436Y-52265628D01*
X132765434Y-52265640D01*
X132746844Y-52489994D01*
X132746844Y-52490005D01*
X132765434Y-52714359D01*
X132765436Y-52714371D01*
X132820703Y-52932614D01*
X132911140Y-53138792D01*
X133034276Y-53327265D01*
X133034284Y-53327276D01*
X133168005Y-53472533D01*
X133186760Y-53492906D01*
X133364424Y-53631189D01*
X133364429Y-53631191D01*
X133364431Y-53631193D01*
X133400930Y-53650946D01*
X133450520Y-53700165D01*
X133465628Y-53768382D01*
X133441457Y-53833937D01*
X133400930Y-53869054D01*
X133364431Y-53888806D01*
X133364422Y-53888812D01*
X133186761Y-54027092D01*
X133186756Y-54027097D01*
X133034284Y-54192723D01*
X133034276Y-54192734D01*
X132911140Y-54381207D01*
X132820703Y-54587385D01*
X132765436Y-54805628D01*
X132765434Y-54805640D01*
X132746844Y-55029994D01*
X132746844Y-55030005D01*
X132765434Y-55254359D01*
X132765436Y-55254371D01*
X132820703Y-55472614D01*
X132911140Y-55678792D01*
X133034276Y-55867265D01*
X133034284Y-55867276D01*
X133186756Y-56032902D01*
X133186760Y-56032906D01*
X133364424Y-56171189D01*
X133364429Y-56171191D01*
X133364431Y-56171193D01*
X133400930Y-56190946D01*
X133450520Y-56240165D01*
X133465628Y-56308382D01*
X133441457Y-56373937D01*
X133400930Y-56409054D01*
X133364431Y-56428806D01*
X133364422Y-56428812D01*
X133186761Y-56567092D01*
X133186756Y-56567097D01*
X133034284Y-56732723D01*
X133034276Y-56732734D01*
X132911140Y-56921207D01*
X132820703Y-57127385D01*
X132765436Y-57345628D01*
X132765434Y-57345640D01*
X132746844Y-57569994D01*
X132746844Y-57570005D01*
X132765434Y-57794359D01*
X132765436Y-57794371D01*
X132820703Y-58012614D01*
X132911140Y-58218792D01*
X133034276Y-58407265D01*
X133034284Y-58407276D01*
X133186756Y-58572902D01*
X133186760Y-58572906D01*
X133364424Y-58711189D01*
X133364429Y-58711191D01*
X133364431Y-58711193D01*
X133400930Y-58730946D01*
X133450520Y-58780165D01*
X133465628Y-58848382D01*
X133441457Y-58913937D01*
X133400930Y-58949054D01*
X133364431Y-58968806D01*
X133364422Y-58968812D01*
X133186761Y-59107092D01*
X133186756Y-59107097D01*
X133034284Y-59272723D01*
X133034276Y-59272734D01*
X132911140Y-59461207D01*
X132820703Y-59667385D01*
X132765436Y-59885628D01*
X132765434Y-59885640D01*
X132746844Y-60109994D01*
X132746844Y-60110005D01*
X132765434Y-60334359D01*
X132765436Y-60334371D01*
X132820703Y-60552614D01*
X132911140Y-60758792D01*
X133034276Y-60947265D01*
X133034284Y-60947276D01*
X133179489Y-61105008D01*
X133210412Y-61167662D01*
X133202552Y-61237088D01*
X133158405Y-61291244D01*
X133131596Y-61305172D01*
X133013794Y-61349111D01*
X132896739Y-61436739D01*
X132809111Y-61553795D01*
X132758011Y-61690795D01*
X132758011Y-61690797D01*
X132751500Y-61751345D01*
X132751500Y-63548654D01*
X132758011Y-63609202D01*
X132758011Y-63609204D01*
X132809111Y-63746204D01*
X132896739Y-63863261D01*
X133013796Y-63950889D01*
X133065737Y-63970262D01*
X133131595Y-63994827D01*
X133187528Y-64036699D01*
X133211944Y-64102163D01*
X133197092Y-64170436D01*
X133179490Y-64194991D01*
X133034279Y-64352730D01*
X133034276Y-64352734D01*
X132911140Y-64541207D01*
X132820703Y-64747385D01*
X132765436Y-64965628D01*
X132765434Y-64965640D01*
X132746844Y-65189994D01*
X132746844Y-65190005D01*
X132765434Y-65414359D01*
X132765436Y-65414371D01*
X132820703Y-65632614D01*
X132911140Y-65838792D01*
X133034276Y-66027265D01*
X133034284Y-66027276D01*
X133186756Y-66192902D01*
X133186760Y-66192906D01*
X133364424Y-66331189D01*
X133364429Y-66331191D01*
X133364431Y-66331193D01*
X133400930Y-66350946D01*
X133450520Y-66400165D01*
X133465628Y-66468382D01*
X133441457Y-66533937D01*
X133400930Y-66569054D01*
X133364431Y-66588806D01*
X133364422Y-66588812D01*
X133186761Y-66727092D01*
X133186756Y-66727097D01*
X133034284Y-66892723D01*
X133034276Y-66892734D01*
X132911140Y-67081207D01*
X132820703Y-67287385D01*
X132765436Y-67505628D01*
X132765434Y-67505640D01*
X132746844Y-67729994D01*
X132746844Y-67730005D01*
X132765434Y-67954359D01*
X132765436Y-67954371D01*
X132820703Y-68172614D01*
X132911140Y-68378792D01*
X133034276Y-68567265D01*
X133034284Y-68567276D01*
X133186756Y-68732902D01*
X133186760Y-68732906D01*
X133364424Y-68871189D01*
X133364429Y-68871191D01*
X133364431Y-68871193D01*
X133400930Y-68890946D01*
X133450520Y-68940165D01*
X133465628Y-69008382D01*
X133441457Y-69073937D01*
X133400930Y-69109054D01*
X133364431Y-69128806D01*
X133364422Y-69128812D01*
X133186761Y-69267092D01*
X133186756Y-69267097D01*
X133034284Y-69432723D01*
X133034276Y-69432734D01*
X132911140Y-69621207D01*
X132820703Y-69827385D01*
X132765436Y-70045628D01*
X132765434Y-70045640D01*
X132746844Y-70269994D01*
X132746844Y-70270005D01*
X132765434Y-70494359D01*
X132765436Y-70494371D01*
X132820703Y-70712614D01*
X132911140Y-70918792D01*
X133034276Y-71107265D01*
X133034284Y-71107276D01*
X133186756Y-71272902D01*
X133186760Y-71272906D01*
X133364424Y-71411189D01*
X133364429Y-71411191D01*
X133364431Y-71411193D01*
X133400930Y-71430946D01*
X133450520Y-71480165D01*
X133465628Y-71548382D01*
X133441457Y-71613937D01*
X133400930Y-71649054D01*
X133364431Y-71668806D01*
X133364422Y-71668812D01*
X133186761Y-71807092D01*
X133186756Y-71807097D01*
X133034284Y-71972723D01*
X133034276Y-71972734D01*
X132911140Y-72161207D01*
X132820703Y-72367385D01*
X132765436Y-72585628D01*
X132765434Y-72585640D01*
X132746844Y-72809994D01*
X132746844Y-72810005D01*
X132765434Y-73034359D01*
X132765436Y-73034371D01*
X132820703Y-73252614D01*
X132911140Y-73458792D01*
X133034276Y-73647265D01*
X133034284Y-73647276D01*
X133179489Y-73805008D01*
X133210412Y-73867662D01*
X133202552Y-73937088D01*
X133158405Y-73991244D01*
X133131596Y-74005172D01*
X133013794Y-74049111D01*
X132896739Y-74136739D01*
X132809111Y-74253795D01*
X132758011Y-74390795D01*
X132758011Y-74390797D01*
X132751500Y-74451345D01*
X132751500Y-76248654D01*
X132758011Y-76309202D01*
X132758011Y-76309204D01*
X132794607Y-76407319D01*
X132809111Y-76446204D01*
X132896739Y-76563261D01*
X133013796Y-76650889D01*
X133065737Y-76670262D01*
X133131595Y-76694827D01*
X133187528Y-76736699D01*
X133211944Y-76802163D01*
X133197092Y-76870436D01*
X133179490Y-76894991D01*
X133034279Y-77052730D01*
X133034276Y-77052734D01*
X132911140Y-77241207D01*
X132820703Y-77447385D01*
X132765436Y-77665628D01*
X132765434Y-77665640D01*
X132746844Y-77889994D01*
X132746844Y-77890005D01*
X132765434Y-78114359D01*
X132765436Y-78114371D01*
X132820703Y-78332614D01*
X132911140Y-78538792D01*
X133034276Y-78727265D01*
X133034284Y-78727276D01*
X133186756Y-78892902D01*
X133186760Y-78892906D01*
X133364424Y-79031189D01*
X133364429Y-79031191D01*
X133364431Y-79031193D01*
X133400930Y-79050946D01*
X133450520Y-79100165D01*
X133465628Y-79168382D01*
X133441457Y-79233937D01*
X133400930Y-79269054D01*
X133364431Y-79288806D01*
X133364422Y-79288812D01*
X133186761Y-79427092D01*
X133186756Y-79427097D01*
X133034284Y-79592723D01*
X133034276Y-79592734D01*
X132911140Y-79781207D01*
X132820703Y-79987385D01*
X132765436Y-80205628D01*
X132765434Y-80205640D01*
X132746844Y-80429994D01*
X132746844Y-80430005D01*
X132765434Y-80654359D01*
X132765436Y-80654371D01*
X132820703Y-80872614D01*
X132911140Y-81078792D01*
X133034276Y-81267265D01*
X133034284Y-81267276D01*
X133186756Y-81432902D01*
X133186761Y-81432907D01*
X133245981Y-81479000D01*
X133364424Y-81571189D01*
X133364429Y-81571191D01*
X133364431Y-81571193D01*
X133400930Y-81590946D01*
X133450520Y-81640165D01*
X133465628Y-81708382D01*
X133441457Y-81773937D01*
X133400930Y-81809054D01*
X133364431Y-81828806D01*
X133364422Y-81828812D01*
X133186761Y-81967092D01*
X133186756Y-81967097D01*
X133034284Y-82132723D01*
X133034276Y-82132734D01*
X132911140Y-82321207D01*
X132820703Y-82527385D01*
X132765436Y-82745628D01*
X132765434Y-82745640D01*
X132746844Y-82969994D01*
X132746844Y-82970005D01*
X132765434Y-83194359D01*
X132765436Y-83194371D01*
X132820703Y-83412614D01*
X132911140Y-83618792D01*
X133034276Y-83807265D01*
X133034284Y-83807276D01*
X133186756Y-83972902D01*
X133186760Y-83972906D01*
X133364424Y-84111189D01*
X133364429Y-84111191D01*
X133364431Y-84111193D01*
X133400930Y-84130946D01*
X133450520Y-84180165D01*
X133465628Y-84248382D01*
X133441457Y-84313937D01*
X133400930Y-84349054D01*
X133364431Y-84368806D01*
X133364422Y-84368812D01*
X133186761Y-84507092D01*
X133186756Y-84507097D01*
X133034284Y-84672723D01*
X133034276Y-84672734D01*
X132911140Y-84861207D01*
X132820703Y-85067385D01*
X132765436Y-85285628D01*
X132765434Y-85285640D01*
X132746844Y-85509994D01*
X132746844Y-85510005D01*
X132765434Y-85734359D01*
X132765436Y-85734371D01*
X132820703Y-85952614D01*
X132911140Y-86158792D01*
X133034276Y-86347265D01*
X133034284Y-86347276D01*
X133179489Y-86505008D01*
X133210412Y-86567662D01*
X133202552Y-86637088D01*
X133158405Y-86691244D01*
X133131596Y-86705172D01*
X133013794Y-86749111D01*
X132896739Y-86836739D01*
X132809111Y-86953795D01*
X132758011Y-87090795D01*
X132758011Y-87090797D01*
X132751500Y-87151345D01*
X132751500Y-88948654D01*
X132758011Y-89009202D01*
X132758011Y-89009204D01*
X132809111Y-89146204D01*
X132896739Y-89263261D01*
X133013796Y-89350889D01*
X133065737Y-89370262D01*
X133131595Y-89394827D01*
X133187528Y-89436699D01*
X133211944Y-89502163D01*
X133197092Y-89570436D01*
X133179490Y-89594991D01*
X133034279Y-89752730D01*
X133034276Y-89752734D01*
X132911140Y-89941207D01*
X132820703Y-90147385D01*
X132765436Y-90365628D01*
X132765434Y-90365640D01*
X132746844Y-90589994D01*
X132746844Y-90590005D01*
X132765434Y-90814359D01*
X132765436Y-90814371D01*
X132820703Y-91032614D01*
X132911140Y-91238792D01*
X133034276Y-91427265D01*
X133034284Y-91427276D01*
X133175076Y-91580214D01*
X133186760Y-91592906D01*
X133364424Y-91731189D01*
X133364429Y-91731191D01*
X133364431Y-91731193D01*
X133400930Y-91750946D01*
X133450520Y-91800165D01*
X133465628Y-91868382D01*
X133441457Y-91933937D01*
X133400930Y-91969054D01*
X133364431Y-91988806D01*
X133364422Y-91988812D01*
X133186761Y-92127092D01*
X133186756Y-92127097D01*
X133034284Y-92292723D01*
X133034276Y-92292734D01*
X132911140Y-92481207D01*
X132820703Y-92687385D01*
X132765436Y-92905628D01*
X132765434Y-92905640D01*
X132746844Y-93129994D01*
X132746844Y-93130005D01*
X132765434Y-93354359D01*
X132765436Y-93354371D01*
X132820703Y-93572614D01*
X132911140Y-93778792D01*
X133034276Y-93967265D01*
X133034284Y-93967276D01*
X133168674Y-94113260D01*
X133186760Y-94132906D01*
X133364424Y-94271189D01*
X133364425Y-94271189D01*
X133364427Y-94271191D01*
X133491135Y-94339761D01*
X133562426Y-94378342D01*
X133567894Y-94380219D01*
X133624909Y-94420606D01*
X133651039Y-94485406D01*
X133637987Y-94554045D01*
X133589897Y-94604732D01*
X133527630Y-94621500D01*
X121322319Y-94621500D01*
X121255280Y-94601815D01*
X121234638Y-94585181D01*
X120894676Y-94245219D01*
X120861191Y-94183896D01*
X120866175Y-94114204D01*
X120908047Y-94058271D01*
X120961947Y-94035229D01*
X120984635Y-94031444D01*
X121197574Y-93958342D01*
X121395576Y-93851189D01*
X121573240Y-93712906D01*
X121678089Y-93599011D01*
X121725715Y-93547276D01*
X121725716Y-93547274D01*
X121725722Y-93547268D01*
X121848860Y-93358791D01*
X121939296Y-93152616D01*
X121994564Y-92934368D01*
X121996946Y-92905628D01*
X122013156Y-92710005D01*
X122013156Y-92709994D01*
X121994565Y-92485640D01*
X121994563Y-92485628D01*
X121960157Y-92349763D01*
X121939296Y-92267384D01*
X121848860Y-92061209D01*
X121832706Y-92036484D01*
X121759942Y-91925110D01*
X121725722Y-91872732D01*
X121725719Y-91872729D01*
X121725715Y-91872723D01*
X121573243Y-91707097D01*
X121573238Y-91707092D01*
X121426528Y-91592902D01*
X121395576Y-91568811D01*
X121359070Y-91549055D01*
X121309479Y-91499836D01*
X121294371Y-91431619D01*
X121318541Y-91366064D01*
X121359070Y-91330945D01*
X121359084Y-91330936D01*
X121395576Y-91311189D01*
X121573240Y-91172906D01*
X121692683Y-91043158D01*
X121725715Y-91007276D01*
X121725717Y-91007273D01*
X121725722Y-91007268D01*
X121848860Y-90818791D01*
X121939296Y-90612616D01*
X121994564Y-90394368D01*
X122013156Y-90170000D01*
X122011282Y-90147385D01*
X121994565Y-89945640D01*
X121994563Y-89945628D01*
X121970384Y-89850147D01*
X121939296Y-89727384D01*
X121848860Y-89521209D01*
X121842361Y-89511262D01*
X121766291Y-89394827D01*
X121725722Y-89332732D01*
X121725719Y-89332729D01*
X121725715Y-89332723D01*
X121573243Y-89167097D01*
X121573238Y-89167092D01*
X121395577Y-89028812D01*
X121395578Y-89028812D01*
X121395576Y-89028811D01*
X121359070Y-89009055D01*
X121309479Y-88959836D01*
X121294371Y-88891619D01*
X121318541Y-88826064D01*
X121359070Y-88790945D01*
X121359084Y-88790936D01*
X121395576Y-88771189D01*
X121573240Y-88632906D01*
X121725722Y-88467268D01*
X121848860Y-88278791D01*
X121939296Y-88072616D01*
X121994564Y-87854368D01*
X122013156Y-87630000D01*
X122009529Y-87586233D01*
X121994565Y-87405640D01*
X121994563Y-87405628D01*
X121939296Y-87187385D01*
X121876180Y-87043494D01*
X121848860Y-86981209D01*
X121832706Y-86956484D01*
X121725723Y-86792734D01*
X121725715Y-86792723D01*
X121573243Y-86627097D01*
X121573238Y-86627092D01*
X121426533Y-86512906D01*
X121395576Y-86488811D01*
X121359070Y-86469055D01*
X121309479Y-86419836D01*
X121294371Y-86351619D01*
X121318541Y-86286064D01*
X121359070Y-86250945D01*
X121359084Y-86250936D01*
X121395576Y-86231189D01*
X121573240Y-86092906D01*
X121672614Y-85984957D01*
X121725715Y-85927276D01*
X121725717Y-85927273D01*
X121725722Y-85927268D01*
X121848860Y-85738791D01*
X121939296Y-85532616D01*
X121994564Y-85314368D01*
X121998176Y-85270776D01*
X122013156Y-85090005D01*
X122013156Y-85089994D01*
X121994565Y-84865640D01*
X121994563Y-84865628D01*
X121969445Y-84766438D01*
X121939296Y-84647384D01*
X121848860Y-84441209D01*
X121832706Y-84416484D01*
X121765709Y-84313937D01*
X121725722Y-84252732D01*
X121725719Y-84252729D01*
X121725715Y-84252723D01*
X121573243Y-84087097D01*
X121573238Y-84087092D01*
X121395577Y-83948812D01*
X121395578Y-83948812D01*
X121395576Y-83948811D01*
X121359070Y-83929055D01*
X121309479Y-83879836D01*
X121294371Y-83811619D01*
X121318541Y-83746064D01*
X121359070Y-83710945D01*
X121359084Y-83710936D01*
X121395576Y-83691189D01*
X121573240Y-83552906D01*
X121672614Y-83444957D01*
X121725715Y-83387276D01*
X121725717Y-83387273D01*
X121725722Y-83387268D01*
X121848860Y-83198791D01*
X121939296Y-82992616D01*
X121994564Y-82774368D01*
X122013156Y-82550000D01*
X122011282Y-82527385D01*
X121994565Y-82325640D01*
X121994563Y-82325628D01*
X121991876Y-82315018D01*
X121939296Y-82107384D01*
X121848860Y-81901209D01*
X121832706Y-81876484D01*
X121765709Y-81773937D01*
X121725722Y-81712732D01*
X121725719Y-81712729D01*
X121725715Y-81712723D01*
X121573243Y-81547097D01*
X121573238Y-81547092D01*
X121395577Y-81408812D01*
X121395578Y-81408812D01*
X121395576Y-81408811D01*
X121359070Y-81389055D01*
X121309479Y-81339836D01*
X121294371Y-81271619D01*
X121318541Y-81206064D01*
X121359070Y-81170945D01*
X121359084Y-81170936D01*
X121395576Y-81151189D01*
X121573240Y-81012906D01*
X121672614Y-80904957D01*
X121725715Y-80847276D01*
X121725717Y-80847273D01*
X121725722Y-80847268D01*
X121848860Y-80658791D01*
X121939296Y-80452616D01*
X121994564Y-80234368D01*
X121996946Y-80205628D01*
X122013156Y-80010005D01*
X122013156Y-80009994D01*
X121994565Y-79785640D01*
X121994563Y-79785628D01*
X121984667Y-79746549D01*
X121939296Y-79567384D01*
X121848860Y-79361209D01*
X121832706Y-79336484D01*
X121765709Y-79233937D01*
X121725722Y-79172732D01*
X121725719Y-79172729D01*
X121725715Y-79172723D01*
X121573243Y-79007097D01*
X121573238Y-79007092D01*
X121395577Y-78868812D01*
X121395578Y-78868812D01*
X121395576Y-78868811D01*
X121359070Y-78849055D01*
X121309479Y-78799836D01*
X121294371Y-78731619D01*
X121318541Y-78666064D01*
X121359070Y-78630945D01*
X121359084Y-78630936D01*
X121395576Y-78611189D01*
X121573240Y-78472906D01*
X121672614Y-78364957D01*
X121725715Y-78307276D01*
X121725717Y-78307273D01*
X121725722Y-78307268D01*
X121848860Y-78118791D01*
X121939296Y-77912616D01*
X121994564Y-77694368D01*
X122013156Y-77470000D01*
X122011282Y-77447385D01*
X121994565Y-77245640D01*
X121994563Y-77245628D01*
X121991876Y-77235018D01*
X121939296Y-77027384D01*
X121848860Y-76821209D01*
X121832706Y-76796484D01*
X121761819Y-76687983D01*
X121725722Y-76632732D01*
X121725719Y-76632729D01*
X121725715Y-76632723D01*
X121573243Y-76467097D01*
X121573238Y-76467092D01*
X121395577Y-76328812D01*
X121395578Y-76328812D01*
X121395576Y-76328811D01*
X121359070Y-76309055D01*
X121309479Y-76259836D01*
X121294371Y-76191619D01*
X121318541Y-76126064D01*
X121359070Y-76090945D01*
X121359084Y-76090936D01*
X121395576Y-76071189D01*
X121573240Y-75932906D01*
X121725722Y-75767268D01*
X121848860Y-75578791D01*
X121939296Y-75372616D01*
X121994564Y-75154368D01*
X122013156Y-74930000D01*
X121994564Y-74705632D01*
X121939296Y-74487384D01*
X121848860Y-74281209D01*
X121832706Y-74256484D01*
X121725723Y-74092734D01*
X121725715Y-74092723D01*
X121573243Y-73927097D01*
X121573238Y-73927092D01*
X121420425Y-73808152D01*
X121395576Y-73788811D01*
X121359070Y-73769055D01*
X121309479Y-73719836D01*
X121294371Y-73651619D01*
X121318541Y-73586064D01*
X121359070Y-73550945D01*
X121359084Y-73550936D01*
X121395576Y-73531189D01*
X121573240Y-73392906D01*
X121672614Y-73284957D01*
X121725715Y-73227276D01*
X121725717Y-73227273D01*
X121725722Y-73227268D01*
X121848860Y-73038791D01*
X121939296Y-72832616D01*
X121994564Y-72614368D01*
X122013156Y-72390000D01*
X122011282Y-72367385D01*
X121994565Y-72165640D01*
X121994563Y-72165628D01*
X121991876Y-72155018D01*
X121939296Y-71947384D01*
X121848860Y-71741209D01*
X121842706Y-71731790D01*
X121765709Y-71613937D01*
X121725722Y-71552732D01*
X121725719Y-71552729D01*
X121725715Y-71552723D01*
X121573243Y-71387097D01*
X121573238Y-71387092D01*
X121395577Y-71248812D01*
X121395578Y-71248812D01*
X121395576Y-71248811D01*
X121359070Y-71229055D01*
X121309479Y-71179836D01*
X121294371Y-71111619D01*
X121318541Y-71046064D01*
X121359070Y-71010945D01*
X121359084Y-71010936D01*
X121395576Y-70991189D01*
X121573240Y-70852906D01*
X121672614Y-70744957D01*
X121725715Y-70687276D01*
X121725717Y-70687273D01*
X121725722Y-70687268D01*
X121848860Y-70498791D01*
X121939296Y-70292616D01*
X121994564Y-70074368D01*
X122013156Y-69850000D01*
X122011282Y-69827385D01*
X121994565Y-69625640D01*
X121994563Y-69625628D01*
X121991876Y-69615018D01*
X121939296Y-69407384D01*
X121848860Y-69201209D01*
X121842706Y-69191790D01*
X121765709Y-69073937D01*
X121725722Y-69012732D01*
X121725719Y-69012729D01*
X121725715Y-69012723D01*
X121573243Y-68847097D01*
X121573238Y-68847092D01*
X121395577Y-68708812D01*
X121395578Y-68708812D01*
X121395576Y-68708811D01*
X121359070Y-68689055D01*
X121309479Y-68639836D01*
X121294371Y-68571619D01*
X121318541Y-68506064D01*
X121359070Y-68470945D01*
X121359084Y-68470936D01*
X121395576Y-68451189D01*
X121573240Y-68312906D01*
X121672614Y-68204957D01*
X121725715Y-68147276D01*
X121725717Y-68147273D01*
X121725722Y-68147268D01*
X121848860Y-67958791D01*
X121939296Y-67752616D01*
X121994564Y-67534368D01*
X122013156Y-67310000D01*
X122011282Y-67287385D01*
X121994565Y-67085640D01*
X121994563Y-67085628D01*
X121991876Y-67075018D01*
X121939296Y-66867384D01*
X121848860Y-66661209D01*
X121842706Y-66651790D01*
X121765709Y-66533937D01*
X121725722Y-66472732D01*
X121725719Y-66472729D01*
X121725715Y-66472723D01*
X121573243Y-66307097D01*
X121573238Y-66307092D01*
X121395577Y-66168812D01*
X121395578Y-66168812D01*
X121395576Y-66168811D01*
X121359070Y-66149055D01*
X121309479Y-66099836D01*
X121294371Y-66031619D01*
X121318541Y-65966064D01*
X121359070Y-65930945D01*
X121359084Y-65930936D01*
X121395576Y-65911189D01*
X121573240Y-65772906D01*
X121672614Y-65664957D01*
X121725715Y-65607276D01*
X121725717Y-65607273D01*
X121725722Y-65607268D01*
X121848860Y-65418791D01*
X121939296Y-65212616D01*
X121994564Y-64994368D01*
X122013156Y-64770000D01*
X122011282Y-64747385D01*
X121994565Y-64545640D01*
X121994563Y-64545628D01*
X121991876Y-64535018D01*
X121939296Y-64327384D01*
X121848860Y-64121209D01*
X121842706Y-64111790D01*
X121761819Y-63987983D01*
X121725722Y-63932732D01*
X121725719Y-63932729D01*
X121725715Y-63932723D01*
X121573243Y-63767097D01*
X121573238Y-63767092D01*
X121395577Y-63628812D01*
X121395578Y-63628812D01*
X121395576Y-63628811D01*
X121359070Y-63609055D01*
X121309479Y-63559836D01*
X121294371Y-63491619D01*
X121318541Y-63426064D01*
X121359070Y-63390945D01*
X121359084Y-63390936D01*
X121395576Y-63371189D01*
X121573240Y-63232906D01*
X121725722Y-63067268D01*
X121848860Y-62878791D01*
X121939296Y-62672616D01*
X121994564Y-62454368D01*
X122013156Y-62230000D01*
X121994564Y-62005632D01*
X121939296Y-61787384D01*
X121848860Y-61581209D01*
X121842706Y-61571790D01*
X121725723Y-61392734D01*
X121725715Y-61392723D01*
X121573243Y-61227097D01*
X121573238Y-61227092D01*
X121426533Y-61112906D01*
X121395576Y-61088811D01*
X121359070Y-61069055D01*
X121309479Y-61019836D01*
X121294371Y-60951619D01*
X121318541Y-60886064D01*
X121359070Y-60850945D01*
X121359084Y-60850936D01*
X121395576Y-60831189D01*
X121573240Y-60692906D01*
X121672614Y-60584957D01*
X121725715Y-60527276D01*
X121725717Y-60527273D01*
X121725722Y-60527268D01*
X121848860Y-60338791D01*
X121939296Y-60132616D01*
X121994564Y-59914368D01*
X122013156Y-59690000D01*
X122011282Y-59667385D01*
X121994565Y-59465640D01*
X121994563Y-59465628D01*
X121991876Y-59455018D01*
X121939296Y-59247384D01*
X121848860Y-59041209D01*
X121842706Y-59031790D01*
X121765709Y-58913937D01*
X121725722Y-58852732D01*
X121725719Y-58852729D01*
X121725715Y-58852723D01*
X121573243Y-58687097D01*
X121573238Y-58687092D01*
X121395577Y-58548812D01*
X121395578Y-58548812D01*
X121395576Y-58548811D01*
X121359070Y-58529055D01*
X121309479Y-58479836D01*
X121294371Y-58411619D01*
X121318541Y-58346064D01*
X121359070Y-58310945D01*
X121359084Y-58310936D01*
X121395576Y-58291189D01*
X121573240Y-58152906D01*
X121672614Y-58044957D01*
X121725715Y-57987276D01*
X121725717Y-57987273D01*
X121725722Y-57987268D01*
X121848860Y-57798791D01*
X121939296Y-57592616D01*
X121994564Y-57374368D01*
X122013156Y-57150000D01*
X122013156Y-57149994D01*
X124366844Y-57149994D01*
X124366844Y-57150005D01*
X124385434Y-57374359D01*
X124385436Y-57374371D01*
X124440703Y-57592614D01*
X124531140Y-57798792D01*
X124654276Y-57987265D01*
X124654284Y-57987276D01*
X124806756Y-58152902D01*
X124806760Y-58152906D01*
X124984424Y-58291189D01*
X124984429Y-58291191D01*
X124984431Y-58291193D01*
X125020930Y-58310946D01*
X125070520Y-58360165D01*
X125085628Y-58428382D01*
X125061457Y-58493937D01*
X125020930Y-58529054D01*
X124984431Y-58548806D01*
X124984422Y-58548812D01*
X124806761Y-58687092D01*
X124806756Y-58687097D01*
X124654284Y-58852723D01*
X124654276Y-58852734D01*
X124531140Y-59041207D01*
X124440703Y-59247385D01*
X124385436Y-59465628D01*
X124385434Y-59465640D01*
X124366844Y-59689994D01*
X124366844Y-59690005D01*
X124385434Y-59914359D01*
X124385436Y-59914371D01*
X124440703Y-60132614D01*
X124531140Y-60338792D01*
X124654276Y-60527265D01*
X124654284Y-60527276D01*
X124806756Y-60692902D01*
X124806760Y-60692906D01*
X124984424Y-60831189D01*
X124984429Y-60831191D01*
X124984431Y-60831193D01*
X125020930Y-60850946D01*
X125070520Y-60900165D01*
X125085628Y-60968382D01*
X125061457Y-61033937D01*
X125020930Y-61069054D01*
X124984431Y-61088806D01*
X124984422Y-61088812D01*
X124806761Y-61227092D01*
X124806756Y-61227097D01*
X124654284Y-61392723D01*
X124654276Y-61392734D01*
X124531140Y-61581207D01*
X124440703Y-61787385D01*
X124385436Y-62005628D01*
X124385434Y-62005640D01*
X124366844Y-62229994D01*
X124366844Y-62230005D01*
X124385434Y-62454359D01*
X124385436Y-62454371D01*
X124440703Y-62672614D01*
X124531140Y-62878792D01*
X124654276Y-63067265D01*
X124654284Y-63067276D01*
X124806756Y-63232902D01*
X124806760Y-63232906D01*
X124984424Y-63371189D01*
X124984429Y-63371191D01*
X124984431Y-63371193D01*
X125020930Y-63390946D01*
X125070520Y-63440165D01*
X125085628Y-63508382D01*
X125061457Y-63573937D01*
X125020930Y-63609054D01*
X124984431Y-63628806D01*
X124984422Y-63628812D01*
X124806761Y-63767092D01*
X124806756Y-63767097D01*
X124654284Y-63932723D01*
X124654276Y-63932734D01*
X124531140Y-64121207D01*
X124440703Y-64327385D01*
X124385436Y-64545628D01*
X124385434Y-64545640D01*
X124366844Y-64769994D01*
X124366844Y-64770005D01*
X124385434Y-64994359D01*
X124385436Y-64994371D01*
X124440703Y-65212614D01*
X124531140Y-65418792D01*
X124654276Y-65607265D01*
X124654284Y-65607276D01*
X124806756Y-65772902D01*
X124806760Y-65772906D01*
X124984424Y-65911189D01*
X124984429Y-65911191D01*
X124984431Y-65911193D01*
X125020930Y-65930946D01*
X125070520Y-65980165D01*
X125085628Y-66048382D01*
X125061457Y-66113937D01*
X125020930Y-66149054D01*
X124984431Y-66168806D01*
X124984422Y-66168812D01*
X124806761Y-66307092D01*
X124806756Y-66307097D01*
X124654284Y-66472723D01*
X124654276Y-66472734D01*
X124531140Y-66661207D01*
X124440703Y-66867385D01*
X124385436Y-67085628D01*
X124385434Y-67085640D01*
X124366844Y-67309994D01*
X124366844Y-67310005D01*
X124385434Y-67534359D01*
X124385436Y-67534371D01*
X124440703Y-67752614D01*
X124531140Y-67958792D01*
X124654276Y-68147265D01*
X124654284Y-68147276D01*
X124806756Y-68312902D01*
X124806760Y-68312906D01*
X124984424Y-68451189D01*
X124984429Y-68451191D01*
X124984431Y-68451193D01*
X125020930Y-68470946D01*
X125070520Y-68520165D01*
X125085628Y-68588382D01*
X125061457Y-68653937D01*
X125020930Y-68689054D01*
X124984431Y-68708806D01*
X124984422Y-68708812D01*
X124806761Y-68847092D01*
X124806756Y-68847097D01*
X124654284Y-69012723D01*
X124654276Y-69012734D01*
X124531140Y-69201207D01*
X124440703Y-69407385D01*
X124385436Y-69625628D01*
X124385434Y-69625640D01*
X124366844Y-69849994D01*
X124366844Y-69850005D01*
X124385434Y-70074359D01*
X124385436Y-70074371D01*
X124440703Y-70292614D01*
X124531140Y-70498792D01*
X124654276Y-70687265D01*
X124654284Y-70687276D01*
X124806756Y-70852902D01*
X124806760Y-70852906D01*
X124984424Y-70991189D01*
X124984429Y-70991191D01*
X124984431Y-70991193D01*
X125020930Y-71010946D01*
X125070520Y-71060165D01*
X125085628Y-71128382D01*
X125061457Y-71193937D01*
X125020930Y-71229054D01*
X124984431Y-71248806D01*
X124984422Y-71248812D01*
X124806761Y-71387092D01*
X124806756Y-71387097D01*
X124654284Y-71552723D01*
X124654276Y-71552734D01*
X124531140Y-71741207D01*
X124440703Y-71947385D01*
X124385436Y-72165628D01*
X124385434Y-72165640D01*
X124366844Y-72389994D01*
X124366844Y-72390005D01*
X124385434Y-72614359D01*
X124385436Y-72614371D01*
X124440703Y-72832614D01*
X124531140Y-73038792D01*
X124654276Y-73227265D01*
X124654284Y-73227276D01*
X124806756Y-73392902D01*
X124806760Y-73392906D01*
X124984424Y-73531189D01*
X124984429Y-73531191D01*
X124984431Y-73531193D01*
X125020930Y-73550946D01*
X125070520Y-73600165D01*
X125085628Y-73668382D01*
X125061457Y-73733937D01*
X125020930Y-73769054D01*
X124984431Y-73788806D01*
X124984422Y-73788812D01*
X124806761Y-73927092D01*
X124806756Y-73927097D01*
X124654284Y-74092723D01*
X124654276Y-74092734D01*
X124531140Y-74281207D01*
X124440703Y-74487385D01*
X124385436Y-74705628D01*
X124385434Y-74705640D01*
X124366844Y-74929994D01*
X124366844Y-74930005D01*
X124385434Y-75154359D01*
X124385436Y-75154371D01*
X124440703Y-75372614D01*
X124531140Y-75578792D01*
X124654276Y-75767265D01*
X124654284Y-75767276D01*
X124806756Y-75932902D01*
X124806760Y-75932906D01*
X124984424Y-76071189D01*
X124984429Y-76071191D01*
X124984431Y-76071193D01*
X125020930Y-76090946D01*
X125070520Y-76140165D01*
X125085628Y-76208382D01*
X125061457Y-76273937D01*
X125020930Y-76309054D01*
X124984431Y-76328806D01*
X124984422Y-76328812D01*
X124806761Y-76467092D01*
X124806756Y-76467097D01*
X124654284Y-76632723D01*
X124654276Y-76632734D01*
X124531140Y-76821207D01*
X124440703Y-77027385D01*
X124385436Y-77245628D01*
X124385434Y-77245640D01*
X124366844Y-77469994D01*
X124366844Y-77470005D01*
X124385434Y-77694359D01*
X124385436Y-77694371D01*
X124440703Y-77912614D01*
X124531140Y-78118792D01*
X124654276Y-78307265D01*
X124654284Y-78307276D01*
X124806756Y-78472902D01*
X124806760Y-78472906D01*
X124984424Y-78611189D01*
X124984429Y-78611191D01*
X124984431Y-78611193D01*
X125020930Y-78630946D01*
X125070520Y-78680165D01*
X125085628Y-78748382D01*
X125061457Y-78813937D01*
X125020930Y-78849054D01*
X124984431Y-78868806D01*
X124984422Y-78868812D01*
X124806761Y-79007092D01*
X124806756Y-79007097D01*
X124654284Y-79172723D01*
X124654276Y-79172734D01*
X124531140Y-79361207D01*
X124440703Y-79567385D01*
X124385436Y-79785628D01*
X124385434Y-79785640D01*
X124366844Y-80009994D01*
X124366844Y-80010005D01*
X124385434Y-80234359D01*
X124385436Y-80234371D01*
X124440703Y-80452614D01*
X124531140Y-80658792D01*
X124654276Y-80847265D01*
X124654284Y-80847276D01*
X124806756Y-81012902D01*
X124806760Y-81012906D01*
X124984424Y-81151189D01*
X124984429Y-81151191D01*
X124984431Y-81151193D01*
X125020930Y-81170946D01*
X125070520Y-81220165D01*
X125085628Y-81288382D01*
X125061457Y-81353937D01*
X125020930Y-81389054D01*
X124984431Y-81408806D01*
X124984422Y-81408812D01*
X124806761Y-81547092D01*
X124806756Y-81547097D01*
X124654284Y-81712723D01*
X124654276Y-81712734D01*
X124531140Y-81901207D01*
X124440703Y-82107385D01*
X124385436Y-82325628D01*
X124385434Y-82325640D01*
X124366844Y-82549994D01*
X124366844Y-82550005D01*
X124385434Y-82774359D01*
X124385436Y-82774371D01*
X124440703Y-82992614D01*
X124531140Y-83198792D01*
X124654276Y-83387265D01*
X124654284Y-83387276D01*
X124806756Y-83552902D01*
X124806760Y-83552906D01*
X124984424Y-83691189D01*
X124984429Y-83691191D01*
X124984431Y-83691193D01*
X125020930Y-83710946D01*
X125070520Y-83760165D01*
X125085628Y-83828382D01*
X125061457Y-83893937D01*
X125020930Y-83929054D01*
X124984431Y-83948806D01*
X124984422Y-83948812D01*
X124806761Y-84087092D01*
X124806756Y-84087097D01*
X124654284Y-84252723D01*
X124654276Y-84252734D01*
X124531140Y-84441207D01*
X124440703Y-84647385D01*
X124385436Y-84865628D01*
X124385434Y-84865640D01*
X124366844Y-85089994D01*
X124366844Y-85090005D01*
X124385434Y-85314359D01*
X124385436Y-85314371D01*
X124440703Y-85532614D01*
X124531140Y-85738792D01*
X124654276Y-85927265D01*
X124654284Y-85927276D01*
X124806756Y-86092902D01*
X124806760Y-86092906D01*
X124984424Y-86231189D01*
X124984429Y-86231191D01*
X124984431Y-86231193D01*
X125020930Y-86250946D01*
X125070520Y-86300165D01*
X125085628Y-86368382D01*
X125061457Y-86433937D01*
X125020930Y-86469054D01*
X124984431Y-86488806D01*
X124984422Y-86488812D01*
X124806761Y-86627092D01*
X124806756Y-86627097D01*
X124654284Y-86792723D01*
X124654276Y-86792734D01*
X124531140Y-86981207D01*
X124440703Y-87187385D01*
X124385436Y-87405628D01*
X124385434Y-87405640D01*
X124366844Y-87629994D01*
X124366844Y-87630005D01*
X124385434Y-87854359D01*
X124385436Y-87854371D01*
X124440703Y-88072614D01*
X124531140Y-88278792D01*
X124654276Y-88467265D01*
X124654284Y-88467276D01*
X124806756Y-88632902D01*
X124806761Y-88632907D01*
X124841296Y-88659787D01*
X124984424Y-88771189D01*
X124984429Y-88771191D01*
X124984431Y-88771193D01*
X125020930Y-88790946D01*
X125070520Y-88840165D01*
X125085628Y-88908382D01*
X125061457Y-88973937D01*
X125020930Y-89009054D01*
X124984431Y-89028806D01*
X124984422Y-89028812D01*
X124806761Y-89167092D01*
X124806756Y-89167097D01*
X124654284Y-89332723D01*
X124654276Y-89332734D01*
X124531140Y-89521207D01*
X124440703Y-89727385D01*
X124385436Y-89945628D01*
X124385434Y-89945640D01*
X124366844Y-90169994D01*
X124366844Y-90170005D01*
X124385434Y-90394359D01*
X124385436Y-90394371D01*
X124440703Y-90612614D01*
X124531140Y-90818792D01*
X124654276Y-91007265D01*
X124654284Y-91007276D01*
X124806756Y-91172902D01*
X124806760Y-91172906D01*
X124984424Y-91311189D01*
X124984429Y-91311191D01*
X124984431Y-91311193D01*
X125020930Y-91330946D01*
X125070520Y-91380165D01*
X125085628Y-91448382D01*
X125061457Y-91513937D01*
X125020930Y-91549054D01*
X124984431Y-91568806D01*
X124984422Y-91568812D01*
X124806761Y-91707092D01*
X124806756Y-91707097D01*
X124654284Y-91872723D01*
X124654276Y-91872734D01*
X124531140Y-92061207D01*
X124440703Y-92267385D01*
X124385436Y-92485628D01*
X124385434Y-92485640D01*
X124366844Y-92709994D01*
X124366844Y-92710005D01*
X124385434Y-92934359D01*
X124385436Y-92934371D01*
X124440703Y-93152614D01*
X124531140Y-93358792D01*
X124654276Y-93547265D01*
X124654284Y-93547276D01*
X124795008Y-93700140D01*
X124806760Y-93712906D01*
X124984424Y-93851189D01*
X124984425Y-93851189D01*
X124984427Y-93851191D01*
X125079983Y-93902903D01*
X125182426Y-93958342D01*
X125395365Y-94031444D01*
X125617431Y-94068500D01*
X125842569Y-94068500D01*
X126064635Y-94031444D01*
X126277574Y-93958342D01*
X126475576Y-93851189D01*
X126653240Y-93712906D01*
X126758089Y-93599011D01*
X126805715Y-93547276D01*
X126805716Y-93547274D01*
X126805722Y-93547268D01*
X126928860Y-93358791D01*
X127019296Y-93152616D01*
X127074564Y-92934368D01*
X127076946Y-92905628D01*
X127093156Y-92710005D01*
X127093156Y-92709994D01*
X127074565Y-92485640D01*
X127074563Y-92485628D01*
X127040157Y-92349763D01*
X127019296Y-92267384D01*
X126928860Y-92061209D01*
X126912706Y-92036484D01*
X126839942Y-91925110D01*
X126805722Y-91872732D01*
X126805719Y-91872729D01*
X126805715Y-91872723D01*
X126653243Y-91707097D01*
X126653238Y-91707092D01*
X126506528Y-91592902D01*
X126475576Y-91568811D01*
X126439070Y-91549055D01*
X126389479Y-91499836D01*
X126374371Y-91431619D01*
X126398541Y-91366064D01*
X126439070Y-91330945D01*
X126439084Y-91330936D01*
X126475576Y-91311189D01*
X126653240Y-91172906D01*
X126772683Y-91043158D01*
X126805715Y-91007276D01*
X126805717Y-91007273D01*
X126805722Y-91007268D01*
X126928860Y-90818791D01*
X127019296Y-90612616D01*
X127074564Y-90394368D01*
X127093156Y-90170000D01*
X127091282Y-90147385D01*
X127074565Y-89945640D01*
X127074563Y-89945628D01*
X127050384Y-89850147D01*
X127019296Y-89727384D01*
X126928860Y-89521209D01*
X126922361Y-89511262D01*
X126846291Y-89394827D01*
X126805722Y-89332732D01*
X126805719Y-89332729D01*
X126805715Y-89332723D01*
X126653243Y-89167097D01*
X126653238Y-89167092D01*
X126475577Y-89028812D01*
X126475578Y-89028812D01*
X126475576Y-89028811D01*
X126439070Y-89009055D01*
X126389479Y-88959836D01*
X126374371Y-88891619D01*
X126398541Y-88826064D01*
X126439070Y-88790945D01*
X126439084Y-88790936D01*
X126475576Y-88771189D01*
X126653240Y-88632906D01*
X126805722Y-88467268D01*
X126928860Y-88278791D01*
X127019296Y-88072616D01*
X127074564Y-87854368D01*
X127093156Y-87630000D01*
X127089529Y-87586233D01*
X127074565Y-87405640D01*
X127074563Y-87405628D01*
X127019296Y-87187385D01*
X126956180Y-87043494D01*
X126928860Y-86981209D01*
X126912706Y-86956484D01*
X126805723Y-86792734D01*
X126805715Y-86792723D01*
X126653243Y-86627097D01*
X126653238Y-86627092D01*
X126506533Y-86512906D01*
X126475576Y-86488811D01*
X126439070Y-86469055D01*
X126389479Y-86419836D01*
X126374371Y-86351619D01*
X126398541Y-86286064D01*
X126439070Y-86250945D01*
X126439084Y-86250936D01*
X126475576Y-86231189D01*
X126653240Y-86092906D01*
X126752614Y-85984957D01*
X126805715Y-85927276D01*
X126805717Y-85927273D01*
X126805722Y-85927268D01*
X126928860Y-85738791D01*
X127019296Y-85532616D01*
X127074564Y-85314368D01*
X127078176Y-85270776D01*
X127093156Y-85090005D01*
X127093156Y-85089994D01*
X127074565Y-84865640D01*
X127074563Y-84865628D01*
X127049445Y-84766438D01*
X127019296Y-84647384D01*
X126928860Y-84441209D01*
X126912706Y-84416484D01*
X126845709Y-84313937D01*
X126805722Y-84252732D01*
X126805719Y-84252729D01*
X126805715Y-84252723D01*
X126653243Y-84087097D01*
X126653238Y-84087092D01*
X126475577Y-83948812D01*
X126475578Y-83948812D01*
X126475576Y-83948811D01*
X126439070Y-83929055D01*
X126389479Y-83879836D01*
X126374371Y-83811619D01*
X126398541Y-83746064D01*
X126439070Y-83710945D01*
X126439084Y-83710936D01*
X126475576Y-83691189D01*
X126653240Y-83552906D01*
X126752614Y-83444957D01*
X126805715Y-83387276D01*
X126805717Y-83387273D01*
X126805722Y-83387268D01*
X126928860Y-83198791D01*
X127019296Y-82992616D01*
X127074564Y-82774368D01*
X127093156Y-82550000D01*
X127091282Y-82527385D01*
X127074565Y-82325640D01*
X127074563Y-82325628D01*
X127071876Y-82315018D01*
X127019296Y-82107384D01*
X126928860Y-81901209D01*
X126912706Y-81876484D01*
X126845709Y-81773937D01*
X126805722Y-81712732D01*
X126805719Y-81712729D01*
X126805715Y-81712723D01*
X126653243Y-81547097D01*
X126653238Y-81547092D01*
X126475577Y-81408812D01*
X126475578Y-81408812D01*
X126475576Y-81408811D01*
X126439070Y-81389055D01*
X126389479Y-81339836D01*
X126374371Y-81271619D01*
X126398541Y-81206064D01*
X126439070Y-81170945D01*
X126439084Y-81170936D01*
X126475576Y-81151189D01*
X126653240Y-81012906D01*
X126752614Y-80904957D01*
X126805715Y-80847276D01*
X126805717Y-80847273D01*
X126805722Y-80847268D01*
X126928860Y-80658791D01*
X127019296Y-80452616D01*
X127074564Y-80234368D01*
X127076946Y-80205628D01*
X127093156Y-80010005D01*
X127093156Y-80009994D01*
X127074565Y-79785640D01*
X127074563Y-79785628D01*
X127064667Y-79746549D01*
X127019296Y-79567384D01*
X126928860Y-79361209D01*
X126912706Y-79336484D01*
X126845709Y-79233937D01*
X126805722Y-79172732D01*
X126805719Y-79172729D01*
X126805715Y-79172723D01*
X126653243Y-79007097D01*
X126653238Y-79007092D01*
X126475577Y-78868812D01*
X126475578Y-78868812D01*
X126475576Y-78868811D01*
X126439070Y-78849055D01*
X126389479Y-78799836D01*
X126374371Y-78731619D01*
X126398541Y-78666064D01*
X126439070Y-78630945D01*
X126439084Y-78630936D01*
X126475576Y-78611189D01*
X126653240Y-78472906D01*
X126752614Y-78364957D01*
X126805715Y-78307276D01*
X126805717Y-78307273D01*
X126805722Y-78307268D01*
X126928860Y-78118791D01*
X127019296Y-77912616D01*
X127074564Y-77694368D01*
X127093156Y-77470000D01*
X127091282Y-77447385D01*
X127074565Y-77245640D01*
X127074563Y-77245628D01*
X127071876Y-77235018D01*
X127019296Y-77027384D01*
X126928860Y-76821209D01*
X126912706Y-76796484D01*
X126841819Y-76687983D01*
X126805722Y-76632732D01*
X126805719Y-76632729D01*
X126805715Y-76632723D01*
X126653243Y-76467097D01*
X126653238Y-76467092D01*
X126475577Y-76328812D01*
X126475578Y-76328812D01*
X126475576Y-76328811D01*
X126439070Y-76309055D01*
X126389479Y-76259836D01*
X126374371Y-76191619D01*
X126398541Y-76126064D01*
X126439070Y-76090945D01*
X126439084Y-76090936D01*
X126475576Y-76071189D01*
X126653240Y-75932906D01*
X126805722Y-75767268D01*
X126928860Y-75578791D01*
X127019296Y-75372616D01*
X127074564Y-75154368D01*
X127093156Y-74930000D01*
X127074564Y-74705632D01*
X127019296Y-74487384D01*
X126928860Y-74281209D01*
X126912706Y-74256484D01*
X126805723Y-74092734D01*
X126805715Y-74092723D01*
X126653243Y-73927097D01*
X126653238Y-73927092D01*
X126500425Y-73808152D01*
X126475576Y-73788811D01*
X126439070Y-73769055D01*
X126389479Y-73719836D01*
X126374371Y-73651619D01*
X126398541Y-73586064D01*
X126439070Y-73550945D01*
X126439084Y-73550936D01*
X126475576Y-73531189D01*
X126653240Y-73392906D01*
X126752614Y-73284957D01*
X126805715Y-73227276D01*
X126805717Y-73227273D01*
X126805722Y-73227268D01*
X126928860Y-73038791D01*
X127019296Y-72832616D01*
X127074564Y-72614368D01*
X127093156Y-72390000D01*
X127091282Y-72367385D01*
X127074565Y-72165640D01*
X127074563Y-72165628D01*
X127071876Y-72155018D01*
X127019296Y-71947384D01*
X126928860Y-71741209D01*
X126922706Y-71731790D01*
X126845709Y-71613937D01*
X126805722Y-71552732D01*
X126805719Y-71552729D01*
X126805715Y-71552723D01*
X126653243Y-71387097D01*
X126653238Y-71387092D01*
X126475577Y-71248812D01*
X126475578Y-71248812D01*
X126475576Y-71248811D01*
X126439070Y-71229055D01*
X126389479Y-71179836D01*
X126374371Y-71111619D01*
X126398541Y-71046064D01*
X126439070Y-71010945D01*
X126439084Y-71010936D01*
X126475576Y-70991189D01*
X126653240Y-70852906D01*
X126752614Y-70744957D01*
X126805715Y-70687276D01*
X126805717Y-70687273D01*
X126805722Y-70687268D01*
X126928860Y-70498791D01*
X127019296Y-70292616D01*
X127074564Y-70074368D01*
X127093156Y-69850000D01*
X127091282Y-69827385D01*
X127074565Y-69625640D01*
X127074563Y-69625628D01*
X127071876Y-69615018D01*
X127019296Y-69407384D01*
X126928860Y-69201209D01*
X126922706Y-69191790D01*
X126845709Y-69073937D01*
X126805722Y-69012732D01*
X126805719Y-69012729D01*
X126805715Y-69012723D01*
X126653243Y-68847097D01*
X126653238Y-68847092D01*
X126475577Y-68708812D01*
X126475578Y-68708812D01*
X126475576Y-68708811D01*
X126439070Y-68689055D01*
X126389479Y-68639836D01*
X126374371Y-68571619D01*
X126398541Y-68506064D01*
X126439070Y-68470945D01*
X126439084Y-68470936D01*
X126475576Y-68451189D01*
X126653240Y-68312906D01*
X126752614Y-68204957D01*
X126805715Y-68147276D01*
X126805717Y-68147273D01*
X126805722Y-68147268D01*
X126928860Y-67958791D01*
X127019296Y-67752616D01*
X127074564Y-67534368D01*
X127093156Y-67310000D01*
X127091282Y-67287385D01*
X127074565Y-67085640D01*
X127074563Y-67085628D01*
X127071876Y-67075018D01*
X127019296Y-66867384D01*
X126928860Y-66661209D01*
X126922706Y-66651790D01*
X126845709Y-66533937D01*
X126805722Y-66472732D01*
X126805719Y-66472729D01*
X126805715Y-66472723D01*
X126653243Y-66307097D01*
X126653238Y-66307092D01*
X126475577Y-66168812D01*
X126475578Y-66168812D01*
X126475576Y-66168811D01*
X126439070Y-66149055D01*
X126389479Y-66099836D01*
X126374371Y-66031619D01*
X126398541Y-65966064D01*
X126439070Y-65930945D01*
X126439084Y-65930936D01*
X126475576Y-65911189D01*
X126653240Y-65772906D01*
X126752614Y-65664957D01*
X126805715Y-65607276D01*
X126805717Y-65607273D01*
X126805722Y-65607268D01*
X126928860Y-65418791D01*
X127019296Y-65212616D01*
X127074564Y-64994368D01*
X127093156Y-64770000D01*
X127091282Y-64747385D01*
X127074565Y-64545640D01*
X127074563Y-64545628D01*
X127071876Y-64535018D01*
X127019296Y-64327384D01*
X126928860Y-64121209D01*
X126922706Y-64111790D01*
X126841819Y-63987983D01*
X126805722Y-63932732D01*
X126805719Y-63932729D01*
X126805715Y-63932723D01*
X126653243Y-63767097D01*
X126653238Y-63767092D01*
X126475577Y-63628812D01*
X126475578Y-63628812D01*
X126475576Y-63628811D01*
X126439070Y-63609055D01*
X126389479Y-63559836D01*
X126374371Y-63491619D01*
X126398541Y-63426064D01*
X126439070Y-63390945D01*
X126439084Y-63390936D01*
X126475576Y-63371189D01*
X126653240Y-63232906D01*
X126805722Y-63067268D01*
X126928860Y-62878791D01*
X127019296Y-62672616D01*
X127074564Y-62454368D01*
X127093156Y-62230000D01*
X127074564Y-62005632D01*
X127019296Y-61787384D01*
X126928860Y-61581209D01*
X126922706Y-61571790D01*
X126805723Y-61392734D01*
X126805715Y-61392723D01*
X126653243Y-61227097D01*
X126653238Y-61227092D01*
X126506533Y-61112906D01*
X126475576Y-61088811D01*
X126439070Y-61069055D01*
X126389479Y-61019836D01*
X126374371Y-60951619D01*
X126398541Y-60886064D01*
X126439070Y-60850945D01*
X126439084Y-60850936D01*
X126475576Y-60831189D01*
X126653240Y-60692906D01*
X126752614Y-60584957D01*
X126805715Y-60527276D01*
X126805717Y-60527273D01*
X126805722Y-60527268D01*
X126928860Y-60338791D01*
X127019296Y-60132616D01*
X127074564Y-59914368D01*
X127093156Y-59690000D01*
X127091282Y-59667385D01*
X127074565Y-59465640D01*
X127074563Y-59465628D01*
X127071876Y-59455018D01*
X127019296Y-59247384D01*
X126928860Y-59041209D01*
X126922706Y-59031790D01*
X126845709Y-58913937D01*
X126805722Y-58852732D01*
X126805719Y-58852729D01*
X126805715Y-58852723D01*
X126653243Y-58687097D01*
X126653238Y-58687092D01*
X126475577Y-58548812D01*
X126475578Y-58548812D01*
X126475576Y-58548811D01*
X126439070Y-58529055D01*
X126389479Y-58479836D01*
X126374371Y-58411619D01*
X126398541Y-58346064D01*
X126439070Y-58310945D01*
X126439084Y-58310936D01*
X126475576Y-58291189D01*
X126653240Y-58152906D01*
X126752614Y-58044957D01*
X126805715Y-57987276D01*
X126805717Y-57987273D01*
X126805722Y-57987268D01*
X126928860Y-57798791D01*
X127019296Y-57592616D01*
X127074564Y-57374368D01*
X127093156Y-57150000D01*
X127091282Y-57127385D01*
X127074565Y-56925640D01*
X127074563Y-56925628D01*
X127066120Y-56892287D01*
X127019296Y-56707384D01*
X126928860Y-56501209D01*
X126922706Y-56491790D01*
X126845709Y-56373937D01*
X126805722Y-56312732D01*
X126805719Y-56312729D01*
X126805715Y-56312723D01*
X126660510Y-56154991D01*
X126629587Y-56092337D01*
X126637447Y-56022911D01*
X126681594Y-55968755D01*
X126708405Y-55954827D01*
X126788584Y-55924920D01*
X126826204Y-55910889D01*
X126943261Y-55823261D01*
X127030889Y-55706204D01*
X127081989Y-55569201D01*
X127085591Y-55535692D01*
X127088499Y-55508654D01*
X127088500Y-55508637D01*
X127088500Y-53711362D01*
X127088499Y-53711345D01*
X127085157Y-53680270D01*
X127081989Y-53650799D01*
X127074676Y-53631193D01*
X127059522Y-53590564D01*
X127030889Y-53513796D01*
X126943261Y-53396739D01*
X126826204Y-53309111D01*
X126689203Y-53258011D01*
X126628654Y-53251500D01*
X126628638Y-53251500D01*
X124831362Y-53251500D01*
X124831345Y-53251500D01*
X124770797Y-53258011D01*
X124770795Y-53258011D01*
X124633795Y-53309111D01*
X124516739Y-53396739D01*
X124429111Y-53513795D01*
X124378011Y-53650795D01*
X124378011Y-53650797D01*
X124371500Y-53711345D01*
X124371500Y-55508654D01*
X124378011Y-55569202D01*
X124378011Y-55569204D01*
X124418886Y-55678791D01*
X124429111Y-55706204D01*
X124516739Y-55823261D01*
X124633796Y-55910889D01*
X124685737Y-55930262D01*
X124751595Y-55954827D01*
X124807528Y-55996699D01*
X124831944Y-56062163D01*
X124817092Y-56130436D01*
X124799490Y-56154991D01*
X124654279Y-56312730D01*
X124654276Y-56312734D01*
X124531140Y-56501207D01*
X124440703Y-56707385D01*
X124385436Y-56925628D01*
X124385434Y-56925640D01*
X124366844Y-57149994D01*
X122013156Y-57149994D01*
X122011282Y-57127385D01*
X121994565Y-56925640D01*
X121994563Y-56925628D01*
X121986120Y-56892287D01*
X121939296Y-56707384D01*
X121848860Y-56501209D01*
X121842706Y-56491790D01*
X121765709Y-56373937D01*
X121725722Y-56312732D01*
X121725719Y-56312729D01*
X121725715Y-56312723D01*
X121580510Y-56154991D01*
X121549587Y-56092337D01*
X121557447Y-56022911D01*
X121601594Y-55968755D01*
X121628405Y-55954827D01*
X121708584Y-55924920D01*
X121746204Y-55910889D01*
X121863261Y-55823261D01*
X121950889Y-55706204D01*
X122001989Y-55569201D01*
X122005591Y-55535692D01*
X122008499Y-55508654D01*
X122008500Y-55508637D01*
X122008500Y-54552320D01*
X122028185Y-54485281D01*
X122044819Y-54464639D01*
X125639639Y-50869819D01*
X125700962Y-50836334D01*
X125727320Y-50833500D01*
X132643681Y-50833500D01*
X132710720Y-50853185D01*
G37*
G04 #@! TD.AperFunction*
G04 #@! TA.AperFunction,Conductor*
G36*
X168652539Y-42765185D02*
G01*
X168698294Y-42817989D01*
X168709500Y-42869500D01*
X168709500Y-111435500D01*
X168689815Y-111502539D01*
X168637011Y-111548294D01*
X168585500Y-111559500D01*
X114624500Y-111559500D01*
X114557461Y-111539815D01*
X114511706Y-111487011D01*
X114500500Y-111435500D01*
X114500500Y-107828711D01*
X163249500Y-107828711D01*
X163249500Y-108071288D01*
X163281161Y-108311785D01*
X163343947Y-108546104D01*
X163436773Y-108770205D01*
X163436776Y-108770212D01*
X163558064Y-108980289D01*
X163558066Y-108980292D01*
X163558067Y-108980293D01*
X163705733Y-109172736D01*
X163705739Y-109172743D01*
X163877256Y-109344260D01*
X163877262Y-109344265D01*
X164069711Y-109491936D01*
X164279788Y-109613224D01*
X164503900Y-109706054D01*
X164738211Y-109768838D01*
X164918586Y-109792584D01*
X164978711Y-109800500D01*
X164978712Y-109800500D01*
X165221289Y-109800500D01*
X165269388Y-109794167D01*
X165461789Y-109768838D01*
X165696100Y-109706054D01*
X165920212Y-109613224D01*
X166130289Y-109491936D01*
X166322738Y-109344265D01*
X166494265Y-109172738D01*
X166641936Y-108980289D01*
X166763224Y-108770212D01*
X166856054Y-108546100D01*
X166918838Y-108311789D01*
X166950500Y-108071288D01*
X166950500Y-107828712D01*
X166918838Y-107588211D01*
X166856054Y-107353900D01*
X166763224Y-107129788D01*
X166641936Y-106919711D01*
X166494265Y-106727262D01*
X166494260Y-106727256D01*
X166322743Y-106555739D01*
X166322736Y-106555733D01*
X166130293Y-106408067D01*
X166130292Y-106408066D01*
X166130289Y-106408064D01*
X165920212Y-106286776D01*
X165920205Y-106286773D01*
X165696104Y-106193947D01*
X165461785Y-106131161D01*
X165221289Y-106099500D01*
X165221288Y-106099500D01*
X164978712Y-106099500D01*
X164978711Y-106099500D01*
X164738214Y-106131161D01*
X164503895Y-106193947D01*
X164279794Y-106286773D01*
X164279785Y-106286777D01*
X164069706Y-106408067D01*
X163877263Y-106555733D01*
X163877256Y-106555739D01*
X163705739Y-106727256D01*
X163705733Y-106727263D01*
X163558067Y-106919706D01*
X163436777Y-107129785D01*
X163436773Y-107129794D01*
X163343947Y-107353895D01*
X163281161Y-107588214D01*
X163249500Y-107828711D01*
X114500500Y-107828711D01*
X114500500Y-100471345D01*
X116501500Y-100471345D01*
X116501500Y-104528654D01*
X116508011Y-104589202D01*
X116508011Y-104589204D01*
X116538029Y-104669682D01*
X116559111Y-104726204D01*
X116646739Y-104843261D01*
X116763796Y-104930889D01*
X116900799Y-104981989D01*
X116928050Y-104984918D01*
X116961345Y-104988499D01*
X116961362Y-104988500D01*
X119038638Y-104988500D01*
X119038654Y-104988499D01*
X119065692Y-104985591D01*
X119099201Y-104981989D01*
X119236204Y-104930889D01*
X119353261Y-104843261D01*
X119440889Y-104726204D01*
X119491989Y-104589201D01*
X119495591Y-104555692D01*
X119498499Y-104528654D01*
X119498500Y-104528637D01*
X119498500Y-101392059D01*
X121501500Y-101392059D01*
X121501500Y-103607940D01*
X121538398Y-103840901D01*
X121611283Y-104065221D01*
X121611285Y-104065224D01*
X121718368Y-104275385D01*
X121857008Y-104466207D01*
X122023793Y-104632992D01*
X122214615Y-104771632D01*
X122381022Y-104856421D01*
X122424778Y-104878716D01*
X122536938Y-104915158D01*
X122649100Y-104951602D01*
X122756996Y-104968691D01*
X122882060Y-104988500D01*
X122882065Y-104988500D01*
X123117940Y-104988500D01*
X123230877Y-104970611D01*
X123350900Y-104951602D01*
X123575224Y-104878715D01*
X123785385Y-104771632D01*
X123976207Y-104632992D01*
X124142992Y-104466207D01*
X124281632Y-104275385D01*
X124388715Y-104065224D01*
X124461602Y-103840900D01*
X124480611Y-103720877D01*
X124498500Y-103607940D01*
X124498500Y-101392059D01*
X126501500Y-101392059D01*
X126501500Y-103607940D01*
X126538398Y-103840901D01*
X126611283Y-104065221D01*
X126611285Y-104065224D01*
X126718368Y-104275385D01*
X126857008Y-104466207D01*
X127023793Y-104632992D01*
X127214615Y-104771632D01*
X127381022Y-104856421D01*
X127424778Y-104878716D01*
X127536938Y-104915158D01*
X127649100Y-104951602D01*
X127756996Y-104968691D01*
X127882060Y-104988500D01*
X127882065Y-104988500D01*
X128117940Y-104988500D01*
X128230877Y-104970611D01*
X128350900Y-104951602D01*
X128575224Y-104878715D01*
X128785385Y-104771632D01*
X128976207Y-104632992D01*
X129142992Y-104466207D01*
X129281632Y-104275385D01*
X129388715Y-104065224D01*
X129461602Y-103840900D01*
X129480611Y-103720877D01*
X129498500Y-103607940D01*
X129498500Y-101392059D01*
X129477034Y-101256534D01*
X129461602Y-101159100D01*
X129388715Y-100934776D01*
X129281632Y-100724615D01*
X129142992Y-100533793D01*
X128976207Y-100367008D01*
X128976203Y-100367005D01*
X128785388Y-100228370D01*
X128785387Y-100228369D01*
X128785385Y-100228368D01*
X128644806Y-100156739D01*
X128575221Y-100121283D01*
X128350901Y-100048398D01*
X128117940Y-100011500D01*
X128117935Y-100011500D01*
X127882065Y-100011500D01*
X127882060Y-100011500D01*
X127649098Y-100048398D01*
X127424778Y-100121283D01*
X127214611Y-100228370D01*
X127023796Y-100367005D01*
X127023790Y-100367010D01*
X126857010Y-100533790D01*
X126857005Y-100533796D01*
X126718370Y-100724611D01*
X126611283Y-100934778D01*
X126538398Y-101159098D01*
X126501500Y-101392059D01*
X124498500Y-101392059D01*
X124477034Y-101256534D01*
X124461602Y-101159100D01*
X124388715Y-100934776D01*
X124281632Y-100724615D01*
X124142992Y-100533793D01*
X123976207Y-100367008D01*
X123976203Y-100367005D01*
X123785388Y-100228370D01*
X123785387Y-100228369D01*
X123785385Y-100228368D01*
X123644806Y-100156739D01*
X123575221Y-100121283D01*
X123350901Y-100048398D01*
X123117940Y-100011500D01*
X123117935Y-100011500D01*
X122882065Y-100011500D01*
X122882060Y-100011500D01*
X122649098Y-100048398D01*
X122424778Y-100121283D01*
X122214611Y-100228370D01*
X122023796Y-100367005D01*
X122023790Y-100367010D01*
X121857010Y-100533790D01*
X121857005Y-100533796D01*
X121718370Y-100724611D01*
X121611283Y-100934778D01*
X121538398Y-101159098D01*
X121501500Y-101392059D01*
X119498500Y-101392059D01*
X119498500Y-100471362D01*
X119498499Y-100471345D01*
X119495157Y-100440270D01*
X119491989Y-100410799D01*
X119475656Y-100367010D01*
X119469522Y-100350564D01*
X119440889Y-100273796D01*
X119353261Y-100156739D01*
X119236204Y-100069111D01*
X119099203Y-100018011D01*
X119038654Y-100011500D01*
X119038638Y-100011500D01*
X116961362Y-100011500D01*
X116961345Y-100011500D01*
X116900797Y-100018011D01*
X116900795Y-100018011D01*
X116763795Y-100069111D01*
X116646739Y-100156739D01*
X116559111Y-100273795D01*
X116508011Y-100410795D01*
X116508011Y-100410797D01*
X116501500Y-100471345D01*
X114500500Y-100471345D01*
X114500500Y-99958845D01*
X137491500Y-99958845D01*
X137491500Y-101961154D01*
X137498011Y-102021702D01*
X137498011Y-102021704D01*
X137549111Y-102158704D01*
X137636739Y-102275761D01*
X137753796Y-102363389D01*
X137772877Y-102370506D01*
X137772880Y-102370507D01*
X137828813Y-102412379D01*
X137853229Y-102477843D01*
X137838377Y-102546116D01*
X137829863Y-102559573D01*
X137702942Y-102734265D01*
X137598539Y-102939166D01*
X137527473Y-103157881D01*
X137491500Y-103385011D01*
X137491500Y-103614988D01*
X137527473Y-103842118D01*
X137598539Y-104060833D01*
X137702940Y-104265731D01*
X137838111Y-104451778D01*
X138000722Y-104614389D01*
X138026323Y-104632989D01*
X138076826Y-104669682D01*
X138119491Y-104725013D01*
X138125470Y-104794626D01*
X138092864Y-104856421D01*
X138076826Y-104870318D01*
X138000720Y-104925612D01*
X137838113Y-105088219D01*
X137702940Y-105274268D01*
X137598539Y-105479166D01*
X137527473Y-105697881D01*
X137491500Y-105925011D01*
X137491500Y-106154988D01*
X137527473Y-106382118D01*
X137598539Y-106600833D01*
X137702940Y-106805731D01*
X137838111Y-106991778D01*
X138000722Y-107154389D01*
X138186769Y-107289560D01*
X138283578Y-107338886D01*
X138391666Y-107393960D01*
X138391668Y-107393960D01*
X138391671Y-107393962D01*
X138508904Y-107432053D01*
X138610381Y-107465026D01*
X138837512Y-107501000D01*
X138837517Y-107501000D01*
X139162488Y-107501000D01*
X139389618Y-107465026D01*
X139608329Y-107393962D01*
X139813231Y-107289560D01*
X139999278Y-107154389D01*
X140161889Y-106991778D01*
X140297060Y-106805731D01*
X140401462Y-106600829D01*
X140472526Y-106382118D01*
X140508500Y-106154988D01*
X140508500Y-105925011D01*
X140472526Y-105697881D01*
X140401460Y-105479166D01*
X140297059Y-105274268D01*
X140161889Y-105088222D01*
X139999278Y-104925611D01*
X139923172Y-104870316D01*
X139880508Y-104814988D01*
X139874529Y-104745375D01*
X139907135Y-104683580D01*
X139923169Y-104669685D01*
X139999278Y-104614389D01*
X140161889Y-104451778D01*
X140297060Y-104265731D01*
X140401462Y-104060829D01*
X140472526Y-103842118D01*
X140472719Y-103840900D01*
X140508500Y-103614988D01*
X140508500Y-103385011D01*
X140472526Y-103157881D01*
X140401460Y-102939166D01*
X140297059Y-102734268D01*
X140297057Y-102734265D01*
X140170135Y-102559572D01*
X140146656Y-102493767D01*
X140162481Y-102425713D01*
X140212587Y-102377018D01*
X140227112Y-102370509D01*
X140246204Y-102363389D01*
X140363261Y-102275761D01*
X140450889Y-102158704D01*
X140501989Y-102021701D01*
X140505591Y-101988192D01*
X140508499Y-101961154D01*
X140508500Y-101961137D01*
X140508500Y-99958862D01*
X140508499Y-99958845D01*
X140505157Y-99927770D01*
X140501989Y-99898299D01*
X140450889Y-99761296D01*
X140363261Y-99644239D01*
X140246204Y-99556611D01*
X140109203Y-99505511D01*
X140048654Y-99499000D01*
X140048638Y-99499000D01*
X137951362Y-99499000D01*
X137951345Y-99499000D01*
X137890797Y-99505511D01*
X137890795Y-99505511D01*
X137753795Y-99556611D01*
X137636739Y-99644239D01*
X137549111Y-99761295D01*
X137498011Y-99898295D01*
X137498011Y-99898297D01*
X137491500Y-99958845D01*
X114500500Y-99958845D01*
X114500500Y-57149994D01*
X116746844Y-57149994D01*
X116746844Y-57150005D01*
X116765434Y-57374359D01*
X116765436Y-57374371D01*
X116820703Y-57592614D01*
X116911140Y-57798792D01*
X117034276Y-57987265D01*
X117034284Y-57987276D01*
X117186756Y-58152902D01*
X117186760Y-58152906D01*
X117364424Y-58291189D01*
X117364429Y-58291191D01*
X117364431Y-58291193D01*
X117400930Y-58310946D01*
X117450520Y-58360165D01*
X117465628Y-58428382D01*
X117441457Y-58493937D01*
X117400930Y-58529054D01*
X117364431Y-58548806D01*
X117364422Y-58548812D01*
X117186761Y-58687092D01*
X117186756Y-58687097D01*
X117034284Y-58852723D01*
X117034276Y-58852734D01*
X116911140Y-59041207D01*
X116820703Y-59247385D01*
X116765436Y-59465628D01*
X116765434Y-59465640D01*
X116746844Y-59689994D01*
X116746844Y-59690005D01*
X116765434Y-59914359D01*
X116765436Y-59914371D01*
X116820703Y-60132614D01*
X116911140Y-60338792D01*
X117034276Y-60527265D01*
X117034284Y-60527276D01*
X117186756Y-60692902D01*
X117186760Y-60692906D01*
X117364424Y-60831189D01*
X117364429Y-60831191D01*
X117364431Y-60831193D01*
X117400930Y-60850946D01*
X117450520Y-60900165D01*
X117465628Y-60968382D01*
X117441457Y-61033937D01*
X117400930Y-61069054D01*
X117364431Y-61088806D01*
X117364422Y-61088812D01*
X117186761Y-61227092D01*
X117186756Y-61227097D01*
X117034284Y-61392723D01*
X117034276Y-61392734D01*
X116911140Y-61581207D01*
X116820703Y-61787385D01*
X116765436Y-62005628D01*
X116765434Y-62005640D01*
X116746844Y-62229994D01*
X116746844Y-62230005D01*
X116765434Y-62454359D01*
X116765436Y-62454371D01*
X116820703Y-62672614D01*
X116911140Y-62878792D01*
X117034276Y-63067265D01*
X117034284Y-63067276D01*
X117186756Y-63232902D01*
X117186760Y-63232906D01*
X117364424Y-63371189D01*
X117364429Y-63371191D01*
X117364431Y-63371193D01*
X117400930Y-63390946D01*
X117450520Y-63440165D01*
X117465628Y-63508382D01*
X117441457Y-63573937D01*
X117400930Y-63609054D01*
X117364431Y-63628806D01*
X117364422Y-63628812D01*
X117186761Y-63767092D01*
X117186756Y-63767097D01*
X117034284Y-63932723D01*
X117034276Y-63932734D01*
X116911140Y-64121207D01*
X116820703Y-64327385D01*
X116765436Y-64545628D01*
X116765434Y-64545640D01*
X116746844Y-64769994D01*
X116746844Y-64770005D01*
X116765434Y-64994359D01*
X116765436Y-64994371D01*
X116820703Y-65212614D01*
X116911140Y-65418792D01*
X117034276Y-65607265D01*
X117034284Y-65607276D01*
X117186756Y-65772902D01*
X117186760Y-65772906D01*
X117364424Y-65911189D01*
X117364429Y-65911191D01*
X117364431Y-65911193D01*
X117400930Y-65930946D01*
X117450520Y-65980165D01*
X117465628Y-66048382D01*
X117441457Y-66113937D01*
X117400930Y-66149054D01*
X117364431Y-66168806D01*
X117364422Y-66168812D01*
X117186761Y-66307092D01*
X117186756Y-66307097D01*
X117034284Y-66472723D01*
X117034276Y-66472734D01*
X116911140Y-66661207D01*
X116820703Y-66867385D01*
X116765436Y-67085628D01*
X116765434Y-67085640D01*
X116746844Y-67309994D01*
X116746844Y-67310005D01*
X116765434Y-67534359D01*
X116765436Y-67534371D01*
X116820703Y-67752614D01*
X116911140Y-67958792D01*
X117034276Y-68147265D01*
X117034284Y-68147276D01*
X117186756Y-68312902D01*
X117186760Y-68312906D01*
X117364424Y-68451189D01*
X117364429Y-68451191D01*
X117364431Y-68451193D01*
X117400930Y-68470946D01*
X117450520Y-68520165D01*
X117465628Y-68588382D01*
X117441457Y-68653937D01*
X117400930Y-68689054D01*
X117364431Y-68708806D01*
X117364422Y-68708812D01*
X117186761Y-68847092D01*
X117186756Y-68847097D01*
X117034284Y-69012723D01*
X117034276Y-69012734D01*
X116911140Y-69201207D01*
X116820703Y-69407385D01*
X116765436Y-69625628D01*
X116765434Y-69625640D01*
X116746844Y-69849994D01*
X116746844Y-69850005D01*
X116765434Y-70074359D01*
X116765436Y-70074371D01*
X116820703Y-70292614D01*
X116911140Y-70498792D01*
X117034276Y-70687265D01*
X117034284Y-70687276D01*
X117186756Y-70852902D01*
X117186760Y-70852906D01*
X117364424Y-70991189D01*
X117364429Y-70991191D01*
X117364431Y-70991193D01*
X117400930Y-71010946D01*
X117450520Y-71060165D01*
X117465628Y-71128382D01*
X117441457Y-71193937D01*
X117400930Y-71229054D01*
X117364431Y-71248806D01*
X117364422Y-71248812D01*
X117186761Y-71387092D01*
X117186756Y-71387097D01*
X117034284Y-71552723D01*
X117034276Y-71552734D01*
X116911140Y-71741207D01*
X116820703Y-71947385D01*
X116765436Y-72165628D01*
X116765434Y-72165640D01*
X116746844Y-72389994D01*
X116746844Y-72390005D01*
X116765434Y-72614359D01*
X116765436Y-72614371D01*
X116820703Y-72832614D01*
X116911140Y-73038792D01*
X117034276Y-73227265D01*
X117034284Y-73227276D01*
X117186756Y-73392902D01*
X117186760Y-73392906D01*
X117364424Y-73531189D01*
X117364429Y-73531191D01*
X117364431Y-73531193D01*
X117400930Y-73550946D01*
X117450520Y-73600165D01*
X117465628Y-73668382D01*
X117441457Y-73733937D01*
X117400930Y-73769054D01*
X117364431Y-73788806D01*
X117364422Y-73788812D01*
X117186761Y-73927092D01*
X117186756Y-73927097D01*
X117034284Y-74092723D01*
X117034276Y-74092734D01*
X116911140Y-74281207D01*
X116820703Y-74487385D01*
X116765436Y-74705628D01*
X116765434Y-74705640D01*
X116746844Y-74929994D01*
X116746844Y-74930005D01*
X116765434Y-75154359D01*
X116765436Y-75154371D01*
X116820703Y-75372614D01*
X116911140Y-75578792D01*
X117034276Y-75767265D01*
X117034284Y-75767276D01*
X117186756Y-75932902D01*
X117186760Y-75932906D01*
X117364424Y-76071189D01*
X117364429Y-76071191D01*
X117364431Y-76071193D01*
X117400930Y-76090946D01*
X117450520Y-76140165D01*
X117465628Y-76208382D01*
X117441457Y-76273937D01*
X117400930Y-76309054D01*
X117364431Y-76328806D01*
X117364422Y-76328812D01*
X117186761Y-76467092D01*
X117186756Y-76467097D01*
X117034284Y-76632723D01*
X117034276Y-76632734D01*
X116911140Y-76821207D01*
X116820703Y-77027385D01*
X116765436Y-77245628D01*
X116765434Y-77245640D01*
X116746844Y-77469994D01*
X116746844Y-77470005D01*
X116765434Y-77694359D01*
X116765436Y-77694371D01*
X116820703Y-77912614D01*
X116911140Y-78118792D01*
X117034276Y-78307265D01*
X117034284Y-78307276D01*
X117186756Y-78472902D01*
X117186760Y-78472906D01*
X117364424Y-78611189D01*
X117364429Y-78611191D01*
X117364431Y-78611193D01*
X117400930Y-78630946D01*
X117450520Y-78680165D01*
X117465628Y-78748382D01*
X117441457Y-78813937D01*
X117400930Y-78849054D01*
X117364431Y-78868806D01*
X117364422Y-78868812D01*
X117186761Y-79007092D01*
X117186756Y-79007097D01*
X117034284Y-79172723D01*
X117034276Y-79172734D01*
X116911140Y-79361207D01*
X116820703Y-79567385D01*
X116765436Y-79785628D01*
X116765434Y-79785640D01*
X116746844Y-80009994D01*
X116746844Y-80010005D01*
X116765434Y-80234359D01*
X116765436Y-80234371D01*
X116820703Y-80452614D01*
X116911140Y-80658792D01*
X117034276Y-80847265D01*
X117034284Y-80847276D01*
X117186756Y-81012902D01*
X117186760Y-81012906D01*
X117364424Y-81151189D01*
X117364429Y-81151191D01*
X117364431Y-81151193D01*
X117400930Y-81170946D01*
X117450520Y-81220165D01*
X117465628Y-81288382D01*
X117441457Y-81353937D01*
X117400930Y-81389054D01*
X117364431Y-81408806D01*
X117364422Y-81408812D01*
X117186761Y-81547092D01*
X117186756Y-81547097D01*
X117034284Y-81712723D01*
X117034276Y-81712734D01*
X116911140Y-81901207D01*
X116820703Y-82107385D01*
X116765436Y-82325628D01*
X116765434Y-82325640D01*
X116746844Y-82549994D01*
X116746844Y-82550005D01*
X116765434Y-82774359D01*
X116765436Y-82774371D01*
X116820703Y-82992614D01*
X116911140Y-83198792D01*
X117034276Y-83387265D01*
X117034284Y-83387276D01*
X117186756Y-83552902D01*
X117186760Y-83552906D01*
X117364424Y-83691189D01*
X117364429Y-83691191D01*
X117364431Y-83691193D01*
X117400930Y-83710946D01*
X117450520Y-83760165D01*
X117465628Y-83828382D01*
X117441457Y-83893937D01*
X117400930Y-83929054D01*
X117364431Y-83948806D01*
X117364422Y-83948812D01*
X117186761Y-84087092D01*
X117186756Y-84087097D01*
X117034284Y-84252723D01*
X117034276Y-84252734D01*
X116911140Y-84441207D01*
X116820703Y-84647385D01*
X116765436Y-84865628D01*
X116765434Y-84865640D01*
X116746844Y-85089994D01*
X116746844Y-85090005D01*
X116765434Y-85314359D01*
X116765436Y-85314371D01*
X116820703Y-85532614D01*
X116911140Y-85738792D01*
X117034276Y-85927265D01*
X117034284Y-85927276D01*
X117186756Y-86092902D01*
X117186760Y-86092906D01*
X117364424Y-86231189D01*
X117364429Y-86231191D01*
X117364431Y-86231193D01*
X117400930Y-86250946D01*
X117450520Y-86300165D01*
X117465628Y-86368382D01*
X117441457Y-86433937D01*
X117400930Y-86469054D01*
X117364431Y-86488806D01*
X117364422Y-86488812D01*
X117186761Y-86627092D01*
X117186756Y-86627097D01*
X117034284Y-86792723D01*
X117034276Y-86792734D01*
X116911140Y-86981207D01*
X116820703Y-87187385D01*
X116765436Y-87405628D01*
X116765434Y-87405640D01*
X116746844Y-87629994D01*
X116746844Y-87630005D01*
X116765434Y-87854359D01*
X116765436Y-87854371D01*
X116820703Y-88072614D01*
X116911140Y-88278792D01*
X117034276Y-88467265D01*
X117034284Y-88467276D01*
X117186756Y-88632902D01*
X117186761Y-88632907D01*
X117221296Y-88659787D01*
X117364424Y-88771189D01*
X117364429Y-88771191D01*
X117364431Y-88771193D01*
X117400930Y-88790946D01*
X117450520Y-88840165D01*
X117465628Y-88908382D01*
X117441457Y-88973937D01*
X117400930Y-89009054D01*
X117364431Y-89028806D01*
X117364422Y-89028812D01*
X117186761Y-89167092D01*
X117186756Y-89167097D01*
X117034284Y-89332723D01*
X117034276Y-89332734D01*
X116911140Y-89521207D01*
X116820703Y-89727385D01*
X116765436Y-89945628D01*
X116765434Y-89945640D01*
X116746844Y-90169994D01*
X116746844Y-90170005D01*
X116765434Y-90394359D01*
X116765436Y-90394371D01*
X116820703Y-90612614D01*
X116911140Y-90818792D01*
X117034276Y-91007265D01*
X117034284Y-91007276D01*
X117186756Y-91172902D01*
X117186760Y-91172906D01*
X117364424Y-91311189D01*
X117364429Y-91311191D01*
X117364431Y-91311193D01*
X117400930Y-91330946D01*
X117450520Y-91380165D01*
X117465628Y-91448382D01*
X117441457Y-91513937D01*
X117400930Y-91549054D01*
X117364431Y-91568806D01*
X117364422Y-91568812D01*
X117186761Y-91707092D01*
X117186756Y-91707097D01*
X117034284Y-91872723D01*
X117034276Y-91872734D01*
X116911140Y-92061207D01*
X116820703Y-92267385D01*
X116765436Y-92485628D01*
X116765434Y-92485640D01*
X116746844Y-92709994D01*
X116746844Y-92710005D01*
X116765434Y-92934359D01*
X116765436Y-92934371D01*
X116820703Y-93152614D01*
X116911140Y-93358792D01*
X117034276Y-93547265D01*
X117034284Y-93547276D01*
X117175008Y-93700140D01*
X117186760Y-93712906D01*
X117364424Y-93851189D01*
X117364425Y-93851189D01*
X117364427Y-93851191D01*
X117459983Y-93902903D01*
X117562426Y-93958342D01*
X117775365Y-94031444D01*
X117997431Y-94068500D01*
X118167680Y-94068500D01*
X118234719Y-94088185D01*
X118255361Y-94104819D01*
X120341795Y-96191253D01*
X120341798Y-96191255D01*
X120341802Y-96191259D01*
X120486505Y-96287948D01*
X120486508Y-96287949D01*
X120486511Y-96287951D01*
X120647287Y-96354546D01*
X120647292Y-96354548D01*
X120817978Y-96388499D01*
X120817982Y-96388500D01*
X120817983Y-96388500D01*
X135180776Y-96388500D01*
X135180777Y-96388499D01*
X135351466Y-96354548D01*
X135512253Y-96287948D01*
X135656957Y-96191259D01*
X138896305Y-92951909D01*
X138957628Y-92918425D01*
X139027320Y-92923409D01*
X139083253Y-92965281D01*
X139107562Y-93029351D01*
X139115434Y-93124359D01*
X139115436Y-93124371D01*
X139170703Y-93342614D01*
X139261140Y-93548792D01*
X139384276Y-93737265D01*
X139384284Y-93737276D01*
X139496526Y-93859201D01*
X139536760Y-93902906D01*
X139714424Y-94041189D01*
X139714425Y-94041189D01*
X139714427Y-94041191D01*
X139764890Y-94068500D01*
X139912426Y-94148342D01*
X140125365Y-94221444D01*
X140347431Y-94258500D01*
X140572569Y-94258500D01*
X140794635Y-94221444D01*
X141007574Y-94148342D01*
X141205576Y-94041189D01*
X141383240Y-93902906D01*
X141446452Y-93834239D01*
X141506337Y-93798250D01*
X141576175Y-93800349D01*
X141633791Y-93839873D01*
X141653861Y-93874888D01*
X141684989Y-93958342D01*
X141699111Y-93996204D01*
X141786739Y-94113261D01*
X141903796Y-94200889D01*
X142040799Y-94251989D01*
X142068050Y-94254918D01*
X142101345Y-94258499D01*
X142101362Y-94258500D01*
X143898638Y-94258500D01*
X143898654Y-94258499D01*
X143925692Y-94255591D01*
X143959201Y-94251989D01*
X144096204Y-94200889D01*
X144213261Y-94113261D01*
X144300889Y-93996204D01*
X144346138Y-93874887D01*
X144388009Y-93818956D01*
X144453474Y-93794539D01*
X144521746Y-93809391D01*
X144553545Y-93834236D01*
X144616760Y-93902906D01*
X144794424Y-94041189D01*
X144794425Y-94041189D01*
X144794427Y-94041191D01*
X144844890Y-94068500D01*
X144992426Y-94148342D01*
X145205365Y-94221444D01*
X145427431Y-94258500D01*
X145652569Y-94258500D01*
X145874635Y-94221444D01*
X146087574Y-94148342D01*
X146285576Y-94041189D01*
X146463240Y-93902906D01*
X146615722Y-93737268D01*
X146738860Y-93548791D01*
X146829296Y-93342616D01*
X146884564Y-93124368D01*
X146884565Y-93124359D01*
X146903156Y-92900005D01*
X146903156Y-92899994D01*
X146884565Y-92675640D01*
X146884563Y-92675628D01*
X146829296Y-92457385D01*
X146757073Y-92292732D01*
X146738860Y-92251209D01*
X146615722Y-92062732D01*
X146615719Y-92062729D01*
X146615715Y-92062723D01*
X146463243Y-91897097D01*
X146463238Y-91897092D01*
X146285577Y-91758812D01*
X146285572Y-91758808D01*
X146087580Y-91651661D01*
X146087577Y-91651659D01*
X146087574Y-91651658D01*
X146087571Y-91651657D01*
X146087569Y-91651656D01*
X145874637Y-91578556D01*
X145652569Y-91541500D01*
X145427431Y-91541500D01*
X145205362Y-91578556D01*
X144992430Y-91651656D01*
X144992419Y-91651661D01*
X144794427Y-91758808D01*
X144794422Y-91758812D01*
X144616761Y-91897092D01*
X144553548Y-91965760D01*
X144493661Y-92001750D01*
X144423823Y-91999649D01*
X144366207Y-91960124D01*
X144346138Y-91925110D01*
X144300889Y-91803796D01*
X144267214Y-91758812D01*
X144213261Y-91686739D01*
X144096204Y-91599111D01*
X144079557Y-91592902D01*
X143959203Y-91548011D01*
X143898654Y-91541500D01*
X143898638Y-91541500D01*
X142101362Y-91541500D01*
X142101345Y-91541500D01*
X142040797Y-91548011D01*
X142040795Y-91548011D01*
X141903795Y-91599111D01*
X141786739Y-91686739D01*
X141699111Y-91803795D01*
X141653861Y-91925111D01*
X141611989Y-91981044D01*
X141546524Y-92005460D01*
X141478252Y-91990607D01*
X141446454Y-91965762D01*
X141383240Y-91897094D01*
X141205576Y-91758811D01*
X141205575Y-91758810D01*
X141205572Y-91758808D01*
X141007580Y-91651661D01*
X141007577Y-91651659D01*
X141007574Y-91651658D01*
X141007571Y-91651657D01*
X141007569Y-91651656D01*
X140794638Y-91578556D01*
X140582344Y-91543131D01*
X140519459Y-91512680D01*
X140483020Y-91453066D01*
X140484595Y-91383214D01*
X140515071Y-91333143D01*
X146101259Y-85746957D01*
X146165864Y-85650268D01*
X146165866Y-85650266D01*
X146181906Y-85626260D01*
X146197948Y-85602252D01*
X146264548Y-85441465D01*
X146298500Y-85270775D01*
X146298500Y-57567320D01*
X146318185Y-57500281D01*
X146334819Y-57479639D01*
X150404639Y-53409819D01*
X150465962Y-53376334D01*
X150492320Y-53373500D01*
X150802447Y-53373500D01*
X150869486Y-53393185D01*
X150893674Y-53413514D01*
X150966760Y-53492906D01*
X151144424Y-53631189D01*
X151144429Y-53631191D01*
X151144431Y-53631193D01*
X151180930Y-53650946D01*
X151230520Y-53700165D01*
X151245628Y-53768382D01*
X151221457Y-53833937D01*
X151180930Y-53869054D01*
X151144431Y-53888806D01*
X151144422Y-53888812D01*
X150966761Y-54027092D01*
X150966756Y-54027097D01*
X150814284Y-54192723D01*
X150814276Y-54192734D01*
X150691140Y-54381207D01*
X150600703Y-54587385D01*
X150545436Y-54805628D01*
X150545434Y-54805640D01*
X150526844Y-55029994D01*
X150526844Y-55030005D01*
X150545434Y-55254359D01*
X150545436Y-55254371D01*
X150600703Y-55472614D01*
X150691140Y-55678792D01*
X150814276Y-55867265D01*
X150814284Y-55867276D01*
X150966756Y-56032902D01*
X150966760Y-56032906D01*
X151144424Y-56171189D01*
X151144429Y-56171191D01*
X151144431Y-56171193D01*
X151180930Y-56190946D01*
X151230520Y-56240165D01*
X151245628Y-56308382D01*
X151221457Y-56373937D01*
X151180930Y-56409054D01*
X151144431Y-56428806D01*
X151144422Y-56428812D01*
X150966761Y-56567092D01*
X150966756Y-56567097D01*
X150814284Y-56732723D01*
X150814276Y-56732734D01*
X150691140Y-56921207D01*
X150600703Y-57127385D01*
X150545436Y-57345628D01*
X150545434Y-57345640D01*
X150526844Y-57569994D01*
X150526844Y-57570005D01*
X150545434Y-57794359D01*
X150545436Y-57794371D01*
X150600703Y-58012614D01*
X150691140Y-58218792D01*
X150814276Y-58407265D01*
X150814284Y-58407276D01*
X150966756Y-58572902D01*
X150966760Y-58572906D01*
X151144424Y-58711189D01*
X151144429Y-58711191D01*
X151144431Y-58711193D01*
X151180930Y-58730946D01*
X151230520Y-58780165D01*
X151245628Y-58848382D01*
X151221457Y-58913937D01*
X151180930Y-58949054D01*
X151144431Y-58968806D01*
X151144422Y-58968812D01*
X150966761Y-59107092D01*
X150966756Y-59107097D01*
X150814284Y-59272723D01*
X150814276Y-59272734D01*
X150691140Y-59461207D01*
X150600703Y-59667385D01*
X150545436Y-59885628D01*
X150545434Y-59885640D01*
X150526844Y-60109994D01*
X150526844Y-60110005D01*
X150545434Y-60334359D01*
X150545436Y-60334371D01*
X150600703Y-60552614D01*
X150691140Y-60758792D01*
X150814276Y-60947265D01*
X150814284Y-60947276D01*
X150959489Y-61105008D01*
X150990412Y-61167662D01*
X150982552Y-61237088D01*
X150938405Y-61291244D01*
X150911596Y-61305172D01*
X150793794Y-61349111D01*
X150676739Y-61436739D01*
X150589111Y-61553795D01*
X150538011Y-61690795D01*
X150538011Y-61690797D01*
X150531500Y-61751345D01*
X150531500Y-63548654D01*
X150538011Y-63609202D01*
X150538011Y-63609204D01*
X150589111Y-63746204D01*
X150676739Y-63863261D01*
X150793796Y-63950889D01*
X150845737Y-63970262D01*
X150911595Y-63994827D01*
X150967528Y-64036699D01*
X150991944Y-64102163D01*
X150977092Y-64170436D01*
X150959490Y-64194991D01*
X150814279Y-64352730D01*
X150814276Y-64352734D01*
X150691140Y-64541207D01*
X150600703Y-64747385D01*
X150545436Y-64965628D01*
X150545434Y-64965640D01*
X150526844Y-65189994D01*
X150526844Y-65190005D01*
X150545434Y-65414359D01*
X150545436Y-65414371D01*
X150600703Y-65632614D01*
X150691140Y-65838792D01*
X150814276Y-66027265D01*
X150814284Y-66027276D01*
X150966756Y-66192902D01*
X150966760Y-66192906D01*
X151144424Y-66331189D01*
X151144429Y-66331191D01*
X151144431Y-66331193D01*
X151180930Y-66350946D01*
X151230520Y-66400165D01*
X151245628Y-66468382D01*
X151221457Y-66533937D01*
X151180930Y-66569054D01*
X151144431Y-66588806D01*
X151144422Y-66588812D01*
X150966761Y-66727092D01*
X150966756Y-66727097D01*
X150814284Y-66892723D01*
X150814276Y-66892734D01*
X150691140Y-67081207D01*
X150600703Y-67287385D01*
X150545436Y-67505628D01*
X150545434Y-67505640D01*
X150526844Y-67729994D01*
X150526844Y-67730005D01*
X150545434Y-67954359D01*
X150545436Y-67954371D01*
X150600703Y-68172614D01*
X150691140Y-68378792D01*
X150814276Y-68567265D01*
X150814284Y-68567276D01*
X150966756Y-68732902D01*
X150966760Y-68732906D01*
X151144424Y-68871189D01*
X151144429Y-68871191D01*
X151144431Y-68871193D01*
X151180930Y-68890946D01*
X151230520Y-68940165D01*
X151245628Y-69008382D01*
X151221457Y-69073937D01*
X151180930Y-69109054D01*
X151144431Y-69128806D01*
X151144422Y-69128812D01*
X150966761Y-69267092D01*
X150966756Y-69267097D01*
X150814284Y-69432723D01*
X150814276Y-69432734D01*
X150691140Y-69621207D01*
X150600703Y-69827385D01*
X150545436Y-70045628D01*
X150545434Y-70045640D01*
X150526844Y-70269994D01*
X150526844Y-70270005D01*
X150545434Y-70494359D01*
X150545436Y-70494371D01*
X150600703Y-70712614D01*
X150691140Y-70918792D01*
X150814276Y-71107265D01*
X150814284Y-71107276D01*
X150966756Y-71272902D01*
X150966760Y-71272906D01*
X151144424Y-71411189D01*
X151144429Y-71411191D01*
X151144431Y-71411193D01*
X151180930Y-71430946D01*
X151230520Y-71480165D01*
X151245628Y-71548382D01*
X151221457Y-71613937D01*
X151180930Y-71649054D01*
X151144431Y-71668806D01*
X151144422Y-71668812D01*
X150966761Y-71807092D01*
X150966756Y-71807097D01*
X150814284Y-71972723D01*
X150814276Y-71972734D01*
X150691140Y-72161207D01*
X150600703Y-72367385D01*
X150545436Y-72585628D01*
X150545434Y-72585640D01*
X150526844Y-72809994D01*
X150526844Y-72810005D01*
X150545434Y-73034359D01*
X150545436Y-73034371D01*
X150600703Y-73252614D01*
X150691140Y-73458792D01*
X150814276Y-73647265D01*
X150814284Y-73647276D01*
X150959489Y-73805008D01*
X150990412Y-73867662D01*
X150982552Y-73937088D01*
X150938405Y-73991244D01*
X150911596Y-74005172D01*
X150793794Y-74049111D01*
X150676739Y-74136739D01*
X150589111Y-74253795D01*
X150538011Y-74390795D01*
X150538011Y-74390797D01*
X150531500Y-74451345D01*
X150531500Y-75407679D01*
X150511815Y-75474718D01*
X150495181Y-75495360D01*
X149778743Y-76211797D01*
X149778740Y-76211801D01*
X149682050Y-76356507D01*
X149682049Y-76356509D01*
X149615453Y-76517287D01*
X149615450Y-76517299D01*
X149588877Y-76650887D01*
X149588878Y-76650888D01*
X149581500Y-76687983D01*
X149581500Y-86712021D01*
X149615450Y-86882700D01*
X149615453Y-86882712D01*
X149682046Y-87043483D01*
X149682050Y-87043492D01*
X149778740Y-87188198D01*
X149778743Y-87188202D01*
X150495181Y-87904639D01*
X150528666Y-87965962D01*
X150531500Y-87992320D01*
X150531500Y-88948654D01*
X150538011Y-89009202D01*
X150538011Y-89009204D01*
X150589111Y-89146204D01*
X150676739Y-89263261D01*
X150793796Y-89350889D01*
X150845737Y-89370262D01*
X150911595Y-89394827D01*
X150967528Y-89436699D01*
X150991944Y-89502163D01*
X150977092Y-89570436D01*
X150959490Y-89594991D01*
X150814279Y-89752730D01*
X150814276Y-89752734D01*
X150691140Y-89941207D01*
X150600703Y-90147385D01*
X150545436Y-90365628D01*
X150545434Y-90365640D01*
X150526844Y-90589994D01*
X150526844Y-90590005D01*
X150545435Y-90814364D01*
X150573461Y-90925037D01*
X150570836Y-90994857D01*
X150540936Y-91043158D01*
X150311167Y-91272929D01*
X150272909Y-91311187D01*
X150222927Y-91361168D01*
X150153603Y-91464918D01*
X150153598Y-91464927D01*
X150105845Y-91580214D01*
X150105843Y-91580222D01*
X150081500Y-91702601D01*
X150081500Y-94262398D01*
X150105843Y-94384777D01*
X150105845Y-94384785D01*
X150153598Y-94500072D01*
X150153603Y-94500081D01*
X150222927Y-94603831D01*
X150222928Y-94603832D01*
X150222929Y-94603833D01*
X150327929Y-94708833D01*
X150416164Y-94797068D01*
X150416168Y-94797072D01*
X150519918Y-94866396D01*
X150519924Y-94866399D01*
X150519925Y-94866400D01*
X150635215Y-94914155D01*
X150757601Y-94938499D01*
X150757605Y-94938500D01*
X150757606Y-94938500D01*
X157987395Y-94938500D01*
X157987396Y-94938499D01*
X158109785Y-94914155D01*
X158225075Y-94866400D01*
X158328833Y-94797071D01*
X164331085Y-88794819D01*
X164392408Y-88761334D01*
X164418766Y-88758500D01*
X165303638Y-88758500D01*
X165303654Y-88758499D01*
X165330692Y-88755591D01*
X165364201Y-88751989D01*
X165364205Y-88751987D01*
X165364207Y-88751987D01*
X165453229Y-88718783D01*
X165501204Y-88700889D01*
X165501210Y-88700884D01*
X165508984Y-88696640D01*
X165509872Y-88698266D01*
X165565032Y-88677686D01*
X165621343Y-88686807D01*
X165698539Y-88718783D01*
X165865466Y-88751987D01*
X165898204Y-88758499D01*
X165898207Y-88758500D01*
X165898209Y-88758500D01*
X166101793Y-88758500D01*
X166101794Y-88758499D01*
X166301461Y-88718783D01*
X166489546Y-88640876D01*
X166566112Y-88589715D01*
X166632786Y-88568839D01*
X166700166Y-88587323D01*
X166703832Y-88589679D01*
X166780454Y-88640876D01*
X166780457Y-88640877D01*
X166780460Y-88640879D01*
X166964956Y-88717299D01*
X166968539Y-88718783D01*
X167135466Y-88751987D01*
X167168204Y-88758499D01*
X167168207Y-88758500D01*
X167168209Y-88758500D01*
X167371793Y-88758500D01*
X167371794Y-88758499D01*
X167571461Y-88718783D01*
X167759546Y-88640876D01*
X167928818Y-88527772D01*
X168072772Y-88383818D01*
X168185876Y-88214546D01*
X168263783Y-88026461D01*
X168303500Y-87826791D01*
X168303500Y-87173209D01*
X168303500Y-87173206D01*
X168303499Y-87173204D01*
X168297569Y-87143393D01*
X168263783Y-86973539D01*
X168246248Y-86931206D01*
X168185879Y-86785460D01*
X168185872Y-86785447D01*
X168072772Y-86616182D01*
X168072769Y-86616178D01*
X167939819Y-86483228D01*
X167906334Y-86421905D01*
X167903500Y-86395547D01*
X167903500Y-80847605D01*
X167903499Y-80847601D01*
X167879156Y-80725222D01*
X167879155Y-80725215D01*
X167831400Y-80609925D01*
X167831399Y-80609924D01*
X167831396Y-80609918D01*
X167762072Y-80506168D01*
X167752510Y-80496606D01*
X167673833Y-80417929D01*
X166681620Y-79425716D01*
X166648135Y-79364393D01*
X166645983Y-79351015D01*
X166628542Y-79185072D01*
X166569527Y-79003444D01*
X166474040Y-78838056D01*
X166346253Y-78696134D01*
X166191752Y-78583882D01*
X166017288Y-78506206D01*
X166017286Y-78506205D01*
X165830487Y-78466500D01*
X165639513Y-78466500D01*
X165452714Y-78506205D01*
X165278246Y-78583883D01*
X165123745Y-78696135D01*
X164995959Y-78838057D01*
X164900473Y-79003443D01*
X164900470Y-79003450D01*
X164845467Y-79172734D01*
X164841458Y-79185072D01*
X164821496Y-79375000D01*
X164841458Y-79564928D01*
X164841459Y-79564931D01*
X164900470Y-79746549D01*
X164900473Y-79746556D01*
X164995957Y-79911940D01*
X164995961Y-79911945D01*
X165009542Y-79927029D01*
X165039771Y-79990022D01*
X165031145Y-80059357D01*
X165009542Y-80092971D01*
X164995961Y-80108054D01*
X164995957Y-80108059D01*
X164900473Y-80273443D01*
X164900470Y-80273450D01*
X164842256Y-80452616D01*
X164841458Y-80455072D01*
X164825182Y-80609927D01*
X164824019Y-80620996D01*
X164797434Y-80685610D01*
X164788379Y-80695715D01*
X161325181Y-84158914D01*
X161263858Y-84192399D01*
X161194166Y-84187415D01*
X161138233Y-84145543D01*
X161113816Y-84080079D01*
X161113500Y-84071233D01*
X161113500Y-76407319D01*
X161133185Y-76340280D01*
X161149819Y-76319638D01*
X163684638Y-73784819D01*
X163745961Y-73751334D01*
X163772319Y-73748500D01*
X163942569Y-73748500D01*
X164164635Y-73711444D01*
X164377574Y-73638342D01*
X164575576Y-73531189D01*
X164753240Y-73392906D01*
X164852614Y-73284957D01*
X164905715Y-73227276D01*
X164905715Y-73227275D01*
X164905722Y-73227268D01*
X164996193Y-73088790D01*
X165049338Y-73043437D01*
X165118569Y-73034013D01*
X165181905Y-73063515D01*
X165203804Y-73088787D01*
X165294278Y-73227268D01*
X165294283Y-73227273D01*
X165294284Y-73227276D01*
X165446756Y-73392902D01*
X165446760Y-73392906D01*
X165624424Y-73531189D01*
X165624425Y-73531189D01*
X165624427Y-73531191D01*
X165725824Y-73586064D01*
X165822426Y-73638342D01*
X166035365Y-73711444D01*
X166257431Y-73748500D01*
X166482569Y-73748500D01*
X166704635Y-73711444D01*
X166917574Y-73638342D01*
X167115576Y-73531189D01*
X167293240Y-73392906D01*
X167392614Y-73284957D01*
X167445715Y-73227276D01*
X167445717Y-73227273D01*
X167445722Y-73227268D01*
X167568860Y-73038791D01*
X167659296Y-72832616D01*
X167714564Y-72614368D01*
X167733156Y-72390000D01*
X167731282Y-72367385D01*
X167714565Y-72165640D01*
X167714563Y-72165628D01*
X167711876Y-72155018D01*
X167659296Y-71947384D01*
X167568860Y-71741209D01*
X167562706Y-71731790D01*
X167485709Y-71613937D01*
X167445722Y-71552732D01*
X167445719Y-71552729D01*
X167445715Y-71552723D01*
X167293243Y-71387097D01*
X167293238Y-71387092D01*
X167115577Y-71248812D01*
X167115578Y-71248812D01*
X167115576Y-71248811D01*
X167079070Y-71229055D01*
X167029479Y-71179836D01*
X167014371Y-71111619D01*
X167038541Y-71046064D01*
X167079070Y-71010945D01*
X167079084Y-71010936D01*
X167115576Y-70991189D01*
X167293240Y-70852906D01*
X167392614Y-70744957D01*
X167445715Y-70687276D01*
X167445717Y-70687273D01*
X167445722Y-70687268D01*
X167568860Y-70498791D01*
X167659296Y-70292616D01*
X167714564Y-70074368D01*
X167733156Y-69850000D01*
X167731282Y-69827385D01*
X167714565Y-69625640D01*
X167714563Y-69625628D01*
X167711876Y-69615018D01*
X167659296Y-69407384D01*
X167568860Y-69201209D01*
X167562706Y-69191790D01*
X167485709Y-69073937D01*
X167445722Y-69012732D01*
X167445719Y-69012729D01*
X167445715Y-69012723D01*
X167293243Y-68847097D01*
X167293238Y-68847092D01*
X167115577Y-68708812D01*
X167115578Y-68708812D01*
X167115576Y-68708811D01*
X167079070Y-68689055D01*
X167029479Y-68639836D01*
X167014371Y-68571619D01*
X167038541Y-68506064D01*
X167079070Y-68470945D01*
X167079084Y-68470936D01*
X167115576Y-68451189D01*
X167293240Y-68312906D01*
X167392614Y-68204957D01*
X167445715Y-68147276D01*
X167445717Y-68147273D01*
X167445722Y-68147268D01*
X167568860Y-67958791D01*
X167659296Y-67752616D01*
X167714564Y-67534368D01*
X167733156Y-67310000D01*
X167731282Y-67287385D01*
X167714565Y-67085640D01*
X167714563Y-67085628D01*
X167711876Y-67075018D01*
X167659296Y-66867384D01*
X167568860Y-66661209D01*
X167562706Y-66651790D01*
X167485709Y-66533937D01*
X167445722Y-66472732D01*
X167445719Y-66472729D01*
X167445715Y-66472723D01*
X167293243Y-66307097D01*
X167293238Y-66307092D01*
X167115577Y-66168812D01*
X167115578Y-66168812D01*
X167115576Y-66168811D01*
X167079070Y-66149055D01*
X167029479Y-66099836D01*
X167014371Y-66031619D01*
X167038541Y-65966064D01*
X167079070Y-65930945D01*
X167079084Y-65930936D01*
X167115576Y-65911189D01*
X167293240Y-65772906D01*
X167392614Y-65664957D01*
X167445715Y-65607276D01*
X167445717Y-65607273D01*
X167445722Y-65607268D01*
X167568860Y-65418791D01*
X167659296Y-65212616D01*
X167714564Y-64994368D01*
X167733156Y-64770000D01*
X167731282Y-64747385D01*
X167714565Y-64545640D01*
X167714563Y-64545628D01*
X167711876Y-64535018D01*
X167659296Y-64327384D01*
X167568860Y-64121209D01*
X167562706Y-64111790D01*
X167481819Y-63987983D01*
X167445722Y-63932732D01*
X167445719Y-63932729D01*
X167445715Y-63932723D01*
X167293243Y-63767097D01*
X167293238Y-63767092D01*
X167115577Y-63628812D01*
X167115578Y-63628812D01*
X167115576Y-63628811D01*
X167079070Y-63609055D01*
X167029479Y-63559836D01*
X167014371Y-63491619D01*
X167038541Y-63426064D01*
X167079070Y-63390945D01*
X167079084Y-63390936D01*
X167115576Y-63371189D01*
X167293240Y-63232906D01*
X167445722Y-63067268D01*
X167568860Y-62878791D01*
X167659296Y-62672616D01*
X167714564Y-62454368D01*
X167733156Y-62230000D01*
X167714564Y-62005632D01*
X167659296Y-61787384D01*
X167568860Y-61581209D01*
X167562706Y-61571790D01*
X167445723Y-61392734D01*
X167445715Y-61392723D01*
X167293243Y-61227097D01*
X167293238Y-61227092D01*
X167146533Y-61112906D01*
X167115576Y-61088811D01*
X167079070Y-61069055D01*
X167029479Y-61019836D01*
X167014371Y-60951619D01*
X167038541Y-60886064D01*
X167079070Y-60850945D01*
X167079084Y-60850936D01*
X167115576Y-60831189D01*
X167293240Y-60692906D01*
X167392614Y-60584957D01*
X167445715Y-60527276D01*
X167445717Y-60527273D01*
X167445722Y-60527268D01*
X167568860Y-60338791D01*
X167659296Y-60132616D01*
X167714564Y-59914368D01*
X167733156Y-59690000D01*
X167731282Y-59667385D01*
X167714565Y-59465640D01*
X167714563Y-59465628D01*
X167711876Y-59455018D01*
X167659296Y-59247384D01*
X167568860Y-59041209D01*
X167562706Y-59031790D01*
X167485709Y-58913937D01*
X167445722Y-58852732D01*
X167445719Y-58852729D01*
X167445715Y-58852723D01*
X167293243Y-58687097D01*
X167293238Y-58687092D01*
X167115577Y-58548812D01*
X167115578Y-58548812D01*
X167115576Y-58548811D01*
X167079070Y-58529055D01*
X167029479Y-58479836D01*
X167014371Y-58411619D01*
X167038541Y-58346064D01*
X167079070Y-58310945D01*
X167079084Y-58310936D01*
X167115576Y-58291189D01*
X167293240Y-58152906D01*
X167392614Y-58044957D01*
X167445715Y-57987276D01*
X167445717Y-57987273D01*
X167445722Y-57987268D01*
X167568860Y-57798791D01*
X167659296Y-57592616D01*
X167714564Y-57374368D01*
X167733156Y-57150000D01*
X167731282Y-57127385D01*
X167714565Y-56925640D01*
X167714563Y-56925628D01*
X167706120Y-56892287D01*
X167659296Y-56707384D01*
X167568860Y-56501209D01*
X167562706Y-56491790D01*
X167485709Y-56373937D01*
X167445722Y-56312732D01*
X167445719Y-56312729D01*
X167445715Y-56312723D01*
X167300510Y-56154991D01*
X167269587Y-56092337D01*
X167277447Y-56022911D01*
X167321594Y-55968755D01*
X167348405Y-55954827D01*
X167428584Y-55924920D01*
X167466204Y-55910889D01*
X167583261Y-55823261D01*
X167670889Y-55706204D01*
X167721989Y-55569201D01*
X167725591Y-55535692D01*
X167728499Y-55508654D01*
X167728500Y-55508637D01*
X167728500Y-53711362D01*
X167728499Y-53711345D01*
X167725157Y-53680270D01*
X167721989Y-53650799D01*
X167714676Y-53631193D01*
X167699522Y-53590564D01*
X167670889Y-53513796D01*
X167583261Y-53396739D01*
X167466204Y-53309111D01*
X167329203Y-53258011D01*
X167268654Y-53251500D01*
X167268638Y-53251500D01*
X165471362Y-53251500D01*
X165471345Y-53251500D01*
X165410797Y-53258011D01*
X165410795Y-53258011D01*
X165273795Y-53309111D01*
X165174311Y-53383585D01*
X165108846Y-53408002D01*
X165040573Y-53393150D01*
X165025689Y-53383585D01*
X164950469Y-53327276D01*
X164926204Y-53309111D01*
X164789203Y-53258011D01*
X164728654Y-53251500D01*
X164728638Y-53251500D01*
X162931362Y-53251500D01*
X162931345Y-53251500D01*
X162870797Y-53258011D01*
X162870795Y-53258011D01*
X162733795Y-53309111D01*
X162624311Y-53391071D01*
X162558846Y-53415488D01*
X162490573Y-53400636D01*
X162475689Y-53391071D01*
X162390469Y-53327276D01*
X162366204Y-53309111D01*
X162229203Y-53258011D01*
X162168654Y-53251500D01*
X162168638Y-53251500D01*
X160371362Y-53251500D01*
X160371345Y-53251500D01*
X160310797Y-53258011D01*
X160310795Y-53258011D01*
X160173795Y-53309111D01*
X160056739Y-53396739D01*
X159969111Y-53513795D01*
X159918011Y-53650795D01*
X159918011Y-53650797D01*
X159911500Y-53711345D01*
X159911500Y-55508654D01*
X159918011Y-55569202D01*
X159918011Y-55569204D01*
X159958886Y-55678791D01*
X159969111Y-55706204D01*
X160056739Y-55823261D01*
X160173796Y-55910889D01*
X160225737Y-55930262D01*
X160291595Y-55954827D01*
X160347528Y-55996699D01*
X160371944Y-56062163D01*
X160357092Y-56130436D01*
X160339490Y-56154991D01*
X160194279Y-56312730D01*
X160194276Y-56312734D01*
X160071140Y-56501207D01*
X159980703Y-56707385D01*
X159925436Y-56925628D01*
X159925434Y-56925640D01*
X159906844Y-57149994D01*
X159906844Y-57150005D01*
X159925434Y-57374359D01*
X159925436Y-57374371D01*
X159980703Y-57592614D01*
X160071140Y-57798792D01*
X160194276Y-57987265D01*
X160194284Y-57987276D01*
X160346756Y-58152902D01*
X160346760Y-58152906D01*
X160524424Y-58291189D01*
X160524429Y-58291191D01*
X160524431Y-58291193D01*
X160560930Y-58310946D01*
X160610520Y-58360165D01*
X160625628Y-58428382D01*
X160601457Y-58493937D01*
X160560930Y-58529054D01*
X160524431Y-58548806D01*
X160524422Y-58548812D01*
X160346761Y-58687092D01*
X160346756Y-58687097D01*
X160194284Y-58852723D01*
X160194276Y-58852734D01*
X160071140Y-59041207D01*
X159980703Y-59247385D01*
X159925436Y-59465628D01*
X159925434Y-59465640D01*
X159906844Y-59689994D01*
X159906844Y-59690005D01*
X159925434Y-59914359D01*
X159925436Y-59914371D01*
X159980703Y-60132614D01*
X160071140Y-60338792D01*
X160194276Y-60527265D01*
X160194284Y-60527276D01*
X160346756Y-60692902D01*
X160346760Y-60692906D01*
X160524424Y-60831189D01*
X160524429Y-60831191D01*
X160524431Y-60831193D01*
X160560930Y-60850946D01*
X160610520Y-60900165D01*
X160625628Y-60968382D01*
X160601457Y-61033937D01*
X160560930Y-61069054D01*
X160524431Y-61088806D01*
X160524422Y-61088812D01*
X160346761Y-61227092D01*
X160346756Y-61227097D01*
X160194284Y-61392723D01*
X160194276Y-61392734D01*
X160071140Y-61581207D01*
X159980703Y-61787385D01*
X159925436Y-62005628D01*
X159925434Y-62005640D01*
X159906844Y-62229994D01*
X159906844Y-62230005D01*
X159925434Y-62454359D01*
X159925436Y-62454371D01*
X159980703Y-62672614D01*
X160071140Y-62878792D01*
X160194276Y-63067265D01*
X160194284Y-63067276D01*
X160346756Y-63232902D01*
X160346760Y-63232906D01*
X160524424Y-63371189D01*
X160524429Y-63371191D01*
X160524431Y-63371193D01*
X160560930Y-63390946D01*
X160610520Y-63440165D01*
X160625628Y-63508382D01*
X160601457Y-63573937D01*
X160560930Y-63609054D01*
X160524431Y-63628806D01*
X160524422Y-63628812D01*
X160346761Y-63767092D01*
X160346756Y-63767097D01*
X160194284Y-63932723D01*
X160194276Y-63932734D01*
X160071140Y-64121207D01*
X159980703Y-64327385D01*
X159925436Y-64545628D01*
X159925434Y-64545640D01*
X159906844Y-64769994D01*
X159906844Y-64770005D01*
X159925434Y-64994359D01*
X159925436Y-64994371D01*
X159980703Y-65212614D01*
X160071140Y-65418792D01*
X160194276Y-65607265D01*
X160194284Y-65607276D01*
X160346756Y-65772902D01*
X160346760Y-65772906D01*
X160524424Y-65911189D01*
X160524429Y-65911191D01*
X160524431Y-65911193D01*
X160560930Y-65930946D01*
X160610520Y-65980165D01*
X160625628Y-66048382D01*
X160601457Y-66113937D01*
X160560930Y-66149054D01*
X160524431Y-66168806D01*
X160524422Y-66168812D01*
X160346761Y-66307092D01*
X160346756Y-66307097D01*
X160194284Y-66472723D01*
X160194276Y-66472734D01*
X160071140Y-66661207D01*
X159980703Y-66867385D01*
X159925436Y-67085628D01*
X159925434Y-67085640D01*
X159906844Y-67309994D01*
X159906844Y-67310005D01*
X159925434Y-67534359D01*
X159925436Y-67534371D01*
X159980703Y-67752614D01*
X160071140Y-67958792D01*
X160194276Y-68147265D01*
X160194284Y-68147276D01*
X160346756Y-68312902D01*
X160346760Y-68312906D01*
X160524424Y-68451189D01*
X160524429Y-68451191D01*
X160524431Y-68451193D01*
X160560930Y-68470946D01*
X160610520Y-68520165D01*
X160625628Y-68588382D01*
X160601457Y-68653937D01*
X160560930Y-68689054D01*
X160524431Y-68708806D01*
X160524422Y-68708812D01*
X160346761Y-68847092D01*
X160346756Y-68847097D01*
X160194284Y-69012723D01*
X160194276Y-69012734D01*
X160071140Y-69201207D01*
X159980703Y-69407385D01*
X159925436Y-69625628D01*
X159925434Y-69625640D01*
X159906844Y-69849994D01*
X159906844Y-69850005D01*
X159925434Y-70074359D01*
X159925436Y-70074371D01*
X159980703Y-70292614D01*
X160071140Y-70498792D01*
X160194276Y-70687265D01*
X160194284Y-70687276D01*
X160346756Y-70852902D01*
X160346760Y-70852906D01*
X160524424Y-70991189D01*
X160524429Y-70991191D01*
X160524431Y-70991193D01*
X160560930Y-71010946D01*
X160610520Y-71060165D01*
X160625628Y-71128382D01*
X160601457Y-71193937D01*
X160560930Y-71229054D01*
X160524431Y-71248806D01*
X160524422Y-71248812D01*
X160346761Y-71387092D01*
X160346756Y-71387097D01*
X160194284Y-71552723D01*
X160194276Y-71552734D01*
X160071140Y-71741207D01*
X159980703Y-71947385D01*
X159925436Y-72165628D01*
X159925434Y-72165640D01*
X159906844Y-72389994D01*
X159906844Y-72390005D01*
X159925434Y-72614359D01*
X159925436Y-72614371D01*
X159980703Y-72832614D01*
X160071140Y-73038792D01*
X160194276Y-73227265D01*
X160194284Y-73227276D01*
X160346756Y-73392902D01*
X160346760Y-73392906D01*
X160524424Y-73531189D01*
X160524425Y-73531189D01*
X160524427Y-73531191D01*
X160625824Y-73586064D01*
X160722426Y-73638342D01*
X160935365Y-73711444D01*
X160975190Y-73718089D01*
X161038074Y-73748538D01*
X161074515Y-73808152D01*
X161072941Y-73878004D01*
X161042462Y-73928079D01*
X159543743Y-75426797D01*
X159543740Y-75426801D01*
X159447050Y-75571507D01*
X159447049Y-75571509D01*
X159380453Y-75732287D01*
X159380450Y-75732299D01*
X159348783Y-75891497D01*
X159348784Y-75891498D01*
X159346500Y-75902981D01*
X159346500Y-86117500D01*
X159326815Y-86184539D01*
X159274011Y-86230294D01*
X159222500Y-86241500D01*
X158386345Y-86241500D01*
X158325797Y-86248011D01*
X158325795Y-86248011D01*
X158188795Y-86299111D01*
X158071739Y-86386739D01*
X157984111Y-86503795D01*
X157933011Y-86640795D01*
X157933011Y-86640797D01*
X157926500Y-86701345D01*
X157926500Y-87586233D01*
X157906815Y-87653272D01*
X157890181Y-87673914D01*
X153194472Y-92369622D01*
X153133149Y-92403107D01*
X153063457Y-92398123D01*
X153007524Y-92356251D01*
X153002982Y-92349763D01*
X152965719Y-92292728D01*
X152813243Y-92127097D01*
X152813238Y-92127092D01*
X152651701Y-92001362D01*
X152635576Y-91988811D01*
X152599070Y-91969055D01*
X152549479Y-91919836D01*
X152534371Y-91851619D01*
X152558541Y-91786064D01*
X152599070Y-91750945D01*
X152599084Y-91750936D01*
X152635576Y-91731189D01*
X152813240Y-91592906D01*
X152931056Y-91464925D01*
X152965715Y-91427276D01*
X152965716Y-91427274D01*
X152965722Y-91427268D01*
X153088860Y-91238791D01*
X153179296Y-91032616D01*
X153234564Y-90814368D01*
X153234565Y-90814359D01*
X153253156Y-90590005D01*
X153253156Y-90589994D01*
X153234565Y-90365640D01*
X153234563Y-90365628D01*
X153185023Y-90170000D01*
X153179296Y-90147384D01*
X153088860Y-89941209D01*
X153070889Y-89913703D01*
X152965723Y-89752734D01*
X152965715Y-89752723D01*
X152820510Y-89594991D01*
X152789587Y-89532337D01*
X152797447Y-89462911D01*
X152841594Y-89408755D01*
X152868405Y-89394827D01*
X152948584Y-89364920D01*
X152986204Y-89350889D01*
X153103261Y-89263261D01*
X153190889Y-89146204D01*
X153241989Y-89009201D01*
X153245780Y-88973937D01*
X153248499Y-88948654D01*
X153248500Y-88948637D01*
X153248500Y-87151362D01*
X153248499Y-87151345D01*
X153245157Y-87120270D01*
X153241989Y-87090799D01*
X153231920Y-87063804D01*
X153202895Y-86985986D01*
X153190889Y-86953796D01*
X153103261Y-86836739D01*
X152986204Y-86749111D01*
X152868404Y-86705172D01*
X152812471Y-86663300D01*
X152788055Y-86597835D01*
X152802908Y-86529562D01*
X152820504Y-86505014D01*
X152965722Y-86347268D01*
X153088860Y-86158791D01*
X153179296Y-85952616D01*
X153234564Y-85734368D01*
X153234565Y-85734359D01*
X153253156Y-85510005D01*
X153253156Y-85509994D01*
X153234565Y-85285640D01*
X153234563Y-85285628D01*
X153198294Y-85142404D01*
X153179296Y-85067384D01*
X153088860Y-84861209D01*
X152965722Y-84672732D01*
X152965719Y-84672729D01*
X152965715Y-84672723D01*
X152813243Y-84507097D01*
X152813238Y-84507092D01*
X152635577Y-84368812D01*
X152635578Y-84368812D01*
X152635576Y-84368811D01*
X152599070Y-84349055D01*
X152549479Y-84299836D01*
X152534371Y-84231619D01*
X152558541Y-84166064D01*
X152599070Y-84130945D01*
X152599084Y-84130936D01*
X152635576Y-84111189D01*
X152813240Y-83972906D01*
X152912614Y-83864957D01*
X152965715Y-83807276D01*
X152965716Y-83807274D01*
X152965722Y-83807268D01*
X153088860Y-83618791D01*
X153179296Y-83412616D01*
X153234564Y-83194368D01*
X153234565Y-83194359D01*
X153253156Y-82970005D01*
X153253156Y-82969994D01*
X153234565Y-82745640D01*
X153234563Y-82745628D01*
X153185023Y-82550000D01*
X153179296Y-82527384D01*
X153088860Y-82321209D01*
X152965722Y-82132732D01*
X152965719Y-82132729D01*
X152965715Y-82132723D01*
X152813243Y-81967097D01*
X152813238Y-81967092D01*
X152635577Y-81828812D01*
X152635578Y-81828812D01*
X152635576Y-81828811D01*
X152599070Y-81809055D01*
X152549479Y-81759836D01*
X152534371Y-81691619D01*
X152558541Y-81626064D01*
X152599070Y-81590945D01*
X152601151Y-81589819D01*
X152635576Y-81571189D01*
X152813240Y-81432906D01*
X152927087Y-81309236D01*
X152965715Y-81267276D01*
X152965716Y-81267274D01*
X152965722Y-81267268D01*
X153088860Y-81078791D01*
X153179296Y-80872616D01*
X153234564Y-80654368D01*
X153234565Y-80654359D01*
X153253156Y-80430005D01*
X153253156Y-80429994D01*
X153234565Y-80205640D01*
X153234563Y-80205628D01*
X153185023Y-80010000D01*
X153179296Y-79987384D01*
X153088860Y-79781209D01*
X152965722Y-79592732D01*
X152965719Y-79592729D01*
X152965715Y-79592723D01*
X152813243Y-79427097D01*
X152813238Y-79427092D01*
X152635577Y-79288812D01*
X152635578Y-79288812D01*
X152635576Y-79288811D01*
X152599070Y-79269055D01*
X152549479Y-79219836D01*
X152534371Y-79151619D01*
X152558541Y-79086064D01*
X152599070Y-79050945D01*
X152599084Y-79050936D01*
X152635576Y-79031189D01*
X152813240Y-78892906D01*
X152912614Y-78784957D01*
X152965715Y-78727276D01*
X152965716Y-78727274D01*
X152965722Y-78727268D01*
X153088860Y-78538791D01*
X153179296Y-78332616D01*
X153234564Y-78114368D01*
X153234565Y-78114359D01*
X153253156Y-77890005D01*
X153253156Y-77889994D01*
X153234565Y-77665640D01*
X153234563Y-77665628D01*
X153185023Y-77470000D01*
X153179296Y-77447384D01*
X153088860Y-77241209D01*
X152965722Y-77052732D01*
X152965719Y-77052729D01*
X152965715Y-77052723D01*
X152820510Y-76894991D01*
X152789587Y-76832337D01*
X152797447Y-76762911D01*
X152841594Y-76708755D01*
X152868405Y-76694827D01*
X152948584Y-76664920D01*
X152986204Y-76650889D01*
X153103261Y-76563261D01*
X153190889Y-76446204D01*
X153241989Y-76309201D01*
X153245780Y-76273937D01*
X153248499Y-76248654D01*
X153248500Y-76248637D01*
X153248500Y-75292320D01*
X153268185Y-75225281D01*
X153284819Y-75204639D01*
X154356256Y-74133202D01*
X154356259Y-74133199D01*
X154412445Y-74049111D01*
X154452944Y-73988500D01*
X154452944Y-73988498D01*
X154452947Y-73988495D01*
X154452948Y-73988494D01*
X154519548Y-73827707D01*
X154553500Y-73657017D01*
X154553500Y-51642983D01*
X154519548Y-51472293D01*
X154518779Y-51470436D01*
X154452951Y-51311512D01*
X154452949Y-51311508D01*
X154452948Y-51311506D01*
X154406277Y-51241658D01*
X154356259Y-51166800D01*
X153284819Y-50095360D01*
X153251334Y-50034037D01*
X153248500Y-50007679D01*
X153248500Y-49051362D01*
X153248499Y-49051345D01*
X153242736Y-48997749D01*
X153241989Y-48990799D01*
X153240137Y-48985834D01*
X153219522Y-48930564D01*
X153190889Y-48853796D01*
X153103261Y-48736739D01*
X152986204Y-48649111D01*
X152868404Y-48605172D01*
X152812471Y-48563300D01*
X152788055Y-48497835D01*
X152802908Y-48429562D01*
X152820504Y-48405014D01*
X152965722Y-48247268D01*
X153088860Y-48058791D01*
X153179296Y-47852616D01*
X153234564Y-47634368D01*
X153237584Y-47597924D01*
X153253156Y-47410005D01*
X153253156Y-47409994D01*
X153234565Y-47185640D01*
X153234563Y-47185628D01*
X153203320Y-47062252D01*
X153179296Y-46967384D01*
X153088860Y-46761209D01*
X153059836Y-46716785D01*
X152965723Y-46572734D01*
X152965715Y-46572723D01*
X152813243Y-46407097D01*
X152813238Y-46407092D01*
X152635577Y-46268812D01*
X152635572Y-46268808D01*
X152570718Y-46233711D01*
X163249500Y-46233711D01*
X163249500Y-46476288D01*
X163281161Y-46716785D01*
X163343947Y-46951104D01*
X163436773Y-47175205D01*
X163436777Y-47175214D01*
X163458974Y-47213661D01*
X163558064Y-47385289D01*
X163558066Y-47385292D01*
X163558067Y-47385293D01*
X163705733Y-47577736D01*
X163705739Y-47577743D01*
X163877256Y-47749260D01*
X163877262Y-47749265D01*
X164069711Y-47896936D01*
X164279788Y-48018224D01*
X164503900Y-48111054D01*
X164738211Y-48173838D01*
X164918586Y-48197584D01*
X164978711Y-48205500D01*
X164978712Y-48205500D01*
X165221289Y-48205500D01*
X165269388Y-48199167D01*
X165461789Y-48173838D01*
X165696100Y-48111054D01*
X165920212Y-48018224D01*
X166130289Y-47896936D01*
X166322738Y-47749265D01*
X166494265Y-47577738D01*
X166641936Y-47385289D01*
X166763224Y-47175212D01*
X166856054Y-46951100D01*
X166918838Y-46716789D01*
X166950500Y-46476288D01*
X166950500Y-46233712D01*
X166918838Y-45993211D01*
X166856054Y-45758900D01*
X166763224Y-45534788D01*
X166641936Y-45324711D01*
X166494265Y-45132262D01*
X166494260Y-45132256D01*
X166322743Y-44960739D01*
X166322736Y-44960733D01*
X166130293Y-44813067D01*
X166130292Y-44813066D01*
X166130289Y-44813064D01*
X165920212Y-44691776D01*
X165808830Y-44645640D01*
X165696104Y-44598947D01*
X165578944Y-44567554D01*
X165461789Y-44536162D01*
X165461788Y-44536161D01*
X165461785Y-44536161D01*
X165221289Y-44504500D01*
X165221288Y-44504500D01*
X164978712Y-44504500D01*
X164978711Y-44504500D01*
X164738214Y-44536161D01*
X164503895Y-44598947D01*
X164279794Y-44691773D01*
X164279785Y-44691777D01*
X164069706Y-44813067D01*
X163877263Y-44960733D01*
X163877256Y-44960739D01*
X163705739Y-45132256D01*
X163705733Y-45132263D01*
X163558067Y-45324706D01*
X163436777Y-45534785D01*
X163436773Y-45534794D01*
X163343947Y-45758895D01*
X163281161Y-45993214D01*
X163249500Y-46233711D01*
X152570718Y-46233711D01*
X152437580Y-46161661D01*
X152437577Y-46161659D01*
X152437574Y-46161658D01*
X152437571Y-46161657D01*
X152437569Y-46161656D01*
X152224637Y-46088556D01*
X152002569Y-46051500D01*
X151777431Y-46051500D01*
X151555362Y-46088556D01*
X151342430Y-46161656D01*
X151342419Y-46161661D01*
X151144427Y-46268808D01*
X151144422Y-46268812D01*
X150966761Y-46407092D01*
X150966756Y-46407097D01*
X150814284Y-46572723D01*
X150814276Y-46572734D01*
X150691140Y-46761207D01*
X150600703Y-46967385D01*
X150545436Y-47185628D01*
X150545434Y-47185640D01*
X150526844Y-47409994D01*
X150526844Y-47410005D01*
X150545434Y-47634359D01*
X150545436Y-47634371D01*
X150600703Y-47852614D01*
X150691140Y-48058792D01*
X150814276Y-48247265D01*
X150814284Y-48247276D01*
X150959489Y-48405008D01*
X150990412Y-48467662D01*
X150982552Y-48537088D01*
X150938405Y-48591244D01*
X150911596Y-48605172D01*
X150793794Y-48649111D01*
X150676739Y-48736739D01*
X150589111Y-48853795D01*
X150538011Y-48990795D01*
X150538011Y-48990797D01*
X150531500Y-49051345D01*
X150531500Y-50848654D01*
X150538011Y-50909202D01*
X150538011Y-50909204D01*
X150589111Y-51046203D01*
X150589111Y-51046204D01*
X150676739Y-51163261D01*
X150793796Y-51250889D01*
X150845737Y-51270262D01*
X150911595Y-51294827D01*
X150967528Y-51336699D01*
X150991944Y-51402163D01*
X150977092Y-51470436D01*
X150959490Y-51494991D01*
X150893677Y-51566483D01*
X150833790Y-51602473D01*
X150802447Y-51606500D01*
X149987978Y-51606500D01*
X149856226Y-51632707D01*
X149817299Y-51640450D01*
X149817291Y-51640452D01*
X149787646Y-51652732D01*
X149656503Y-51707053D01*
X149511805Y-51803737D01*
X149511797Y-51803743D01*
X144728743Y-56586797D01*
X144728740Y-56586801D01*
X144632050Y-56731507D01*
X144632049Y-56731509D01*
X144565453Y-56892287D01*
X144565452Y-56892291D01*
X144565452Y-56892292D01*
X144533949Y-57050671D01*
X144531500Y-57062983D01*
X144531500Y-57062984D01*
X144531500Y-84766438D01*
X144511815Y-84833477D01*
X144495181Y-84854119D01*
X135570324Y-93778975D01*
X135509001Y-93812460D01*
X135439309Y-93807476D01*
X135383376Y-93765604D01*
X135358959Y-93700140D01*
X135369086Y-93641488D01*
X135399296Y-93572616D01*
X135454564Y-93354368D01*
X135471282Y-93152616D01*
X135473156Y-93130005D01*
X135473156Y-93129994D01*
X135454565Y-92905640D01*
X135454563Y-92905628D01*
X135405023Y-92710000D01*
X135399296Y-92687384D01*
X135308860Y-92481209D01*
X135293294Y-92457384D01*
X135185723Y-92292734D01*
X135185715Y-92292723D01*
X135033243Y-92127097D01*
X135033238Y-92127092D01*
X134871701Y-92001362D01*
X134855576Y-91988811D01*
X134819070Y-91969055D01*
X134769479Y-91919836D01*
X134754371Y-91851619D01*
X134778541Y-91786064D01*
X134819070Y-91750945D01*
X134819084Y-91750936D01*
X134855576Y-91731189D01*
X135033240Y-91592906D01*
X135151056Y-91464925D01*
X135185715Y-91427276D01*
X135185716Y-91427274D01*
X135185722Y-91427268D01*
X135308860Y-91238791D01*
X135399296Y-91032616D01*
X135454564Y-90814368D01*
X135454565Y-90814359D01*
X135473156Y-90590005D01*
X135473156Y-90589994D01*
X135454565Y-90365640D01*
X135454563Y-90365628D01*
X135405023Y-90170000D01*
X135399296Y-90147384D01*
X135308860Y-89941209D01*
X135290889Y-89913703D01*
X135185723Y-89752734D01*
X135185715Y-89752723D01*
X135040510Y-89594991D01*
X135009587Y-89532337D01*
X135017447Y-89462911D01*
X135061594Y-89408755D01*
X135088405Y-89394827D01*
X135168584Y-89364920D01*
X135206204Y-89350889D01*
X135323261Y-89263261D01*
X135410889Y-89146204D01*
X135461989Y-89009201D01*
X135465780Y-88973937D01*
X135468499Y-88948654D01*
X135468500Y-88948637D01*
X135468500Y-87992320D01*
X135488185Y-87925281D01*
X135504819Y-87904639D01*
X136221256Y-87188202D01*
X136221259Y-87188199D01*
X136317947Y-87043495D01*
X136317948Y-87043494D01*
X136362141Y-86936802D01*
X136384548Y-86882708D01*
X136388535Y-86862662D01*
X136392558Y-86842440D01*
X136392558Y-86842437D01*
X136418500Y-86712017D01*
X136418500Y-76687983D01*
X136384548Y-76517293D01*
X136355102Y-76446204D01*
X136317950Y-76356510D01*
X136317946Y-76356503D01*
X136285867Y-76308493D01*
X136285864Y-76308490D01*
X136221259Y-76211801D01*
X136221257Y-76211798D01*
X135504819Y-75495360D01*
X135471334Y-75434037D01*
X135468500Y-75407679D01*
X135468500Y-75292320D01*
X135488185Y-75225281D01*
X135504819Y-75204639D01*
X136221256Y-74488202D01*
X136221259Y-74488199D01*
X136317947Y-74343495D01*
X136317948Y-74343494D01*
X136384548Y-74182707D01*
X136418500Y-74012017D01*
X136418500Y-63987983D01*
X136384548Y-63817293D01*
X136317948Y-63656506D01*
X136317946Y-63656503D01*
X136285867Y-63608493D01*
X136285864Y-63608490D01*
X136221259Y-63511801D01*
X136221257Y-63511798D01*
X135504819Y-62795360D01*
X135471334Y-62734037D01*
X135468500Y-62707679D01*
X135468500Y-62592320D01*
X135488185Y-62525281D01*
X135504819Y-62504639D01*
X136221256Y-61788202D01*
X136221259Y-61788199D01*
X136317947Y-61643495D01*
X136317948Y-61643494D01*
X136384548Y-61482707D01*
X136418500Y-61312017D01*
X136418500Y-51287983D01*
X136384548Y-51117293D01*
X136317948Y-50956506D01*
X136267130Y-50880452D01*
X136221259Y-50811801D01*
X136221257Y-50811798D01*
X135504819Y-50095360D01*
X135471334Y-50034037D01*
X135468500Y-50007679D01*
X135468500Y-49051362D01*
X135468499Y-49051345D01*
X135462736Y-48997749D01*
X135461989Y-48990799D01*
X135460137Y-48985834D01*
X135439522Y-48930564D01*
X135410889Y-48853796D01*
X135323261Y-48736739D01*
X135206204Y-48649111D01*
X135088404Y-48605172D01*
X135032471Y-48563300D01*
X135008055Y-48497835D01*
X135022908Y-48429562D01*
X135040504Y-48405014D01*
X135185722Y-48247268D01*
X135308860Y-48058791D01*
X135321490Y-48029997D01*
X139311693Y-48029997D01*
X139311693Y-48030002D01*
X139330701Y-48247276D01*
X139330885Y-48249371D01*
X139387880Y-48462076D01*
X139387881Y-48462079D01*
X139387882Y-48462081D01*
X139448231Y-48591500D01*
X139480944Y-48661654D01*
X139607251Y-48842038D01*
X139762962Y-48997749D01*
X139943346Y-49124056D01*
X140142924Y-49217120D01*
X140355629Y-49274115D01*
X140512322Y-49287823D01*
X140574998Y-49293307D01*
X140575000Y-49293307D01*
X140575002Y-49293307D01*
X140629842Y-49288509D01*
X140794371Y-49274115D01*
X141007076Y-49217120D01*
X141206654Y-49124056D01*
X141387038Y-48997749D01*
X141542749Y-48842038D01*
X141669056Y-48661654D01*
X141762120Y-48462076D01*
X141819115Y-48249371D01*
X141838307Y-48030000D01*
X141838307Y-48029997D01*
X144161693Y-48029997D01*
X144161693Y-48030002D01*
X144180701Y-48247276D01*
X144180885Y-48249371D01*
X144237880Y-48462076D01*
X144237881Y-48462079D01*
X144237882Y-48462081D01*
X144298231Y-48591500D01*
X144330944Y-48661654D01*
X144457251Y-48842038D01*
X144612962Y-48997749D01*
X144793346Y-49124056D01*
X144992924Y-49217120D01*
X145205629Y-49274115D01*
X145362322Y-49287823D01*
X145424998Y-49293307D01*
X145425000Y-49293307D01*
X145425002Y-49293307D01*
X145479842Y-49288509D01*
X145644371Y-49274115D01*
X145857076Y-49217120D01*
X146056654Y-49124056D01*
X146237038Y-48997749D01*
X146392749Y-48842038D01*
X146519056Y-48661654D01*
X146612120Y-48462076D01*
X146669115Y-48249371D01*
X146688307Y-48030000D01*
X146669115Y-47810629D01*
X146612120Y-47597924D01*
X146519056Y-47398347D01*
X146519054Y-47398344D01*
X146519053Y-47398342D01*
X146455902Y-47308154D01*
X146392749Y-47217962D01*
X146237038Y-47062251D01*
X146056654Y-46935944D01*
X146056650Y-46935942D01*
X145857081Y-46842882D01*
X145857079Y-46842881D01*
X145857076Y-46842880D01*
X145705777Y-46802339D01*
X145644372Y-46785885D01*
X145644365Y-46785884D01*
X145425002Y-46766693D01*
X145424998Y-46766693D01*
X145205634Y-46785884D01*
X145205627Y-46785885D01*
X144992920Y-46842881D01*
X144793346Y-46935944D01*
X144793342Y-46935946D01*
X144612967Y-47062247D01*
X144612960Y-47062252D01*
X144457252Y-47217960D01*
X144457247Y-47217967D01*
X144330946Y-47398342D01*
X144330944Y-47398346D01*
X144237881Y-47597920D01*
X144180885Y-47810627D01*
X144180884Y-47810634D01*
X144161693Y-48029997D01*
X141838307Y-48029997D01*
X141819115Y-47810629D01*
X141762120Y-47597924D01*
X141669056Y-47398347D01*
X141669054Y-47398344D01*
X141669053Y-47398342D01*
X141605902Y-47308154D01*
X141542749Y-47217962D01*
X141387038Y-47062251D01*
X141206654Y-46935944D01*
X141206650Y-46935942D01*
X141007081Y-46842882D01*
X141007079Y-46842881D01*
X141007076Y-46842880D01*
X140855777Y-46802339D01*
X140794372Y-46785885D01*
X140794365Y-46785884D01*
X140575002Y-46766693D01*
X140574998Y-46766693D01*
X140355634Y-46785884D01*
X140355627Y-46785885D01*
X140142920Y-46842881D01*
X139943346Y-46935944D01*
X139943342Y-46935946D01*
X139762967Y-47062247D01*
X139762960Y-47062252D01*
X139607252Y-47217960D01*
X139607247Y-47217967D01*
X139480946Y-47398342D01*
X139480944Y-47398346D01*
X139387881Y-47597920D01*
X139330885Y-47810627D01*
X139330884Y-47810634D01*
X139311693Y-48029997D01*
X135321490Y-48029997D01*
X135399296Y-47852616D01*
X135454564Y-47634368D01*
X135457584Y-47597924D01*
X135473156Y-47410005D01*
X135473156Y-47409994D01*
X135454565Y-47185640D01*
X135454563Y-47185628D01*
X135423320Y-47062252D01*
X135399296Y-46967384D01*
X135308860Y-46761209D01*
X135279836Y-46716785D01*
X135185723Y-46572734D01*
X135185715Y-46572723D01*
X135033243Y-46407097D01*
X135033238Y-46407092D01*
X134855577Y-46268812D01*
X134855578Y-46268812D01*
X134855576Y-46268811D01*
X134819070Y-46249055D01*
X134769479Y-46199836D01*
X134754371Y-46131619D01*
X134778541Y-46066064D01*
X134819070Y-46030945D01*
X134819084Y-46030936D01*
X134855576Y-46011189D01*
X135033240Y-45872906D01*
X135185722Y-45707268D01*
X135308860Y-45518791D01*
X135399296Y-45312616D01*
X135454564Y-45094368D01*
X135454565Y-45094359D01*
X135462385Y-44999994D01*
X138861673Y-44999994D01*
X138861673Y-45000005D01*
X138880948Y-45232622D01*
X138938251Y-45458907D01*
X139032015Y-45672668D01*
X139159686Y-45868084D01*
X139317776Y-46039814D01*
X139317780Y-46039818D01*
X139501983Y-46183190D01*
X139501985Y-46183191D01*
X139501988Y-46183193D01*
X139595338Y-46233711D01*
X139707273Y-46294287D01*
X139821914Y-46333643D01*
X139928045Y-46370079D01*
X139928047Y-46370079D01*
X139928049Y-46370080D01*
X140158288Y-46408500D01*
X140158289Y-46408500D01*
X140391711Y-46408500D01*
X140391712Y-46408500D01*
X140621951Y-46370080D01*
X140842727Y-46294287D01*
X141048017Y-46183190D01*
X141232220Y-46039818D01*
X141390314Y-45868083D01*
X141517984Y-45672669D01*
X141611749Y-45458907D01*
X141669051Y-45232626D01*
X141680507Y-45094371D01*
X141688327Y-45000005D01*
X141688327Y-44999994D01*
X144311673Y-44999994D01*
X144311673Y-45000005D01*
X144330948Y-45232622D01*
X144388251Y-45458907D01*
X144482015Y-45672668D01*
X144609686Y-45868084D01*
X144767776Y-46039814D01*
X144767780Y-46039818D01*
X144951983Y-46183190D01*
X144951985Y-46183191D01*
X144951988Y-46183193D01*
X145045338Y-46233711D01*
X145157273Y-46294287D01*
X145271914Y-46333643D01*
X145378045Y-46370079D01*
X145378047Y-46370079D01*
X145378049Y-46370080D01*
X145608288Y-46408500D01*
X145608289Y-46408500D01*
X145841711Y-46408500D01*
X145841712Y-46408500D01*
X146071951Y-46370080D01*
X146292727Y-46294287D01*
X146498017Y-46183190D01*
X146682220Y-46039818D01*
X146840314Y-45868083D01*
X146967984Y-45672669D01*
X147061749Y-45458907D01*
X147119051Y-45232626D01*
X147130507Y-45094371D01*
X147138327Y-45000005D01*
X147138327Y-44999994D01*
X147119051Y-44767377D01*
X147119051Y-44767374D01*
X147061749Y-44541093D01*
X146967984Y-44327331D01*
X146840314Y-44131917D01*
X146840313Y-44131915D01*
X146682223Y-43960185D01*
X146682222Y-43960184D01*
X146682220Y-43960182D01*
X146498017Y-43816810D01*
X146498015Y-43816809D01*
X146498014Y-43816808D01*
X146498011Y-43816806D01*
X146292733Y-43705716D01*
X146292730Y-43705715D01*
X146292727Y-43705713D01*
X146292721Y-43705711D01*
X146292719Y-43705710D01*
X146071954Y-43629920D01*
X145899271Y-43601105D01*
X145841712Y-43591500D01*
X145608288Y-43591500D01*
X145562240Y-43599184D01*
X145378045Y-43629920D01*
X145157280Y-43705710D01*
X145157266Y-43705716D01*
X144951988Y-43816806D01*
X144951985Y-43816808D01*
X144767781Y-43960181D01*
X144767776Y-43960185D01*
X144609686Y-44131915D01*
X144482015Y-44327331D01*
X144388251Y-44541092D01*
X144330948Y-44767377D01*
X144311673Y-44999994D01*
X141688327Y-44999994D01*
X141669051Y-44767377D01*
X141669051Y-44767374D01*
X141611749Y-44541093D01*
X141517984Y-44327331D01*
X141390314Y-44131917D01*
X141390313Y-44131915D01*
X141232223Y-43960185D01*
X141232222Y-43960184D01*
X141232220Y-43960182D01*
X141048017Y-43816810D01*
X141048015Y-43816809D01*
X141048014Y-43816808D01*
X141048011Y-43816806D01*
X140842733Y-43705716D01*
X140842730Y-43705715D01*
X140842727Y-43705713D01*
X140842721Y-43705711D01*
X140842719Y-43705710D01*
X140621954Y-43629920D01*
X140449271Y-43601105D01*
X140391712Y-43591500D01*
X140158288Y-43591500D01*
X140112240Y-43599184D01*
X139928045Y-43629920D01*
X139707280Y-43705710D01*
X139707266Y-43705716D01*
X139501988Y-43816806D01*
X139501985Y-43816808D01*
X139317781Y-43960181D01*
X139317776Y-43960185D01*
X139159686Y-44131915D01*
X139032015Y-44327331D01*
X138938251Y-44541092D01*
X138880948Y-44767377D01*
X138861673Y-44999994D01*
X135462385Y-44999994D01*
X135473156Y-44870005D01*
X135473156Y-44869994D01*
X135454565Y-44645640D01*
X135454563Y-44645628D01*
X135399296Y-44427385D01*
X135308859Y-44221207D01*
X135185723Y-44032734D01*
X135185715Y-44032723D01*
X135033243Y-43867097D01*
X135033238Y-43867092D01*
X134855577Y-43728812D01*
X134855572Y-43728808D01*
X134657580Y-43621661D01*
X134657577Y-43621659D01*
X134657574Y-43621658D01*
X134657571Y-43621657D01*
X134657569Y-43621656D01*
X134444637Y-43548556D01*
X134222569Y-43511500D01*
X133997431Y-43511500D01*
X133775362Y-43548556D01*
X133562430Y-43621656D01*
X133562419Y-43621661D01*
X133364427Y-43728808D01*
X133364422Y-43728812D01*
X133186761Y-43867092D01*
X133186756Y-43867097D01*
X133034284Y-44032723D01*
X133034276Y-44032734D01*
X132911140Y-44221207D01*
X132820703Y-44427385D01*
X132765436Y-44645628D01*
X132765434Y-44645640D01*
X132746844Y-44869994D01*
X132746844Y-44870005D01*
X132765434Y-45094359D01*
X132765436Y-45094371D01*
X132820703Y-45312614D01*
X132911140Y-45518792D01*
X133034276Y-45707265D01*
X133034284Y-45707276D01*
X133182320Y-45868083D01*
X133186760Y-45872906D01*
X133364424Y-46011189D01*
X133364429Y-46011191D01*
X133364431Y-46011193D01*
X133400930Y-46030946D01*
X133450520Y-46080165D01*
X133465628Y-46148382D01*
X133441457Y-46213937D01*
X133400930Y-46249054D01*
X133364431Y-46268806D01*
X133364422Y-46268812D01*
X133186761Y-46407092D01*
X133186756Y-46407097D01*
X133034284Y-46572723D01*
X133034276Y-46572734D01*
X132911140Y-46761207D01*
X132820703Y-46967385D01*
X132765436Y-47185628D01*
X132765434Y-47185640D01*
X132746844Y-47409994D01*
X132746844Y-47410005D01*
X132765434Y-47634359D01*
X132765436Y-47634371D01*
X132820703Y-47852614D01*
X132911140Y-48058792D01*
X133034276Y-48247265D01*
X133034284Y-48247276D01*
X133179489Y-48405008D01*
X133210412Y-48467662D01*
X133202552Y-48537088D01*
X133158405Y-48591244D01*
X133131596Y-48605172D01*
X133013794Y-48649111D01*
X132896739Y-48736739D01*
X132809110Y-48853796D01*
X132759862Y-48985834D01*
X132717991Y-49041768D01*
X132652526Y-49066184D01*
X132643681Y-49066500D01*
X125222978Y-49066500D01*
X125080611Y-49094819D01*
X125052292Y-49100452D01*
X125052291Y-49100452D01*
X124995307Y-49124056D01*
X124891505Y-49167052D01*
X124891505Y-49167053D01*
X124891504Y-49167053D01*
X124746805Y-49263737D01*
X124746797Y-49263743D01*
X120795361Y-53215181D01*
X120734038Y-53248666D01*
X120707680Y-53251500D01*
X119751345Y-53251500D01*
X119690797Y-53258011D01*
X119690795Y-53258011D01*
X119553795Y-53309111D01*
X119454311Y-53383585D01*
X119388846Y-53408002D01*
X119320573Y-53393150D01*
X119305689Y-53383585D01*
X119230469Y-53327276D01*
X119206204Y-53309111D01*
X119069203Y-53258011D01*
X119008654Y-53251500D01*
X119008638Y-53251500D01*
X117211362Y-53251500D01*
X117211345Y-53251500D01*
X117150797Y-53258011D01*
X117150795Y-53258011D01*
X117013795Y-53309111D01*
X116896739Y-53396739D01*
X116809111Y-53513795D01*
X116758011Y-53650795D01*
X116758011Y-53650797D01*
X116751500Y-53711345D01*
X116751500Y-55508654D01*
X116758011Y-55569202D01*
X116758011Y-55569204D01*
X116798886Y-55678791D01*
X116809111Y-55706204D01*
X116896739Y-55823261D01*
X117013796Y-55910889D01*
X117065737Y-55930262D01*
X117131595Y-55954827D01*
X117187528Y-55996699D01*
X117211944Y-56062163D01*
X117197092Y-56130436D01*
X117179490Y-56154991D01*
X117034279Y-56312730D01*
X117034276Y-56312734D01*
X116911140Y-56501207D01*
X116820703Y-56707385D01*
X116765436Y-56925628D01*
X116765434Y-56925640D01*
X116746844Y-57149994D01*
X114500500Y-57149994D01*
X114500500Y-46233711D01*
X116259500Y-46233711D01*
X116259500Y-46476288D01*
X116291161Y-46716785D01*
X116353947Y-46951104D01*
X116446773Y-47175205D01*
X116446777Y-47175214D01*
X116468974Y-47213661D01*
X116568064Y-47385289D01*
X116568066Y-47385292D01*
X116568067Y-47385293D01*
X116715733Y-47577736D01*
X116715739Y-47577743D01*
X116887256Y-47749260D01*
X116887262Y-47749265D01*
X117079711Y-47896936D01*
X117289788Y-48018224D01*
X117513900Y-48111054D01*
X117748211Y-48173838D01*
X117928586Y-48197584D01*
X117988711Y-48205500D01*
X117988712Y-48205500D01*
X118231289Y-48205500D01*
X118279388Y-48199167D01*
X118471789Y-48173838D01*
X118706100Y-48111054D01*
X118930212Y-48018224D01*
X119140289Y-47896936D01*
X119332738Y-47749265D01*
X119504265Y-47577738D01*
X119651936Y-47385289D01*
X119773224Y-47175212D01*
X119866054Y-46951100D01*
X119928838Y-46716789D01*
X119960500Y-46476288D01*
X119960500Y-46233712D01*
X119928838Y-45993211D01*
X119866054Y-45758900D01*
X119773224Y-45534788D01*
X119651936Y-45324711D01*
X119504265Y-45132262D01*
X119504260Y-45132256D01*
X119332743Y-44960739D01*
X119332736Y-44960733D01*
X119140293Y-44813067D01*
X119140292Y-44813066D01*
X119140289Y-44813064D01*
X118930212Y-44691776D01*
X118818830Y-44645640D01*
X118706104Y-44598947D01*
X118588944Y-44567554D01*
X118471789Y-44536162D01*
X118471788Y-44536161D01*
X118471785Y-44536161D01*
X118231289Y-44504500D01*
X118231288Y-44504500D01*
X117988712Y-44504500D01*
X117988711Y-44504500D01*
X117748214Y-44536161D01*
X117513895Y-44598947D01*
X117289794Y-44691773D01*
X117289785Y-44691777D01*
X117079706Y-44813067D01*
X116887263Y-44960733D01*
X116887256Y-44960739D01*
X116715739Y-45132256D01*
X116715733Y-45132263D01*
X116568067Y-45324706D01*
X116446777Y-45534785D01*
X116446773Y-45534794D01*
X116353947Y-45758895D01*
X116291161Y-45993214D01*
X116259500Y-46233711D01*
X114500500Y-46233711D01*
X114500500Y-42869500D01*
X114520185Y-42802461D01*
X114572989Y-42756706D01*
X114624500Y-42745500D01*
X168585500Y-42745500D01*
X168652539Y-42765185D01*
G37*
G04 #@! TD.AperFunction*
M02*
