M48
; DRILL file {KiCad 8.0.7} date 2025-01-17T18:29:10+1100
; FORMAT={-:-/ absolute / metric / decimal}
; #@! TF.CreationDate,2025-01-17T18:29:10+11:00
; #@! TF.GenerationSoftware,Kicad,Pcbnew,8.0.7
; #@! TF.FileFunction,Plated,1,2,PTH
FMAT,2
METRIC
; #@! TA.AperFunction,Plated,PTH,ViaDrill
T1C0.400
; #@! TA.AperFunction,Plated,PTH,ComponentDrill
T2C0.750
; #@! TA.AperFunction,Plated,PTH,ComponentDrill
T3C1.000
; #@! TA.AperFunction,Plated,PTH,ComponentDrill
T4C1.020
; #@! TA.AperFunction,Plated,PTH,ComponentDrill
T5C1.100
; #@! TA.AperFunction,Plated,PTH,ComponentDrill
T6C1.320
%
G90
G05
T1
X165.735Y-79.375
X165.735Y-80.645
T2
X158.96Y-87.5
X160.23Y-87.5
X161.5Y-87.5
X164.73Y-87.5
X166.0Y-87.5
X167.27Y-87.5
T3
X118.11Y-54.61
X118.11Y-57.15
X118.11Y-59.69
X118.11Y-62.23
X118.11Y-64.77
X118.11Y-67.31
X118.11Y-69.85
X118.11Y-72.39
X118.11Y-74.93
X118.11Y-77.47
X118.11Y-80.01
X118.11Y-82.55
X118.11Y-85.09
X118.11Y-87.63
X118.11Y-90.17
X118.11Y-92.71
X120.65Y-54.61
X120.65Y-57.15
X120.65Y-59.69
X120.65Y-62.23
X120.65Y-64.77
X120.65Y-67.31
X120.65Y-69.85
X120.65Y-72.39
X120.65Y-74.93
X120.65Y-77.47
X120.65Y-80.01
X120.65Y-82.55
X120.65Y-85.09
X120.65Y-87.63
X120.65Y-90.17
X120.65Y-92.71
X123.19Y-54.61
X123.19Y-57.15
X123.19Y-59.69
X123.19Y-62.23
X123.19Y-64.77
X123.19Y-67.31
X123.19Y-69.85
X123.19Y-72.39
X123.19Y-74.93
X123.19Y-77.47
X123.19Y-80.01
X123.19Y-82.55
X123.19Y-85.09
X123.19Y-87.63
X123.19Y-90.17
X123.19Y-92.71
X125.73Y-54.61
X125.73Y-57.15
X125.73Y-59.69
X125.73Y-62.23
X125.73Y-64.77
X125.73Y-67.31
X125.73Y-69.85
X125.73Y-72.39
X125.73Y-74.93
X125.73Y-77.47
X125.73Y-80.01
X125.73Y-82.55
X125.73Y-85.09
X125.73Y-87.63
X125.73Y-90.17
X125.73Y-92.71
X161.27Y-54.61
X161.27Y-57.15
X161.27Y-59.69
X161.27Y-62.23
X161.27Y-64.77
X161.27Y-67.31
X161.27Y-69.85
X161.27Y-72.39
X163.83Y-54.61
X163.83Y-57.15
X163.83Y-59.69
X163.83Y-62.23
X163.83Y-64.77
X163.83Y-67.31
X163.83Y-69.85
X163.83Y-72.39
X166.37Y-54.61
X166.37Y-57.15
X166.37Y-59.69
X166.37Y-62.23
X166.37Y-64.77
X166.37Y-67.31
X166.37Y-69.85
X166.37Y-72.39
T4
X134.11Y-44.87
X134.11Y-47.41
X134.11Y-49.95
X134.11Y-52.49
X134.11Y-55.03
X134.11Y-57.57
X134.11Y-60.11
X134.11Y-62.65
X134.11Y-65.19
X134.11Y-67.73
X134.11Y-70.27
X134.11Y-72.81
X134.11Y-75.35
X134.11Y-77.89
X134.11Y-80.43
X134.11Y-82.97
X134.11Y-85.51
X134.11Y-88.05
X134.11Y-90.59
X134.11Y-93.13
X140.46Y-92.9
X143.0Y-92.9
X145.54Y-92.9
X151.89Y-44.87
X151.89Y-47.41
X151.89Y-49.95
X151.89Y-52.49
X151.89Y-55.03
X151.89Y-57.57
X151.89Y-60.11
X151.89Y-62.65
X151.89Y-65.19
X151.89Y-67.73
X151.89Y-70.27
X151.89Y-72.81
X151.89Y-75.35
X151.89Y-77.89
X151.89Y-80.43
X151.89Y-82.97
X151.89Y-85.51
X151.89Y-88.05
X151.89Y-90.59
X151.89Y-93.13
T5
X139.0Y-100.96
X139.0Y-103.5
X139.0Y-106.04
T6
X118.0Y-102.5
X123.0Y-102.5
X128.0Y-102.5
M30
