M48
INCH,TZ
T1C0.0276
T2C0.0394
T3C0.0402
T4C0.0433
T5C0.0520
%
G90
G05
T1
X60500Y-46000
X60500Y-48000
X63500Y-46000
X63500Y-48000
T2
X46000Y-21000
X46000Y-22000
X46000Y-23000
X46000Y-24000
X46000Y-25000
X46000Y-26000
X46000Y-27000
X46000Y-28000
X46000Y-29000
X46000Y-30000
X46000Y-31000
X46000Y-32000
X46000Y-33000
X46000Y-34000
X46000Y-35000
X46000Y-36000
X46000Y-38000
X46000Y-39000
X46000Y-40000
X46000Y-41000
X46000Y-42000
X46000Y-43000
X46000Y-44000
X46000Y-45000
X47000Y-21000
X47000Y-22000
X47000Y-23000
X47000Y-24000
X47000Y-25000
X47000Y-26000
X47000Y-27000
X47000Y-28000
X47000Y-29000
X47000Y-30000
X47000Y-31000
X47000Y-32000
X47000Y-33000
X47000Y-34000
X47000Y-35000
X47000Y-36000
X47000Y-38000
X47000Y-39000
X47000Y-40000
X47000Y-41000
X47000Y-42000
X47000Y-43000
X47000Y-44000
X47000Y-45000
X48000Y-21000
X48000Y-22000
X48000Y-23000
X48000Y-24000
X48000Y-25000
X48000Y-26000
X48000Y-27000
X48000Y-28000
X48000Y-29000
X48000Y-30000
X48000Y-31000
X48000Y-32000
X48000Y-33000
X48000Y-34000
X48000Y-35000
X48000Y-36000
X50000Y-21000
X50000Y-22000
X50000Y-23000
X50000Y-24000
X50000Y-25000
X50000Y-26000
X50000Y-27000
X50000Y-28000
X50000Y-29000
X50000Y-30000
X50000Y-31000
X50000Y-32000
X50000Y-33000
X50000Y-34000
X50000Y-35000
X50000Y-36000
X50000Y-37000
X50000Y-38000
X50000Y-39000
X50000Y-40000
X61000Y-21000
X61000Y-22000
X61000Y-23000
X61000Y-24000
X61000Y-25000
X61000Y-26000
X61000Y-27000
X61000Y-28000
X61000Y-29000
X61000Y-30000
X61000Y-31000
X61000Y-32000
X61000Y-33000
X61000Y-34000
X61000Y-35000
X61000Y-36000
X61000Y-37000
X61000Y-38000
X61000Y-39000
X61000Y-40000
X63000Y-21000
X63000Y-22000
X63000Y-23000
X63000Y-24000
X63000Y-25000
X63000Y-26000
X63000Y-27000
X63000Y-28000
X63000Y-29000
X63000Y-30000
X63000Y-31000
X63000Y-32000
X63000Y-33000
X63000Y-34000
X63000Y-35000
X63000Y-36000
X64000Y-21000
X64000Y-22000
X64000Y-23000
X64000Y-24000
X64000Y-25000
X64000Y-26000
X64000Y-27000
X64000Y-28000
X64000Y-29000
X64000Y-30000
X64000Y-31000
X64000Y-32000
X64000Y-33000
X64000Y-34000
X64000Y-35000
X64000Y-36000
X65000Y-21000
X65000Y-22000
X65000Y-23000
X65000Y-24000
X65000Y-25000
X65000Y-26000
X65000Y-27000
X65000Y-28000
X65000Y-29000
X65000Y-30000
X65000Y-31000
X65000Y-32000
X65000Y-33000
X65000Y-34000
X65000Y-35000
X65000Y-36000
X66000Y-21000
X66000Y-22000
X66000Y-23000
X66000Y-24000
X66000Y-25000
X66000Y-26000
X66000Y-27000
X66000Y-28000
X66000Y-29000
X66000Y-30000
X66000Y-31000
X66000Y-32000
X66000Y-33000
X66000Y-34000
X66000Y-35000
X66000Y-36000
T3
X52000Y-21000
X52000Y-22000
X52000Y-23000
X52000Y-24000
X52000Y-25000
X52000Y-26000
X52000Y-27000
X52000Y-28000
X52000Y-29000
X52000Y-30000
X52000Y-31000
X52000Y-32000
X52000Y-33000
X52000Y-34000
X52000Y-35000
X52000Y-36000
X52000Y-37000
X52000Y-38000
X52000Y-39000
X52000Y-40000
X54500Y-39909
X55500Y-39909
X56500Y-39909
X59000Y-21000
X59000Y-22000
X59000Y-23000
X59000Y-24000
X59000Y-25000
X59000Y-26000
X59000Y-27000
X59000Y-28000
X59000Y-29000
X59000Y-30000
X59000Y-31000
X59000Y-32000
X59000Y-33000
X59000Y-34000
X59000Y-35000
X59000Y-36000
X59000Y-37000
X59000Y-38000
X59000Y-39000
X59000Y-40000
T4
X49000Y-44000
X53000Y-44000
X55000Y-43000
X56000Y-43000
X57000Y-43000
X59000Y-44000
X63000Y-44000
T5
X46915Y-49004
X48884Y-49004
X50852Y-49004
T0
M30
