M48
; DRILL file {KiCad 6.0.2+dfsg-1} date Wed 21 Aug 2024 11:00:30
; FORMAT={-:-/ absolute / metric / decimal}
; #@! TF.CreationDate,2024-08-21T11:00:30+10:00
; #@! TF.GenerationSoftware,Kicad,Pcbnew,6.0.2+dfsg-1
; #@! TF.FileFunction,Plated,1,2,PTH
FMAT,2
METRIC
; #@! TA.AperFunction,Plated,PTH,ComponentDrill
T1C0.800
; #@! TA.AperFunction,Plated,PTH,ComponentDrill
T2C1.000
; #@! TA.AperFunction,Plated,PTH,ComponentDrill
T3C1.020
; #@! TA.AperFunction,Plated,PTH,ComponentDrill
T4C1.100
; #@! TA.AperFunction,Plated,PTH,ComponentDrill
T5C1.320
%
G90
G05
T1
X154.94Y-116.84
X154.94Y-121.92
X165.1Y-116.84
X165.1Y-121.92
T2
X116.84Y-53.34
X116.84Y-55.88
X116.84Y-58.42
X116.84Y-60.96
X116.84Y-63.5
X116.84Y-66.04
X116.84Y-68.58
X116.84Y-71.12
X116.84Y-73.66
X116.84Y-76.2
X116.84Y-78.74
X116.84Y-81.28
X116.84Y-83.82
X116.84Y-86.36
X116.84Y-88.9
X116.84Y-91.44
X116.84Y-96.52
X116.84Y-99.06
X116.84Y-101.6
X116.84Y-104.14
X116.84Y-106.68
X116.84Y-109.22
X116.84Y-111.76
X116.84Y-114.3
X119.38Y-53.34
X119.38Y-55.88
X119.38Y-58.42
X119.38Y-60.96
X119.38Y-63.5
X119.38Y-66.04
X119.38Y-68.58
X119.38Y-71.12
X119.38Y-73.66
X119.38Y-76.2
X119.38Y-78.74
X119.38Y-81.28
X119.38Y-83.82
X119.38Y-86.36
X119.38Y-88.9
X119.38Y-91.44
X119.38Y-96.52
X119.38Y-99.06
X119.38Y-101.6
X119.38Y-104.14
X119.38Y-106.68
X119.38Y-109.22
X119.38Y-111.76
X119.38Y-114.3
X121.92Y-53.34
X121.92Y-55.88
X121.92Y-58.42
X121.92Y-60.96
X121.92Y-63.5
X121.92Y-66.04
X121.92Y-68.58
X121.92Y-71.12
X121.92Y-73.66
X121.92Y-76.2
X121.92Y-78.74
X121.92Y-81.28
X121.92Y-83.82
X121.92Y-86.36
X121.92Y-88.9
X121.92Y-91.44
X127.0Y-53.34
X127.0Y-55.88
X127.0Y-58.42
X127.0Y-60.96
X127.0Y-63.5
X127.0Y-66.04
X127.0Y-68.58
X127.0Y-71.12
X127.0Y-73.66
X127.0Y-76.2
X127.0Y-78.74
X127.0Y-81.28
X127.0Y-83.82
X127.0Y-86.36
X127.0Y-88.9
X127.0Y-91.44
X127.0Y-93.98
X127.0Y-96.52
X127.0Y-99.06
X127.0Y-101.6
X154.94Y-53.34
X154.94Y-55.88
X154.94Y-58.42
X154.94Y-60.96
X154.94Y-63.5
X154.94Y-66.04
X154.94Y-68.58
X154.94Y-71.12
X154.94Y-73.66
X154.94Y-76.2
X154.94Y-78.74
X154.94Y-81.28
X154.94Y-83.82
X154.94Y-86.36
X154.94Y-88.9
X154.94Y-91.44
X154.94Y-93.98
X154.94Y-96.52
X154.94Y-99.06
X154.94Y-101.6
X160.02Y-53.34
X160.02Y-55.88
X160.02Y-58.42
X160.02Y-60.96
X160.02Y-63.5
X160.02Y-66.04
X160.02Y-68.58
X160.02Y-71.12
X160.02Y-73.66
X160.02Y-76.2
X160.02Y-78.74
X160.02Y-81.28
X160.02Y-83.82
X160.02Y-86.36
X160.02Y-88.9
X160.02Y-91.44
X162.56Y-53.34
X162.56Y-55.88
X162.56Y-58.42
X162.56Y-60.96
X162.56Y-63.5
X162.56Y-66.04
X162.56Y-68.58
X162.56Y-71.12
X162.56Y-73.66
X162.56Y-76.2
X162.56Y-78.74
X162.56Y-81.28
X162.56Y-83.82
X162.56Y-86.36
X162.56Y-88.9
X162.56Y-91.44
X165.1Y-53.34
X165.1Y-55.88
X165.1Y-58.42
X165.1Y-60.96
X165.1Y-63.5
X165.1Y-66.04
X165.1Y-68.58
X165.1Y-71.12
X165.1Y-73.66
X165.1Y-76.2
X165.1Y-78.74
X165.1Y-81.28
X165.1Y-83.82
X165.1Y-86.36
X165.1Y-88.9
X165.1Y-91.44
X167.64Y-53.34
X167.64Y-55.88
X167.64Y-58.42
X167.64Y-60.96
X167.64Y-63.5
X167.64Y-66.04
X167.64Y-68.58
X167.64Y-71.12
X167.64Y-73.66
X167.64Y-76.2
X167.64Y-78.74
X167.64Y-81.28
X167.64Y-83.82
X167.64Y-86.36
X167.64Y-88.9
X167.64Y-91.44
T3
X132.08Y-53.34
X132.08Y-55.88
X132.08Y-58.42
X132.08Y-60.96
X132.08Y-63.5
X132.08Y-66.04
X132.08Y-68.58
X132.08Y-71.12
X132.08Y-73.66
X132.08Y-76.2
X132.08Y-78.74
X132.08Y-81.28
X132.08Y-83.82
X132.08Y-86.36
X132.08Y-88.9
X132.08Y-91.44
X132.08Y-93.98
X132.08Y-96.52
X132.08Y-99.06
X132.08Y-101.6
X138.43Y-101.37
X140.97Y-101.37
X143.51Y-101.37
X149.86Y-53.34
X149.86Y-55.88
X149.86Y-58.42
X149.86Y-60.96
X149.86Y-63.5
X149.86Y-66.04
X149.86Y-68.58
X149.86Y-71.12
X149.86Y-73.66
X149.86Y-76.2
X149.86Y-78.74
X149.86Y-81.28
X149.86Y-83.82
X149.86Y-86.36
X149.86Y-88.9
X149.86Y-91.44
X149.86Y-93.98
X149.86Y-96.52
X149.86Y-99.06
X149.86Y-101.6
T4
X124.46Y-111.76
X134.62Y-111.76
X139.7Y-109.22
X142.24Y-109.22
X144.78Y-109.22
X149.86Y-111.76
X160.02Y-111.76
T5
X119.165Y-124.47
X124.165Y-124.47
X129.165Y-124.47
T0
M30
