G04 #@! TF.GenerationSoftware,KiCad,Pcbnew,6.0.2+dfsg-1*
G04 #@! TF.CreationDate,2024-08-17T12:20:11+10:00*
G04 #@! TF.ProjectId,MQTTDecoderExpansionBoard,4d515454-4465-4636-9f64-657245787061,A*
G04 #@! TF.SameCoordinates,Original*
G04 #@! TF.FileFunction,Copper,L2,Bot*
G04 #@! TF.FilePolarity,Positive*
%FSLAX46Y46*%
G04 Gerber Fmt 4.6, Leading zero omitted, Abs format (unit mm)*
G04 Created by KiCad (PCBNEW 6.0.2+dfsg-1) date 2024-08-17 12:20:11*
%MOMM*%
%LPD*%
G01*
G04 APERTURE LIST*
G04 #@! TA.AperFunction,ComponentPad*
%ADD10R,1.700000X1.700000*%
G04 #@! TD*
G04 #@! TA.AperFunction,ComponentPad*
%ADD11O,1.700000X1.700000*%
G04 #@! TD*
G04 #@! TA.AperFunction,ComponentPad*
%ADD12C,1.400000*%
G04 #@! TD*
G04 #@! TA.AperFunction,ComponentPad*
%ADD13O,1.400000X1.400000*%
G04 #@! TD*
G04 #@! TA.AperFunction,ComponentPad*
%ADD14R,2.200000X2.200000*%
G04 #@! TD*
G04 #@! TA.AperFunction,ComponentPad*
%ADD15O,2.200000X2.200000*%
G04 #@! TD*
G04 #@! TA.AperFunction,ComponentPad*
%ADD16R,1.905000X2.000000*%
G04 #@! TD*
G04 #@! TA.AperFunction,ComponentPad*
%ADD17O,1.905000X2.000000*%
G04 #@! TD*
G04 #@! TA.AperFunction,ComponentPad*
%ADD18R,1.980000X3.960000*%
G04 #@! TD*
G04 #@! TA.AperFunction,ComponentPad*
%ADD19O,1.980000X3.960000*%
G04 #@! TD*
G04 APERTURE END LIST*
D10*
X160020000Y-53340000D03*
D11*
X160020000Y-55880000D03*
X160020000Y-58420000D03*
X160020000Y-60960000D03*
X160020000Y-63500000D03*
X160020000Y-66040000D03*
X160020000Y-68580000D03*
X160020000Y-71120000D03*
X160020000Y-73660000D03*
X160020000Y-76200000D03*
X160020000Y-78740000D03*
X160020000Y-81280000D03*
X160020000Y-83820000D03*
X160020000Y-86360000D03*
X160020000Y-88900000D03*
X160020000Y-91440000D03*
D12*
X153670000Y-116840000D03*
D13*
X161290000Y-116840000D03*
D10*
X127000000Y-53340000D03*
D11*
X127000000Y-55880000D03*
X127000000Y-58420000D03*
X127000000Y-60960000D03*
X127000000Y-63500000D03*
X127000000Y-66040000D03*
X127000000Y-68580000D03*
X127000000Y-71120000D03*
X127000000Y-73660000D03*
X127000000Y-76200000D03*
X127000000Y-78740000D03*
X127000000Y-81280000D03*
X127000000Y-83820000D03*
X127000000Y-86360000D03*
X127000000Y-88900000D03*
X127000000Y-91440000D03*
X127000000Y-93980000D03*
X127000000Y-96520000D03*
X127000000Y-99060000D03*
X127000000Y-101600000D03*
D10*
X167640000Y-53340000D03*
D11*
X167640000Y-55880000D03*
X167640000Y-58420000D03*
X167640000Y-60960000D03*
X167640000Y-63500000D03*
X167640000Y-66040000D03*
X167640000Y-68580000D03*
X167640000Y-71120000D03*
X167640000Y-73660000D03*
X167640000Y-76200000D03*
X167640000Y-78740000D03*
X167640000Y-81280000D03*
X167640000Y-83820000D03*
X167640000Y-86360000D03*
X167640000Y-88900000D03*
X167640000Y-91440000D03*
X132080000Y-53340000D03*
X132080000Y-55880000D03*
D10*
X132080000Y-58420000D03*
D11*
X132080000Y-60960000D03*
X132080000Y-63500000D03*
X132080000Y-66040000D03*
X132080000Y-68580000D03*
D10*
X132080000Y-71120000D03*
D11*
X132080000Y-73660000D03*
X132080000Y-76200000D03*
X132080000Y-78740000D03*
X132080000Y-81280000D03*
D10*
X132080000Y-83820000D03*
D11*
X132080000Y-86360000D03*
X132080000Y-88900000D03*
X132080000Y-91440000D03*
X132080000Y-93980000D03*
D10*
X132080000Y-96520000D03*
D11*
X132080000Y-99060000D03*
X132080000Y-101600000D03*
X149860000Y-101600000D03*
X149860000Y-99060000D03*
D10*
X149860000Y-96520000D03*
D11*
X149860000Y-93980000D03*
X149860000Y-91440000D03*
X149860000Y-88900000D03*
X149860000Y-86360000D03*
D10*
X149860000Y-83820000D03*
D11*
X149860000Y-81280000D03*
X149860000Y-78740000D03*
X149860000Y-76200000D03*
X149860000Y-73660000D03*
D10*
X149860000Y-71120000D03*
D11*
X149860000Y-68580000D03*
X149860000Y-66040000D03*
X149860000Y-63500000D03*
X149860000Y-60960000D03*
D10*
X149860000Y-58420000D03*
D11*
X149860000Y-55880000D03*
X149860000Y-53340000D03*
X138430000Y-101370000D03*
D10*
X140970000Y-101370000D03*
D11*
X143510000Y-101370000D03*
D14*
X124460000Y-111760000D03*
D15*
X134620000Y-111760000D03*
D16*
X144780000Y-109220000D03*
D17*
X142240000Y-109220000D03*
X139700000Y-109220000D03*
D10*
X162560000Y-53340000D03*
D11*
X162560000Y-55880000D03*
X162560000Y-58420000D03*
X162560000Y-60960000D03*
X162560000Y-63500000D03*
X162560000Y-66040000D03*
X162560000Y-68580000D03*
X162560000Y-71120000D03*
X162560000Y-73660000D03*
X162560000Y-76200000D03*
X162560000Y-78740000D03*
X162560000Y-81280000D03*
X162560000Y-83820000D03*
X162560000Y-86360000D03*
X162560000Y-88900000D03*
X162560000Y-91440000D03*
D10*
X165100000Y-53340000D03*
D11*
X165100000Y-55880000D03*
X165100000Y-58420000D03*
X165100000Y-60960000D03*
X165100000Y-63500000D03*
X165100000Y-66040000D03*
X165100000Y-68580000D03*
X165100000Y-71120000D03*
X165100000Y-73660000D03*
X165100000Y-76200000D03*
X165100000Y-78740000D03*
X165100000Y-81280000D03*
X165100000Y-83820000D03*
X165100000Y-86360000D03*
X165100000Y-88900000D03*
X165100000Y-91440000D03*
D10*
X119380000Y-53340000D03*
D11*
X119380000Y-55880000D03*
X119380000Y-58420000D03*
X119380000Y-60960000D03*
X119380000Y-63500000D03*
X119380000Y-66040000D03*
X119380000Y-68580000D03*
X119380000Y-71120000D03*
X119380000Y-73660000D03*
X119380000Y-76200000D03*
X119380000Y-78740000D03*
X119380000Y-81280000D03*
X119380000Y-83820000D03*
X119380000Y-86360000D03*
X119380000Y-88900000D03*
X119380000Y-91440000D03*
D10*
X116840000Y-53340000D03*
D11*
X116840000Y-55880000D03*
X116840000Y-58420000D03*
X116840000Y-60960000D03*
X116840000Y-63500000D03*
X116840000Y-66040000D03*
X116840000Y-68580000D03*
X116840000Y-71120000D03*
X116840000Y-73660000D03*
X116840000Y-76200000D03*
X116840000Y-78740000D03*
X116840000Y-81280000D03*
X116840000Y-83820000D03*
X116840000Y-86360000D03*
X116840000Y-88900000D03*
X116840000Y-91440000D03*
D12*
X161290000Y-121920000D03*
D13*
X153670000Y-121920000D03*
D18*
X119165000Y-124470000D03*
D19*
X124165000Y-124470000D03*
X129165000Y-124470000D03*
D10*
X154940000Y-53340000D03*
D11*
X154940000Y-55880000D03*
X154940000Y-58420000D03*
X154940000Y-60960000D03*
X154940000Y-63500000D03*
X154940000Y-66040000D03*
X154940000Y-68580000D03*
X154940000Y-71120000D03*
X154940000Y-73660000D03*
X154940000Y-76200000D03*
X154940000Y-78740000D03*
X154940000Y-81280000D03*
X154940000Y-83820000D03*
X154940000Y-86360000D03*
X154940000Y-88900000D03*
X154940000Y-91440000D03*
X154940000Y-93980000D03*
X154940000Y-96520000D03*
X154940000Y-99060000D03*
X154940000Y-101600000D03*
D14*
X160020000Y-111760000D03*
D15*
X149860000Y-111760000D03*
D10*
X119380000Y-96520000D03*
D11*
X119380000Y-99060000D03*
X119380000Y-101600000D03*
X119380000Y-104140000D03*
X119380000Y-106680000D03*
X119380000Y-109220000D03*
X119380000Y-111760000D03*
X119380000Y-114300000D03*
D10*
X116840000Y-96520000D03*
D11*
X116840000Y-99060000D03*
X116840000Y-101600000D03*
X116840000Y-104140000D03*
X116840000Y-106680000D03*
X116840000Y-109220000D03*
X116840000Y-111760000D03*
X116840000Y-114300000D03*
D10*
X121920000Y-53340000D03*
D11*
X121920000Y-55880000D03*
X121920000Y-58420000D03*
X121920000Y-60960000D03*
X121920000Y-63500000D03*
X121920000Y-66040000D03*
X121920000Y-68580000D03*
X121920000Y-71120000D03*
X121920000Y-73660000D03*
X121920000Y-76200000D03*
X121920000Y-78740000D03*
X121920000Y-81280000D03*
X121920000Y-83820000D03*
X121920000Y-86360000D03*
X121920000Y-88900000D03*
X121920000Y-91440000D03*
M02*
