G04 #@! TF.GenerationSoftware,KiCad,Pcbnew,8.0.7*
G04 #@! TF.CreationDate,2025-01-17T18:29:13+11:00*
G04 #@! TF.ProjectId,MQTTDecoderExpansionBoard,4d515454-4465-4636-9f64-657245787061,A*
G04 #@! TF.SameCoordinates,Original*
G04 #@! TF.FileFunction,Legend,Top*
G04 #@! TF.FilePolarity,Positive*
%FSLAX46Y46*%
G04 Gerber Fmt 4.6, Leading zero omitted, Abs format (unit mm)*
G04 Created by KiCad (PCBNEW 8.0.7) date 2025-01-17 18:29:13*
%MOMM*%
%LPD*%
G01*
G04 APERTURE LIST*
G04 Aperture macros list*
%AMRoundRect*
0 Rectangle with rounded corners*
0 $1 Rounding radius*
0 $2 $3 $4 $5 $6 $7 $8 $9 X,Y pos of 4 corners*
0 Add a 4 corners polygon primitive as box body*
4,1,4,$2,$3,$4,$5,$6,$7,$8,$9,$2,$3,0*
0 Add four circle primitives for the rounded corners*
1,1,$1+$1,$2,$3*
1,1,$1+$1,$4,$5*
1,1,$1+$1,$6,$7*
1,1,$1+$1,$8,$9*
0 Add four rect primitives between the rounded corners*
20,1,$1+$1,$2,$3,$4,$5,0*
20,1,$1+$1,$4,$5,$6,$7,0*
20,1,$1+$1,$6,$7,$8,$9,0*
20,1,$1+$1,$8,$9,$2,$3,0*%
G04 Aperture macros list end*
%ADD10C,0.200000*%
%ADD11C,0.150000*%
%ADD12C,0.120000*%
%ADD13R,1.700000X1.700000*%
%ADD14O,1.700000X1.700000*%
%ADD15RoundRect,0.200000X-0.200000X-0.275000X0.200000X-0.275000X0.200000X0.275000X-0.200000X0.275000X0*%
%ADD16O,1.800000X1.800000*%
%ADD17O,1.500000X1.500000*%
%ADD18R,3.500000X1.700000*%
%ADD19R,1.700000X3.500000*%
%ADD20RoundRect,0.200000X0.200000X0.275000X-0.200000X0.275000X-0.200000X-0.275000X0.200000X-0.275000X0*%
%ADD21R,1.050000X1.500000*%
%ADD22O,1.050000X1.500000*%
%ADD23RoundRect,0.218750X0.256250X-0.218750X0.256250X0.218750X-0.256250X0.218750X-0.256250X-0.218750X0*%
%ADD24R,2.000000X1.905000*%
%ADD25O,2.000000X1.905000*%
%ADD26C,3.000000*%
%ADD27RoundRect,0.150000X0.625000X-0.150000X0.625000X0.150000X-0.625000X0.150000X-0.625000X-0.150000X0*%
%ADD28RoundRect,0.250000X0.650000X-0.350000X0.650000X0.350000X-0.650000X0.350000X-0.650000X-0.350000X0*%
%ADD29RoundRect,0.200000X0.275000X-0.200000X0.275000X0.200000X-0.275000X0.200000X-0.275000X-0.200000X0*%
%ADD30R,1.980000X3.960000*%
%ADD31O,1.980000X3.960000*%
G04 APERTURE END LIST*
D10*
X127508095Y-109499838D02*
X127412857Y-109452219D01*
X127412857Y-109452219D02*
X127270000Y-109452219D01*
X127270000Y-109452219D02*
X127127143Y-109499838D01*
X127127143Y-109499838D02*
X127031905Y-109595076D01*
X127031905Y-109595076D02*
X126984286Y-109690314D01*
X126984286Y-109690314D02*
X126936667Y-109880790D01*
X126936667Y-109880790D02*
X126936667Y-110023647D01*
X126936667Y-110023647D02*
X126984286Y-110214123D01*
X126984286Y-110214123D02*
X127031905Y-110309361D01*
X127031905Y-110309361D02*
X127127143Y-110404600D01*
X127127143Y-110404600D02*
X127270000Y-110452219D01*
X127270000Y-110452219D02*
X127365238Y-110452219D01*
X127365238Y-110452219D02*
X127508095Y-110404600D01*
X127508095Y-110404600D02*
X127555714Y-110356980D01*
X127555714Y-110356980D02*
X127555714Y-110023647D01*
X127555714Y-110023647D02*
X127365238Y-110023647D01*
X127984286Y-110452219D02*
X127984286Y-109452219D01*
X127984286Y-109452219D02*
X128555714Y-110452219D01*
X128555714Y-110452219D02*
X128555714Y-109452219D01*
X129031905Y-110452219D02*
X129031905Y-109452219D01*
X129031905Y-109452219D02*
X129270000Y-109452219D01*
X129270000Y-109452219D02*
X129412857Y-109499838D01*
X129412857Y-109499838D02*
X129508095Y-109595076D01*
X129508095Y-109595076D02*
X129555714Y-109690314D01*
X129555714Y-109690314D02*
X129603333Y-109880790D01*
X129603333Y-109880790D02*
X129603333Y-110023647D01*
X129603333Y-110023647D02*
X129555714Y-110214123D01*
X129555714Y-110214123D02*
X129508095Y-110309361D01*
X129508095Y-110309361D02*
X129412857Y-110404600D01*
X129412857Y-110404600D02*
X129270000Y-110452219D01*
X129270000Y-110452219D02*
X129031905Y-110452219D01*
X116148571Y-51132219D02*
X116643809Y-51132219D01*
X116643809Y-51132219D02*
X116377143Y-51513171D01*
X116377143Y-51513171D02*
X116491428Y-51513171D01*
X116491428Y-51513171D02*
X116567619Y-51560790D01*
X116567619Y-51560790D02*
X116605714Y-51608409D01*
X116605714Y-51608409D02*
X116643809Y-51703647D01*
X116643809Y-51703647D02*
X116643809Y-51941742D01*
X116643809Y-51941742D02*
X116605714Y-52036980D01*
X116605714Y-52036980D02*
X116567619Y-52084600D01*
X116567619Y-52084600D02*
X116491428Y-52132219D01*
X116491428Y-52132219D02*
X116262857Y-52132219D01*
X116262857Y-52132219D02*
X116186666Y-52084600D01*
X116186666Y-52084600D02*
X116148571Y-52036980D01*
X116986667Y-52036980D02*
X117024762Y-52084600D01*
X117024762Y-52084600D02*
X116986667Y-52132219D01*
X116986667Y-52132219D02*
X116948571Y-52084600D01*
X116948571Y-52084600D02*
X116986667Y-52036980D01*
X116986667Y-52036980D02*
X116986667Y-52132219D01*
X117291428Y-51132219D02*
X117786666Y-51132219D01*
X117786666Y-51132219D02*
X117520000Y-51513171D01*
X117520000Y-51513171D02*
X117634285Y-51513171D01*
X117634285Y-51513171D02*
X117710476Y-51560790D01*
X117710476Y-51560790D02*
X117748571Y-51608409D01*
X117748571Y-51608409D02*
X117786666Y-51703647D01*
X117786666Y-51703647D02*
X117786666Y-51941742D01*
X117786666Y-51941742D02*
X117748571Y-52036980D01*
X117748571Y-52036980D02*
X117710476Y-52084600D01*
X117710476Y-52084600D02*
X117634285Y-52132219D01*
X117634285Y-52132219D02*
X117405714Y-52132219D01*
X117405714Y-52132219D02*
X117329523Y-52084600D01*
X117329523Y-52084600D02*
X117291428Y-52036980D01*
X118015238Y-51132219D02*
X118281905Y-52132219D01*
X118281905Y-52132219D02*
X118548571Y-51132219D01*
X119843809Y-51179838D02*
X119767619Y-51132219D01*
X119767619Y-51132219D02*
X119653333Y-51132219D01*
X119653333Y-51132219D02*
X119539047Y-51179838D01*
X119539047Y-51179838D02*
X119462857Y-51275076D01*
X119462857Y-51275076D02*
X119424762Y-51370314D01*
X119424762Y-51370314D02*
X119386666Y-51560790D01*
X119386666Y-51560790D02*
X119386666Y-51703647D01*
X119386666Y-51703647D02*
X119424762Y-51894123D01*
X119424762Y-51894123D02*
X119462857Y-51989361D01*
X119462857Y-51989361D02*
X119539047Y-52084600D01*
X119539047Y-52084600D02*
X119653333Y-52132219D01*
X119653333Y-52132219D02*
X119729524Y-52132219D01*
X119729524Y-52132219D02*
X119843809Y-52084600D01*
X119843809Y-52084600D02*
X119881905Y-52036980D01*
X119881905Y-52036980D02*
X119881905Y-51703647D01*
X119881905Y-51703647D02*
X119729524Y-51703647D01*
X120224762Y-52132219D02*
X120224762Y-51132219D01*
X120224762Y-51132219D02*
X120681905Y-52132219D01*
X120681905Y-52132219D02*
X120681905Y-51132219D01*
X121062857Y-52132219D02*
X121062857Y-51132219D01*
X121062857Y-51132219D02*
X121253333Y-51132219D01*
X121253333Y-51132219D02*
X121367619Y-51179838D01*
X121367619Y-51179838D02*
X121443809Y-51275076D01*
X121443809Y-51275076D02*
X121481904Y-51370314D01*
X121481904Y-51370314D02*
X121520000Y-51560790D01*
X121520000Y-51560790D02*
X121520000Y-51703647D01*
X121520000Y-51703647D02*
X121481904Y-51894123D01*
X121481904Y-51894123D02*
X121443809Y-51989361D01*
X121443809Y-51989361D02*
X121367619Y-52084600D01*
X121367619Y-52084600D02*
X121253333Y-52132219D01*
X121253333Y-52132219D02*
X121062857Y-52132219D01*
X122358095Y-51132219D02*
X122624762Y-52132219D01*
X122624762Y-52132219D02*
X122891428Y-51132219D01*
X123615238Y-52036980D02*
X123577142Y-52084600D01*
X123577142Y-52084600D02*
X123462857Y-52132219D01*
X123462857Y-52132219D02*
X123386666Y-52132219D01*
X123386666Y-52132219D02*
X123272380Y-52084600D01*
X123272380Y-52084600D02*
X123196190Y-51989361D01*
X123196190Y-51989361D02*
X123158095Y-51894123D01*
X123158095Y-51894123D02*
X123119999Y-51703647D01*
X123119999Y-51703647D02*
X123119999Y-51560790D01*
X123119999Y-51560790D02*
X123158095Y-51370314D01*
X123158095Y-51370314D02*
X123196190Y-51275076D01*
X123196190Y-51275076D02*
X123272380Y-51179838D01*
X123272380Y-51179838D02*
X123386666Y-51132219D01*
X123386666Y-51132219D02*
X123462857Y-51132219D01*
X123462857Y-51132219D02*
X123577142Y-51179838D01*
X123577142Y-51179838D02*
X123615238Y-51227457D01*
X124415238Y-52036980D02*
X124377142Y-52084600D01*
X124377142Y-52084600D02*
X124262857Y-52132219D01*
X124262857Y-52132219D02*
X124186666Y-52132219D01*
X124186666Y-52132219D02*
X124072380Y-52084600D01*
X124072380Y-52084600D02*
X123996190Y-51989361D01*
X123996190Y-51989361D02*
X123958095Y-51894123D01*
X123958095Y-51894123D02*
X123919999Y-51703647D01*
X123919999Y-51703647D02*
X123919999Y-51560790D01*
X123919999Y-51560790D02*
X123958095Y-51370314D01*
X123958095Y-51370314D02*
X123996190Y-51275076D01*
X123996190Y-51275076D02*
X124072380Y-51179838D01*
X124072380Y-51179838D02*
X124186666Y-51132219D01*
X124186666Y-51132219D02*
X124262857Y-51132219D01*
X124262857Y-51132219D02*
X124377142Y-51179838D01*
X124377142Y-51179838D02*
X124415238Y-51227457D01*
X125367619Y-52132219D02*
X125367619Y-51132219D01*
X125367619Y-51132219D02*
X125672381Y-51132219D01*
X125672381Y-51132219D02*
X125748571Y-51179838D01*
X125748571Y-51179838D02*
X125786666Y-51227457D01*
X125786666Y-51227457D02*
X125824762Y-51322695D01*
X125824762Y-51322695D02*
X125824762Y-51465552D01*
X125824762Y-51465552D02*
X125786666Y-51560790D01*
X125786666Y-51560790D02*
X125748571Y-51608409D01*
X125748571Y-51608409D02*
X125672381Y-51656028D01*
X125672381Y-51656028D02*
X125367619Y-51656028D01*
X126091428Y-51132219D02*
X126281904Y-52132219D01*
X126281904Y-52132219D02*
X126434285Y-51417933D01*
X126434285Y-51417933D02*
X126586666Y-52132219D01*
X126586666Y-52132219D02*
X126777143Y-51132219D01*
X127081905Y-52132219D02*
X127081905Y-51132219D01*
X127081905Y-51132219D02*
X127348571Y-51846504D01*
X127348571Y-51846504D02*
X127615238Y-51132219D01*
X127615238Y-51132219D02*
X127615238Y-52132219D01*
X159887142Y-52014600D02*
X160001428Y-52062219D01*
X160001428Y-52062219D02*
X160191904Y-52062219D01*
X160191904Y-52062219D02*
X160268095Y-52014600D01*
X160268095Y-52014600D02*
X160306190Y-51966980D01*
X160306190Y-51966980D02*
X160344285Y-51871742D01*
X160344285Y-51871742D02*
X160344285Y-51776504D01*
X160344285Y-51776504D02*
X160306190Y-51681266D01*
X160306190Y-51681266D02*
X160268095Y-51633647D01*
X160268095Y-51633647D02*
X160191904Y-51586028D01*
X160191904Y-51586028D02*
X160039523Y-51538409D01*
X160039523Y-51538409D02*
X159963333Y-51490790D01*
X159963333Y-51490790D02*
X159925238Y-51443171D01*
X159925238Y-51443171D02*
X159887142Y-51347933D01*
X159887142Y-51347933D02*
X159887142Y-51252695D01*
X159887142Y-51252695D02*
X159925238Y-51157457D01*
X159925238Y-51157457D02*
X159963333Y-51109838D01*
X159963333Y-51109838D02*
X160039523Y-51062219D01*
X160039523Y-51062219D02*
X160230000Y-51062219D01*
X160230000Y-51062219D02*
X160344285Y-51109838D01*
X160687143Y-52062219D02*
X160687143Y-51062219D01*
X161487142Y-51109838D02*
X161410952Y-51062219D01*
X161410952Y-51062219D02*
X161296666Y-51062219D01*
X161296666Y-51062219D02*
X161182380Y-51109838D01*
X161182380Y-51109838D02*
X161106190Y-51205076D01*
X161106190Y-51205076D02*
X161068095Y-51300314D01*
X161068095Y-51300314D02*
X161029999Y-51490790D01*
X161029999Y-51490790D02*
X161029999Y-51633647D01*
X161029999Y-51633647D02*
X161068095Y-51824123D01*
X161068095Y-51824123D02*
X161106190Y-51919361D01*
X161106190Y-51919361D02*
X161182380Y-52014600D01*
X161182380Y-52014600D02*
X161296666Y-52062219D01*
X161296666Y-52062219D02*
X161372857Y-52062219D01*
X161372857Y-52062219D02*
X161487142Y-52014600D01*
X161487142Y-52014600D02*
X161525238Y-51966980D01*
X161525238Y-51966980D02*
X161525238Y-51633647D01*
X161525238Y-51633647D02*
X161372857Y-51633647D01*
X162401428Y-51062219D02*
X162896666Y-51062219D01*
X162896666Y-51062219D02*
X162630000Y-51443171D01*
X162630000Y-51443171D02*
X162744285Y-51443171D01*
X162744285Y-51443171D02*
X162820476Y-51490790D01*
X162820476Y-51490790D02*
X162858571Y-51538409D01*
X162858571Y-51538409D02*
X162896666Y-51633647D01*
X162896666Y-51633647D02*
X162896666Y-51871742D01*
X162896666Y-51871742D02*
X162858571Y-51966980D01*
X162858571Y-51966980D02*
X162820476Y-52014600D01*
X162820476Y-52014600D02*
X162744285Y-52062219D01*
X162744285Y-52062219D02*
X162515714Y-52062219D01*
X162515714Y-52062219D02*
X162439523Y-52014600D01*
X162439523Y-52014600D02*
X162401428Y-51966980D01*
X163239524Y-51966980D02*
X163277619Y-52014600D01*
X163277619Y-52014600D02*
X163239524Y-52062219D01*
X163239524Y-52062219D02*
X163201428Y-52014600D01*
X163201428Y-52014600D02*
X163239524Y-51966980D01*
X163239524Y-51966980D02*
X163239524Y-52062219D01*
X163544285Y-51062219D02*
X164039523Y-51062219D01*
X164039523Y-51062219D02*
X163772857Y-51443171D01*
X163772857Y-51443171D02*
X163887142Y-51443171D01*
X163887142Y-51443171D02*
X163963333Y-51490790D01*
X163963333Y-51490790D02*
X164001428Y-51538409D01*
X164001428Y-51538409D02*
X164039523Y-51633647D01*
X164039523Y-51633647D02*
X164039523Y-51871742D01*
X164039523Y-51871742D02*
X164001428Y-51966980D01*
X164001428Y-51966980D02*
X163963333Y-52014600D01*
X163963333Y-52014600D02*
X163887142Y-52062219D01*
X163887142Y-52062219D02*
X163658571Y-52062219D01*
X163658571Y-52062219D02*
X163582380Y-52014600D01*
X163582380Y-52014600D02*
X163544285Y-51966980D01*
X164268095Y-51062219D02*
X164534762Y-52062219D01*
X164534762Y-52062219D02*
X164801428Y-51062219D01*
X166096666Y-51109838D02*
X166020476Y-51062219D01*
X166020476Y-51062219D02*
X165906190Y-51062219D01*
X165906190Y-51062219D02*
X165791904Y-51109838D01*
X165791904Y-51109838D02*
X165715714Y-51205076D01*
X165715714Y-51205076D02*
X165677619Y-51300314D01*
X165677619Y-51300314D02*
X165639523Y-51490790D01*
X165639523Y-51490790D02*
X165639523Y-51633647D01*
X165639523Y-51633647D02*
X165677619Y-51824123D01*
X165677619Y-51824123D02*
X165715714Y-51919361D01*
X165715714Y-51919361D02*
X165791904Y-52014600D01*
X165791904Y-52014600D02*
X165906190Y-52062219D01*
X165906190Y-52062219D02*
X165982381Y-52062219D01*
X165982381Y-52062219D02*
X166096666Y-52014600D01*
X166096666Y-52014600D02*
X166134762Y-51966980D01*
X166134762Y-51966980D02*
X166134762Y-51633647D01*
X166134762Y-51633647D02*
X165982381Y-51633647D01*
X166477619Y-52062219D02*
X166477619Y-51062219D01*
X166477619Y-51062219D02*
X166934762Y-52062219D01*
X166934762Y-52062219D02*
X166934762Y-51062219D01*
X167315714Y-52062219D02*
X167315714Y-51062219D01*
X167315714Y-51062219D02*
X167506190Y-51062219D01*
X167506190Y-51062219D02*
X167620476Y-51109838D01*
X167620476Y-51109838D02*
X167696666Y-51205076D01*
X167696666Y-51205076D02*
X167734761Y-51300314D01*
X167734761Y-51300314D02*
X167772857Y-51490790D01*
X167772857Y-51490790D02*
X167772857Y-51633647D01*
X167772857Y-51633647D02*
X167734761Y-51824123D01*
X167734761Y-51824123D02*
X167696666Y-51919361D01*
X167696666Y-51919361D02*
X167620476Y-52014600D01*
X167620476Y-52014600D02*
X167506190Y-52062219D01*
X167506190Y-52062219D02*
X167315714Y-52062219D01*
X157706816Y-92752331D02*
X158278244Y-92752331D01*
X157992530Y-93752331D02*
X157992530Y-92752331D01*
X158611578Y-93752331D02*
X158611578Y-93085664D01*
X158611578Y-93276140D02*
X158659197Y-93180902D01*
X158659197Y-93180902D02*
X158706816Y-93133283D01*
X158706816Y-93133283D02*
X158802054Y-93085664D01*
X158802054Y-93085664D02*
X158897292Y-93085664D01*
X159659197Y-93752331D02*
X159659197Y-93228521D01*
X159659197Y-93228521D02*
X159611578Y-93133283D01*
X159611578Y-93133283D02*
X159516340Y-93085664D01*
X159516340Y-93085664D02*
X159325864Y-93085664D01*
X159325864Y-93085664D02*
X159230626Y-93133283D01*
X159659197Y-93704712D02*
X159563959Y-93752331D01*
X159563959Y-93752331D02*
X159325864Y-93752331D01*
X159325864Y-93752331D02*
X159230626Y-93704712D01*
X159230626Y-93704712D02*
X159183007Y-93609473D01*
X159183007Y-93609473D02*
X159183007Y-93514235D01*
X159183007Y-93514235D02*
X159230626Y-93418997D01*
X159230626Y-93418997D02*
X159325864Y-93371378D01*
X159325864Y-93371378D02*
X159563959Y-93371378D01*
X159563959Y-93371378D02*
X159659197Y-93323759D01*
X160135388Y-93752331D02*
X160135388Y-93085664D01*
X160135388Y-92752331D02*
X160087769Y-92799950D01*
X160087769Y-92799950D02*
X160135388Y-92847569D01*
X160135388Y-92847569D02*
X160183007Y-92799950D01*
X160183007Y-92799950D02*
X160135388Y-92752331D01*
X160135388Y-92752331D02*
X160135388Y-92847569D01*
X160611578Y-93085664D02*
X160611578Y-93752331D01*
X160611578Y-93180902D02*
X160659197Y-93133283D01*
X160659197Y-93133283D02*
X160754435Y-93085664D01*
X160754435Y-93085664D02*
X160897292Y-93085664D01*
X160897292Y-93085664D02*
X160992530Y-93133283D01*
X160992530Y-93133283D02*
X161040149Y-93228521D01*
X161040149Y-93228521D02*
X161040149Y-93752331D01*
X161516340Y-93752331D02*
X161516340Y-92752331D01*
X161516340Y-92752331D02*
X162087768Y-93752331D01*
X162087768Y-93752331D02*
X162087768Y-92752331D01*
X162706816Y-93752331D02*
X162611578Y-93704712D01*
X162611578Y-93704712D02*
X162563959Y-93657092D01*
X162563959Y-93657092D02*
X162516340Y-93561854D01*
X162516340Y-93561854D02*
X162516340Y-93276140D01*
X162516340Y-93276140D02*
X162563959Y-93180902D01*
X162563959Y-93180902D02*
X162611578Y-93133283D01*
X162611578Y-93133283D02*
X162706816Y-93085664D01*
X162706816Y-93085664D02*
X162849673Y-93085664D01*
X162849673Y-93085664D02*
X162944911Y-93133283D01*
X162944911Y-93133283D02*
X162992530Y-93180902D01*
X162992530Y-93180902D02*
X163040149Y-93276140D01*
X163040149Y-93276140D02*
X163040149Y-93561854D01*
X163040149Y-93561854D02*
X162992530Y-93657092D01*
X162992530Y-93657092D02*
X162944911Y-93704712D01*
X162944911Y-93704712D02*
X162849673Y-93752331D01*
X162849673Y-93752331D02*
X162706816Y-93752331D01*
X163897292Y-93752331D02*
X163897292Y-92752331D01*
X163897292Y-93704712D02*
X163802054Y-93752331D01*
X163802054Y-93752331D02*
X163611578Y-93752331D01*
X163611578Y-93752331D02*
X163516340Y-93704712D01*
X163516340Y-93704712D02*
X163468721Y-93657092D01*
X163468721Y-93657092D02*
X163421102Y-93561854D01*
X163421102Y-93561854D02*
X163421102Y-93276140D01*
X163421102Y-93276140D02*
X163468721Y-93180902D01*
X163468721Y-93180902D02*
X163516340Y-93133283D01*
X163516340Y-93133283D02*
X163611578Y-93085664D01*
X163611578Y-93085664D02*
X163802054Y-93085664D01*
X163802054Y-93085664D02*
X163897292Y-93133283D01*
X164754435Y-93704712D02*
X164659197Y-93752331D01*
X164659197Y-93752331D02*
X164468721Y-93752331D01*
X164468721Y-93752331D02*
X164373483Y-93704712D01*
X164373483Y-93704712D02*
X164325864Y-93609473D01*
X164325864Y-93609473D02*
X164325864Y-93228521D01*
X164325864Y-93228521D02*
X164373483Y-93133283D01*
X164373483Y-93133283D02*
X164468721Y-93085664D01*
X164468721Y-93085664D02*
X164659197Y-93085664D01*
X164659197Y-93085664D02*
X164754435Y-93133283D01*
X164754435Y-93133283D02*
X164802054Y-93228521D01*
X164802054Y-93228521D02*
X164802054Y-93323759D01*
X164802054Y-93323759D02*
X164325864Y-93418997D01*
X165897293Y-93085664D02*
X166135388Y-93752331D01*
X166135388Y-93752331D02*
X166373483Y-93085664D01*
X167278245Y-93752331D02*
X166706817Y-93752331D01*
X166992531Y-93752331D02*
X166992531Y-92752331D01*
X166992531Y-92752331D02*
X166897293Y-92895188D01*
X166897293Y-92895188D02*
X166802055Y-92990426D01*
X166802055Y-92990426D02*
X166706817Y-93038045D01*
X167706817Y-93657092D02*
X167754436Y-93704712D01*
X167754436Y-93704712D02*
X167706817Y-93752331D01*
X167706817Y-93752331D02*
X167659198Y-93704712D01*
X167659198Y-93704712D02*
X167706817Y-93657092D01*
X167706817Y-93657092D02*
X167706817Y-93752331D01*
X168373483Y-92752331D02*
X168468721Y-92752331D01*
X168468721Y-92752331D02*
X168563959Y-92799950D01*
X168563959Y-92799950D02*
X168611578Y-92847569D01*
X168611578Y-92847569D02*
X168659197Y-92942807D01*
X168659197Y-92942807D02*
X168706816Y-93133283D01*
X168706816Y-93133283D02*
X168706816Y-93371378D01*
X168706816Y-93371378D02*
X168659197Y-93561854D01*
X168659197Y-93561854D02*
X168611578Y-93657092D01*
X168611578Y-93657092D02*
X168563959Y-93704712D01*
X168563959Y-93704712D02*
X168468721Y-93752331D01*
X168468721Y-93752331D02*
X168373483Y-93752331D01*
X168373483Y-93752331D02*
X168278245Y-93704712D01*
X168278245Y-93704712D02*
X168230626Y-93657092D01*
X168230626Y-93657092D02*
X168183007Y-93561854D01*
X168183007Y-93561854D02*
X168135388Y-93371378D01*
X168135388Y-93371378D02*
X168135388Y-93133283D01*
X168135388Y-93133283D02*
X168183007Y-92942807D01*
X168183007Y-92942807D02*
X168230626Y-92847569D01*
X168230626Y-92847569D02*
X168278245Y-92799950D01*
X168278245Y-92799950D02*
X168373483Y-92752331D01*
X158135387Y-94362275D02*
X158135387Y-95076560D01*
X158135387Y-95076560D02*
X158087768Y-95219417D01*
X158087768Y-95219417D02*
X157992530Y-95314656D01*
X157992530Y-95314656D02*
X157849673Y-95362275D01*
X157849673Y-95362275D02*
X157754435Y-95362275D01*
X158611578Y-95362275D02*
X158611578Y-94362275D01*
X158611578Y-94362275D02*
X158944911Y-95076560D01*
X158944911Y-95076560D02*
X159278244Y-94362275D01*
X159278244Y-94362275D02*
X159278244Y-95362275D01*
X160325863Y-95362275D02*
X159992530Y-94886084D01*
X159754435Y-95362275D02*
X159754435Y-94362275D01*
X159754435Y-94362275D02*
X160135387Y-94362275D01*
X160135387Y-94362275D02*
X160230625Y-94409894D01*
X160230625Y-94409894D02*
X160278244Y-94457513D01*
X160278244Y-94457513D02*
X160325863Y-94552751D01*
X160325863Y-94552751D02*
X160325863Y-94695608D01*
X160325863Y-94695608D02*
X160278244Y-94790846D01*
X160278244Y-94790846D02*
X160230625Y-94838465D01*
X160230625Y-94838465D02*
X160135387Y-94886084D01*
X160135387Y-94886084D02*
X159754435Y-94886084D01*
X160754435Y-95362275D02*
X160754435Y-94362275D01*
X161992530Y-95362275D02*
X161992530Y-94362275D01*
X161992530Y-94362275D02*
X162325863Y-95076560D01*
X162325863Y-95076560D02*
X162659196Y-94362275D01*
X162659196Y-94362275D02*
X162659196Y-95362275D01*
X163802053Y-95457513D02*
X163706815Y-95409894D01*
X163706815Y-95409894D02*
X163611577Y-95314656D01*
X163611577Y-95314656D02*
X163468720Y-95171798D01*
X163468720Y-95171798D02*
X163373482Y-95124179D01*
X163373482Y-95124179D02*
X163278244Y-95124179D01*
X163325863Y-95362275D02*
X163230625Y-95314656D01*
X163230625Y-95314656D02*
X163135387Y-95219417D01*
X163135387Y-95219417D02*
X163087768Y-95028941D01*
X163087768Y-95028941D02*
X163087768Y-94695608D01*
X163087768Y-94695608D02*
X163135387Y-94505132D01*
X163135387Y-94505132D02*
X163230625Y-94409894D01*
X163230625Y-94409894D02*
X163325863Y-94362275D01*
X163325863Y-94362275D02*
X163516339Y-94362275D01*
X163516339Y-94362275D02*
X163611577Y-94409894D01*
X163611577Y-94409894D02*
X163706815Y-94505132D01*
X163706815Y-94505132D02*
X163754434Y-94695608D01*
X163754434Y-94695608D02*
X163754434Y-95028941D01*
X163754434Y-95028941D02*
X163706815Y-95219417D01*
X163706815Y-95219417D02*
X163611577Y-95314656D01*
X163611577Y-95314656D02*
X163516339Y-95362275D01*
X163516339Y-95362275D02*
X163325863Y-95362275D01*
X164040149Y-94362275D02*
X164611577Y-94362275D01*
X164325863Y-95362275D02*
X164325863Y-94362275D01*
X164802054Y-94362275D02*
X165373482Y-94362275D01*
X165087768Y-95362275D02*
X165087768Y-94362275D01*
X157849673Y-96972219D02*
X157849673Y-95972219D01*
X159040148Y-95924600D02*
X158183006Y-97210314D01*
X159563958Y-95972219D02*
X159754434Y-95972219D01*
X159754434Y-95972219D02*
X159849672Y-96019838D01*
X159849672Y-96019838D02*
X159944910Y-96115076D01*
X159944910Y-96115076D02*
X159992529Y-96305552D01*
X159992529Y-96305552D02*
X159992529Y-96638885D01*
X159992529Y-96638885D02*
X159944910Y-96829361D01*
X159944910Y-96829361D02*
X159849672Y-96924600D01*
X159849672Y-96924600D02*
X159754434Y-96972219D01*
X159754434Y-96972219D02*
X159563958Y-96972219D01*
X159563958Y-96972219D02*
X159468720Y-96924600D01*
X159468720Y-96924600D02*
X159373482Y-96829361D01*
X159373482Y-96829361D02*
X159325863Y-96638885D01*
X159325863Y-96638885D02*
X159325863Y-96305552D01*
X159325863Y-96305552D02*
X159373482Y-96115076D01*
X159373482Y-96115076D02*
X159468720Y-96019838D01*
X159468720Y-96019838D02*
X159563958Y-95972219D01*
X161754434Y-96876980D02*
X161706815Y-96924600D01*
X161706815Y-96924600D02*
X161563958Y-96972219D01*
X161563958Y-96972219D02*
X161468720Y-96972219D01*
X161468720Y-96972219D02*
X161325863Y-96924600D01*
X161325863Y-96924600D02*
X161230625Y-96829361D01*
X161230625Y-96829361D02*
X161183006Y-96734123D01*
X161183006Y-96734123D02*
X161135387Y-96543647D01*
X161135387Y-96543647D02*
X161135387Y-96400790D01*
X161135387Y-96400790D02*
X161183006Y-96210314D01*
X161183006Y-96210314D02*
X161230625Y-96115076D01*
X161230625Y-96115076D02*
X161325863Y-96019838D01*
X161325863Y-96019838D02*
X161468720Y-95972219D01*
X161468720Y-95972219D02*
X161563958Y-95972219D01*
X161563958Y-95972219D02*
X161706815Y-96019838D01*
X161706815Y-96019838D02*
X161754434Y-96067457D01*
X162325863Y-96972219D02*
X162230625Y-96924600D01*
X162230625Y-96924600D02*
X162183006Y-96876980D01*
X162183006Y-96876980D02*
X162135387Y-96781742D01*
X162135387Y-96781742D02*
X162135387Y-96496028D01*
X162135387Y-96496028D02*
X162183006Y-96400790D01*
X162183006Y-96400790D02*
X162230625Y-96353171D01*
X162230625Y-96353171D02*
X162325863Y-96305552D01*
X162325863Y-96305552D02*
X162468720Y-96305552D01*
X162468720Y-96305552D02*
X162563958Y-96353171D01*
X162563958Y-96353171D02*
X162611577Y-96400790D01*
X162611577Y-96400790D02*
X162659196Y-96496028D01*
X162659196Y-96496028D02*
X162659196Y-96781742D01*
X162659196Y-96781742D02*
X162611577Y-96876980D01*
X162611577Y-96876980D02*
X162563958Y-96924600D01*
X162563958Y-96924600D02*
X162468720Y-96972219D01*
X162468720Y-96972219D02*
X162325863Y-96972219D01*
X163087768Y-96305552D02*
X163087768Y-96972219D01*
X163087768Y-96400790D02*
X163135387Y-96353171D01*
X163135387Y-96353171D02*
X163230625Y-96305552D01*
X163230625Y-96305552D02*
X163373482Y-96305552D01*
X163373482Y-96305552D02*
X163468720Y-96353171D01*
X163468720Y-96353171D02*
X163516339Y-96448409D01*
X163516339Y-96448409D02*
X163516339Y-96972219D01*
X163849673Y-96305552D02*
X164230625Y-96305552D01*
X163992530Y-95972219D02*
X163992530Y-96829361D01*
X163992530Y-96829361D02*
X164040149Y-96924600D01*
X164040149Y-96924600D02*
X164135387Y-96972219D01*
X164135387Y-96972219D02*
X164230625Y-96972219D01*
X164563959Y-96972219D02*
X164563959Y-96305552D01*
X164563959Y-96496028D02*
X164611578Y-96400790D01*
X164611578Y-96400790D02*
X164659197Y-96353171D01*
X164659197Y-96353171D02*
X164754435Y-96305552D01*
X164754435Y-96305552D02*
X164849673Y-96305552D01*
X165325864Y-96972219D02*
X165230626Y-96924600D01*
X165230626Y-96924600D02*
X165183007Y-96876980D01*
X165183007Y-96876980D02*
X165135388Y-96781742D01*
X165135388Y-96781742D02*
X165135388Y-96496028D01*
X165135388Y-96496028D02*
X165183007Y-96400790D01*
X165183007Y-96400790D02*
X165230626Y-96353171D01*
X165230626Y-96353171D02*
X165325864Y-96305552D01*
X165325864Y-96305552D02*
X165468721Y-96305552D01*
X165468721Y-96305552D02*
X165563959Y-96353171D01*
X165563959Y-96353171D02*
X165611578Y-96400790D01*
X165611578Y-96400790D02*
X165659197Y-96496028D01*
X165659197Y-96496028D02*
X165659197Y-96781742D01*
X165659197Y-96781742D02*
X165611578Y-96876980D01*
X165611578Y-96876980D02*
X165563959Y-96924600D01*
X165563959Y-96924600D02*
X165468721Y-96972219D01*
X165468721Y-96972219D02*
X165325864Y-96972219D01*
X166230626Y-96972219D02*
X166135388Y-96924600D01*
X166135388Y-96924600D02*
X166087769Y-96829361D01*
X166087769Y-96829361D02*
X166087769Y-95972219D01*
X166754436Y-96972219D02*
X166659198Y-96924600D01*
X166659198Y-96924600D02*
X166611579Y-96829361D01*
X166611579Y-96829361D02*
X166611579Y-95972219D01*
X167516341Y-96924600D02*
X167421103Y-96972219D01*
X167421103Y-96972219D02*
X167230627Y-96972219D01*
X167230627Y-96972219D02*
X167135389Y-96924600D01*
X167135389Y-96924600D02*
X167087770Y-96829361D01*
X167087770Y-96829361D02*
X167087770Y-96448409D01*
X167087770Y-96448409D02*
X167135389Y-96353171D01*
X167135389Y-96353171D02*
X167230627Y-96305552D01*
X167230627Y-96305552D02*
X167421103Y-96305552D01*
X167421103Y-96305552D02*
X167516341Y-96353171D01*
X167516341Y-96353171D02*
X167563960Y-96448409D01*
X167563960Y-96448409D02*
X167563960Y-96543647D01*
X167563960Y-96543647D02*
X167087770Y-96638885D01*
X167992532Y-96972219D02*
X167992532Y-96305552D01*
X167992532Y-96496028D02*
X168040151Y-96400790D01*
X168040151Y-96400790D02*
X168087770Y-96353171D01*
X168087770Y-96353171D02*
X168183008Y-96305552D01*
X168183008Y-96305552D02*
X168278246Y-96305552D01*
X158421101Y-100192107D02*
X158087768Y-99715916D01*
X157849673Y-100192107D02*
X157849673Y-99192107D01*
X157849673Y-99192107D02*
X158230625Y-99192107D01*
X158230625Y-99192107D02*
X158325863Y-99239726D01*
X158325863Y-99239726D02*
X158373482Y-99287345D01*
X158373482Y-99287345D02*
X158421101Y-99382583D01*
X158421101Y-99382583D02*
X158421101Y-99525440D01*
X158421101Y-99525440D02*
X158373482Y-99620678D01*
X158373482Y-99620678D02*
X158325863Y-99668297D01*
X158325863Y-99668297D02*
X158230625Y-99715916D01*
X158230625Y-99715916D02*
X157849673Y-99715916D01*
X159230625Y-100144488D02*
X159135387Y-100192107D01*
X159135387Y-100192107D02*
X158944911Y-100192107D01*
X158944911Y-100192107D02*
X158849673Y-100144488D01*
X158849673Y-100144488D02*
X158802054Y-100049249D01*
X158802054Y-100049249D02*
X158802054Y-99668297D01*
X158802054Y-99668297D02*
X158849673Y-99573059D01*
X158849673Y-99573059D02*
X158944911Y-99525440D01*
X158944911Y-99525440D02*
X159135387Y-99525440D01*
X159135387Y-99525440D02*
X159230625Y-99573059D01*
X159230625Y-99573059D02*
X159278244Y-99668297D01*
X159278244Y-99668297D02*
X159278244Y-99763535D01*
X159278244Y-99763535D02*
X158802054Y-99858773D01*
X159611578Y-99525440D02*
X159802054Y-100192107D01*
X159802054Y-100192107D02*
X159992530Y-99715916D01*
X159992530Y-99715916D02*
X160183006Y-100192107D01*
X160183006Y-100192107D02*
X160373482Y-99525440D01*
X160754435Y-100192107D02*
X160754435Y-99525440D01*
X160754435Y-99192107D02*
X160706816Y-99239726D01*
X160706816Y-99239726D02*
X160754435Y-99287345D01*
X160754435Y-99287345D02*
X160802054Y-99239726D01*
X160802054Y-99239726D02*
X160754435Y-99192107D01*
X160754435Y-99192107D02*
X160754435Y-99287345D01*
X161230625Y-99525440D02*
X161230625Y-100192107D01*
X161230625Y-99620678D02*
X161278244Y-99573059D01*
X161278244Y-99573059D02*
X161373482Y-99525440D01*
X161373482Y-99525440D02*
X161516339Y-99525440D01*
X161516339Y-99525440D02*
X161611577Y-99573059D01*
X161611577Y-99573059D02*
X161659196Y-99668297D01*
X161659196Y-99668297D02*
X161659196Y-100192107D01*
X162563958Y-100192107D02*
X162563958Y-99192107D01*
X162563958Y-100144488D02*
X162468720Y-100192107D01*
X162468720Y-100192107D02*
X162278244Y-100192107D01*
X162278244Y-100192107D02*
X162183006Y-100144488D01*
X162183006Y-100144488D02*
X162135387Y-100096868D01*
X162135387Y-100096868D02*
X162087768Y-100001630D01*
X162087768Y-100001630D02*
X162087768Y-99715916D01*
X162087768Y-99715916D02*
X162135387Y-99620678D01*
X162135387Y-99620678D02*
X162183006Y-99573059D01*
X162183006Y-99573059D02*
X162278244Y-99525440D01*
X162278244Y-99525440D02*
X162468720Y-99525440D01*
X162468720Y-99525440D02*
X162563958Y-99573059D01*
X162992530Y-99287345D02*
X163040149Y-99239726D01*
X163040149Y-99239726D02*
X163135387Y-99192107D01*
X163135387Y-99192107D02*
X163373482Y-99192107D01*
X163373482Y-99192107D02*
X163468720Y-99239726D01*
X163468720Y-99239726D02*
X163516339Y-99287345D01*
X163516339Y-99287345D02*
X163563958Y-99382583D01*
X163563958Y-99382583D02*
X163563958Y-99477821D01*
X163563958Y-99477821D02*
X163516339Y-99620678D01*
X163516339Y-99620678D02*
X162944911Y-100192107D01*
X162944911Y-100192107D02*
X163563958Y-100192107D01*
X164325863Y-99668297D02*
X164468720Y-99715916D01*
X164468720Y-99715916D02*
X164516339Y-99763535D01*
X164516339Y-99763535D02*
X164563958Y-99858773D01*
X164563958Y-99858773D02*
X164563958Y-100001630D01*
X164563958Y-100001630D02*
X164516339Y-100096868D01*
X164516339Y-100096868D02*
X164468720Y-100144488D01*
X164468720Y-100144488D02*
X164373482Y-100192107D01*
X164373482Y-100192107D02*
X163992530Y-100192107D01*
X163992530Y-100192107D02*
X163992530Y-99192107D01*
X163992530Y-99192107D02*
X164325863Y-99192107D01*
X164325863Y-99192107D02*
X164421101Y-99239726D01*
X164421101Y-99239726D02*
X164468720Y-99287345D01*
X164468720Y-99287345D02*
X164516339Y-99382583D01*
X164516339Y-99382583D02*
X164516339Y-99477821D01*
X164516339Y-99477821D02*
X164468720Y-99573059D01*
X164468720Y-99573059D02*
X164421101Y-99620678D01*
X164421101Y-99620678D02*
X164325863Y-99668297D01*
X164325863Y-99668297D02*
X163992530Y-99668297D01*
X165421101Y-99525440D02*
X165421101Y-100192107D01*
X165183006Y-99144488D02*
X164944911Y-99858773D01*
X164944911Y-99858773D02*
X165563958Y-99858773D01*
X121570952Y-109452219D02*
X121094762Y-109452219D01*
X121094762Y-109452219D02*
X121047143Y-109928409D01*
X121047143Y-109928409D02*
X121094762Y-109880790D01*
X121094762Y-109880790D02*
X121190000Y-109833171D01*
X121190000Y-109833171D02*
X121428095Y-109833171D01*
X121428095Y-109833171D02*
X121523333Y-109880790D01*
X121523333Y-109880790D02*
X121570952Y-109928409D01*
X121570952Y-109928409D02*
X121618571Y-110023647D01*
X121618571Y-110023647D02*
X121618571Y-110261742D01*
X121618571Y-110261742D02*
X121570952Y-110356980D01*
X121570952Y-110356980D02*
X121523333Y-110404600D01*
X121523333Y-110404600D02*
X121428095Y-110452219D01*
X121428095Y-110452219D02*
X121190000Y-110452219D01*
X121190000Y-110452219D02*
X121094762Y-110404600D01*
X121094762Y-110404600D02*
X121047143Y-110356980D01*
X121904286Y-109452219D02*
X122237619Y-110452219D01*
X122237619Y-110452219D02*
X122570952Y-109452219D01*
X123094762Y-109452219D02*
X123285238Y-109452219D01*
X123285238Y-109452219D02*
X123380476Y-109499838D01*
X123380476Y-109499838D02*
X123475714Y-109595076D01*
X123475714Y-109595076D02*
X123523333Y-109785552D01*
X123523333Y-109785552D02*
X123523333Y-110118885D01*
X123523333Y-110118885D02*
X123475714Y-110309361D01*
X123475714Y-110309361D02*
X123380476Y-110404600D01*
X123380476Y-110404600D02*
X123285238Y-110452219D01*
X123285238Y-110452219D02*
X123094762Y-110452219D01*
X123094762Y-110452219D02*
X122999524Y-110404600D01*
X122999524Y-110404600D02*
X122904286Y-110309361D01*
X122904286Y-110309361D02*
X122856667Y-110118885D01*
X122856667Y-110118885D02*
X122856667Y-109785552D01*
X122856667Y-109785552D02*
X122904286Y-109595076D01*
X122904286Y-109595076D02*
X122999524Y-109499838D01*
X122999524Y-109499838D02*
X123094762Y-109452219D01*
X123951905Y-109452219D02*
X123951905Y-110261742D01*
X123951905Y-110261742D02*
X123999524Y-110356980D01*
X123999524Y-110356980D02*
X124047143Y-110404600D01*
X124047143Y-110404600D02*
X124142381Y-110452219D01*
X124142381Y-110452219D02*
X124332857Y-110452219D01*
X124332857Y-110452219D02*
X124428095Y-110404600D01*
X124428095Y-110404600D02*
X124475714Y-110356980D01*
X124475714Y-110356980D02*
X124523333Y-110261742D01*
X124523333Y-110261742D02*
X124523333Y-109452219D01*
X124856667Y-109452219D02*
X125428095Y-109452219D01*
X125142381Y-110452219D02*
X125142381Y-109452219D01*
X116014762Y-110452219D02*
X116014762Y-109452219D01*
X116014762Y-109452219D02*
X116395714Y-109452219D01*
X116395714Y-109452219D02*
X116490952Y-109499838D01*
X116490952Y-109499838D02*
X116538571Y-109547457D01*
X116538571Y-109547457D02*
X116586190Y-109642695D01*
X116586190Y-109642695D02*
X116586190Y-109785552D01*
X116586190Y-109785552D02*
X116538571Y-109880790D01*
X116538571Y-109880790D02*
X116490952Y-109928409D01*
X116490952Y-109928409D02*
X116395714Y-109976028D01*
X116395714Y-109976028D02*
X116014762Y-109976028D01*
X116919524Y-109452219D02*
X117157619Y-110452219D01*
X117157619Y-110452219D02*
X117348095Y-109737933D01*
X117348095Y-109737933D02*
X117538571Y-110452219D01*
X117538571Y-110452219D02*
X117776667Y-109452219D01*
X118729047Y-110452219D02*
X118395714Y-109976028D01*
X118157619Y-110452219D02*
X118157619Y-109452219D01*
X118157619Y-109452219D02*
X118538571Y-109452219D01*
X118538571Y-109452219D02*
X118633809Y-109499838D01*
X118633809Y-109499838D02*
X118681428Y-109547457D01*
X118681428Y-109547457D02*
X118729047Y-109642695D01*
X118729047Y-109642695D02*
X118729047Y-109785552D01*
X118729047Y-109785552D02*
X118681428Y-109880790D01*
X118681428Y-109880790D02*
X118633809Y-109928409D01*
X118633809Y-109928409D02*
X118538571Y-109976028D01*
X118538571Y-109976028D02*
X118157619Y-109976028D01*
X119157619Y-110452219D02*
X119157619Y-109452219D01*
X119633809Y-110452219D02*
X119633809Y-109452219D01*
X119633809Y-109452219D02*
X120205237Y-110452219D01*
X120205237Y-110452219D02*
X120205237Y-109452219D01*
D11*
X142238095Y-68454819D02*
X142238095Y-69264342D01*
X142238095Y-69264342D02*
X142285714Y-69359580D01*
X142285714Y-69359580D02*
X142333333Y-69407200D01*
X142333333Y-69407200D02*
X142428571Y-69454819D01*
X142428571Y-69454819D02*
X142619047Y-69454819D01*
X142619047Y-69454819D02*
X142714285Y-69407200D01*
X142714285Y-69407200D02*
X142761904Y-69359580D01*
X142761904Y-69359580D02*
X142809523Y-69264342D01*
X142809523Y-69264342D02*
X142809523Y-68454819D01*
X143809523Y-69454819D02*
X143238095Y-69454819D01*
X143523809Y-69454819D02*
X143523809Y-68454819D01*
X143523809Y-68454819D02*
X143428571Y-68597676D01*
X143428571Y-68597676D02*
X143333333Y-68692914D01*
X143333333Y-68692914D02*
X143238095Y-68740533D01*
X135490475Y-95524200D02*
X135604761Y-95562295D01*
X135604761Y-95562295D02*
X135795237Y-95562295D01*
X135795237Y-95562295D02*
X135871428Y-95524200D01*
X135871428Y-95524200D02*
X135909523Y-95486104D01*
X135909523Y-95486104D02*
X135947618Y-95409914D01*
X135947618Y-95409914D02*
X135947618Y-95333723D01*
X135947618Y-95333723D02*
X135909523Y-95257533D01*
X135909523Y-95257533D02*
X135871428Y-95219438D01*
X135871428Y-95219438D02*
X135795237Y-95181342D01*
X135795237Y-95181342D02*
X135642856Y-95143247D01*
X135642856Y-95143247D02*
X135566666Y-95105152D01*
X135566666Y-95105152D02*
X135528571Y-95067057D01*
X135528571Y-95067057D02*
X135490475Y-94990866D01*
X135490475Y-94990866D02*
X135490475Y-94914676D01*
X135490475Y-94914676D02*
X135528571Y-94838485D01*
X135528571Y-94838485D02*
X135566666Y-94800390D01*
X135566666Y-94800390D02*
X135642856Y-94762295D01*
X135642856Y-94762295D02*
X135833333Y-94762295D01*
X135833333Y-94762295D02*
X135947618Y-94800390D01*
X136214285Y-94762295D02*
X136404761Y-95562295D01*
X136404761Y-95562295D02*
X136557142Y-94990866D01*
X136557142Y-94990866D02*
X136709523Y-95562295D01*
X136709523Y-95562295D02*
X136900000Y-94762295D01*
X137661905Y-95486104D02*
X137623809Y-95524200D01*
X137623809Y-95524200D02*
X137509524Y-95562295D01*
X137509524Y-95562295D02*
X137433333Y-95562295D01*
X137433333Y-95562295D02*
X137319047Y-95524200D01*
X137319047Y-95524200D02*
X137242857Y-95448009D01*
X137242857Y-95448009D02*
X137204762Y-95371819D01*
X137204762Y-95371819D02*
X137166666Y-95219438D01*
X137166666Y-95219438D02*
X137166666Y-95105152D01*
X137166666Y-95105152D02*
X137204762Y-94952771D01*
X137204762Y-94952771D02*
X137242857Y-94876580D01*
X137242857Y-94876580D02*
X137319047Y-94800390D01*
X137319047Y-94800390D02*
X137433333Y-94762295D01*
X137433333Y-94762295D02*
X137509524Y-94762295D01*
X137509524Y-94762295D02*
X137623809Y-94800390D01*
X137623809Y-94800390D02*
X137661905Y-94838485D01*
X138385714Y-95562295D02*
X138004762Y-95562295D01*
X138004762Y-95562295D02*
X138004762Y-94762295D01*
X138652381Y-95562295D02*
X138652381Y-94762295D01*
X139109524Y-95562295D02*
X138766666Y-95105152D01*
X139109524Y-94762295D02*
X138652381Y-95219438D01*
X146904761Y-95524200D02*
X147019047Y-95562295D01*
X147019047Y-95562295D02*
X147209523Y-95562295D01*
X147209523Y-95562295D02*
X147285714Y-95524200D01*
X147285714Y-95524200D02*
X147323809Y-95486104D01*
X147323809Y-95486104D02*
X147361904Y-95409914D01*
X147361904Y-95409914D02*
X147361904Y-95333723D01*
X147361904Y-95333723D02*
X147323809Y-95257533D01*
X147323809Y-95257533D02*
X147285714Y-95219438D01*
X147285714Y-95219438D02*
X147209523Y-95181342D01*
X147209523Y-95181342D02*
X147057142Y-95143247D01*
X147057142Y-95143247D02*
X146980952Y-95105152D01*
X146980952Y-95105152D02*
X146942857Y-95067057D01*
X146942857Y-95067057D02*
X146904761Y-94990866D01*
X146904761Y-94990866D02*
X146904761Y-94914676D01*
X146904761Y-94914676D02*
X146942857Y-94838485D01*
X146942857Y-94838485D02*
X146980952Y-94800390D01*
X146980952Y-94800390D02*
X147057142Y-94762295D01*
X147057142Y-94762295D02*
X147247619Y-94762295D01*
X147247619Y-94762295D02*
X147361904Y-94800390D01*
X147628571Y-94762295D02*
X147819047Y-95562295D01*
X147819047Y-95562295D02*
X147971428Y-94990866D01*
X147971428Y-94990866D02*
X148123809Y-95562295D01*
X148123809Y-95562295D02*
X148314286Y-94762295D01*
X148619048Y-95562295D02*
X148619048Y-94762295D01*
X148619048Y-94762295D02*
X148809524Y-94762295D01*
X148809524Y-94762295D02*
X148923810Y-94800390D01*
X148923810Y-94800390D02*
X149000000Y-94876580D01*
X149000000Y-94876580D02*
X149038095Y-94952771D01*
X149038095Y-94952771D02*
X149076191Y-95105152D01*
X149076191Y-95105152D02*
X149076191Y-95219438D01*
X149076191Y-95219438D02*
X149038095Y-95371819D01*
X149038095Y-95371819D02*
X149000000Y-95448009D01*
X149000000Y-95448009D02*
X148923810Y-95524200D01*
X148923810Y-95524200D02*
X148809524Y-95562295D01*
X148809524Y-95562295D02*
X148619048Y-95562295D01*
X149419048Y-95562295D02*
X149419048Y-94762295D01*
X149952381Y-94762295D02*
X150104762Y-94762295D01*
X150104762Y-94762295D02*
X150180952Y-94800390D01*
X150180952Y-94800390D02*
X150257143Y-94876580D01*
X150257143Y-94876580D02*
X150295238Y-95028961D01*
X150295238Y-95028961D02*
X150295238Y-95295628D01*
X150295238Y-95295628D02*
X150257143Y-95448009D01*
X150257143Y-95448009D02*
X150180952Y-95524200D01*
X150180952Y-95524200D02*
X150104762Y-95562295D01*
X150104762Y-95562295D02*
X149952381Y-95562295D01*
X149952381Y-95562295D02*
X149876190Y-95524200D01*
X149876190Y-95524200D02*
X149800000Y-95448009D01*
X149800000Y-95448009D02*
X149761904Y-95295628D01*
X149761904Y-95295628D02*
X149761904Y-95028961D01*
X149761904Y-95028961D02*
X149800000Y-94876580D01*
X149800000Y-94876580D02*
X149876190Y-94800390D01*
X149876190Y-94800390D02*
X149952381Y-94762295D01*
D12*
X119320000Y-53280000D02*
X120650000Y-53280000D01*
X119320000Y-54610000D02*
X119320000Y-53280000D01*
X119320000Y-55880000D02*
X119320000Y-94040000D01*
X119320000Y-55880000D02*
X121980000Y-55880000D01*
X119320000Y-94040000D02*
X121980000Y-94040000D01*
X121980000Y-55880000D02*
X121980000Y-94040000D01*
X167317742Y-89977500D02*
X167792258Y-89977500D01*
X167317742Y-91022500D02*
X167792258Y-91022500D01*
X164317742Y-89977500D02*
X164792258Y-89977500D01*
X164317742Y-91022500D02*
X164792258Y-91022500D01*
X132500000Y-43500000D02*
X132500000Y-43800000D01*
X132500000Y-43500000D02*
X153500000Y-43500000D01*
X132500000Y-45900000D02*
X132500000Y-46300000D01*
X132500000Y-46167000D02*
X135507000Y-46167000D01*
X132500000Y-48500000D02*
X132500000Y-48900000D01*
X132500000Y-51000000D02*
X132500000Y-51400000D01*
X132500000Y-53600000D02*
X132500000Y-54000000D01*
X132500000Y-56100000D02*
X132500000Y-56500000D01*
X132500000Y-58600000D02*
X132500000Y-59000000D01*
X132500000Y-61200000D02*
X132500000Y-61600000D01*
X132500000Y-63700000D02*
X132500000Y-64100000D01*
X132500000Y-66300000D02*
X132500000Y-66700000D01*
X132500000Y-68800000D02*
X132500000Y-69200000D01*
X132500000Y-71300000D02*
X132500000Y-71700000D01*
X132500000Y-73900000D02*
X132500000Y-74300000D01*
X132500000Y-76400000D02*
X132500000Y-76800000D01*
X132500000Y-79000000D02*
X132500000Y-79400000D01*
X132500000Y-81500000D02*
X132500000Y-81900000D01*
X132500000Y-84100000D02*
X132500000Y-84500000D01*
X132500000Y-86600000D02*
X132500000Y-87000000D01*
X132500000Y-89100000D02*
X132500000Y-89500000D01*
X132500000Y-91700000D02*
X132500000Y-92100000D01*
X135507000Y-46167000D02*
X135507000Y-43500000D01*
X139300000Y-94500000D02*
X132500000Y-94500000D01*
X141500000Y-94500000D02*
X141900000Y-94500000D01*
X144100000Y-94500000D02*
X144500000Y-94500000D01*
X153500000Y-43500000D02*
X153500000Y-43800000D01*
X153500000Y-45900000D02*
X153500000Y-46300000D01*
X153500000Y-48500000D02*
X153500000Y-48900000D01*
X153500000Y-51000000D02*
X153500000Y-51400000D01*
X153500000Y-53600000D02*
X153500000Y-54000000D01*
X153500000Y-56100000D02*
X153500000Y-56500000D01*
X153500000Y-58600000D02*
X153500000Y-59000000D01*
X153500000Y-61200000D02*
X153500000Y-61600000D01*
X153500000Y-63700000D02*
X153500000Y-64100000D01*
X153500000Y-66300000D02*
X153500000Y-66700000D01*
X153500000Y-68800000D02*
X153500000Y-69200000D01*
X153500000Y-71300000D02*
X153500000Y-71700000D01*
X153500000Y-73900000D02*
X153500000Y-74300000D01*
X153500000Y-76400000D02*
X153500000Y-76800000D01*
X153500000Y-79000000D02*
X153500000Y-79400000D01*
X153500000Y-81500000D02*
X153500000Y-81900000D01*
X153500000Y-84100000D02*
X153500000Y-84500000D01*
X153500000Y-86600000D02*
X153500000Y-87000000D01*
X153500000Y-89100000D02*
X153500000Y-89500000D01*
X153500000Y-91700000D02*
X153500000Y-92100000D01*
X153500000Y-94500000D02*
X146700000Y-94500000D01*
X135842258Y-99717500D02*
X135367742Y-99717500D01*
X135842258Y-100762500D02*
X135367742Y-100762500D01*
X164200000Y-89350000D02*
X167800000Y-89350000D01*
X164161522Y-89338478D02*
G75*
G02*
X166000000Y-84899999I1838478J1838478D01*
G01*
X166000000Y-84900000D02*
G75*
G02*
X167838478Y-89338478I0J-2600000D01*
G01*
X116780000Y-53280000D02*
X118110000Y-53280000D01*
X116780000Y-54610000D02*
X116780000Y-53280000D01*
X116780000Y-55880000D02*
X116780000Y-94040000D01*
X116780000Y-55880000D02*
X119440000Y-55880000D01*
X116780000Y-94040000D02*
X119440000Y-94040000D01*
X119440000Y-55880000D02*
X119440000Y-94040000D01*
X133596177Y-105120000D02*
X133596177Y-107405000D01*
X133596177Y-107405000D02*
X135066177Y-107405000D01*
X135066177Y-107405000D02*
X135066177Y-105120000D01*
X161527258Y-89977500D02*
X161052742Y-89977500D01*
X161527258Y-91022500D02*
X161052742Y-91022500D01*
X137629000Y-98380000D02*
X137629000Y-108620000D01*
X140760000Y-98380000D02*
X140760000Y-108620000D01*
X142270000Y-98380000D02*
X137629000Y-98380000D01*
X142270000Y-98380000D02*
X142270000Y-108620000D01*
X142270000Y-101650000D02*
X140760000Y-101650000D01*
X142270000Y-105351000D02*
X140760000Y-105351000D01*
X142270000Y-108620000D02*
X137629000Y-108620000D01*
X163715000Y-77390000D02*
X163715000Y-78440000D01*
X163715000Y-82560000D02*
X162725000Y-82560000D01*
X163715000Y-83610000D02*
X163715000Y-82560000D01*
X166215000Y-77390000D02*
X163715000Y-77390000D01*
X166215000Y-83610000D02*
X163715000Y-83610000D01*
X168185000Y-82440000D02*
X168185000Y-78560000D01*
X159940000Y-53280000D02*
X161270000Y-53280000D01*
X159940000Y-54610000D02*
X159940000Y-53280000D01*
X159940000Y-55880000D02*
X159940000Y-73720000D01*
X159940000Y-55880000D02*
X162600000Y-55880000D01*
X159940000Y-73720000D02*
X162600000Y-73720000D01*
X162600000Y-55880000D02*
X162600000Y-73720000D01*
X121860000Y-53280000D02*
X123190000Y-53280000D01*
X121860000Y-54610000D02*
X121860000Y-53280000D01*
X121860000Y-55880000D02*
X121860000Y-94040000D01*
X121860000Y-55880000D02*
X124520000Y-55880000D01*
X121860000Y-94040000D02*
X124520000Y-94040000D01*
X124520000Y-55880000D02*
X124520000Y-94040000D01*
X135757500Y-102977258D02*
X135757500Y-102502742D01*
X136802500Y-102977258D02*
X136802500Y-102502742D01*
X158067742Y-89977500D02*
X158542258Y-89977500D01*
X158067742Y-91022500D02*
X158542258Y-91022500D01*
X115350000Y-96200000D02*
X115350000Y-108800000D01*
X115350000Y-108800000D02*
X130750000Y-108800000D01*
X130750000Y-101000000D02*
X131250000Y-101250000D01*
X130750000Y-106400000D02*
X130750000Y-101000000D01*
X130750000Y-107850000D02*
X131250000Y-108150000D01*
X130750000Y-108800000D02*
X130750000Y-107850000D01*
X131250000Y-96200000D02*
X115350000Y-96200000D01*
X131250000Y-101250000D02*
X131250000Y-96200000D01*
X131250000Y-106150000D02*
X130750000Y-106400000D01*
X131250000Y-108150000D02*
X131250000Y-106150000D01*
X135596177Y-105120000D02*
X135596177Y-107405000D01*
X135596177Y-107405000D02*
X137066177Y-107405000D01*
X137066177Y-107405000D02*
X137066177Y-105120000D01*
X162500000Y-53280000D02*
X163830000Y-53280000D01*
X162500000Y-54610000D02*
X162500000Y-53280000D01*
X162500000Y-55880000D02*
X162500000Y-73720000D01*
X162500000Y-55880000D02*
X165160000Y-55880000D01*
X162500000Y-73720000D02*
X165160000Y-73720000D01*
X165160000Y-55880000D02*
X165160000Y-73720000D01*
X165040000Y-53280000D02*
X166370000Y-53280000D01*
X165040000Y-54610000D02*
X165040000Y-53280000D01*
X165040000Y-55880000D02*
X165040000Y-73720000D01*
X165040000Y-55880000D02*
X167700000Y-55880000D01*
X165040000Y-73720000D02*
X167700000Y-73720000D01*
X167700000Y-55880000D02*
X167700000Y-73720000D01*
X158430000Y-89350000D02*
X162030000Y-89350000D01*
X158391522Y-89338478D02*
G75*
G02*
X160230000Y-84899999I1838478J1838478D01*
G01*
X160230000Y-84900000D02*
G75*
G02*
X162068478Y-89338478I0J-2600000D01*
G01*
X124400000Y-53280000D02*
X125730000Y-53280000D01*
X124400000Y-54610000D02*
X124400000Y-53280000D01*
X124400000Y-55880000D02*
X124400000Y-94040000D01*
X124400000Y-55880000D02*
X127060000Y-55880000D01*
X124400000Y-94040000D02*
X127060000Y-94040000D01*
X127060000Y-55880000D02*
X127060000Y-94040000D01*
%LPC*%
D13*
X120650000Y-54610000D03*
D14*
X120650000Y-57150000D03*
X120650000Y-59690000D03*
X120650000Y-62230000D03*
X120650000Y-64770000D03*
X120650000Y-67310000D03*
X120650000Y-69850000D03*
X120650000Y-72390000D03*
X120650000Y-74930000D03*
X120650000Y-77470000D03*
X120650000Y-80010000D03*
X120650000Y-82550000D03*
X120650000Y-85090000D03*
X120650000Y-87630000D03*
X120650000Y-90170000D03*
X120650000Y-92710000D03*
D15*
X166730000Y-90500000D03*
X168380000Y-90500000D03*
X163730000Y-90500000D03*
X165380000Y-90500000D03*
D16*
X140275000Y-45000000D03*
D17*
X140575000Y-48030000D03*
X145425000Y-48030000D03*
D16*
X145725000Y-45000000D03*
D14*
X134110000Y-44870000D03*
D18*
X133210000Y-44870000D03*
D14*
X134110000Y-47410000D03*
D18*
X133210000Y-47410000D03*
D13*
X134110000Y-49950000D03*
D18*
X133210000Y-49950000D03*
D14*
X134110000Y-52490000D03*
D18*
X133210000Y-52490000D03*
D14*
X134110000Y-55030000D03*
D18*
X133210000Y-55030000D03*
D14*
X134110000Y-57570000D03*
D18*
X133210000Y-57570000D03*
D14*
X134110000Y-60110000D03*
D18*
X133210000Y-60110000D03*
D13*
X134110000Y-62650000D03*
D18*
X133210000Y-62650000D03*
D14*
X134110000Y-65190000D03*
D18*
X133210000Y-65190000D03*
D14*
X134110000Y-67730000D03*
D18*
X133210000Y-67730000D03*
D14*
X134110000Y-70270000D03*
D18*
X133210000Y-70270000D03*
D14*
X134110000Y-72810000D03*
D18*
X133210000Y-72810000D03*
D13*
X134110000Y-75350000D03*
D18*
X133210000Y-75350000D03*
D14*
X134110000Y-77890000D03*
D18*
X133210000Y-77890000D03*
D14*
X134110000Y-80430000D03*
D18*
X133210000Y-80430000D03*
D14*
X134110000Y-82970000D03*
D18*
X133210000Y-82970000D03*
D14*
X134110000Y-85510000D03*
D18*
X133210000Y-85510000D03*
D13*
X134110000Y-88050000D03*
D18*
X133210000Y-88050000D03*
D14*
X134110000Y-90590000D03*
D18*
X133210000Y-90590000D03*
D14*
X134110000Y-93130000D03*
D18*
X133210000Y-93130000D03*
D14*
X151890000Y-93130000D03*
D18*
X152790000Y-93130000D03*
D14*
X151890000Y-90590000D03*
D18*
X152790000Y-90590000D03*
D13*
X151890000Y-88050000D03*
D18*
X152790000Y-88050000D03*
D14*
X151890000Y-85510000D03*
D18*
X152790000Y-85510000D03*
D14*
X151890000Y-82970000D03*
D18*
X152790000Y-82970000D03*
D14*
X151890000Y-80430000D03*
D18*
X152790000Y-80430000D03*
D14*
X151890000Y-77890000D03*
D18*
X152790000Y-77890000D03*
D13*
X151890000Y-75350000D03*
D18*
X152790000Y-75350000D03*
D14*
X151890000Y-72810000D03*
D18*
X152790000Y-72810000D03*
D14*
X151890000Y-70270000D03*
D18*
X152790000Y-70270000D03*
D14*
X151890000Y-67730000D03*
D18*
X152790000Y-67730000D03*
D14*
X151890000Y-65190000D03*
D18*
X152790000Y-65190000D03*
D13*
X151890000Y-62650000D03*
D18*
X152790000Y-62650000D03*
D14*
X151890000Y-60110000D03*
D18*
X152790000Y-60110000D03*
D14*
X151890000Y-57570000D03*
D18*
X152790000Y-57570000D03*
D14*
X151890000Y-55030000D03*
D18*
X152790000Y-55030000D03*
D14*
X151890000Y-52490000D03*
D18*
X152790000Y-52490000D03*
D13*
X151890000Y-49950000D03*
D18*
X152790000Y-49950000D03*
D14*
X151890000Y-47410000D03*
D18*
X152790000Y-47410000D03*
D14*
X151890000Y-44870000D03*
D18*
X152790000Y-44870000D03*
D14*
X140460000Y-92900000D03*
D19*
X140460000Y-93800000D03*
D13*
X143000000Y-92900000D03*
D19*
X143000000Y-93800000D03*
D14*
X145540000Y-92900000D03*
D19*
X145540000Y-93800000D03*
D20*
X136430000Y-100240000D03*
X134780000Y-100240000D03*
D21*
X164730000Y-87500000D03*
D22*
X166000000Y-87500000D03*
X167270000Y-87500000D03*
D13*
X118110000Y-54610000D03*
D14*
X118110000Y-57150000D03*
X118110000Y-59690000D03*
X118110000Y-62230000D03*
X118110000Y-64770000D03*
X118110000Y-67310000D03*
X118110000Y-69850000D03*
X118110000Y-72390000D03*
X118110000Y-74930000D03*
X118110000Y-77470000D03*
X118110000Y-80010000D03*
X118110000Y-82550000D03*
X118110000Y-85090000D03*
X118110000Y-87630000D03*
X118110000Y-90170000D03*
X118110000Y-92710000D03*
D23*
X134331177Y-106707500D03*
X134331177Y-105132500D03*
D20*
X162115000Y-90500000D03*
X160465000Y-90500000D03*
D24*
X139000000Y-100960000D03*
D25*
X139000000Y-103500000D03*
X139000000Y-106040000D03*
D26*
X165100000Y-46355000D03*
D27*
X163500000Y-82000000D03*
X163500000Y-81000000D03*
X163500000Y-80000000D03*
X163500000Y-79000000D03*
D28*
X167375000Y-83300000D03*
X167375000Y-77700000D03*
D13*
X161270000Y-54610000D03*
D14*
X161270000Y-57150000D03*
X161270000Y-59690000D03*
X161270000Y-62230000D03*
X161270000Y-64770000D03*
X161270000Y-67310000D03*
X161270000Y-69850000D03*
X161270000Y-72390000D03*
D26*
X165100000Y-107950000D03*
D13*
X123190000Y-54610000D03*
D14*
X123190000Y-57150000D03*
X123190000Y-59690000D03*
X123190000Y-62230000D03*
X123190000Y-64770000D03*
X123190000Y-67310000D03*
X123190000Y-69850000D03*
X123190000Y-72390000D03*
X123190000Y-74930000D03*
X123190000Y-77470000D03*
X123190000Y-80010000D03*
X123190000Y-82550000D03*
X123190000Y-85090000D03*
X123190000Y-87630000D03*
X123190000Y-90170000D03*
X123190000Y-92710000D03*
D29*
X136280000Y-103565000D03*
X136280000Y-101915000D03*
D15*
X157480000Y-90500000D03*
X159130000Y-90500000D03*
D30*
X118000000Y-102500000D03*
D31*
X123000000Y-102500000D03*
X128000000Y-102500000D03*
D26*
X118110000Y-46355000D03*
D23*
X136331177Y-106707500D03*
X136331177Y-105132500D03*
D13*
X163830000Y-54610000D03*
D14*
X163830000Y-57150000D03*
X163830000Y-59690000D03*
X163830000Y-62230000D03*
X163830000Y-64770000D03*
X163830000Y-67310000D03*
X163830000Y-69850000D03*
X163830000Y-72390000D03*
D13*
X166370000Y-54610000D03*
D14*
X166370000Y-57150000D03*
X166370000Y-59690000D03*
X166370000Y-62230000D03*
X166370000Y-64770000D03*
X166370000Y-67310000D03*
X166370000Y-69850000D03*
X166370000Y-72390000D03*
D21*
X158960000Y-87500000D03*
D22*
X160230000Y-87500000D03*
X161500000Y-87500000D03*
D13*
X125730000Y-54610000D03*
D14*
X125730000Y-57150000D03*
X125730000Y-59690000D03*
X125730000Y-62230000D03*
X125730000Y-64770000D03*
X125730000Y-67310000D03*
X125730000Y-69850000D03*
X125730000Y-72390000D03*
X125730000Y-74930000D03*
X125730000Y-77470000D03*
X125730000Y-80010000D03*
X125730000Y-82550000D03*
X125730000Y-85090000D03*
X125730000Y-87630000D03*
X125730000Y-90170000D03*
X125730000Y-92710000D03*
%LPD*%
M02*
