%TF.GenerationSoftware,KiCad,Pcbnew,8.0.7*%
%TF.CreationDate,2025-01-17T18:29:09+11:00*%
%TF.ProjectId,MQTTDecoderExpansionBoard,4d515454-4465-4636-9f64-657245787061,A*%
%TF.SameCoordinates,Original*%
%TF.FileFunction,Drillmap*%
%TF.FilePolarity,Positive*%
%FSLAX45Y45*%
G04 Gerber Fmt 4.5, Leading zero omitted, Abs format (unit mm)*
G04 Created by KiCad (PCBNEW 8.0.7) date 2025-01-17 18:29:09*
%MOMM*%
%LPD*%
G01*
G04 APERTURE LIST*
%ADD10C,0.100000*%
%ADD11C,0.200000*%
%ADD12C,0.102000*%
%ADD13C,0.110000*%
%ADD14C,0.132000*%
G04 APERTURE END LIST*
D10*
X11430000Y-4254500D02*
X16891000Y-4254500D01*
X16891000Y-11176000D01*
X11430000Y-11176000D01*
X11430000Y-4254500D01*
D11*
D10*
X16553500Y-7917500D02*
X16593500Y-7957500D01*
X16593500Y-7917500D02*
X16553500Y-7957500D01*
X16553500Y-8044500D02*
X16593500Y-8084500D01*
X16593500Y-8044500D02*
X16553500Y-8084500D01*
X15933500Y-8750000D02*
G75*
G02*
X15858500Y-8750000I-37500J0D01*
G01*
X15858500Y-8750000D02*
G75*
G02*
X15933500Y-8750000I37500J0D01*
G01*
X16060500Y-8750000D02*
G75*
G02*
X15985500Y-8750000I-37500J0D01*
G01*
X15985500Y-8750000D02*
G75*
G02*
X16060500Y-8750000I37500J0D01*
G01*
X16187500Y-8750000D02*
G75*
G02*
X16112500Y-8750000I-37500J0D01*
G01*
X16112500Y-8750000D02*
G75*
G02*
X16187500Y-8750000I37500J0D01*
G01*
X16510500Y-8750000D02*
G75*
G02*
X16435500Y-8750000I-37500J0D01*
G01*
X16435500Y-8750000D02*
G75*
G02*
X16510500Y-8750000I37500J0D01*
G01*
X16637500Y-8750000D02*
G75*
G02*
X16562500Y-8750000I-37500J0D01*
G01*
X16562500Y-8750000D02*
G75*
G02*
X16637500Y-8750000I37500J0D01*
G01*
X16764500Y-8750000D02*
G75*
G02*
X16689500Y-8750000I-37500J0D01*
G01*
X16689500Y-8750000D02*
G75*
G02*
X16764500Y-8750000I37500J0D01*
G01*
X11811000Y-5411000D02*
X11811000Y-5511000D01*
X11761000Y-5461000D02*
X11861000Y-5461000D01*
X11811000Y-5665000D02*
X11811000Y-5765000D01*
X11761000Y-5715000D02*
X11861000Y-5715000D01*
X11811000Y-5919000D02*
X11811000Y-6019000D01*
X11761000Y-5969000D02*
X11861000Y-5969000D01*
X11811000Y-6173000D02*
X11811000Y-6273000D01*
X11761000Y-6223000D02*
X11861000Y-6223000D01*
X11811000Y-6427000D02*
X11811000Y-6527000D01*
X11761000Y-6477000D02*
X11861000Y-6477000D01*
X11811000Y-6681000D02*
X11811000Y-6781000D01*
X11761000Y-6731000D02*
X11861000Y-6731000D01*
X11811000Y-6935000D02*
X11811000Y-7035000D01*
X11761000Y-6985000D02*
X11861000Y-6985000D01*
X11811000Y-7189000D02*
X11811000Y-7289000D01*
X11761000Y-7239000D02*
X11861000Y-7239000D01*
X11811000Y-7443000D02*
X11811000Y-7543000D01*
X11761000Y-7493000D02*
X11861000Y-7493000D01*
X11811000Y-7697000D02*
X11811000Y-7797000D01*
X11761000Y-7747000D02*
X11861000Y-7747000D01*
X11811000Y-7951000D02*
X11811000Y-8051000D01*
X11761000Y-8001000D02*
X11861000Y-8001000D01*
X11811000Y-8205000D02*
X11811000Y-8305000D01*
X11761000Y-8255000D02*
X11861000Y-8255000D01*
X11811000Y-8459000D02*
X11811000Y-8559000D01*
X11761000Y-8509000D02*
X11861000Y-8509000D01*
X11811000Y-8713000D02*
X11811000Y-8813000D01*
X11761000Y-8763000D02*
X11861000Y-8763000D01*
X11811000Y-8967000D02*
X11811000Y-9067000D01*
X11761000Y-9017000D02*
X11861000Y-9017000D01*
X11811000Y-9221000D02*
X11811000Y-9321000D01*
X11761000Y-9271000D02*
X11861000Y-9271000D01*
X12065000Y-5411000D02*
X12065000Y-5511000D01*
X12015000Y-5461000D02*
X12115000Y-5461000D01*
X12065000Y-5665000D02*
X12065000Y-5765000D01*
X12015000Y-5715000D02*
X12115000Y-5715000D01*
X12065000Y-5919000D02*
X12065000Y-6019000D01*
X12015000Y-5969000D02*
X12115000Y-5969000D01*
X12065000Y-6173000D02*
X12065000Y-6273000D01*
X12015000Y-6223000D02*
X12115000Y-6223000D01*
X12065000Y-6427000D02*
X12065000Y-6527000D01*
X12015000Y-6477000D02*
X12115000Y-6477000D01*
X12065000Y-6681000D02*
X12065000Y-6781000D01*
X12015000Y-6731000D02*
X12115000Y-6731000D01*
X12065000Y-6935000D02*
X12065000Y-7035000D01*
X12015000Y-6985000D02*
X12115000Y-6985000D01*
X12065000Y-7189000D02*
X12065000Y-7289000D01*
X12015000Y-7239000D02*
X12115000Y-7239000D01*
X12065000Y-7443000D02*
X12065000Y-7543000D01*
X12015000Y-7493000D02*
X12115000Y-7493000D01*
X12065000Y-7697000D02*
X12065000Y-7797000D01*
X12015000Y-7747000D02*
X12115000Y-7747000D01*
X12065000Y-7951000D02*
X12065000Y-8051000D01*
X12015000Y-8001000D02*
X12115000Y-8001000D01*
X12065000Y-8205000D02*
X12065000Y-8305000D01*
X12015000Y-8255000D02*
X12115000Y-8255000D01*
X12065000Y-8459000D02*
X12065000Y-8559000D01*
X12015000Y-8509000D02*
X12115000Y-8509000D01*
X12065000Y-8713000D02*
X12065000Y-8813000D01*
X12015000Y-8763000D02*
X12115000Y-8763000D01*
X12065000Y-8967000D02*
X12065000Y-9067000D01*
X12015000Y-9017000D02*
X12115000Y-9017000D01*
X12065000Y-9221000D02*
X12065000Y-9321000D01*
X12015000Y-9271000D02*
X12115000Y-9271000D01*
X12319000Y-5411000D02*
X12319000Y-5511000D01*
X12269000Y-5461000D02*
X12369000Y-5461000D01*
X12319000Y-5665000D02*
X12319000Y-5765000D01*
X12269000Y-5715000D02*
X12369000Y-5715000D01*
X12319000Y-5919000D02*
X12319000Y-6019000D01*
X12269000Y-5969000D02*
X12369000Y-5969000D01*
X12319000Y-6173000D02*
X12319000Y-6273000D01*
X12269000Y-6223000D02*
X12369000Y-6223000D01*
X12319000Y-6427000D02*
X12319000Y-6527000D01*
X12269000Y-6477000D02*
X12369000Y-6477000D01*
X12319000Y-6681000D02*
X12319000Y-6781000D01*
X12269000Y-6731000D02*
X12369000Y-6731000D01*
X12319000Y-6935000D02*
X12319000Y-7035000D01*
X12269000Y-6985000D02*
X12369000Y-6985000D01*
X12319000Y-7189000D02*
X12319000Y-7289000D01*
X12269000Y-7239000D02*
X12369000Y-7239000D01*
X12319000Y-7443000D02*
X12319000Y-7543000D01*
X12269000Y-7493000D02*
X12369000Y-7493000D01*
X12319000Y-7697000D02*
X12319000Y-7797000D01*
X12269000Y-7747000D02*
X12369000Y-7747000D01*
X12319000Y-7951000D02*
X12319000Y-8051000D01*
X12269000Y-8001000D02*
X12369000Y-8001000D01*
X12319000Y-8205000D02*
X12319000Y-8305000D01*
X12269000Y-8255000D02*
X12369000Y-8255000D01*
X12319000Y-8459000D02*
X12319000Y-8559000D01*
X12269000Y-8509000D02*
X12369000Y-8509000D01*
X12319000Y-8713000D02*
X12319000Y-8813000D01*
X12269000Y-8763000D02*
X12369000Y-8763000D01*
X12319000Y-8967000D02*
X12319000Y-9067000D01*
X12269000Y-9017000D02*
X12369000Y-9017000D01*
X12319000Y-9221000D02*
X12319000Y-9321000D01*
X12269000Y-9271000D02*
X12369000Y-9271000D01*
X12573000Y-5411000D02*
X12573000Y-5511000D01*
X12523000Y-5461000D02*
X12623000Y-5461000D01*
X12573000Y-5665000D02*
X12573000Y-5765000D01*
X12523000Y-5715000D02*
X12623000Y-5715000D01*
X12573000Y-5919000D02*
X12573000Y-6019000D01*
X12523000Y-5969000D02*
X12623000Y-5969000D01*
X12573000Y-6173000D02*
X12573000Y-6273000D01*
X12523000Y-6223000D02*
X12623000Y-6223000D01*
X12573000Y-6427000D02*
X12573000Y-6527000D01*
X12523000Y-6477000D02*
X12623000Y-6477000D01*
X12573000Y-6681000D02*
X12573000Y-6781000D01*
X12523000Y-6731000D02*
X12623000Y-6731000D01*
X12573000Y-6935000D02*
X12573000Y-7035000D01*
X12523000Y-6985000D02*
X12623000Y-6985000D01*
X12573000Y-7189000D02*
X12573000Y-7289000D01*
X12523000Y-7239000D02*
X12623000Y-7239000D01*
X12573000Y-7443000D02*
X12573000Y-7543000D01*
X12523000Y-7493000D02*
X12623000Y-7493000D01*
X12573000Y-7697000D02*
X12573000Y-7797000D01*
X12523000Y-7747000D02*
X12623000Y-7747000D01*
X12573000Y-7951000D02*
X12573000Y-8051000D01*
X12523000Y-8001000D02*
X12623000Y-8001000D01*
X12573000Y-8205000D02*
X12573000Y-8305000D01*
X12523000Y-8255000D02*
X12623000Y-8255000D01*
X12573000Y-8459000D02*
X12573000Y-8559000D01*
X12523000Y-8509000D02*
X12623000Y-8509000D01*
X12573000Y-8713000D02*
X12573000Y-8813000D01*
X12523000Y-8763000D02*
X12623000Y-8763000D01*
X12573000Y-8967000D02*
X12573000Y-9067000D01*
X12523000Y-9017000D02*
X12623000Y-9017000D01*
X12573000Y-9221000D02*
X12573000Y-9321000D01*
X12523000Y-9271000D02*
X12623000Y-9271000D01*
X16127000Y-5411000D02*
X16127000Y-5511000D01*
X16077000Y-5461000D02*
X16177000Y-5461000D01*
X16127000Y-5665000D02*
X16127000Y-5765000D01*
X16077000Y-5715000D02*
X16177000Y-5715000D01*
X16127000Y-5919000D02*
X16127000Y-6019000D01*
X16077000Y-5969000D02*
X16177000Y-5969000D01*
X16127000Y-6173000D02*
X16127000Y-6273000D01*
X16077000Y-6223000D02*
X16177000Y-6223000D01*
X16127000Y-6427000D02*
X16127000Y-6527000D01*
X16077000Y-6477000D02*
X16177000Y-6477000D01*
X16127000Y-6681000D02*
X16127000Y-6781000D01*
X16077000Y-6731000D02*
X16177000Y-6731000D01*
X16127000Y-6935000D02*
X16127000Y-7035000D01*
X16077000Y-6985000D02*
X16177000Y-6985000D01*
X16127000Y-7189000D02*
X16127000Y-7289000D01*
X16077000Y-7239000D02*
X16177000Y-7239000D01*
X16383000Y-5411000D02*
X16383000Y-5511000D01*
X16333000Y-5461000D02*
X16433000Y-5461000D01*
X16383000Y-5665000D02*
X16383000Y-5765000D01*
X16333000Y-5715000D02*
X16433000Y-5715000D01*
X16383000Y-5919000D02*
X16383000Y-6019000D01*
X16333000Y-5969000D02*
X16433000Y-5969000D01*
X16383000Y-6173000D02*
X16383000Y-6273000D01*
X16333000Y-6223000D02*
X16433000Y-6223000D01*
X16383000Y-6427000D02*
X16383000Y-6527000D01*
X16333000Y-6477000D02*
X16433000Y-6477000D01*
X16383000Y-6681000D02*
X16383000Y-6781000D01*
X16333000Y-6731000D02*
X16433000Y-6731000D01*
X16383000Y-6935000D02*
X16383000Y-7035000D01*
X16333000Y-6985000D02*
X16433000Y-6985000D01*
X16383000Y-7189000D02*
X16383000Y-7289000D01*
X16333000Y-7239000D02*
X16433000Y-7239000D01*
X16637000Y-5411000D02*
X16637000Y-5511000D01*
X16587000Y-5461000D02*
X16687000Y-5461000D01*
X16637000Y-5665000D02*
X16637000Y-5765000D01*
X16587000Y-5715000D02*
X16687000Y-5715000D01*
X16637000Y-5919000D02*
X16637000Y-6019000D01*
X16587000Y-5969000D02*
X16687000Y-5969000D01*
X16637000Y-6173000D02*
X16637000Y-6273000D01*
X16587000Y-6223000D02*
X16687000Y-6223000D01*
X16637000Y-6427000D02*
X16637000Y-6527000D01*
X16587000Y-6477000D02*
X16687000Y-6477000D01*
X16637000Y-6681000D02*
X16637000Y-6781000D01*
X16587000Y-6731000D02*
X16687000Y-6731000D01*
X16637000Y-6935000D02*
X16637000Y-7035000D01*
X16587000Y-6985000D02*
X16687000Y-6985000D01*
X16637000Y-7189000D02*
X16637000Y-7289000D01*
X16587000Y-7239000D02*
X16687000Y-7239000D01*
D12*
X13447063Y-4523063D02*
X13447063Y-4450937D01*
X13374937Y-4450937D01*
X13374937Y-4523063D01*
X13447063Y-4523063D01*
X13447063Y-4777063D02*
X13447063Y-4704937D01*
X13374937Y-4704937D01*
X13374937Y-4777063D01*
X13447063Y-4777063D01*
X13447063Y-5031063D02*
X13447063Y-4958937D01*
X13374937Y-4958937D01*
X13374937Y-5031063D01*
X13447063Y-5031063D01*
X13447063Y-5285063D02*
X13447063Y-5212937D01*
X13374937Y-5212937D01*
X13374937Y-5285063D01*
X13447063Y-5285063D01*
X13447063Y-5539063D02*
X13447063Y-5466937D01*
X13374937Y-5466937D01*
X13374937Y-5539063D01*
X13447063Y-5539063D01*
X13447063Y-5793063D02*
X13447063Y-5720937D01*
X13374937Y-5720937D01*
X13374937Y-5793063D01*
X13447063Y-5793063D01*
X13447063Y-6047063D02*
X13447063Y-5974937D01*
X13374937Y-5974937D01*
X13374937Y-6047063D01*
X13447063Y-6047063D01*
X13447063Y-6301063D02*
X13447063Y-6228937D01*
X13374937Y-6228937D01*
X13374937Y-6301063D01*
X13447063Y-6301063D01*
X13447063Y-6555063D02*
X13447063Y-6482937D01*
X13374937Y-6482937D01*
X13374937Y-6555063D01*
X13447063Y-6555063D01*
X13447063Y-6809063D02*
X13447063Y-6736937D01*
X13374937Y-6736937D01*
X13374937Y-6809063D01*
X13447063Y-6809063D01*
X13447063Y-7063063D02*
X13447063Y-6990937D01*
X13374937Y-6990937D01*
X13374937Y-7063063D01*
X13447063Y-7063063D01*
X13447063Y-7317063D02*
X13447063Y-7244937D01*
X13374937Y-7244937D01*
X13374937Y-7317063D01*
X13447063Y-7317063D01*
X13447063Y-7571063D02*
X13447063Y-7498937D01*
X13374937Y-7498937D01*
X13374937Y-7571063D01*
X13447063Y-7571063D01*
X13447063Y-7825063D02*
X13447063Y-7752937D01*
X13374937Y-7752937D01*
X13374937Y-7825063D01*
X13447063Y-7825063D01*
X13447063Y-8079063D02*
X13447063Y-8006937D01*
X13374937Y-8006937D01*
X13374937Y-8079063D01*
X13447063Y-8079063D01*
X13447063Y-8333063D02*
X13447063Y-8260937D01*
X13374937Y-8260937D01*
X13374937Y-8333063D01*
X13447063Y-8333063D01*
X13447063Y-8587063D02*
X13447063Y-8514937D01*
X13374937Y-8514937D01*
X13374937Y-8587063D01*
X13447063Y-8587063D01*
X13447063Y-8841063D02*
X13447063Y-8768937D01*
X13374937Y-8768937D01*
X13374937Y-8841063D01*
X13447063Y-8841063D01*
X13447063Y-9095063D02*
X13447063Y-9022937D01*
X13374937Y-9022937D01*
X13374937Y-9095063D01*
X13447063Y-9095063D01*
X13447063Y-9349063D02*
X13447063Y-9276937D01*
X13374937Y-9276937D01*
X13374937Y-9349063D01*
X13447063Y-9349063D01*
X14082063Y-9326063D02*
X14082063Y-9253937D01*
X14009937Y-9253937D01*
X14009937Y-9326063D01*
X14082063Y-9326063D01*
X14336063Y-9326063D02*
X14336063Y-9253937D01*
X14263937Y-9253937D01*
X14263937Y-9326063D01*
X14336063Y-9326063D01*
X14590063Y-9326063D02*
X14590063Y-9253937D01*
X14517937Y-9253937D01*
X14517937Y-9326063D01*
X14590063Y-9326063D01*
X15225063Y-4523063D02*
X15225063Y-4450937D01*
X15152937Y-4450937D01*
X15152937Y-4523063D01*
X15225063Y-4523063D01*
X15225063Y-4777063D02*
X15225063Y-4704937D01*
X15152937Y-4704937D01*
X15152937Y-4777063D01*
X15225063Y-4777063D01*
X15225063Y-5031063D02*
X15225063Y-4958937D01*
X15152937Y-4958937D01*
X15152937Y-5031063D01*
X15225063Y-5031063D01*
X15225063Y-5285063D02*
X15225063Y-5212937D01*
X15152937Y-5212937D01*
X15152937Y-5285063D01*
X15225063Y-5285063D01*
X15225063Y-5539063D02*
X15225063Y-5466937D01*
X15152937Y-5466937D01*
X15152937Y-5539063D01*
X15225063Y-5539063D01*
X15225063Y-5793063D02*
X15225063Y-5720937D01*
X15152937Y-5720937D01*
X15152937Y-5793063D01*
X15225063Y-5793063D01*
X15225063Y-6047063D02*
X15225063Y-5974937D01*
X15152937Y-5974937D01*
X15152937Y-6047063D01*
X15225063Y-6047063D01*
X15225063Y-6301063D02*
X15225063Y-6228937D01*
X15152937Y-6228937D01*
X15152937Y-6301063D01*
X15225063Y-6301063D01*
X15225063Y-6555063D02*
X15225063Y-6482937D01*
X15152937Y-6482937D01*
X15152937Y-6555063D01*
X15225063Y-6555063D01*
X15225063Y-6809063D02*
X15225063Y-6736937D01*
X15152937Y-6736937D01*
X15152937Y-6809063D01*
X15225063Y-6809063D01*
X15225063Y-7063063D02*
X15225063Y-6990937D01*
X15152937Y-6990937D01*
X15152937Y-7063063D01*
X15225063Y-7063063D01*
X15225063Y-7317063D02*
X15225063Y-7244937D01*
X15152937Y-7244937D01*
X15152937Y-7317063D01*
X15225063Y-7317063D01*
X15225063Y-7571063D02*
X15225063Y-7498937D01*
X15152937Y-7498937D01*
X15152937Y-7571063D01*
X15225063Y-7571063D01*
X15225063Y-7825063D02*
X15225063Y-7752937D01*
X15152937Y-7752937D01*
X15152937Y-7825063D01*
X15225063Y-7825063D01*
X15225063Y-8079063D02*
X15225063Y-8006937D01*
X15152937Y-8006937D01*
X15152937Y-8079063D01*
X15225063Y-8079063D01*
X15225063Y-8333063D02*
X15225063Y-8260937D01*
X15152937Y-8260937D01*
X15152937Y-8333063D01*
X15225063Y-8333063D01*
X15225063Y-8587063D02*
X15225063Y-8514937D01*
X15152937Y-8514937D01*
X15152937Y-8587063D01*
X15225063Y-8587063D01*
X15225063Y-8841063D02*
X15225063Y-8768937D01*
X15152937Y-8768937D01*
X15152937Y-8841063D01*
X15225063Y-8841063D01*
X15225063Y-9095063D02*
X15225063Y-9022937D01*
X15152937Y-9022937D01*
X15152937Y-9095063D01*
X15225063Y-9095063D01*
X15225063Y-9349063D02*
X15225063Y-9276937D01*
X15152937Y-9276937D01*
X15152937Y-9349063D01*
X15225063Y-9349063D01*
D13*
X13900000Y-10151000D02*
X13955000Y-10096000D01*
X13900000Y-10041000D01*
X13845000Y-10096000D01*
X13900000Y-10151000D01*
X13900000Y-10405000D02*
X13955000Y-10350000D01*
X13900000Y-10295000D01*
X13845000Y-10350000D01*
X13900000Y-10405000D01*
X13900000Y-10659000D02*
X13955000Y-10604000D01*
X13900000Y-10549000D01*
X13845000Y-10604000D01*
X13900000Y-10659000D01*
D14*
X11734000Y-10184000D02*
X11866000Y-10316000D01*
X11866000Y-10184000D02*
X11734000Y-10316000D01*
X11866000Y-10250000D02*
G75*
G02*
X11734000Y-10250000I-66000J0D01*
G01*
X11734000Y-10250000D02*
G75*
G02*
X11866000Y-10250000I66000J0D01*
G01*
X12234000Y-10184000D02*
X12366000Y-10316000D01*
X12366000Y-10184000D02*
X12234000Y-10316000D01*
X12366000Y-10250000D02*
G75*
G02*
X12234000Y-10250000I-66000J0D01*
G01*
X12234000Y-10250000D02*
G75*
G02*
X12366000Y-10250000I66000J0D01*
G01*
X12734000Y-10184000D02*
X12866000Y-10316000D01*
X12866000Y-10184000D02*
X12734000Y-10316000D01*
X12866000Y-10250000D02*
G75*
G02*
X12734000Y-10250000I-66000J0D01*
G01*
X12734000Y-10250000D02*
G75*
G02*
X12866000Y-10250000I66000J0D01*
G01*
D11*
X11685777Y-11492484D02*
X11685777Y-11292484D01*
X11685777Y-11292484D02*
X11733396Y-11292484D01*
X11733396Y-11292484D02*
X11761967Y-11302008D01*
X11761967Y-11302008D02*
X11781015Y-11321055D01*
X11781015Y-11321055D02*
X11790539Y-11340103D01*
X11790539Y-11340103D02*
X11800062Y-11378198D01*
X11800062Y-11378198D02*
X11800062Y-11406769D01*
X11800062Y-11406769D02*
X11790539Y-11444865D01*
X11790539Y-11444865D02*
X11781015Y-11463912D01*
X11781015Y-11463912D02*
X11761967Y-11482960D01*
X11761967Y-11482960D02*
X11733396Y-11492484D01*
X11733396Y-11492484D02*
X11685777Y-11492484D01*
X11885777Y-11492484D02*
X11885777Y-11359150D01*
X11885777Y-11397246D02*
X11895301Y-11378198D01*
X11895301Y-11378198D02*
X11904824Y-11368674D01*
X11904824Y-11368674D02*
X11923872Y-11359150D01*
X11923872Y-11359150D02*
X11942920Y-11359150D01*
X12009586Y-11492484D02*
X12009586Y-11359150D01*
X12009586Y-11292484D02*
X12000062Y-11302008D01*
X12000062Y-11302008D02*
X12009586Y-11311531D01*
X12009586Y-11311531D02*
X12019110Y-11302008D01*
X12019110Y-11302008D02*
X12009586Y-11292484D01*
X12009586Y-11292484D02*
X12009586Y-11311531D01*
X12133396Y-11492484D02*
X12114348Y-11482960D01*
X12114348Y-11482960D02*
X12104824Y-11463912D01*
X12104824Y-11463912D02*
X12104824Y-11292484D01*
X12238158Y-11492484D02*
X12219110Y-11482960D01*
X12219110Y-11482960D02*
X12209586Y-11463912D01*
X12209586Y-11463912D02*
X12209586Y-11292484D01*
X12466729Y-11492484D02*
X12466729Y-11292484D01*
X12466729Y-11292484D02*
X12533396Y-11435341D01*
X12533396Y-11435341D02*
X12600062Y-11292484D01*
X12600062Y-11292484D02*
X12600062Y-11492484D01*
X12781015Y-11492484D02*
X12781015Y-11387722D01*
X12781015Y-11387722D02*
X12771491Y-11368674D01*
X12771491Y-11368674D02*
X12752443Y-11359150D01*
X12752443Y-11359150D02*
X12714348Y-11359150D01*
X12714348Y-11359150D02*
X12695301Y-11368674D01*
X12781015Y-11482960D02*
X12761967Y-11492484D01*
X12761967Y-11492484D02*
X12714348Y-11492484D01*
X12714348Y-11492484D02*
X12695301Y-11482960D01*
X12695301Y-11482960D02*
X12685777Y-11463912D01*
X12685777Y-11463912D02*
X12685777Y-11444865D01*
X12685777Y-11444865D02*
X12695301Y-11425817D01*
X12695301Y-11425817D02*
X12714348Y-11416293D01*
X12714348Y-11416293D02*
X12761967Y-11416293D01*
X12761967Y-11416293D02*
X12781015Y-11406769D01*
X12876253Y-11359150D02*
X12876253Y-11559150D01*
X12876253Y-11368674D02*
X12895301Y-11359150D01*
X12895301Y-11359150D02*
X12933396Y-11359150D01*
X12933396Y-11359150D02*
X12952443Y-11368674D01*
X12952443Y-11368674D02*
X12961967Y-11378198D01*
X12961967Y-11378198D02*
X12971491Y-11397246D01*
X12971491Y-11397246D02*
X12971491Y-11454388D01*
X12971491Y-11454388D02*
X12961967Y-11473436D01*
X12961967Y-11473436D02*
X12952443Y-11482960D01*
X12952443Y-11482960D02*
X12933396Y-11492484D01*
X12933396Y-11492484D02*
X12895301Y-11492484D01*
X12895301Y-11492484D02*
X12876253Y-11482960D01*
X13057205Y-11473436D02*
X13066729Y-11482960D01*
X13066729Y-11482960D02*
X13057205Y-11492484D01*
X13057205Y-11492484D02*
X13047682Y-11482960D01*
X13047682Y-11482960D02*
X13057205Y-11473436D01*
X13057205Y-11473436D02*
X13057205Y-11492484D01*
X13057205Y-11368674D02*
X13066729Y-11378198D01*
X13066729Y-11378198D02*
X13057205Y-11387722D01*
X13057205Y-11387722D02*
X13047682Y-11378198D01*
X13047682Y-11378198D02*
X13057205Y-11368674D01*
X13057205Y-11368674D02*
X13057205Y-11387722D01*
D10*
X11385000Y-11801000D02*
X11425000Y-11841000D01*
X11425000Y-11801000D02*
X11385000Y-11841000D01*
D11*
X11723872Y-11712484D02*
X11742920Y-11712484D01*
X11742920Y-11712484D02*
X11761967Y-11722008D01*
X11761967Y-11722008D02*
X11771491Y-11731531D01*
X11771491Y-11731531D02*
X11781015Y-11750579D01*
X11781015Y-11750579D02*
X11790539Y-11788674D01*
X11790539Y-11788674D02*
X11790539Y-11836293D01*
X11790539Y-11836293D02*
X11781015Y-11874388D01*
X11781015Y-11874388D02*
X11771491Y-11893436D01*
X11771491Y-11893436D02*
X11761967Y-11902960D01*
X11761967Y-11902960D02*
X11742920Y-11912484D01*
X11742920Y-11912484D02*
X11723872Y-11912484D01*
X11723872Y-11912484D02*
X11704824Y-11902960D01*
X11704824Y-11902960D02*
X11695301Y-11893436D01*
X11695301Y-11893436D02*
X11685777Y-11874388D01*
X11685777Y-11874388D02*
X11676253Y-11836293D01*
X11676253Y-11836293D02*
X11676253Y-11788674D01*
X11676253Y-11788674D02*
X11685777Y-11750579D01*
X11685777Y-11750579D02*
X11695301Y-11731531D01*
X11695301Y-11731531D02*
X11704824Y-11722008D01*
X11704824Y-11722008D02*
X11723872Y-11712484D01*
X11876253Y-11893436D02*
X11885777Y-11902960D01*
X11885777Y-11902960D02*
X11876253Y-11912484D01*
X11876253Y-11912484D02*
X11866729Y-11902960D01*
X11866729Y-11902960D02*
X11876253Y-11893436D01*
X11876253Y-11893436D02*
X11876253Y-11912484D01*
X12057205Y-11779150D02*
X12057205Y-11912484D01*
X12009586Y-11702960D02*
X11961967Y-11845817D01*
X11961967Y-11845817D02*
X12085777Y-11845817D01*
X12200062Y-11712484D02*
X12219110Y-11712484D01*
X12219110Y-11712484D02*
X12238158Y-11722008D01*
X12238158Y-11722008D02*
X12247682Y-11731531D01*
X12247682Y-11731531D02*
X12257205Y-11750579D01*
X12257205Y-11750579D02*
X12266729Y-11788674D01*
X12266729Y-11788674D02*
X12266729Y-11836293D01*
X12266729Y-11836293D02*
X12257205Y-11874388D01*
X12257205Y-11874388D02*
X12247682Y-11893436D01*
X12247682Y-11893436D02*
X12238158Y-11902960D01*
X12238158Y-11902960D02*
X12219110Y-11912484D01*
X12219110Y-11912484D02*
X12200062Y-11912484D01*
X12200062Y-11912484D02*
X12181015Y-11902960D01*
X12181015Y-11902960D02*
X12171491Y-11893436D01*
X12171491Y-11893436D02*
X12161967Y-11874388D01*
X12161967Y-11874388D02*
X12152443Y-11836293D01*
X12152443Y-11836293D02*
X12152443Y-11788674D01*
X12152443Y-11788674D02*
X12161967Y-11750579D01*
X12161967Y-11750579D02*
X12171491Y-11731531D01*
X12171491Y-11731531D02*
X12181015Y-11722008D01*
X12181015Y-11722008D02*
X12200062Y-11712484D01*
X12390539Y-11712484D02*
X12409586Y-11712484D01*
X12409586Y-11712484D02*
X12428634Y-11722008D01*
X12428634Y-11722008D02*
X12438158Y-11731531D01*
X12438158Y-11731531D02*
X12447682Y-11750579D01*
X12447682Y-11750579D02*
X12457205Y-11788674D01*
X12457205Y-11788674D02*
X12457205Y-11836293D01*
X12457205Y-11836293D02*
X12447682Y-11874388D01*
X12447682Y-11874388D02*
X12438158Y-11893436D01*
X12438158Y-11893436D02*
X12428634Y-11902960D01*
X12428634Y-11902960D02*
X12409586Y-11912484D01*
X12409586Y-11912484D02*
X12390539Y-11912484D01*
X12390539Y-11912484D02*
X12371491Y-11902960D01*
X12371491Y-11902960D02*
X12361967Y-11893436D01*
X12361967Y-11893436D02*
X12352443Y-11874388D01*
X12352443Y-11874388D02*
X12342920Y-11836293D01*
X12342920Y-11836293D02*
X12342920Y-11788674D01*
X12342920Y-11788674D02*
X12352443Y-11750579D01*
X12352443Y-11750579D02*
X12361967Y-11731531D01*
X12361967Y-11731531D02*
X12371491Y-11722008D01*
X12371491Y-11722008D02*
X12390539Y-11712484D01*
X12542920Y-11912484D02*
X12542920Y-11779150D01*
X12542920Y-11798198D02*
X12552443Y-11788674D01*
X12552443Y-11788674D02*
X12571491Y-11779150D01*
X12571491Y-11779150D02*
X12600063Y-11779150D01*
X12600063Y-11779150D02*
X12619110Y-11788674D01*
X12619110Y-11788674D02*
X12628634Y-11807722D01*
X12628634Y-11807722D02*
X12628634Y-11912484D01*
X12628634Y-11807722D02*
X12638158Y-11788674D01*
X12638158Y-11788674D02*
X12657205Y-11779150D01*
X12657205Y-11779150D02*
X12685777Y-11779150D01*
X12685777Y-11779150D02*
X12704824Y-11788674D01*
X12704824Y-11788674D02*
X12714348Y-11807722D01*
X12714348Y-11807722D02*
X12714348Y-11912484D01*
X12809586Y-11912484D02*
X12809586Y-11779150D01*
X12809586Y-11798198D02*
X12819110Y-11788674D01*
X12819110Y-11788674D02*
X12838158Y-11779150D01*
X12838158Y-11779150D02*
X12866729Y-11779150D01*
X12866729Y-11779150D02*
X12885777Y-11788674D01*
X12885777Y-11788674D02*
X12895301Y-11807722D01*
X12895301Y-11807722D02*
X12895301Y-11912484D01*
X12895301Y-11807722D02*
X12904824Y-11788674D01*
X12904824Y-11788674D02*
X12923872Y-11779150D01*
X12923872Y-11779150D02*
X12952443Y-11779150D01*
X12952443Y-11779150D02*
X12971491Y-11788674D01*
X12971491Y-11788674D02*
X12981015Y-11807722D01*
X12981015Y-11807722D02*
X12981015Y-11912484D01*
X13371491Y-11702960D02*
X13200063Y-11960103D01*
X13628634Y-11712484D02*
X13647682Y-11712484D01*
X13647682Y-11712484D02*
X13666729Y-11722008D01*
X13666729Y-11722008D02*
X13676253Y-11731531D01*
X13676253Y-11731531D02*
X13685777Y-11750579D01*
X13685777Y-11750579D02*
X13695301Y-11788674D01*
X13695301Y-11788674D02*
X13695301Y-11836293D01*
X13695301Y-11836293D02*
X13685777Y-11874388D01*
X13685777Y-11874388D02*
X13676253Y-11893436D01*
X13676253Y-11893436D02*
X13666729Y-11902960D01*
X13666729Y-11902960D02*
X13647682Y-11912484D01*
X13647682Y-11912484D02*
X13628634Y-11912484D01*
X13628634Y-11912484D02*
X13609586Y-11902960D01*
X13609586Y-11902960D02*
X13600063Y-11893436D01*
X13600063Y-11893436D02*
X13590539Y-11874388D01*
X13590539Y-11874388D02*
X13581015Y-11836293D01*
X13581015Y-11836293D02*
X13581015Y-11788674D01*
X13581015Y-11788674D02*
X13590539Y-11750579D01*
X13590539Y-11750579D02*
X13600063Y-11731531D01*
X13600063Y-11731531D02*
X13609586Y-11722008D01*
X13609586Y-11722008D02*
X13628634Y-11712484D01*
X13781015Y-11893436D02*
X13790539Y-11902960D01*
X13790539Y-11902960D02*
X13781015Y-11912484D01*
X13781015Y-11912484D02*
X13771491Y-11902960D01*
X13771491Y-11902960D02*
X13781015Y-11893436D01*
X13781015Y-11893436D02*
X13781015Y-11912484D01*
X13914348Y-11712484D02*
X13933396Y-11712484D01*
X13933396Y-11712484D02*
X13952444Y-11722008D01*
X13952444Y-11722008D02*
X13961967Y-11731531D01*
X13961967Y-11731531D02*
X13971491Y-11750579D01*
X13971491Y-11750579D02*
X13981015Y-11788674D01*
X13981015Y-11788674D02*
X13981015Y-11836293D01*
X13981015Y-11836293D02*
X13971491Y-11874388D01*
X13971491Y-11874388D02*
X13961967Y-11893436D01*
X13961967Y-11893436D02*
X13952444Y-11902960D01*
X13952444Y-11902960D02*
X13933396Y-11912484D01*
X13933396Y-11912484D02*
X13914348Y-11912484D01*
X13914348Y-11912484D02*
X13895301Y-11902960D01*
X13895301Y-11902960D02*
X13885777Y-11893436D01*
X13885777Y-11893436D02*
X13876253Y-11874388D01*
X13876253Y-11874388D02*
X13866729Y-11836293D01*
X13866729Y-11836293D02*
X13866729Y-11788674D01*
X13866729Y-11788674D02*
X13876253Y-11750579D01*
X13876253Y-11750579D02*
X13885777Y-11731531D01*
X13885777Y-11731531D02*
X13895301Y-11722008D01*
X13895301Y-11722008D02*
X13914348Y-11712484D01*
X14171491Y-11912484D02*
X14057206Y-11912484D01*
X14114348Y-11912484D02*
X14114348Y-11712484D01*
X14114348Y-11712484D02*
X14095301Y-11741055D01*
X14095301Y-11741055D02*
X14076253Y-11760103D01*
X14076253Y-11760103D02*
X14057206Y-11769627D01*
X14352444Y-11712484D02*
X14257206Y-11712484D01*
X14257206Y-11712484D02*
X14247682Y-11807722D01*
X14247682Y-11807722D02*
X14257206Y-11798198D01*
X14257206Y-11798198D02*
X14276253Y-11788674D01*
X14276253Y-11788674D02*
X14323872Y-11788674D01*
X14323872Y-11788674D02*
X14342920Y-11798198D01*
X14342920Y-11798198D02*
X14352444Y-11807722D01*
X14352444Y-11807722D02*
X14361967Y-11826769D01*
X14361967Y-11826769D02*
X14361967Y-11874388D01*
X14361967Y-11874388D02*
X14352444Y-11893436D01*
X14352444Y-11893436D02*
X14342920Y-11902960D01*
X14342920Y-11902960D02*
X14323872Y-11912484D01*
X14323872Y-11912484D02*
X14276253Y-11912484D01*
X14276253Y-11912484D02*
X14257206Y-11902960D01*
X14257206Y-11902960D02*
X14247682Y-11893436D01*
X14428634Y-11712484D02*
X14561967Y-11712484D01*
X14561967Y-11712484D02*
X14476253Y-11912484D01*
X14628634Y-11712484D02*
X14628634Y-11750579D01*
X14704825Y-11712484D02*
X14704825Y-11750579D01*
X15000063Y-11988674D02*
X14990539Y-11979150D01*
X14990539Y-11979150D02*
X14971491Y-11950579D01*
X14971491Y-11950579D02*
X14961968Y-11931531D01*
X14961968Y-11931531D02*
X14952444Y-11902960D01*
X14952444Y-11902960D02*
X14942920Y-11855341D01*
X14942920Y-11855341D02*
X14942920Y-11817246D01*
X14942920Y-11817246D02*
X14952444Y-11769627D01*
X14952444Y-11769627D02*
X14961968Y-11741055D01*
X14961968Y-11741055D02*
X14971491Y-11722008D01*
X14971491Y-11722008D02*
X14990539Y-11693436D01*
X14990539Y-11693436D02*
X15000063Y-11683912D01*
X15066729Y-11731531D02*
X15076253Y-11722008D01*
X15076253Y-11722008D02*
X15095301Y-11712484D01*
X15095301Y-11712484D02*
X15142920Y-11712484D01*
X15142920Y-11712484D02*
X15161968Y-11722008D01*
X15161968Y-11722008D02*
X15171491Y-11731531D01*
X15171491Y-11731531D02*
X15181015Y-11750579D01*
X15181015Y-11750579D02*
X15181015Y-11769627D01*
X15181015Y-11769627D02*
X15171491Y-11798198D01*
X15171491Y-11798198D02*
X15057206Y-11912484D01*
X15057206Y-11912484D02*
X15181015Y-11912484D01*
X15419110Y-11912484D02*
X15419110Y-11712484D01*
X15504825Y-11912484D02*
X15504825Y-11807722D01*
X15504825Y-11807722D02*
X15495301Y-11788674D01*
X15495301Y-11788674D02*
X15476253Y-11779150D01*
X15476253Y-11779150D02*
X15447682Y-11779150D01*
X15447682Y-11779150D02*
X15428634Y-11788674D01*
X15428634Y-11788674D02*
X15419110Y-11798198D01*
X15628634Y-11912484D02*
X15609587Y-11902960D01*
X15609587Y-11902960D02*
X15600063Y-11893436D01*
X15600063Y-11893436D02*
X15590539Y-11874388D01*
X15590539Y-11874388D02*
X15590539Y-11817246D01*
X15590539Y-11817246D02*
X15600063Y-11798198D01*
X15600063Y-11798198D02*
X15609587Y-11788674D01*
X15609587Y-11788674D02*
X15628634Y-11779150D01*
X15628634Y-11779150D02*
X15657206Y-11779150D01*
X15657206Y-11779150D02*
X15676253Y-11788674D01*
X15676253Y-11788674D02*
X15685777Y-11798198D01*
X15685777Y-11798198D02*
X15695301Y-11817246D01*
X15695301Y-11817246D02*
X15695301Y-11874388D01*
X15695301Y-11874388D02*
X15685777Y-11893436D01*
X15685777Y-11893436D02*
X15676253Y-11902960D01*
X15676253Y-11902960D02*
X15657206Y-11912484D01*
X15657206Y-11912484D02*
X15628634Y-11912484D01*
X15809587Y-11912484D02*
X15790539Y-11902960D01*
X15790539Y-11902960D02*
X15781015Y-11883912D01*
X15781015Y-11883912D02*
X15781015Y-11712484D01*
X15961968Y-11902960D02*
X15942920Y-11912484D01*
X15942920Y-11912484D02*
X15904825Y-11912484D01*
X15904825Y-11912484D02*
X15885777Y-11902960D01*
X15885777Y-11902960D02*
X15876253Y-11883912D01*
X15876253Y-11883912D02*
X15876253Y-11807722D01*
X15876253Y-11807722D02*
X15885777Y-11788674D01*
X15885777Y-11788674D02*
X15904825Y-11779150D01*
X15904825Y-11779150D02*
X15942920Y-11779150D01*
X15942920Y-11779150D02*
X15961968Y-11788674D01*
X15961968Y-11788674D02*
X15971491Y-11807722D01*
X15971491Y-11807722D02*
X15971491Y-11826769D01*
X15971491Y-11826769D02*
X15876253Y-11845817D01*
X16047682Y-11902960D02*
X16066730Y-11912484D01*
X16066730Y-11912484D02*
X16104825Y-11912484D01*
X16104825Y-11912484D02*
X16123872Y-11902960D01*
X16123872Y-11902960D02*
X16133396Y-11883912D01*
X16133396Y-11883912D02*
X16133396Y-11874388D01*
X16133396Y-11874388D02*
X16123872Y-11855341D01*
X16123872Y-11855341D02*
X16104825Y-11845817D01*
X16104825Y-11845817D02*
X16076253Y-11845817D01*
X16076253Y-11845817D02*
X16057206Y-11836293D01*
X16057206Y-11836293D02*
X16047682Y-11817246D01*
X16047682Y-11817246D02*
X16047682Y-11807722D01*
X16047682Y-11807722D02*
X16057206Y-11788674D01*
X16057206Y-11788674D02*
X16076253Y-11779150D01*
X16076253Y-11779150D02*
X16104825Y-11779150D01*
X16104825Y-11779150D02*
X16123872Y-11788674D01*
X16200063Y-11988674D02*
X16209587Y-11979150D01*
X16209587Y-11979150D02*
X16228634Y-11950579D01*
X16228634Y-11950579D02*
X16238158Y-11931531D01*
X16238158Y-11931531D02*
X16247682Y-11902960D01*
X16247682Y-11902960D02*
X16257206Y-11855341D01*
X16257206Y-11855341D02*
X16257206Y-11817246D01*
X16257206Y-11817246D02*
X16247682Y-11769627D01*
X16247682Y-11769627D02*
X16238158Y-11741055D01*
X16238158Y-11741055D02*
X16228634Y-11722008D01*
X16228634Y-11722008D02*
X16209587Y-11693436D01*
X16209587Y-11693436D02*
X16200063Y-11683912D01*
D10*
X11425000Y-12085000D02*
G75*
G02*
X11350000Y-12085000I-37500J0D01*
G01*
X11350000Y-12085000D02*
G75*
G02*
X11425000Y-12085000I37500J0D01*
G01*
D11*
X11723872Y-11976484D02*
X11742920Y-11976484D01*
X11742920Y-11976484D02*
X11761967Y-11986008D01*
X11761967Y-11986008D02*
X11771491Y-11995531D01*
X11771491Y-11995531D02*
X11781015Y-12014579D01*
X11781015Y-12014579D02*
X11790539Y-12052674D01*
X11790539Y-12052674D02*
X11790539Y-12100293D01*
X11790539Y-12100293D02*
X11781015Y-12138388D01*
X11781015Y-12138388D02*
X11771491Y-12157436D01*
X11771491Y-12157436D02*
X11761967Y-12166960D01*
X11761967Y-12166960D02*
X11742920Y-12176484D01*
X11742920Y-12176484D02*
X11723872Y-12176484D01*
X11723872Y-12176484D02*
X11704824Y-12166960D01*
X11704824Y-12166960D02*
X11695301Y-12157436D01*
X11695301Y-12157436D02*
X11685777Y-12138388D01*
X11685777Y-12138388D02*
X11676253Y-12100293D01*
X11676253Y-12100293D02*
X11676253Y-12052674D01*
X11676253Y-12052674D02*
X11685777Y-12014579D01*
X11685777Y-12014579D02*
X11695301Y-11995531D01*
X11695301Y-11995531D02*
X11704824Y-11986008D01*
X11704824Y-11986008D02*
X11723872Y-11976484D01*
X11876253Y-12157436D02*
X11885777Y-12166960D01*
X11885777Y-12166960D02*
X11876253Y-12176484D01*
X11876253Y-12176484D02*
X11866729Y-12166960D01*
X11866729Y-12166960D02*
X11876253Y-12157436D01*
X11876253Y-12157436D02*
X11876253Y-12176484D01*
X11952443Y-11976484D02*
X12085777Y-11976484D01*
X12085777Y-11976484D02*
X12000062Y-12176484D01*
X12257205Y-11976484D02*
X12161967Y-11976484D01*
X12161967Y-11976484D02*
X12152443Y-12071722D01*
X12152443Y-12071722D02*
X12161967Y-12062198D01*
X12161967Y-12062198D02*
X12181015Y-12052674D01*
X12181015Y-12052674D02*
X12228634Y-12052674D01*
X12228634Y-12052674D02*
X12247682Y-12062198D01*
X12247682Y-12062198D02*
X12257205Y-12071722D01*
X12257205Y-12071722D02*
X12266729Y-12090769D01*
X12266729Y-12090769D02*
X12266729Y-12138388D01*
X12266729Y-12138388D02*
X12257205Y-12157436D01*
X12257205Y-12157436D02*
X12247682Y-12166960D01*
X12247682Y-12166960D02*
X12228634Y-12176484D01*
X12228634Y-12176484D02*
X12181015Y-12176484D01*
X12181015Y-12176484D02*
X12161967Y-12166960D01*
X12161967Y-12166960D02*
X12152443Y-12157436D01*
X12390539Y-11976484D02*
X12409586Y-11976484D01*
X12409586Y-11976484D02*
X12428634Y-11986008D01*
X12428634Y-11986008D02*
X12438158Y-11995531D01*
X12438158Y-11995531D02*
X12447682Y-12014579D01*
X12447682Y-12014579D02*
X12457205Y-12052674D01*
X12457205Y-12052674D02*
X12457205Y-12100293D01*
X12457205Y-12100293D02*
X12447682Y-12138388D01*
X12447682Y-12138388D02*
X12438158Y-12157436D01*
X12438158Y-12157436D02*
X12428634Y-12166960D01*
X12428634Y-12166960D02*
X12409586Y-12176484D01*
X12409586Y-12176484D02*
X12390539Y-12176484D01*
X12390539Y-12176484D02*
X12371491Y-12166960D01*
X12371491Y-12166960D02*
X12361967Y-12157436D01*
X12361967Y-12157436D02*
X12352443Y-12138388D01*
X12352443Y-12138388D02*
X12342920Y-12100293D01*
X12342920Y-12100293D02*
X12342920Y-12052674D01*
X12342920Y-12052674D02*
X12352443Y-12014579D01*
X12352443Y-12014579D02*
X12361967Y-11995531D01*
X12361967Y-11995531D02*
X12371491Y-11986008D01*
X12371491Y-11986008D02*
X12390539Y-11976484D01*
X12542920Y-12176484D02*
X12542920Y-12043150D01*
X12542920Y-12062198D02*
X12552443Y-12052674D01*
X12552443Y-12052674D02*
X12571491Y-12043150D01*
X12571491Y-12043150D02*
X12600063Y-12043150D01*
X12600063Y-12043150D02*
X12619110Y-12052674D01*
X12619110Y-12052674D02*
X12628634Y-12071722D01*
X12628634Y-12071722D02*
X12628634Y-12176484D01*
X12628634Y-12071722D02*
X12638158Y-12052674D01*
X12638158Y-12052674D02*
X12657205Y-12043150D01*
X12657205Y-12043150D02*
X12685777Y-12043150D01*
X12685777Y-12043150D02*
X12704824Y-12052674D01*
X12704824Y-12052674D02*
X12714348Y-12071722D01*
X12714348Y-12071722D02*
X12714348Y-12176484D01*
X12809586Y-12176484D02*
X12809586Y-12043150D01*
X12809586Y-12062198D02*
X12819110Y-12052674D01*
X12819110Y-12052674D02*
X12838158Y-12043150D01*
X12838158Y-12043150D02*
X12866729Y-12043150D01*
X12866729Y-12043150D02*
X12885777Y-12052674D01*
X12885777Y-12052674D02*
X12895301Y-12071722D01*
X12895301Y-12071722D02*
X12895301Y-12176484D01*
X12895301Y-12071722D02*
X12904824Y-12052674D01*
X12904824Y-12052674D02*
X12923872Y-12043150D01*
X12923872Y-12043150D02*
X12952443Y-12043150D01*
X12952443Y-12043150D02*
X12971491Y-12052674D01*
X12971491Y-12052674D02*
X12981015Y-12071722D01*
X12981015Y-12071722D02*
X12981015Y-12176484D01*
X13371491Y-11966960D02*
X13200063Y-12224103D01*
X13628634Y-11976484D02*
X13647682Y-11976484D01*
X13647682Y-11976484D02*
X13666729Y-11986008D01*
X13666729Y-11986008D02*
X13676253Y-11995531D01*
X13676253Y-11995531D02*
X13685777Y-12014579D01*
X13685777Y-12014579D02*
X13695301Y-12052674D01*
X13695301Y-12052674D02*
X13695301Y-12100293D01*
X13695301Y-12100293D02*
X13685777Y-12138388D01*
X13685777Y-12138388D02*
X13676253Y-12157436D01*
X13676253Y-12157436D02*
X13666729Y-12166960D01*
X13666729Y-12166960D02*
X13647682Y-12176484D01*
X13647682Y-12176484D02*
X13628634Y-12176484D01*
X13628634Y-12176484D02*
X13609586Y-12166960D01*
X13609586Y-12166960D02*
X13600063Y-12157436D01*
X13600063Y-12157436D02*
X13590539Y-12138388D01*
X13590539Y-12138388D02*
X13581015Y-12100293D01*
X13581015Y-12100293D02*
X13581015Y-12052674D01*
X13581015Y-12052674D02*
X13590539Y-12014579D01*
X13590539Y-12014579D02*
X13600063Y-11995531D01*
X13600063Y-11995531D02*
X13609586Y-11986008D01*
X13609586Y-11986008D02*
X13628634Y-11976484D01*
X13781015Y-12157436D02*
X13790539Y-12166960D01*
X13790539Y-12166960D02*
X13781015Y-12176484D01*
X13781015Y-12176484D02*
X13771491Y-12166960D01*
X13771491Y-12166960D02*
X13781015Y-12157436D01*
X13781015Y-12157436D02*
X13781015Y-12176484D01*
X13914348Y-11976484D02*
X13933396Y-11976484D01*
X13933396Y-11976484D02*
X13952444Y-11986008D01*
X13952444Y-11986008D02*
X13961967Y-11995531D01*
X13961967Y-11995531D02*
X13971491Y-12014579D01*
X13971491Y-12014579D02*
X13981015Y-12052674D01*
X13981015Y-12052674D02*
X13981015Y-12100293D01*
X13981015Y-12100293D02*
X13971491Y-12138388D01*
X13971491Y-12138388D02*
X13961967Y-12157436D01*
X13961967Y-12157436D02*
X13952444Y-12166960D01*
X13952444Y-12166960D02*
X13933396Y-12176484D01*
X13933396Y-12176484D02*
X13914348Y-12176484D01*
X13914348Y-12176484D02*
X13895301Y-12166960D01*
X13895301Y-12166960D02*
X13885777Y-12157436D01*
X13885777Y-12157436D02*
X13876253Y-12138388D01*
X13876253Y-12138388D02*
X13866729Y-12100293D01*
X13866729Y-12100293D02*
X13866729Y-12052674D01*
X13866729Y-12052674D02*
X13876253Y-12014579D01*
X13876253Y-12014579D02*
X13885777Y-11995531D01*
X13885777Y-11995531D02*
X13895301Y-11986008D01*
X13895301Y-11986008D02*
X13914348Y-11976484D01*
X14057206Y-11995531D02*
X14066729Y-11986008D01*
X14066729Y-11986008D02*
X14085777Y-11976484D01*
X14085777Y-11976484D02*
X14133396Y-11976484D01*
X14133396Y-11976484D02*
X14152444Y-11986008D01*
X14152444Y-11986008D02*
X14161967Y-11995531D01*
X14161967Y-11995531D02*
X14171491Y-12014579D01*
X14171491Y-12014579D02*
X14171491Y-12033627D01*
X14171491Y-12033627D02*
X14161967Y-12062198D01*
X14161967Y-12062198D02*
X14047682Y-12176484D01*
X14047682Y-12176484D02*
X14171491Y-12176484D01*
X14266729Y-12176484D02*
X14304825Y-12176484D01*
X14304825Y-12176484D02*
X14323872Y-12166960D01*
X14323872Y-12166960D02*
X14333396Y-12157436D01*
X14333396Y-12157436D02*
X14352444Y-12128865D01*
X14352444Y-12128865D02*
X14361967Y-12090769D01*
X14361967Y-12090769D02*
X14361967Y-12014579D01*
X14361967Y-12014579D02*
X14352444Y-11995531D01*
X14352444Y-11995531D02*
X14342920Y-11986008D01*
X14342920Y-11986008D02*
X14323872Y-11976484D01*
X14323872Y-11976484D02*
X14285777Y-11976484D01*
X14285777Y-11976484D02*
X14266729Y-11986008D01*
X14266729Y-11986008D02*
X14257206Y-11995531D01*
X14257206Y-11995531D02*
X14247682Y-12014579D01*
X14247682Y-12014579D02*
X14247682Y-12062198D01*
X14247682Y-12062198D02*
X14257206Y-12081246D01*
X14257206Y-12081246D02*
X14266729Y-12090769D01*
X14266729Y-12090769D02*
X14285777Y-12100293D01*
X14285777Y-12100293D02*
X14323872Y-12100293D01*
X14323872Y-12100293D02*
X14342920Y-12090769D01*
X14342920Y-12090769D02*
X14352444Y-12081246D01*
X14352444Y-12081246D02*
X14361967Y-12062198D01*
X14542920Y-11976484D02*
X14447682Y-11976484D01*
X14447682Y-11976484D02*
X14438158Y-12071722D01*
X14438158Y-12071722D02*
X14447682Y-12062198D01*
X14447682Y-12062198D02*
X14466729Y-12052674D01*
X14466729Y-12052674D02*
X14514348Y-12052674D01*
X14514348Y-12052674D02*
X14533396Y-12062198D01*
X14533396Y-12062198D02*
X14542920Y-12071722D01*
X14542920Y-12071722D02*
X14552444Y-12090769D01*
X14552444Y-12090769D02*
X14552444Y-12138388D01*
X14552444Y-12138388D02*
X14542920Y-12157436D01*
X14542920Y-12157436D02*
X14533396Y-12166960D01*
X14533396Y-12166960D02*
X14514348Y-12176484D01*
X14514348Y-12176484D02*
X14466729Y-12176484D01*
X14466729Y-12176484D02*
X14447682Y-12166960D01*
X14447682Y-12166960D02*
X14438158Y-12157436D01*
X14628634Y-11976484D02*
X14628634Y-12014579D01*
X14704825Y-11976484D02*
X14704825Y-12014579D01*
X15000063Y-12252674D02*
X14990539Y-12243150D01*
X14990539Y-12243150D02*
X14971491Y-12214579D01*
X14971491Y-12214579D02*
X14961968Y-12195531D01*
X14961968Y-12195531D02*
X14952444Y-12166960D01*
X14952444Y-12166960D02*
X14942920Y-12119341D01*
X14942920Y-12119341D02*
X14942920Y-12081246D01*
X14942920Y-12081246D02*
X14952444Y-12033627D01*
X14952444Y-12033627D02*
X14961968Y-12005055D01*
X14961968Y-12005055D02*
X14971491Y-11986008D01*
X14971491Y-11986008D02*
X14990539Y-11957436D01*
X14990539Y-11957436D02*
X15000063Y-11947912D01*
X15161968Y-11976484D02*
X15123872Y-11976484D01*
X15123872Y-11976484D02*
X15104825Y-11986008D01*
X15104825Y-11986008D02*
X15095301Y-11995531D01*
X15095301Y-11995531D02*
X15076253Y-12024103D01*
X15076253Y-12024103D02*
X15066729Y-12062198D01*
X15066729Y-12062198D02*
X15066729Y-12138388D01*
X15066729Y-12138388D02*
X15076253Y-12157436D01*
X15076253Y-12157436D02*
X15085777Y-12166960D01*
X15085777Y-12166960D02*
X15104825Y-12176484D01*
X15104825Y-12176484D02*
X15142920Y-12176484D01*
X15142920Y-12176484D02*
X15161968Y-12166960D01*
X15161968Y-12166960D02*
X15171491Y-12157436D01*
X15171491Y-12157436D02*
X15181015Y-12138388D01*
X15181015Y-12138388D02*
X15181015Y-12090769D01*
X15181015Y-12090769D02*
X15171491Y-12071722D01*
X15171491Y-12071722D02*
X15161968Y-12062198D01*
X15161968Y-12062198D02*
X15142920Y-12052674D01*
X15142920Y-12052674D02*
X15104825Y-12052674D01*
X15104825Y-12052674D02*
X15085777Y-12062198D01*
X15085777Y-12062198D02*
X15076253Y-12071722D01*
X15076253Y-12071722D02*
X15066729Y-12090769D01*
X15419110Y-12176484D02*
X15419110Y-11976484D01*
X15504825Y-12176484D02*
X15504825Y-12071722D01*
X15504825Y-12071722D02*
X15495301Y-12052674D01*
X15495301Y-12052674D02*
X15476253Y-12043150D01*
X15476253Y-12043150D02*
X15447682Y-12043150D01*
X15447682Y-12043150D02*
X15428634Y-12052674D01*
X15428634Y-12052674D02*
X15419110Y-12062198D01*
X15628634Y-12176484D02*
X15609587Y-12166960D01*
X15609587Y-12166960D02*
X15600063Y-12157436D01*
X15600063Y-12157436D02*
X15590539Y-12138388D01*
X15590539Y-12138388D02*
X15590539Y-12081246D01*
X15590539Y-12081246D02*
X15600063Y-12062198D01*
X15600063Y-12062198D02*
X15609587Y-12052674D01*
X15609587Y-12052674D02*
X15628634Y-12043150D01*
X15628634Y-12043150D02*
X15657206Y-12043150D01*
X15657206Y-12043150D02*
X15676253Y-12052674D01*
X15676253Y-12052674D02*
X15685777Y-12062198D01*
X15685777Y-12062198D02*
X15695301Y-12081246D01*
X15695301Y-12081246D02*
X15695301Y-12138388D01*
X15695301Y-12138388D02*
X15685777Y-12157436D01*
X15685777Y-12157436D02*
X15676253Y-12166960D01*
X15676253Y-12166960D02*
X15657206Y-12176484D01*
X15657206Y-12176484D02*
X15628634Y-12176484D01*
X15809587Y-12176484D02*
X15790539Y-12166960D01*
X15790539Y-12166960D02*
X15781015Y-12147912D01*
X15781015Y-12147912D02*
X15781015Y-11976484D01*
X15961968Y-12166960D02*
X15942920Y-12176484D01*
X15942920Y-12176484D02*
X15904825Y-12176484D01*
X15904825Y-12176484D02*
X15885777Y-12166960D01*
X15885777Y-12166960D02*
X15876253Y-12147912D01*
X15876253Y-12147912D02*
X15876253Y-12071722D01*
X15876253Y-12071722D02*
X15885777Y-12052674D01*
X15885777Y-12052674D02*
X15904825Y-12043150D01*
X15904825Y-12043150D02*
X15942920Y-12043150D01*
X15942920Y-12043150D02*
X15961968Y-12052674D01*
X15961968Y-12052674D02*
X15971491Y-12071722D01*
X15971491Y-12071722D02*
X15971491Y-12090769D01*
X15971491Y-12090769D02*
X15876253Y-12109817D01*
X16047682Y-12166960D02*
X16066730Y-12176484D01*
X16066730Y-12176484D02*
X16104825Y-12176484D01*
X16104825Y-12176484D02*
X16123872Y-12166960D01*
X16123872Y-12166960D02*
X16133396Y-12147912D01*
X16133396Y-12147912D02*
X16133396Y-12138388D01*
X16133396Y-12138388D02*
X16123872Y-12119341D01*
X16123872Y-12119341D02*
X16104825Y-12109817D01*
X16104825Y-12109817D02*
X16076253Y-12109817D01*
X16076253Y-12109817D02*
X16057206Y-12100293D01*
X16057206Y-12100293D02*
X16047682Y-12081246D01*
X16047682Y-12081246D02*
X16047682Y-12071722D01*
X16047682Y-12071722D02*
X16057206Y-12052674D01*
X16057206Y-12052674D02*
X16076253Y-12043150D01*
X16076253Y-12043150D02*
X16104825Y-12043150D01*
X16104825Y-12043150D02*
X16123872Y-12052674D01*
X16200063Y-12252674D02*
X16209587Y-12243150D01*
X16209587Y-12243150D02*
X16228634Y-12214579D01*
X16228634Y-12214579D02*
X16238158Y-12195531D01*
X16238158Y-12195531D02*
X16247682Y-12166960D01*
X16247682Y-12166960D02*
X16257206Y-12119341D01*
X16257206Y-12119341D02*
X16257206Y-12081246D01*
X16257206Y-12081246D02*
X16247682Y-12033627D01*
X16247682Y-12033627D02*
X16238158Y-12005055D01*
X16238158Y-12005055D02*
X16228634Y-11986008D01*
X16228634Y-11986008D02*
X16209587Y-11957436D01*
X16209587Y-11957436D02*
X16200063Y-11947912D01*
D10*
X11375000Y-12299000D02*
X11375000Y-12399000D01*
X11325000Y-12349000D02*
X11425000Y-12349000D01*
D11*
X11790539Y-12440484D02*
X11676253Y-12440484D01*
X11733396Y-12440484D02*
X11733396Y-12240484D01*
X11733396Y-12240484D02*
X11714348Y-12269055D01*
X11714348Y-12269055D02*
X11695301Y-12288103D01*
X11695301Y-12288103D02*
X11676253Y-12297627D01*
X11876253Y-12421436D02*
X11885777Y-12430960D01*
X11885777Y-12430960D02*
X11876253Y-12440484D01*
X11876253Y-12440484D02*
X11866729Y-12430960D01*
X11866729Y-12430960D02*
X11876253Y-12421436D01*
X11876253Y-12421436D02*
X11876253Y-12440484D01*
X12009586Y-12240484D02*
X12028634Y-12240484D01*
X12028634Y-12240484D02*
X12047682Y-12250008D01*
X12047682Y-12250008D02*
X12057205Y-12259531D01*
X12057205Y-12259531D02*
X12066729Y-12278579D01*
X12066729Y-12278579D02*
X12076253Y-12316674D01*
X12076253Y-12316674D02*
X12076253Y-12364293D01*
X12076253Y-12364293D02*
X12066729Y-12402388D01*
X12066729Y-12402388D02*
X12057205Y-12421436D01*
X12057205Y-12421436D02*
X12047682Y-12430960D01*
X12047682Y-12430960D02*
X12028634Y-12440484D01*
X12028634Y-12440484D02*
X12009586Y-12440484D01*
X12009586Y-12440484D02*
X11990539Y-12430960D01*
X11990539Y-12430960D02*
X11981015Y-12421436D01*
X11981015Y-12421436D02*
X11971491Y-12402388D01*
X11971491Y-12402388D02*
X11961967Y-12364293D01*
X11961967Y-12364293D02*
X11961967Y-12316674D01*
X11961967Y-12316674D02*
X11971491Y-12278579D01*
X11971491Y-12278579D02*
X11981015Y-12259531D01*
X11981015Y-12259531D02*
X11990539Y-12250008D01*
X11990539Y-12250008D02*
X12009586Y-12240484D01*
X12200062Y-12240484D02*
X12219110Y-12240484D01*
X12219110Y-12240484D02*
X12238158Y-12250008D01*
X12238158Y-12250008D02*
X12247682Y-12259531D01*
X12247682Y-12259531D02*
X12257205Y-12278579D01*
X12257205Y-12278579D02*
X12266729Y-12316674D01*
X12266729Y-12316674D02*
X12266729Y-12364293D01*
X12266729Y-12364293D02*
X12257205Y-12402388D01*
X12257205Y-12402388D02*
X12247682Y-12421436D01*
X12247682Y-12421436D02*
X12238158Y-12430960D01*
X12238158Y-12430960D02*
X12219110Y-12440484D01*
X12219110Y-12440484D02*
X12200062Y-12440484D01*
X12200062Y-12440484D02*
X12181015Y-12430960D01*
X12181015Y-12430960D02*
X12171491Y-12421436D01*
X12171491Y-12421436D02*
X12161967Y-12402388D01*
X12161967Y-12402388D02*
X12152443Y-12364293D01*
X12152443Y-12364293D02*
X12152443Y-12316674D01*
X12152443Y-12316674D02*
X12161967Y-12278579D01*
X12161967Y-12278579D02*
X12171491Y-12259531D01*
X12171491Y-12259531D02*
X12181015Y-12250008D01*
X12181015Y-12250008D02*
X12200062Y-12240484D01*
X12390539Y-12240484D02*
X12409586Y-12240484D01*
X12409586Y-12240484D02*
X12428634Y-12250008D01*
X12428634Y-12250008D02*
X12438158Y-12259531D01*
X12438158Y-12259531D02*
X12447682Y-12278579D01*
X12447682Y-12278579D02*
X12457205Y-12316674D01*
X12457205Y-12316674D02*
X12457205Y-12364293D01*
X12457205Y-12364293D02*
X12447682Y-12402388D01*
X12447682Y-12402388D02*
X12438158Y-12421436D01*
X12438158Y-12421436D02*
X12428634Y-12430960D01*
X12428634Y-12430960D02*
X12409586Y-12440484D01*
X12409586Y-12440484D02*
X12390539Y-12440484D01*
X12390539Y-12440484D02*
X12371491Y-12430960D01*
X12371491Y-12430960D02*
X12361967Y-12421436D01*
X12361967Y-12421436D02*
X12352443Y-12402388D01*
X12352443Y-12402388D02*
X12342920Y-12364293D01*
X12342920Y-12364293D02*
X12342920Y-12316674D01*
X12342920Y-12316674D02*
X12352443Y-12278579D01*
X12352443Y-12278579D02*
X12361967Y-12259531D01*
X12361967Y-12259531D02*
X12371491Y-12250008D01*
X12371491Y-12250008D02*
X12390539Y-12240484D01*
X12542920Y-12440484D02*
X12542920Y-12307150D01*
X12542920Y-12326198D02*
X12552443Y-12316674D01*
X12552443Y-12316674D02*
X12571491Y-12307150D01*
X12571491Y-12307150D02*
X12600063Y-12307150D01*
X12600063Y-12307150D02*
X12619110Y-12316674D01*
X12619110Y-12316674D02*
X12628634Y-12335722D01*
X12628634Y-12335722D02*
X12628634Y-12440484D01*
X12628634Y-12335722D02*
X12638158Y-12316674D01*
X12638158Y-12316674D02*
X12657205Y-12307150D01*
X12657205Y-12307150D02*
X12685777Y-12307150D01*
X12685777Y-12307150D02*
X12704824Y-12316674D01*
X12704824Y-12316674D02*
X12714348Y-12335722D01*
X12714348Y-12335722D02*
X12714348Y-12440484D01*
X12809586Y-12440484D02*
X12809586Y-12307150D01*
X12809586Y-12326198D02*
X12819110Y-12316674D01*
X12819110Y-12316674D02*
X12838158Y-12307150D01*
X12838158Y-12307150D02*
X12866729Y-12307150D01*
X12866729Y-12307150D02*
X12885777Y-12316674D01*
X12885777Y-12316674D02*
X12895301Y-12335722D01*
X12895301Y-12335722D02*
X12895301Y-12440484D01*
X12895301Y-12335722D02*
X12904824Y-12316674D01*
X12904824Y-12316674D02*
X12923872Y-12307150D01*
X12923872Y-12307150D02*
X12952443Y-12307150D01*
X12952443Y-12307150D02*
X12971491Y-12316674D01*
X12971491Y-12316674D02*
X12981015Y-12335722D01*
X12981015Y-12335722D02*
X12981015Y-12440484D01*
X13371491Y-12230960D02*
X13200063Y-12488103D01*
X13628634Y-12240484D02*
X13647682Y-12240484D01*
X13647682Y-12240484D02*
X13666729Y-12250008D01*
X13666729Y-12250008D02*
X13676253Y-12259531D01*
X13676253Y-12259531D02*
X13685777Y-12278579D01*
X13685777Y-12278579D02*
X13695301Y-12316674D01*
X13695301Y-12316674D02*
X13695301Y-12364293D01*
X13695301Y-12364293D02*
X13685777Y-12402388D01*
X13685777Y-12402388D02*
X13676253Y-12421436D01*
X13676253Y-12421436D02*
X13666729Y-12430960D01*
X13666729Y-12430960D02*
X13647682Y-12440484D01*
X13647682Y-12440484D02*
X13628634Y-12440484D01*
X13628634Y-12440484D02*
X13609586Y-12430960D01*
X13609586Y-12430960D02*
X13600063Y-12421436D01*
X13600063Y-12421436D02*
X13590539Y-12402388D01*
X13590539Y-12402388D02*
X13581015Y-12364293D01*
X13581015Y-12364293D02*
X13581015Y-12316674D01*
X13581015Y-12316674D02*
X13590539Y-12278579D01*
X13590539Y-12278579D02*
X13600063Y-12259531D01*
X13600063Y-12259531D02*
X13609586Y-12250008D01*
X13609586Y-12250008D02*
X13628634Y-12240484D01*
X13781015Y-12421436D02*
X13790539Y-12430960D01*
X13790539Y-12430960D02*
X13781015Y-12440484D01*
X13781015Y-12440484D02*
X13771491Y-12430960D01*
X13771491Y-12430960D02*
X13781015Y-12421436D01*
X13781015Y-12421436D02*
X13781015Y-12440484D01*
X13914348Y-12240484D02*
X13933396Y-12240484D01*
X13933396Y-12240484D02*
X13952444Y-12250008D01*
X13952444Y-12250008D02*
X13961967Y-12259531D01*
X13961967Y-12259531D02*
X13971491Y-12278579D01*
X13971491Y-12278579D02*
X13981015Y-12316674D01*
X13981015Y-12316674D02*
X13981015Y-12364293D01*
X13981015Y-12364293D02*
X13971491Y-12402388D01*
X13971491Y-12402388D02*
X13961967Y-12421436D01*
X13961967Y-12421436D02*
X13952444Y-12430960D01*
X13952444Y-12430960D02*
X13933396Y-12440484D01*
X13933396Y-12440484D02*
X13914348Y-12440484D01*
X13914348Y-12440484D02*
X13895301Y-12430960D01*
X13895301Y-12430960D02*
X13885777Y-12421436D01*
X13885777Y-12421436D02*
X13876253Y-12402388D01*
X13876253Y-12402388D02*
X13866729Y-12364293D01*
X13866729Y-12364293D02*
X13866729Y-12316674D01*
X13866729Y-12316674D02*
X13876253Y-12278579D01*
X13876253Y-12278579D02*
X13885777Y-12259531D01*
X13885777Y-12259531D02*
X13895301Y-12250008D01*
X13895301Y-12250008D02*
X13914348Y-12240484D01*
X14047682Y-12240484D02*
X14171491Y-12240484D01*
X14171491Y-12240484D02*
X14104825Y-12316674D01*
X14104825Y-12316674D02*
X14133396Y-12316674D01*
X14133396Y-12316674D02*
X14152444Y-12326198D01*
X14152444Y-12326198D02*
X14161967Y-12335722D01*
X14161967Y-12335722D02*
X14171491Y-12354769D01*
X14171491Y-12354769D02*
X14171491Y-12402388D01*
X14171491Y-12402388D02*
X14161967Y-12421436D01*
X14161967Y-12421436D02*
X14152444Y-12430960D01*
X14152444Y-12430960D02*
X14133396Y-12440484D01*
X14133396Y-12440484D02*
X14076253Y-12440484D01*
X14076253Y-12440484D02*
X14057206Y-12430960D01*
X14057206Y-12430960D02*
X14047682Y-12421436D01*
X14266729Y-12440484D02*
X14304825Y-12440484D01*
X14304825Y-12440484D02*
X14323872Y-12430960D01*
X14323872Y-12430960D02*
X14333396Y-12421436D01*
X14333396Y-12421436D02*
X14352444Y-12392865D01*
X14352444Y-12392865D02*
X14361967Y-12354769D01*
X14361967Y-12354769D02*
X14361967Y-12278579D01*
X14361967Y-12278579D02*
X14352444Y-12259531D01*
X14352444Y-12259531D02*
X14342920Y-12250008D01*
X14342920Y-12250008D02*
X14323872Y-12240484D01*
X14323872Y-12240484D02*
X14285777Y-12240484D01*
X14285777Y-12240484D02*
X14266729Y-12250008D01*
X14266729Y-12250008D02*
X14257206Y-12259531D01*
X14257206Y-12259531D02*
X14247682Y-12278579D01*
X14247682Y-12278579D02*
X14247682Y-12326198D01*
X14247682Y-12326198D02*
X14257206Y-12345246D01*
X14257206Y-12345246D02*
X14266729Y-12354769D01*
X14266729Y-12354769D02*
X14285777Y-12364293D01*
X14285777Y-12364293D02*
X14323872Y-12364293D01*
X14323872Y-12364293D02*
X14342920Y-12354769D01*
X14342920Y-12354769D02*
X14352444Y-12345246D01*
X14352444Y-12345246D02*
X14361967Y-12326198D01*
X14533396Y-12307150D02*
X14533396Y-12440484D01*
X14485777Y-12230960D02*
X14438158Y-12373817D01*
X14438158Y-12373817D02*
X14561967Y-12373817D01*
X14628634Y-12240484D02*
X14628634Y-12278579D01*
X14704825Y-12240484D02*
X14704825Y-12278579D01*
X15000063Y-12516674D02*
X14990539Y-12507150D01*
X14990539Y-12507150D02*
X14971491Y-12478579D01*
X14971491Y-12478579D02*
X14961968Y-12459531D01*
X14961968Y-12459531D02*
X14952444Y-12430960D01*
X14952444Y-12430960D02*
X14942920Y-12383341D01*
X14942920Y-12383341D02*
X14942920Y-12345246D01*
X14942920Y-12345246D02*
X14952444Y-12297627D01*
X14952444Y-12297627D02*
X14961968Y-12269055D01*
X14961968Y-12269055D02*
X14971491Y-12250008D01*
X14971491Y-12250008D02*
X14990539Y-12221436D01*
X14990539Y-12221436D02*
X15000063Y-12211912D01*
X15104825Y-12326198D02*
X15085777Y-12316674D01*
X15085777Y-12316674D02*
X15076253Y-12307150D01*
X15076253Y-12307150D02*
X15066729Y-12288103D01*
X15066729Y-12288103D02*
X15066729Y-12278579D01*
X15066729Y-12278579D02*
X15076253Y-12259531D01*
X15076253Y-12259531D02*
X15085777Y-12250008D01*
X15085777Y-12250008D02*
X15104825Y-12240484D01*
X15104825Y-12240484D02*
X15142920Y-12240484D01*
X15142920Y-12240484D02*
X15161968Y-12250008D01*
X15161968Y-12250008D02*
X15171491Y-12259531D01*
X15171491Y-12259531D02*
X15181015Y-12278579D01*
X15181015Y-12278579D02*
X15181015Y-12288103D01*
X15181015Y-12288103D02*
X15171491Y-12307150D01*
X15171491Y-12307150D02*
X15161968Y-12316674D01*
X15161968Y-12316674D02*
X15142920Y-12326198D01*
X15142920Y-12326198D02*
X15104825Y-12326198D01*
X15104825Y-12326198D02*
X15085777Y-12335722D01*
X15085777Y-12335722D02*
X15076253Y-12345246D01*
X15076253Y-12345246D02*
X15066729Y-12364293D01*
X15066729Y-12364293D02*
X15066729Y-12402388D01*
X15066729Y-12402388D02*
X15076253Y-12421436D01*
X15076253Y-12421436D02*
X15085777Y-12430960D01*
X15085777Y-12430960D02*
X15104825Y-12440484D01*
X15104825Y-12440484D02*
X15142920Y-12440484D01*
X15142920Y-12440484D02*
X15161968Y-12430960D01*
X15161968Y-12430960D02*
X15171491Y-12421436D01*
X15171491Y-12421436D02*
X15181015Y-12402388D01*
X15181015Y-12402388D02*
X15181015Y-12364293D01*
X15181015Y-12364293D02*
X15171491Y-12345246D01*
X15171491Y-12345246D02*
X15161968Y-12335722D01*
X15161968Y-12335722D02*
X15142920Y-12326198D01*
X15295301Y-12326198D02*
X15276253Y-12316674D01*
X15276253Y-12316674D02*
X15266729Y-12307150D01*
X15266729Y-12307150D02*
X15257206Y-12288103D01*
X15257206Y-12288103D02*
X15257206Y-12278579D01*
X15257206Y-12278579D02*
X15266729Y-12259531D01*
X15266729Y-12259531D02*
X15276253Y-12250008D01*
X15276253Y-12250008D02*
X15295301Y-12240484D01*
X15295301Y-12240484D02*
X15333396Y-12240484D01*
X15333396Y-12240484D02*
X15352444Y-12250008D01*
X15352444Y-12250008D02*
X15361968Y-12259531D01*
X15361968Y-12259531D02*
X15371491Y-12278579D01*
X15371491Y-12278579D02*
X15371491Y-12288103D01*
X15371491Y-12288103D02*
X15361968Y-12307150D01*
X15361968Y-12307150D02*
X15352444Y-12316674D01*
X15352444Y-12316674D02*
X15333396Y-12326198D01*
X15333396Y-12326198D02*
X15295301Y-12326198D01*
X15295301Y-12326198D02*
X15276253Y-12335722D01*
X15276253Y-12335722D02*
X15266729Y-12345246D01*
X15266729Y-12345246D02*
X15257206Y-12364293D01*
X15257206Y-12364293D02*
X15257206Y-12402388D01*
X15257206Y-12402388D02*
X15266729Y-12421436D01*
X15266729Y-12421436D02*
X15276253Y-12430960D01*
X15276253Y-12430960D02*
X15295301Y-12440484D01*
X15295301Y-12440484D02*
X15333396Y-12440484D01*
X15333396Y-12440484D02*
X15352444Y-12430960D01*
X15352444Y-12430960D02*
X15361968Y-12421436D01*
X15361968Y-12421436D02*
X15371491Y-12402388D01*
X15371491Y-12402388D02*
X15371491Y-12364293D01*
X15371491Y-12364293D02*
X15361968Y-12345246D01*
X15361968Y-12345246D02*
X15352444Y-12335722D01*
X15352444Y-12335722D02*
X15333396Y-12326198D01*
X15609587Y-12440484D02*
X15609587Y-12240484D01*
X15695301Y-12440484D02*
X15695301Y-12335722D01*
X15695301Y-12335722D02*
X15685777Y-12316674D01*
X15685777Y-12316674D02*
X15666730Y-12307150D01*
X15666730Y-12307150D02*
X15638158Y-12307150D01*
X15638158Y-12307150D02*
X15619110Y-12316674D01*
X15619110Y-12316674D02*
X15609587Y-12326198D01*
X15819110Y-12440484D02*
X15800063Y-12430960D01*
X15800063Y-12430960D02*
X15790539Y-12421436D01*
X15790539Y-12421436D02*
X15781015Y-12402388D01*
X15781015Y-12402388D02*
X15781015Y-12345246D01*
X15781015Y-12345246D02*
X15790539Y-12326198D01*
X15790539Y-12326198D02*
X15800063Y-12316674D01*
X15800063Y-12316674D02*
X15819110Y-12307150D01*
X15819110Y-12307150D02*
X15847682Y-12307150D01*
X15847682Y-12307150D02*
X15866730Y-12316674D01*
X15866730Y-12316674D02*
X15876253Y-12326198D01*
X15876253Y-12326198D02*
X15885777Y-12345246D01*
X15885777Y-12345246D02*
X15885777Y-12402388D01*
X15885777Y-12402388D02*
X15876253Y-12421436D01*
X15876253Y-12421436D02*
X15866730Y-12430960D01*
X15866730Y-12430960D02*
X15847682Y-12440484D01*
X15847682Y-12440484D02*
X15819110Y-12440484D01*
X16000063Y-12440484D02*
X15981015Y-12430960D01*
X15981015Y-12430960D02*
X15971491Y-12411912D01*
X15971491Y-12411912D02*
X15971491Y-12240484D01*
X16152444Y-12430960D02*
X16133396Y-12440484D01*
X16133396Y-12440484D02*
X16095301Y-12440484D01*
X16095301Y-12440484D02*
X16076253Y-12430960D01*
X16076253Y-12430960D02*
X16066730Y-12411912D01*
X16066730Y-12411912D02*
X16066730Y-12335722D01*
X16066730Y-12335722D02*
X16076253Y-12316674D01*
X16076253Y-12316674D02*
X16095301Y-12307150D01*
X16095301Y-12307150D02*
X16133396Y-12307150D01*
X16133396Y-12307150D02*
X16152444Y-12316674D01*
X16152444Y-12316674D02*
X16161968Y-12335722D01*
X16161968Y-12335722D02*
X16161968Y-12354769D01*
X16161968Y-12354769D02*
X16066730Y-12373817D01*
X16238158Y-12430960D02*
X16257206Y-12440484D01*
X16257206Y-12440484D02*
X16295301Y-12440484D01*
X16295301Y-12440484D02*
X16314349Y-12430960D01*
X16314349Y-12430960D02*
X16323872Y-12411912D01*
X16323872Y-12411912D02*
X16323872Y-12402388D01*
X16323872Y-12402388D02*
X16314349Y-12383341D01*
X16314349Y-12383341D02*
X16295301Y-12373817D01*
X16295301Y-12373817D02*
X16266730Y-12373817D01*
X16266730Y-12373817D02*
X16247682Y-12364293D01*
X16247682Y-12364293D02*
X16238158Y-12345246D01*
X16238158Y-12345246D02*
X16238158Y-12335722D01*
X16238158Y-12335722D02*
X16247682Y-12316674D01*
X16247682Y-12316674D02*
X16266730Y-12307150D01*
X16266730Y-12307150D02*
X16295301Y-12307150D01*
X16295301Y-12307150D02*
X16314349Y-12316674D01*
X16390539Y-12516674D02*
X16400063Y-12507150D01*
X16400063Y-12507150D02*
X16419111Y-12478579D01*
X16419111Y-12478579D02*
X16428634Y-12459531D01*
X16428634Y-12459531D02*
X16438158Y-12430960D01*
X16438158Y-12430960D02*
X16447682Y-12383341D01*
X16447682Y-12383341D02*
X16447682Y-12345246D01*
X16447682Y-12345246D02*
X16438158Y-12297627D01*
X16438158Y-12297627D02*
X16428634Y-12269055D01*
X16428634Y-12269055D02*
X16419111Y-12250008D01*
X16419111Y-12250008D02*
X16400063Y-12221436D01*
X16400063Y-12221436D02*
X16390539Y-12211912D01*
D12*
X11410063Y-12649063D02*
X11410063Y-12576937D01*
X11337937Y-12576937D01*
X11337937Y-12649063D01*
X11410063Y-12649063D01*
D11*
X11790539Y-12704484D02*
X11676253Y-12704484D01*
X11733396Y-12704484D02*
X11733396Y-12504484D01*
X11733396Y-12504484D02*
X11714348Y-12533055D01*
X11714348Y-12533055D02*
X11695301Y-12552103D01*
X11695301Y-12552103D02*
X11676253Y-12561627D01*
X11876253Y-12685436D02*
X11885777Y-12694960D01*
X11885777Y-12694960D02*
X11876253Y-12704484D01*
X11876253Y-12704484D02*
X11866729Y-12694960D01*
X11866729Y-12694960D02*
X11876253Y-12685436D01*
X11876253Y-12685436D02*
X11876253Y-12704484D01*
X12009586Y-12504484D02*
X12028634Y-12504484D01*
X12028634Y-12504484D02*
X12047682Y-12514008D01*
X12047682Y-12514008D02*
X12057205Y-12523531D01*
X12057205Y-12523531D02*
X12066729Y-12542579D01*
X12066729Y-12542579D02*
X12076253Y-12580674D01*
X12076253Y-12580674D02*
X12076253Y-12628293D01*
X12076253Y-12628293D02*
X12066729Y-12666388D01*
X12066729Y-12666388D02*
X12057205Y-12685436D01*
X12057205Y-12685436D02*
X12047682Y-12694960D01*
X12047682Y-12694960D02*
X12028634Y-12704484D01*
X12028634Y-12704484D02*
X12009586Y-12704484D01*
X12009586Y-12704484D02*
X11990539Y-12694960D01*
X11990539Y-12694960D02*
X11981015Y-12685436D01*
X11981015Y-12685436D02*
X11971491Y-12666388D01*
X11971491Y-12666388D02*
X11961967Y-12628293D01*
X11961967Y-12628293D02*
X11961967Y-12580674D01*
X11961967Y-12580674D02*
X11971491Y-12542579D01*
X11971491Y-12542579D02*
X11981015Y-12523531D01*
X11981015Y-12523531D02*
X11990539Y-12514008D01*
X11990539Y-12514008D02*
X12009586Y-12504484D01*
X12152443Y-12523531D02*
X12161967Y-12514008D01*
X12161967Y-12514008D02*
X12181015Y-12504484D01*
X12181015Y-12504484D02*
X12228634Y-12504484D01*
X12228634Y-12504484D02*
X12247682Y-12514008D01*
X12247682Y-12514008D02*
X12257205Y-12523531D01*
X12257205Y-12523531D02*
X12266729Y-12542579D01*
X12266729Y-12542579D02*
X12266729Y-12561627D01*
X12266729Y-12561627D02*
X12257205Y-12590198D01*
X12257205Y-12590198D02*
X12142920Y-12704484D01*
X12142920Y-12704484D02*
X12266729Y-12704484D01*
X12390539Y-12504484D02*
X12409586Y-12504484D01*
X12409586Y-12504484D02*
X12428634Y-12514008D01*
X12428634Y-12514008D02*
X12438158Y-12523531D01*
X12438158Y-12523531D02*
X12447682Y-12542579D01*
X12447682Y-12542579D02*
X12457205Y-12580674D01*
X12457205Y-12580674D02*
X12457205Y-12628293D01*
X12457205Y-12628293D02*
X12447682Y-12666388D01*
X12447682Y-12666388D02*
X12438158Y-12685436D01*
X12438158Y-12685436D02*
X12428634Y-12694960D01*
X12428634Y-12694960D02*
X12409586Y-12704484D01*
X12409586Y-12704484D02*
X12390539Y-12704484D01*
X12390539Y-12704484D02*
X12371491Y-12694960D01*
X12371491Y-12694960D02*
X12361967Y-12685436D01*
X12361967Y-12685436D02*
X12352443Y-12666388D01*
X12352443Y-12666388D02*
X12342920Y-12628293D01*
X12342920Y-12628293D02*
X12342920Y-12580674D01*
X12342920Y-12580674D02*
X12352443Y-12542579D01*
X12352443Y-12542579D02*
X12361967Y-12523531D01*
X12361967Y-12523531D02*
X12371491Y-12514008D01*
X12371491Y-12514008D02*
X12390539Y-12504484D01*
X12542920Y-12704484D02*
X12542920Y-12571150D01*
X12542920Y-12590198D02*
X12552443Y-12580674D01*
X12552443Y-12580674D02*
X12571491Y-12571150D01*
X12571491Y-12571150D02*
X12600063Y-12571150D01*
X12600063Y-12571150D02*
X12619110Y-12580674D01*
X12619110Y-12580674D02*
X12628634Y-12599722D01*
X12628634Y-12599722D02*
X12628634Y-12704484D01*
X12628634Y-12599722D02*
X12638158Y-12580674D01*
X12638158Y-12580674D02*
X12657205Y-12571150D01*
X12657205Y-12571150D02*
X12685777Y-12571150D01*
X12685777Y-12571150D02*
X12704824Y-12580674D01*
X12704824Y-12580674D02*
X12714348Y-12599722D01*
X12714348Y-12599722D02*
X12714348Y-12704484D01*
X12809586Y-12704484D02*
X12809586Y-12571150D01*
X12809586Y-12590198D02*
X12819110Y-12580674D01*
X12819110Y-12580674D02*
X12838158Y-12571150D01*
X12838158Y-12571150D02*
X12866729Y-12571150D01*
X12866729Y-12571150D02*
X12885777Y-12580674D01*
X12885777Y-12580674D02*
X12895301Y-12599722D01*
X12895301Y-12599722D02*
X12895301Y-12704484D01*
X12895301Y-12599722D02*
X12904824Y-12580674D01*
X12904824Y-12580674D02*
X12923872Y-12571150D01*
X12923872Y-12571150D02*
X12952443Y-12571150D01*
X12952443Y-12571150D02*
X12971491Y-12580674D01*
X12971491Y-12580674D02*
X12981015Y-12599722D01*
X12981015Y-12599722D02*
X12981015Y-12704484D01*
X13371491Y-12494960D02*
X13200063Y-12752103D01*
X13628634Y-12504484D02*
X13647682Y-12504484D01*
X13647682Y-12504484D02*
X13666729Y-12514008D01*
X13666729Y-12514008D02*
X13676253Y-12523531D01*
X13676253Y-12523531D02*
X13685777Y-12542579D01*
X13685777Y-12542579D02*
X13695301Y-12580674D01*
X13695301Y-12580674D02*
X13695301Y-12628293D01*
X13695301Y-12628293D02*
X13685777Y-12666388D01*
X13685777Y-12666388D02*
X13676253Y-12685436D01*
X13676253Y-12685436D02*
X13666729Y-12694960D01*
X13666729Y-12694960D02*
X13647682Y-12704484D01*
X13647682Y-12704484D02*
X13628634Y-12704484D01*
X13628634Y-12704484D02*
X13609586Y-12694960D01*
X13609586Y-12694960D02*
X13600063Y-12685436D01*
X13600063Y-12685436D02*
X13590539Y-12666388D01*
X13590539Y-12666388D02*
X13581015Y-12628293D01*
X13581015Y-12628293D02*
X13581015Y-12580674D01*
X13581015Y-12580674D02*
X13590539Y-12542579D01*
X13590539Y-12542579D02*
X13600063Y-12523531D01*
X13600063Y-12523531D02*
X13609586Y-12514008D01*
X13609586Y-12514008D02*
X13628634Y-12504484D01*
X13781015Y-12685436D02*
X13790539Y-12694960D01*
X13790539Y-12694960D02*
X13781015Y-12704484D01*
X13781015Y-12704484D02*
X13771491Y-12694960D01*
X13771491Y-12694960D02*
X13781015Y-12685436D01*
X13781015Y-12685436D02*
X13781015Y-12704484D01*
X13914348Y-12504484D02*
X13933396Y-12504484D01*
X13933396Y-12504484D02*
X13952444Y-12514008D01*
X13952444Y-12514008D02*
X13961967Y-12523531D01*
X13961967Y-12523531D02*
X13971491Y-12542579D01*
X13971491Y-12542579D02*
X13981015Y-12580674D01*
X13981015Y-12580674D02*
X13981015Y-12628293D01*
X13981015Y-12628293D02*
X13971491Y-12666388D01*
X13971491Y-12666388D02*
X13961967Y-12685436D01*
X13961967Y-12685436D02*
X13952444Y-12694960D01*
X13952444Y-12694960D02*
X13933396Y-12704484D01*
X13933396Y-12704484D02*
X13914348Y-12704484D01*
X13914348Y-12704484D02*
X13895301Y-12694960D01*
X13895301Y-12694960D02*
X13885777Y-12685436D01*
X13885777Y-12685436D02*
X13876253Y-12666388D01*
X13876253Y-12666388D02*
X13866729Y-12628293D01*
X13866729Y-12628293D02*
X13866729Y-12580674D01*
X13866729Y-12580674D02*
X13876253Y-12542579D01*
X13876253Y-12542579D02*
X13885777Y-12523531D01*
X13885777Y-12523531D02*
X13895301Y-12514008D01*
X13895301Y-12514008D02*
X13914348Y-12504484D01*
X14152444Y-12571150D02*
X14152444Y-12704484D01*
X14104825Y-12494960D02*
X14057206Y-12637817D01*
X14057206Y-12637817D02*
X14181015Y-12637817D01*
X14295301Y-12504484D02*
X14314348Y-12504484D01*
X14314348Y-12504484D02*
X14333396Y-12514008D01*
X14333396Y-12514008D02*
X14342920Y-12523531D01*
X14342920Y-12523531D02*
X14352444Y-12542579D01*
X14352444Y-12542579D02*
X14361967Y-12580674D01*
X14361967Y-12580674D02*
X14361967Y-12628293D01*
X14361967Y-12628293D02*
X14352444Y-12666388D01*
X14352444Y-12666388D02*
X14342920Y-12685436D01*
X14342920Y-12685436D02*
X14333396Y-12694960D01*
X14333396Y-12694960D02*
X14314348Y-12704484D01*
X14314348Y-12704484D02*
X14295301Y-12704484D01*
X14295301Y-12704484D02*
X14276253Y-12694960D01*
X14276253Y-12694960D02*
X14266729Y-12685436D01*
X14266729Y-12685436D02*
X14257206Y-12666388D01*
X14257206Y-12666388D02*
X14247682Y-12628293D01*
X14247682Y-12628293D02*
X14247682Y-12580674D01*
X14247682Y-12580674D02*
X14257206Y-12542579D01*
X14257206Y-12542579D02*
X14266729Y-12523531D01*
X14266729Y-12523531D02*
X14276253Y-12514008D01*
X14276253Y-12514008D02*
X14295301Y-12504484D01*
X14438158Y-12523531D02*
X14447682Y-12514008D01*
X14447682Y-12514008D02*
X14466729Y-12504484D01*
X14466729Y-12504484D02*
X14514348Y-12504484D01*
X14514348Y-12504484D02*
X14533396Y-12514008D01*
X14533396Y-12514008D02*
X14542920Y-12523531D01*
X14542920Y-12523531D02*
X14552444Y-12542579D01*
X14552444Y-12542579D02*
X14552444Y-12561627D01*
X14552444Y-12561627D02*
X14542920Y-12590198D01*
X14542920Y-12590198D02*
X14428634Y-12704484D01*
X14428634Y-12704484D02*
X14552444Y-12704484D01*
X14628634Y-12504484D02*
X14628634Y-12542579D01*
X14704825Y-12504484D02*
X14704825Y-12542579D01*
X15000063Y-12780674D02*
X14990539Y-12771150D01*
X14990539Y-12771150D02*
X14971491Y-12742579D01*
X14971491Y-12742579D02*
X14961968Y-12723531D01*
X14961968Y-12723531D02*
X14952444Y-12694960D01*
X14952444Y-12694960D02*
X14942920Y-12647341D01*
X14942920Y-12647341D02*
X14942920Y-12609246D01*
X14942920Y-12609246D02*
X14952444Y-12561627D01*
X14952444Y-12561627D02*
X14961968Y-12533055D01*
X14961968Y-12533055D02*
X14971491Y-12514008D01*
X14971491Y-12514008D02*
X14990539Y-12485436D01*
X14990539Y-12485436D02*
X15000063Y-12475912D01*
X15161968Y-12571150D02*
X15161968Y-12704484D01*
X15114348Y-12494960D02*
X15066729Y-12637817D01*
X15066729Y-12637817D02*
X15190539Y-12637817D01*
X15247682Y-12504484D02*
X15371491Y-12504484D01*
X15371491Y-12504484D02*
X15304825Y-12580674D01*
X15304825Y-12580674D02*
X15333396Y-12580674D01*
X15333396Y-12580674D02*
X15352444Y-12590198D01*
X15352444Y-12590198D02*
X15361968Y-12599722D01*
X15361968Y-12599722D02*
X15371491Y-12618769D01*
X15371491Y-12618769D02*
X15371491Y-12666388D01*
X15371491Y-12666388D02*
X15361968Y-12685436D01*
X15361968Y-12685436D02*
X15352444Y-12694960D01*
X15352444Y-12694960D02*
X15333396Y-12704484D01*
X15333396Y-12704484D02*
X15276253Y-12704484D01*
X15276253Y-12704484D02*
X15257206Y-12694960D01*
X15257206Y-12694960D02*
X15247682Y-12685436D01*
X15609587Y-12704484D02*
X15609587Y-12504484D01*
X15695301Y-12704484D02*
X15695301Y-12599722D01*
X15695301Y-12599722D02*
X15685777Y-12580674D01*
X15685777Y-12580674D02*
X15666730Y-12571150D01*
X15666730Y-12571150D02*
X15638158Y-12571150D01*
X15638158Y-12571150D02*
X15619110Y-12580674D01*
X15619110Y-12580674D02*
X15609587Y-12590198D01*
X15819110Y-12704484D02*
X15800063Y-12694960D01*
X15800063Y-12694960D02*
X15790539Y-12685436D01*
X15790539Y-12685436D02*
X15781015Y-12666388D01*
X15781015Y-12666388D02*
X15781015Y-12609246D01*
X15781015Y-12609246D02*
X15790539Y-12590198D01*
X15790539Y-12590198D02*
X15800063Y-12580674D01*
X15800063Y-12580674D02*
X15819110Y-12571150D01*
X15819110Y-12571150D02*
X15847682Y-12571150D01*
X15847682Y-12571150D02*
X15866730Y-12580674D01*
X15866730Y-12580674D02*
X15876253Y-12590198D01*
X15876253Y-12590198D02*
X15885777Y-12609246D01*
X15885777Y-12609246D02*
X15885777Y-12666388D01*
X15885777Y-12666388D02*
X15876253Y-12685436D01*
X15876253Y-12685436D02*
X15866730Y-12694960D01*
X15866730Y-12694960D02*
X15847682Y-12704484D01*
X15847682Y-12704484D02*
X15819110Y-12704484D01*
X16000063Y-12704484D02*
X15981015Y-12694960D01*
X15981015Y-12694960D02*
X15971491Y-12675912D01*
X15971491Y-12675912D02*
X15971491Y-12504484D01*
X16152444Y-12694960D02*
X16133396Y-12704484D01*
X16133396Y-12704484D02*
X16095301Y-12704484D01*
X16095301Y-12704484D02*
X16076253Y-12694960D01*
X16076253Y-12694960D02*
X16066730Y-12675912D01*
X16066730Y-12675912D02*
X16066730Y-12599722D01*
X16066730Y-12599722D02*
X16076253Y-12580674D01*
X16076253Y-12580674D02*
X16095301Y-12571150D01*
X16095301Y-12571150D02*
X16133396Y-12571150D01*
X16133396Y-12571150D02*
X16152444Y-12580674D01*
X16152444Y-12580674D02*
X16161968Y-12599722D01*
X16161968Y-12599722D02*
X16161968Y-12618769D01*
X16161968Y-12618769D02*
X16066730Y-12637817D01*
X16238158Y-12694960D02*
X16257206Y-12704484D01*
X16257206Y-12704484D02*
X16295301Y-12704484D01*
X16295301Y-12704484D02*
X16314349Y-12694960D01*
X16314349Y-12694960D02*
X16323872Y-12675912D01*
X16323872Y-12675912D02*
X16323872Y-12666388D01*
X16323872Y-12666388D02*
X16314349Y-12647341D01*
X16314349Y-12647341D02*
X16295301Y-12637817D01*
X16295301Y-12637817D02*
X16266730Y-12637817D01*
X16266730Y-12637817D02*
X16247682Y-12628293D01*
X16247682Y-12628293D02*
X16238158Y-12609246D01*
X16238158Y-12609246D02*
X16238158Y-12599722D01*
X16238158Y-12599722D02*
X16247682Y-12580674D01*
X16247682Y-12580674D02*
X16266730Y-12571150D01*
X16266730Y-12571150D02*
X16295301Y-12571150D01*
X16295301Y-12571150D02*
X16314349Y-12580674D01*
X16390539Y-12780674D02*
X16400063Y-12771150D01*
X16400063Y-12771150D02*
X16419111Y-12742579D01*
X16419111Y-12742579D02*
X16428634Y-12723531D01*
X16428634Y-12723531D02*
X16438158Y-12694960D01*
X16438158Y-12694960D02*
X16447682Y-12647341D01*
X16447682Y-12647341D02*
X16447682Y-12609246D01*
X16447682Y-12609246D02*
X16438158Y-12561627D01*
X16438158Y-12561627D02*
X16428634Y-12533055D01*
X16428634Y-12533055D02*
X16419111Y-12514008D01*
X16419111Y-12514008D02*
X16400063Y-12485436D01*
X16400063Y-12485436D02*
X16390539Y-12475912D01*
D13*
X11370000Y-12932000D02*
X11425000Y-12877000D01*
X11370000Y-12822000D01*
X11315000Y-12877000D01*
X11370000Y-12932000D01*
D11*
X11790539Y-12968484D02*
X11676253Y-12968484D01*
X11733396Y-12968484D02*
X11733396Y-12768484D01*
X11733396Y-12768484D02*
X11714348Y-12797055D01*
X11714348Y-12797055D02*
X11695301Y-12816103D01*
X11695301Y-12816103D02*
X11676253Y-12825627D01*
X11876253Y-12949436D02*
X11885777Y-12958960D01*
X11885777Y-12958960D02*
X11876253Y-12968484D01*
X11876253Y-12968484D02*
X11866729Y-12958960D01*
X11866729Y-12958960D02*
X11876253Y-12949436D01*
X11876253Y-12949436D02*
X11876253Y-12968484D01*
X12076253Y-12968484D02*
X11961967Y-12968484D01*
X12019110Y-12968484D02*
X12019110Y-12768484D01*
X12019110Y-12768484D02*
X12000062Y-12797055D01*
X12000062Y-12797055D02*
X11981015Y-12816103D01*
X11981015Y-12816103D02*
X11961967Y-12825627D01*
X12200062Y-12768484D02*
X12219110Y-12768484D01*
X12219110Y-12768484D02*
X12238158Y-12778008D01*
X12238158Y-12778008D02*
X12247682Y-12787531D01*
X12247682Y-12787531D02*
X12257205Y-12806579D01*
X12257205Y-12806579D02*
X12266729Y-12844674D01*
X12266729Y-12844674D02*
X12266729Y-12892293D01*
X12266729Y-12892293D02*
X12257205Y-12930388D01*
X12257205Y-12930388D02*
X12247682Y-12949436D01*
X12247682Y-12949436D02*
X12238158Y-12958960D01*
X12238158Y-12958960D02*
X12219110Y-12968484D01*
X12219110Y-12968484D02*
X12200062Y-12968484D01*
X12200062Y-12968484D02*
X12181015Y-12958960D01*
X12181015Y-12958960D02*
X12171491Y-12949436D01*
X12171491Y-12949436D02*
X12161967Y-12930388D01*
X12161967Y-12930388D02*
X12152443Y-12892293D01*
X12152443Y-12892293D02*
X12152443Y-12844674D01*
X12152443Y-12844674D02*
X12161967Y-12806579D01*
X12161967Y-12806579D02*
X12171491Y-12787531D01*
X12171491Y-12787531D02*
X12181015Y-12778008D01*
X12181015Y-12778008D02*
X12200062Y-12768484D01*
X12390539Y-12768484D02*
X12409586Y-12768484D01*
X12409586Y-12768484D02*
X12428634Y-12778008D01*
X12428634Y-12778008D02*
X12438158Y-12787531D01*
X12438158Y-12787531D02*
X12447682Y-12806579D01*
X12447682Y-12806579D02*
X12457205Y-12844674D01*
X12457205Y-12844674D02*
X12457205Y-12892293D01*
X12457205Y-12892293D02*
X12447682Y-12930388D01*
X12447682Y-12930388D02*
X12438158Y-12949436D01*
X12438158Y-12949436D02*
X12428634Y-12958960D01*
X12428634Y-12958960D02*
X12409586Y-12968484D01*
X12409586Y-12968484D02*
X12390539Y-12968484D01*
X12390539Y-12968484D02*
X12371491Y-12958960D01*
X12371491Y-12958960D02*
X12361967Y-12949436D01*
X12361967Y-12949436D02*
X12352443Y-12930388D01*
X12352443Y-12930388D02*
X12342920Y-12892293D01*
X12342920Y-12892293D02*
X12342920Y-12844674D01*
X12342920Y-12844674D02*
X12352443Y-12806579D01*
X12352443Y-12806579D02*
X12361967Y-12787531D01*
X12361967Y-12787531D02*
X12371491Y-12778008D01*
X12371491Y-12778008D02*
X12390539Y-12768484D01*
X12542920Y-12968484D02*
X12542920Y-12835150D01*
X12542920Y-12854198D02*
X12552443Y-12844674D01*
X12552443Y-12844674D02*
X12571491Y-12835150D01*
X12571491Y-12835150D02*
X12600063Y-12835150D01*
X12600063Y-12835150D02*
X12619110Y-12844674D01*
X12619110Y-12844674D02*
X12628634Y-12863722D01*
X12628634Y-12863722D02*
X12628634Y-12968484D01*
X12628634Y-12863722D02*
X12638158Y-12844674D01*
X12638158Y-12844674D02*
X12657205Y-12835150D01*
X12657205Y-12835150D02*
X12685777Y-12835150D01*
X12685777Y-12835150D02*
X12704824Y-12844674D01*
X12704824Y-12844674D02*
X12714348Y-12863722D01*
X12714348Y-12863722D02*
X12714348Y-12968484D01*
X12809586Y-12968484D02*
X12809586Y-12835150D01*
X12809586Y-12854198D02*
X12819110Y-12844674D01*
X12819110Y-12844674D02*
X12838158Y-12835150D01*
X12838158Y-12835150D02*
X12866729Y-12835150D01*
X12866729Y-12835150D02*
X12885777Y-12844674D01*
X12885777Y-12844674D02*
X12895301Y-12863722D01*
X12895301Y-12863722D02*
X12895301Y-12968484D01*
X12895301Y-12863722D02*
X12904824Y-12844674D01*
X12904824Y-12844674D02*
X12923872Y-12835150D01*
X12923872Y-12835150D02*
X12952443Y-12835150D01*
X12952443Y-12835150D02*
X12971491Y-12844674D01*
X12971491Y-12844674D02*
X12981015Y-12863722D01*
X12981015Y-12863722D02*
X12981015Y-12968484D01*
X13371491Y-12758960D02*
X13200063Y-13016103D01*
X13628634Y-12768484D02*
X13647682Y-12768484D01*
X13647682Y-12768484D02*
X13666729Y-12778008D01*
X13666729Y-12778008D02*
X13676253Y-12787531D01*
X13676253Y-12787531D02*
X13685777Y-12806579D01*
X13685777Y-12806579D02*
X13695301Y-12844674D01*
X13695301Y-12844674D02*
X13695301Y-12892293D01*
X13695301Y-12892293D02*
X13685777Y-12930388D01*
X13685777Y-12930388D02*
X13676253Y-12949436D01*
X13676253Y-12949436D02*
X13666729Y-12958960D01*
X13666729Y-12958960D02*
X13647682Y-12968484D01*
X13647682Y-12968484D02*
X13628634Y-12968484D01*
X13628634Y-12968484D02*
X13609586Y-12958960D01*
X13609586Y-12958960D02*
X13600063Y-12949436D01*
X13600063Y-12949436D02*
X13590539Y-12930388D01*
X13590539Y-12930388D02*
X13581015Y-12892293D01*
X13581015Y-12892293D02*
X13581015Y-12844674D01*
X13581015Y-12844674D02*
X13590539Y-12806579D01*
X13590539Y-12806579D02*
X13600063Y-12787531D01*
X13600063Y-12787531D02*
X13609586Y-12778008D01*
X13609586Y-12778008D02*
X13628634Y-12768484D01*
X13781015Y-12949436D02*
X13790539Y-12958960D01*
X13790539Y-12958960D02*
X13781015Y-12968484D01*
X13781015Y-12968484D02*
X13771491Y-12958960D01*
X13771491Y-12958960D02*
X13781015Y-12949436D01*
X13781015Y-12949436D02*
X13781015Y-12968484D01*
X13914348Y-12768484D02*
X13933396Y-12768484D01*
X13933396Y-12768484D02*
X13952444Y-12778008D01*
X13952444Y-12778008D02*
X13961967Y-12787531D01*
X13961967Y-12787531D02*
X13971491Y-12806579D01*
X13971491Y-12806579D02*
X13981015Y-12844674D01*
X13981015Y-12844674D02*
X13981015Y-12892293D01*
X13981015Y-12892293D02*
X13971491Y-12930388D01*
X13971491Y-12930388D02*
X13961967Y-12949436D01*
X13961967Y-12949436D02*
X13952444Y-12958960D01*
X13952444Y-12958960D02*
X13933396Y-12968484D01*
X13933396Y-12968484D02*
X13914348Y-12968484D01*
X13914348Y-12968484D02*
X13895301Y-12958960D01*
X13895301Y-12958960D02*
X13885777Y-12949436D01*
X13885777Y-12949436D02*
X13876253Y-12930388D01*
X13876253Y-12930388D02*
X13866729Y-12892293D01*
X13866729Y-12892293D02*
X13866729Y-12844674D01*
X13866729Y-12844674D02*
X13876253Y-12806579D01*
X13876253Y-12806579D02*
X13885777Y-12787531D01*
X13885777Y-12787531D02*
X13895301Y-12778008D01*
X13895301Y-12778008D02*
X13914348Y-12768484D01*
X14152444Y-12835150D02*
X14152444Y-12968484D01*
X14104825Y-12758960D02*
X14057206Y-12901817D01*
X14057206Y-12901817D02*
X14181015Y-12901817D01*
X14238158Y-12768484D02*
X14361967Y-12768484D01*
X14361967Y-12768484D02*
X14295301Y-12844674D01*
X14295301Y-12844674D02*
X14323872Y-12844674D01*
X14323872Y-12844674D02*
X14342920Y-12854198D01*
X14342920Y-12854198D02*
X14352444Y-12863722D01*
X14352444Y-12863722D02*
X14361967Y-12882769D01*
X14361967Y-12882769D02*
X14361967Y-12930388D01*
X14361967Y-12930388D02*
X14352444Y-12949436D01*
X14352444Y-12949436D02*
X14342920Y-12958960D01*
X14342920Y-12958960D02*
X14323872Y-12968484D01*
X14323872Y-12968484D02*
X14266729Y-12968484D01*
X14266729Y-12968484D02*
X14247682Y-12958960D01*
X14247682Y-12958960D02*
X14238158Y-12949436D01*
X14428634Y-12768484D02*
X14552444Y-12768484D01*
X14552444Y-12768484D02*
X14485777Y-12844674D01*
X14485777Y-12844674D02*
X14514348Y-12844674D01*
X14514348Y-12844674D02*
X14533396Y-12854198D01*
X14533396Y-12854198D02*
X14542920Y-12863722D01*
X14542920Y-12863722D02*
X14552444Y-12882769D01*
X14552444Y-12882769D02*
X14552444Y-12930388D01*
X14552444Y-12930388D02*
X14542920Y-12949436D01*
X14542920Y-12949436D02*
X14533396Y-12958960D01*
X14533396Y-12958960D02*
X14514348Y-12968484D01*
X14514348Y-12968484D02*
X14457206Y-12968484D01*
X14457206Y-12968484D02*
X14438158Y-12958960D01*
X14438158Y-12958960D02*
X14428634Y-12949436D01*
X14628634Y-12768484D02*
X14628634Y-12806579D01*
X14704825Y-12768484D02*
X14704825Y-12806579D01*
X15000063Y-13044674D02*
X14990539Y-13035150D01*
X14990539Y-13035150D02*
X14971491Y-13006579D01*
X14971491Y-13006579D02*
X14961968Y-12987531D01*
X14961968Y-12987531D02*
X14952444Y-12958960D01*
X14952444Y-12958960D02*
X14942920Y-12911341D01*
X14942920Y-12911341D02*
X14942920Y-12873246D01*
X14942920Y-12873246D02*
X14952444Y-12825627D01*
X14952444Y-12825627D02*
X14961968Y-12797055D01*
X14961968Y-12797055D02*
X14971491Y-12778008D01*
X14971491Y-12778008D02*
X14990539Y-12749436D01*
X14990539Y-12749436D02*
X15000063Y-12739912D01*
X15057206Y-12768484D02*
X15181015Y-12768484D01*
X15181015Y-12768484D02*
X15114348Y-12844674D01*
X15114348Y-12844674D02*
X15142920Y-12844674D01*
X15142920Y-12844674D02*
X15161968Y-12854198D01*
X15161968Y-12854198D02*
X15171491Y-12863722D01*
X15171491Y-12863722D02*
X15181015Y-12882769D01*
X15181015Y-12882769D02*
X15181015Y-12930388D01*
X15181015Y-12930388D02*
X15171491Y-12949436D01*
X15171491Y-12949436D02*
X15161968Y-12958960D01*
X15161968Y-12958960D02*
X15142920Y-12968484D01*
X15142920Y-12968484D02*
X15085777Y-12968484D01*
X15085777Y-12968484D02*
X15066729Y-12958960D01*
X15066729Y-12958960D02*
X15057206Y-12949436D01*
X15419110Y-12968484D02*
X15419110Y-12768484D01*
X15504825Y-12968484D02*
X15504825Y-12863722D01*
X15504825Y-12863722D02*
X15495301Y-12844674D01*
X15495301Y-12844674D02*
X15476253Y-12835150D01*
X15476253Y-12835150D02*
X15447682Y-12835150D01*
X15447682Y-12835150D02*
X15428634Y-12844674D01*
X15428634Y-12844674D02*
X15419110Y-12854198D01*
X15628634Y-12968484D02*
X15609587Y-12958960D01*
X15609587Y-12958960D02*
X15600063Y-12949436D01*
X15600063Y-12949436D02*
X15590539Y-12930388D01*
X15590539Y-12930388D02*
X15590539Y-12873246D01*
X15590539Y-12873246D02*
X15600063Y-12854198D01*
X15600063Y-12854198D02*
X15609587Y-12844674D01*
X15609587Y-12844674D02*
X15628634Y-12835150D01*
X15628634Y-12835150D02*
X15657206Y-12835150D01*
X15657206Y-12835150D02*
X15676253Y-12844674D01*
X15676253Y-12844674D02*
X15685777Y-12854198D01*
X15685777Y-12854198D02*
X15695301Y-12873246D01*
X15695301Y-12873246D02*
X15695301Y-12930388D01*
X15695301Y-12930388D02*
X15685777Y-12949436D01*
X15685777Y-12949436D02*
X15676253Y-12958960D01*
X15676253Y-12958960D02*
X15657206Y-12968484D01*
X15657206Y-12968484D02*
X15628634Y-12968484D01*
X15809587Y-12968484D02*
X15790539Y-12958960D01*
X15790539Y-12958960D02*
X15781015Y-12939912D01*
X15781015Y-12939912D02*
X15781015Y-12768484D01*
X15961968Y-12958960D02*
X15942920Y-12968484D01*
X15942920Y-12968484D02*
X15904825Y-12968484D01*
X15904825Y-12968484D02*
X15885777Y-12958960D01*
X15885777Y-12958960D02*
X15876253Y-12939912D01*
X15876253Y-12939912D02*
X15876253Y-12863722D01*
X15876253Y-12863722D02*
X15885777Y-12844674D01*
X15885777Y-12844674D02*
X15904825Y-12835150D01*
X15904825Y-12835150D02*
X15942920Y-12835150D01*
X15942920Y-12835150D02*
X15961968Y-12844674D01*
X15961968Y-12844674D02*
X15971491Y-12863722D01*
X15971491Y-12863722D02*
X15971491Y-12882769D01*
X15971491Y-12882769D02*
X15876253Y-12901817D01*
X16047682Y-12958960D02*
X16066730Y-12968484D01*
X16066730Y-12968484D02*
X16104825Y-12968484D01*
X16104825Y-12968484D02*
X16123872Y-12958960D01*
X16123872Y-12958960D02*
X16133396Y-12939912D01*
X16133396Y-12939912D02*
X16133396Y-12930388D01*
X16133396Y-12930388D02*
X16123872Y-12911341D01*
X16123872Y-12911341D02*
X16104825Y-12901817D01*
X16104825Y-12901817D02*
X16076253Y-12901817D01*
X16076253Y-12901817D02*
X16057206Y-12892293D01*
X16057206Y-12892293D02*
X16047682Y-12873246D01*
X16047682Y-12873246D02*
X16047682Y-12863722D01*
X16047682Y-12863722D02*
X16057206Y-12844674D01*
X16057206Y-12844674D02*
X16076253Y-12835150D01*
X16076253Y-12835150D02*
X16104825Y-12835150D01*
X16104825Y-12835150D02*
X16123872Y-12844674D01*
X16200063Y-13044674D02*
X16209587Y-13035150D01*
X16209587Y-13035150D02*
X16228634Y-13006579D01*
X16228634Y-13006579D02*
X16238158Y-12987531D01*
X16238158Y-12987531D02*
X16247682Y-12958960D01*
X16247682Y-12958960D02*
X16257206Y-12911341D01*
X16257206Y-12911341D02*
X16257206Y-12873246D01*
X16257206Y-12873246D02*
X16247682Y-12825627D01*
X16247682Y-12825627D02*
X16238158Y-12797055D01*
X16238158Y-12797055D02*
X16228634Y-12778008D01*
X16228634Y-12778008D02*
X16209587Y-12749436D01*
X16209587Y-12749436D02*
X16200063Y-12739912D01*
D14*
X11293000Y-13075000D02*
X11425000Y-13207000D01*
X11425000Y-13075000D02*
X11293000Y-13207000D01*
X11425000Y-13141000D02*
G75*
G02*
X11293000Y-13141000I-66000J0D01*
G01*
X11293000Y-13141000D02*
G75*
G02*
X11425000Y-13141000I66000J0D01*
G01*
D11*
X11790539Y-13232484D02*
X11676253Y-13232484D01*
X11733396Y-13232484D02*
X11733396Y-13032484D01*
X11733396Y-13032484D02*
X11714348Y-13061055D01*
X11714348Y-13061055D02*
X11695301Y-13080103D01*
X11695301Y-13080103D02*
X11676253Y-13089627D01*
X11876253Y-13213436D02*
X11885777Y-13222960D01*
X11885777Y-13222960D02*
X11876253Y-13232484D01*
X11876253Y-13232484D02*
X11866729Y-13222960D01*
X11866729Y-13222960D02*
X11876253Y-13213436D01*
X11876253Y-13213436D02*
X11876253Y-13232484D01*
X11952443Y-13032484D02*
X12076253Y-13032484D01*
X12076253Y-13032484D02*
X12009586Y-13108674D01*
X12009586Y-13108674D02*
X12038158Y-13108674D01*
X12038158Y-13108674D02*
X12057205Y-13118198D01*
X12057205Y-13118198D02*
X12066729Y-13127722D01*
X12066729Y-13127722D02*
X12076253Y-13146769D01*
X12076253Y-13146769D02*
X12076253Y-13194388D01*
X12076253Y-13194388D02*
X12066729Y-13213436D01*
X12066729Y-13213436D02*
X12057205Y-13222960D01*
X12057205Y-13222960D02*
X12038158Y-13232484D01*
X12038158Y-13232484D02*
X11981015Y-13232484D01*
X11981015Y-13232484D02*
X11961967Y-13222960D01*
X11961967Y-13222960D02*
X11952443Y-13213436D01*
X12152443Y-13051531D02*
X12161967Y-13042008D01*
X12161967Y-13042008D02*
X12181015Y-13032484D01*
X12181015Y-13032484D02*
X12228634Y-13032484D01*
X12228634Y-13032484D02*
X12247682Y-13042008D01*
X12247682Y-13042008D02*
X12257205Y-13051531D01*
X12257205Y-13051531D02*
X12266729Y-13070579D01*
X12266729Y-13070579D02*
X12266729Y-13089627D01*
X12266729Y-13089627D02*
X12257205Y-13118198D01*
X12257205Y-13118198D02*
X12142920Y-13232484D01*
X12142920Y-13232484D02*
X12266729Y-13232484D01*
X12390539Y-13032484D02*
X12409586Y-13032484D01*
X12409586Y-13032484D02*
X12428634Y-13042008D01*
X12428634Y-13042008D02*
X12438158Y-13051531D01*
X12438158Y-13051531D02*
X12447682Y-13070579D01*
X12447682Y-13070579D02*
X12457205Y-13108674D01*
X12457205Y-13108674D02*
X12457205Y-13156293D01*
X12457205Y-13156293D02*
X12447682Y-13194388D01*
X12447682Y-13194388D02*
X12438158Y-13213436D01*
X12438158Y-13213436D02*
X12428634Y-13222960D01*
X12428634Y-13222960D02*
X12409586Y-13232484D01*
X12409586Y-13232484D02*
X12390539Y-13232484D01*
X12390539Y-13232484D02*
X12371491Y-13222960D01*
X12371491Y-13222960D02*
X12361967Y-13213436D01*
X12361967Y-13213436D02*
X12352443Y-13194388D01*
X12352443Y-13194388D02*
X12342920Y-13156293D01*
X12342920Y-13156293D02*
X12342920Y-13108674D01*
X12342920Y-13108674D02*
X12352443Y-13070579D01*
X12352443Y-13070579D02*
X12361967Y-13051531D01*
X12361967Y-13051531D02*
X12371491Y-13042008D01*
X12371491Y-13042008D02*
X12390539Y-13032484D01*
X12542920Y-13232484D02*
X12542920Y-13099150D01*
X12542920Y-13118198D02*
X12552443Y-13108674D01*
X12552443Y-13108674D02*
X12571491Y-13099150D01*
X12571491Y-13099150D02*
X12600063Y-13099150D01*
X12600063Y-13099150D02*
X12619110Y-13108674D01*
X12619110Y-13108674D02*
X12628634Y-13127722D01*
X12628634Y-13127722D02*
X12628634Y-13232484D01*
X12628634Y-13127722D02*
X12638158Y-13108674D01*
X12638158Y-13108674D02*
X12657205Y-13099150D01*
X12657205Y-13099150D02*
X12685777Y-13099150D01*
X12685777Y-13099150D02*
X12704824Y-13108674D01*
X12704824Y-13108674D02*
X12714348Y-13127722D01*
X12714348Y-13127722D02*
X12714348Y-13232484D01*
X12809586Y-13232484D02*
X12809586Y-13099150D01*
X12809586Y-13118198D02*
X12819110Y-13108674D01*
X12819110Y-13108674D02*
X12838158Y-13099150D01*
X12838158Y-13099150D02*
X12866729Y-13099150D01*
X12866729Y-13099150D02*
X12885777Y-13108674D01*
X12885777Y-13108674D02*
X12895301Y-13127722D01*
X12895301Y-13127722D02*
X12895301Y-13232484D01*
X12895301Y-13127722D02*
X12904824Y-13108674D01*
X12904824Y-13108674D02*
X12923872Y-13099150D01*
X12923872Y-13099150D02*
X12952443Y-13099150D01*
X12952443Y-13099150D02*
X12971491Y-13108674D01*
X12971491Y-13108674D02*
X12981015Y-13127722D01*
X12981015Y-13127722D02*
X12981015Y-13232484D01*
X13371491Y-13022960D02*
X13200063Y-13280103D01*
X13628634Y-13032484D02*
X13647682Y-13032484D01*
X13647682Y-13032484D02*
X13666729Y-13042008D01*
X13666729Y-13042008D02*
X13676253Y-13051531D01*
X13676253Y-13051531D02*
X13685777Y-13070579D01*
X13685777Y-13070579D02*
X13695301Y-13108674D01*
X13695301Y-13108674D02*
X13695301Y-13156293D01*
X13695301Y-13156293D02*
X13685777Y-13194388D01*
X13685777Y-13194388D02*
X13676253Y-13213436D01*
X13676253Y-13213436D02*
X13666729Y-13222960D01*
X13666729Y-13222960D02*
X13647682Y-13232484D01*
X13647682Y-13232484D02*
X13628634Y-13232484D01*
X13628634Y-13232484D02*
X13609586Y-13222960D01*
X13609586Y-13222960D02*
X13600063Y-13213436D01*
X13600063Y-13213436D02*
X13590539Y-13194388D01*
X13590539Y-13194388D02*
X13581015Y-13156293D01*
X13581015Y-13156293D02*
X13581015Y-13108674D01*
X13581015Y-13108674D02*
X13590539Y-13070579D01*
X13590539Y-13070579D02*
X13600063Y-13051531D01*
X13600063Y-13051531D02*
X13609586Y-13042008D01*
X13609586Y-13042008D02*
X13628634Y-13032484D01*
X13781015Y-13213436D02*
X13790539Y-13222960D01*
X13790539Y-13222960D02*
X13781015Y-13232484D01*
X13781015Y-13232484D02*
X13771491Y-13222960D01*
X13771491Y-13222960D02*
X13781015Y-13213436D01*
X13781015Y-13213436D02*
X13781015Y-13232484D01*
X13914348Y-13032484D02*
X13933396Y-13032484D01*
X13933396Y-13032484D02*
X13952444Y-13042008D01*
X13952444Y-13042008D02*
X13961967Y-13051531D01*
X13961967Y-13051531D02*
X13971491Y-13070579D01*
X13971491Y-13070579D02*
X13981015Y-13108674D01*
X13981015Y-13108674D02*
X13981015Y-13156293D01*
X13981015Y-13156293D02*
X13971491Y-13194388D01*
X13971491Y-13194388D02*
X13961967Y-13213436D01*
X13961967Y-13213436D02*
X13952444Y-13222960D01*
X13952444Y-13222960D02*
X13933396Y-13232484D01*
X13933396Y-13232484D02*
X13914348Y-13232484D01*
X13914348Y-13232484D02*
X13895301Y-13222960D01*
X13895301Y-13222960D02*
X13885777Y-13213436D01*
X13885777Y-13213436D02*
X13876253Y-13194388D01*
X13876253Y-13194388D02*
X13866729Y-13156293D01*
X13866729Y-13156293D02*
X13866729Y-13108674D01*
X13866729Y-13108674D02*
X13876253Y-13070579D01*
X13876253Y-13070579D02*
X13885777Y-13051531D01*
X13885777Y-13051531D02*
X13895301Y-13042008D01*
X13895301Y-13042008D02*
X13914348Y-13032484D01*
X14161967Y-13032484D02*
X14066729Y-13032484D01*
X14066729Y-13032484D02*
X14057206Y-13127722D01*
X14057206Y-13127722D02*
X14066729Y-13118198D01*
X14066729Y-13118198D02*
X14085777Y-13108674D01*
X14085777Y-13108674D02*
X14133396Y-13108674D01*
X14133396Y-13108674D02*
X14152444Y-13118198D01*
X14152444Y-13118198D02*
X14161967Y-13127722D01*
X14161967Y-13127722D02*
X14171491Y-13146769D01*
X14171491Y-13146769D02*
X14171491Y-13194388D01*
X14171491Y-13194388D02*
X14161967Y-13213436D01*
X14161967Y-13213436D02*
X14152444Y-13222960D01*
X14152444Y-13222960D02*
X14133396Y-13232484D01*
X14133396Y-13232484D02*
X14085777Y-13232484D01*
X14085777Y-13232484D02*
X14066729Y-13222960D01*
X14066729Y-13222960D02*
X14057206Y-13213436D01*
X14247682Y-13051531D02*
X14257206Y-13042008D01*
X14257206Y-13042008D02*
X14276253Y-13032484D01*
X14276253Y-13032484D02*
X14323872Y-13032484D01*
X14323872Y-13032484D02*
X14342920Y-13042008D01*
X14342920Y-13042008D02*
X14352444Y-13051531D01*
X14352444Y-13051531D02*
X14361967Y-13070579D01*
X14361967Y-13070579D02*
X14361967Y-13089627D01*
X14361967Y-13089627D02*
X14352444Y-13118198D01*
X14352444Y-13118198D02*
X14238158Y-13232484D01*
X14238158Y-13232484D02*
X14361967Y-13232484D01*
X14485777Y-13032484D02*
X14504825Y-13032484D01*
X14504825Y-13032484D02*
X14523872Y-13042008D01*
X14523872Y-13042008D02*
X14533396Y-13051531D01*
X14533396Y-13051531D02*
X14542920Y-13070579D01*
X14542920Y-13070579D02*
X14552444Y-13108674D01*
X14552444Y-13108674D02*
X14552444Y-13156293D01*
X14552444Y-13156293D02*
X14542920Y-13194388D01*
X14542920Y-13194388D02*
X14533396Y-13213436D01*
X14533396Y-13213436D02*
X14523872Y-13222960D01*
X14523872Y-13222960D02*
X14504825Y-13232484D01*
X14504825Y-13232484D02*
X14485777Y-13232484D01*
X14485777Y-13232484D02*
X14466729Y-13222960D01*
X14466729Y-13222960D02*
X14457206Y-13213436D01*
X14457206Y-13213436D02*
X14447682Y-13194388D01*
X14447682Y-13194388D02*
X14438158Y-13156293D01*
X14438158Y-13156293D02*
X14438158Y-13108674D01*
X14438158Y-13108674D02*
X14447682Y-13070579D01*
X14447682Y-13070579D02*
X14457206Y-13051531D01*
X14457206Y-13051531D02*
X14466729Y-13042008D01*
X14466729Y-13042008D02*
X14485777Y-13032484D01*
X14628634Y-13032484D02*
X14628634Y-13070579D01*
X14704825Y-13032484D02*
X14704825Y-13070579D01*
X15000063Y-13308674D02*
X14990539Y-13299150D01*
X14990539Y-13299150D02*
X14971491Y-13270579D01*
X14971491Y-13270579D02*
X14961968Y-13251531D01*
X14961968Y-13251531D02*
X14952444Y-13222960D01*
X14952444Y-13222960D02*
X14942920Y-13175341D01*
X14942920Y-13175341D02*
X14942920Y-13137246D01*
X14942920Y-13137246D02*
X14952444Y-13089627D01*
X14952444Y-13089627D02*
X14961968Y-13061055D01*
X14961968Y-13061055D02*
X14971491Y-13042008D01*
X14971491Y-13042008D02*
X14990539Y-13013436D01*
X14990539Y-13013436D02*
X15000063Y-13003912D01*
X15057206Y-13032484D02*
X15181015Y-13032484D01*
X15181015Y-13032484D02*
X15114348Y-13108674D01*
X15114348Y-13108674D02*
X15142920Y-13108674D01*
X15142920Y-13108674D02*
X15161968Y-13118198D01*
X15161968Y-13118198D02*
X15171491Y-13127722D01*
X15171491Y-13127722D02*
X15181015Y-13146769D01*
X15181015Y-13146769D02*
X15181015Y-13194388D01*
X15181015Y-13194388D02*
X15171491Y-13213436D01*
X15171491Y-13213436D02*
X15161968Y-13222960D01*
X15161968Y-13222960D02*
X15142920Y-13232484D01*
X15142920Y-13232484D02*
X15085777Y-13232484D01*
X15085777Y-13232484D02*
X15066729Y-13222960D01*
X15066729Y-13222960D02*
X15057206Y-13213436D01*
X15419110Y-13232484D02*
X15419110Y-13032484D01*
X15504825Y-13232484D02*
X15504825Y-13127722D01*
X15504825Y-13127722D02*
X15495301Y-13108674D01*
X15495301Y-13108674D02*
X15476253Y-13099150D01*
X15476253Y-13099150D02*
X15447682Y-13099150D01*
X15447682Y-13099150D02*
X15428634Y-13108674D01*
X15428634Y-13108674D02*
X15419110Y-13118198D01*
X15628634Y-13232484D02*
X15609587Y-13222960D01*
X15609587Y-13222960D02*
X15600063Y-13213436D01*
X15600063Y-13213436D02*
X15590539Y-13194388D01*
X15590539Y-13194388D02*
X15590539Y-13137246D01*
X15590539Y-13137246D02*
X15600063Y-13118198D01*
X15600063Y-13118198D02*
X15609587Y-13108674D01*
X15609587Y-13108674D02*
X15628634Y-13099150D01*
X15628634Y-13099150D02*
X15657206Y-13099150D01*
X15657206Y-13099150D02*
X15676253Y-13108674D01*
X15676253Y-13108674D02*
X15685777Y-13118198D01*
X15685777Y-13118198D02*
X15695301Y-13137246D01*
X15695301Y-13137246D02*
X15695301Y-13194388D01*
X15695301Y-13194388D02*
X15685777Y-13213436D01*
X15685777Y-13213436D02*
X15676253Y-13222960D01*
X15676253Y-13222960D02*
X15657206Y-13232484D01*
X15657206Y-13232484D02*
X15628634Y-13232484D01*
X15809587Y-13232484D02*
X15790539Y-13222960D01*
X15790539Y-13222960D02*
X15781015Y-13203912D01*
X15781015Y-13203912D02*
X15781015Y-13032484D01*
X15961968Y-13222960D02*
X15942920Y-13232484D01*
X15942920Y-13232484D02*
X15904825Y-13232484D01*
X15904825Y-13232484D02*
X15885777Y-13222960D01*
X15885777Y-13222960D02*
X15876253Y-13203912D01*
X15876253Y-13203912D02*
X15876253Y-13127722D01*
X15876253Y-13127722D02*
X15885777Y-13108674D01*
X15885777Y-13108674D02*
X15904825Y-13099150D01*
X15904825Y-13099150D02*
X15942920Y-13099150D01*
X15942920Y-13099150D02*
X15961968Y-13108674D01*
X15961968Y-13108674D02*
X15971491Y-13127722D01*
X15971491Y-13127722D02*
X15971491Y-13146769D01*
X15971491Y-13146769D02*
X15876253Y-13165817D01*
X16047682Y-13222960D02*
X16066730Y-13232484D01*
X16066730Y-13232484D02*
X16104825Y-13232484D01*
X16104825Y-13232484D02*
X16123872Y-13222960D01*
X16123872Y-13222960D02*
X16133396Y-13203912D01*
X16133396Y-13203912D02*
X16133396Y-13194388D01*
X16133396Y-13194388D02*
X16123872Y-13175341D01*
X16123872Y-13175341D02*
X16104825Y-13165817D01*
X16104825Y-13165817D02*
X16076253Y-13165817D01*
X16076253Y-13165817D02*
X16057206Y-13156293D01*
X16057206Y-13156293D02*
X16047682Y-13137246D01*
X16047682Y-13137246D02*
X16047682Y-13127722D01*
X16047682Y-13127722D02*
X16057206Y-13108674D01*
X16057206Y-13108674D02*
X16076253Y-13099150D01*
X16076253Y-13099150D02*
X16104825Y-13099150D01*
X16104825Y-13099150D02*
X16123872Y-13108674D01*
X16200063Y-13308674D02*
X16209587Y-13299150D01*
X16209587Y-13299150D02*
X16228634Y-13270579D01*
X16228634Y-13270579D02*
X16238158Y-13251531D01*
X16238158Y-13251531D02*
X16247682Y-13222960D01*
X16247682Y-13222960D02*
X16257206Y-13175341D01*
X16257206Y-13175341D02*
X16257206Y-13137246D01*
X16257206Y-13137246D02*
X16247682Y-13089627D01*
X16247682Y-13089627D02*
X16238158Y-13061055D01*
X16238158Y-13061055D02*
X16228634Y-13042008D01*
X16228634Y-13042008D02*
X16209587Y-13013436D01*
X16209587Y-13013436D02*
X16200063Y-13003912D01*
M02*
