G04 #@! TF.GenerationSoftware,KiCad,Pcbnew,8.0.7*
G04 #@! TF.CreationDate,2025-01-17T18:29:13+11:00*
G04 #@! TF.ProjectId,MQTTDecoderExpansionBoard,4d515454-4465-4636-9f64-657245787061,A*
G04 #@! TF.SameCoordinates,Original*
G04 #@! TF.FileFunction,Soldermask,Top*
G04 #@! TF.FilePolarity,Negative*
%FSLAX46Y46*%
G04 Gerber Fmt 4.6, Leading zero omitted, Abs format (unit mm)*
G04 Created by KiCad (PCBNEW 8.0.7) date 2025-01-17 18:29:13*
%MOMM*%
%LPD*%
G01*
G04 APERTURE LIST*
G04 Aperture macros list*
%AMRoundRect*
0 Rectangle with rounded corners*
0 $1 Rounding radius*
0 $2 $3 $4 $5 $6 $7 $8 $9 X,Y pos of 4 corners*
0 Add a 4 corners polygon primitive as box body*
4,1,4,$2,$3,$4,$5,$6,$7,$8,$9,$2,$3,0*
0 Add four circle primitives for the rounded corners*
1,1,$1+$1,$2,$3*
1,1,$1+$1,$4,$5*
1,1,$1+$1,$6,$7*
1,1,$1+$1,$8,$9*
0 Add four rect primitives between the rounded corners*
20,1,$1+$1,$2,$3,$4,$5,0*
20,1,$1+$1,$4,$5,$6,$7,0*
20,1,$1+$1,$6,$7,$8,$9,0*
20,1,$1+$1,$8,$9,$2,$3,0*%
G04 Aperture macros list end*
%ADD10R,1.700000X1.700000*%
%ADD11O,1.700000X1.700000*%
%ADD12RoundRect,0.200000X-0.200000X-0.275000X0.200000X-0.275000X0.200000X0.275000X-0.200000X0.275000X0*%
%ADD13O,1.800000X1.800000*%
%ADD14O,1.500000X1.500000*%
%ADD15R,3.500000X1.700000*%
%ADD16R,1.700000X3.500000*%
%ADD17RoundRect,0.200000X0.200000X0.275000X-0.200000X0.275000X-0.200000X-0.275000X0.200000X-0.275000X0*%
%ADD18R,1.050000X1.500000*%
%ADD19O,1.050000X1.500000*%
%ADD20RoundRect,0.218750X0.256250X-0.218750X0.256250X0.218750X-0.256250X0.218750X-0.256250X-0.218750X0*%
%ADD21R,2.000000X1.905000*%
%ADD22O,2.000000X1.905000*%
%ADD23C,3.000000*%
%ADD24RoundRect,0.150000X0.625000X-0.150000X0.625000X0.150000X-0.625000X0.150000X-0.625000X-0.150000X0*%
%ADD25RoundRect,0.250000X0.650000X-0.350000X0.650000X0.350000X-0.650000X0.350000X-0.650000X-0.350000X0*%
%ADD26RoundRect,0.200000X0.275000X-0.200000X0.275000X0.200000X-0.275000X0.200000X-0.275000X-0.200000X0*%
%ADD27R,1.980000X3.960000*%
%ADD28O,1.980000X3.960000*%
G04 APERTURE END LIST*
D10*
X120650000Y-54610000D03*
D11*
X120650000Y-57150000D03*
X120650000Y-59690000D03*
X120650000Y-62230000D03*
X120650000Y-64770000D03*
X120650000Y-67310000D03*
X120650000Y-69850000D03*
X120650000Y-72390000D03*
X120650000Y-74930000D03*
X120650000Y-77470000D03*
X120650000Y-80010000D03*
X120650000Y-82550000D03*
X120650000Y-85090000D03*
X120650000Y-87630000D03*
X120650000Y-90170000D03*
X120650000Y-92710000D03*
D12*
X166730000Y-90500000D03*
X168380000Y-90500000D03*
X163730000Y-90500000D03*
X165380000Y-90500000D03*
D13*
X140275000Y-45000000D03*
D14*
X140575000Y-48030000D03*
X145425000Y-48030000D03*
D13*
X145725000Y-45000000D03*
D11*
X134110000Y-44870000D03*
D15*
X133210000Y-44870000D03*
D11*
X134110000Y-47410000D03*
D15*
X133210000Y-47410000D03*
D10*
X134110000Y-49950000D03*
D15*
X133210000Y-49950000D03*
D11*
X134110000Y-52490000D03*
D15*
X133210000Y-52490000D03*
D11*
X134110000Y-55030000D03*
D15*
X133210000Y-55030000D03*
D11*
X134110000Y-57570000D03*
D15*
X133210000Y-57570000D03*
D11*
X134110000Y-60110000D03*
D15*
X133210000Y-60110000D03*
D10*
X134110000Y-62650000D03*
D15*
X133210000Y-62650000D03*
D11*
X134110000Y-65190000D03*
D15*
X133210000Y-65190000D03*
D11*
X134110000Y-67730000D03*
D15*
X133210000Y-67730000D03*
D11*
X134110000Y-70270000D03*
D15*
X133210000Y-70270000D03*
D11*
X134110000Y-72810000D03*
D15*
X133210000Y-72810000D03*
D10*
X134110000Y-75350000D03*
D15*
X133210000Y-75350000D03*
D11*
X134110000Y-77890000D03*
D15*
X133210000Y-77890000D03*
D11*
X134110000Y-80430000D03*
D15*
X133210000Y-80430000D03*
D11*
X134110000Y-82970000D03*
D15*
X133210000Y-82970000D03*
D11*
X134110000Y-85510000D03*
D15*
X133210000Y-85510000D03*
D10*
X134110000Y-88050000D03*
D15*
X133210000Y-88050000D03*
D11*
X134110000Y-90590000D03*
D15*
X133210000Y-90590000D03*
D11*
X134110000Y-93130000D03*
D15*
X133210000Y-93130000D03*
D11*
X151890000Y-93130000D03*
D15*
X152790000Y-93130000D03*
D11*
X151890000Y-90590000D03*
D15*
X152790000Y-90590000D03*
D10*
X151890000Y-88050000D03*
D15*
X152790000Y-88050000D03*
D11*
X151890000Y-85510000D03*
D15*
X152790000Y-85510000D03*
D11*
X151890000Y-82970000D03*
D15*
X152790000Y-82970000D03*
D11*
X151890000Y-80430000D03*
D15*
X152790000Y-80430000D03*
D11*
X151890000Y-77890000D03*
D15*
X152790000Y-77890000D03*
D10*
X151890000Y-75350000D03*
D15*
X152790000Y-75350000D03*
D11*
X151890000Y-72810000D03*
D15*
X152790000Y-72810000D03*
D11*
X151890000Y-70270000D03*
D15*
X152790000Y-70270000D03*
D11*
X151890000Y-67730000D03*
D15*
X152790000Y-67730000D03*
D11*
X151890000Y-65190000D03*
D15*
X152790000Y-65190000D03*
D10*
X151890000Y-62650000D03*
D15*
X152790000Y-62650000D03*
D11*
X151890000Y-60110000D03*
D15*
X152790000Y-60110000D03*
D11*
X151890000Y-57570000D03*
D15*
X152790000Y-57570000D03*
D11*
X151890000Y-55030000D03*
D15*
X152790000Y-55030000D03*
D11*
X151890000Y-52490000D03*
D15*
X152790000Y-52490000D03*
D10*
X151890000Y-49950000D03*
D15*
X152790000Y-49950000D03*
D11*
X151890000Y-47410000D03*
D15*
X152790000Y-47410000D03*
D11*
X151890000Y-44870000D03*
D15*
X152790000Y-44870000D03*
D11*
X140460000Y-92900000D03*
D16*
X140460000Y-93800000D03*
D10*
X143000000Y-92900000D03*
D16*
X143000000Y-93800000D03*
D11*
X145540000Y-92900000D03*
D16*
X145540000Y-93800000D03*
D17*
X136430000Y-100240000D03*
X134780000Y-100240000D03*
D18*
X164730000Y-87500000D03*
D19*
X166000000Y-87500000D03*
X167270000Y-87500000D03*
D10*
X118110000Y-54610000D03*
D11*
X118110000Y-57150000D03*
X118110000Y-59690000D03*
X118110000Y-62230000D03*
X118110000Y-64770000D03*
X118110000Y-67310000D03*
X118110000Y-69850000D03*
X118110000Y-72390000D03*
X118110000Y-74930000D03*
X118110000Y-77470000D03*
X118110000Y-80010000D03*
X118110000Y-82550000D03*
X118110000Y-85090000D03*
X118110000Y-87630000D03*
X118110000Y-90170000D03*
X118110000Y-92710000D03*
D20*
X134331177Y-106707500D03*
X134331177Y-105132500D03*
D17*
X162115000Y-90500000D03*
X160465000Y-90500000D03*
D21*
X139000000Y-100960000D03*
D22*
X139000000Y-103500000D03*
X139000000Y-106040000D03*
D23*
X165100000Y-46355000D03*
D24*
X163500000Y-82000000D03*
X163500000Y-81000000D03*
X163500000Y-80000000D03*
X163500000Y-79000000D03*
D25*
X167375000Y-83300000D03*
X167375000Y-77700000D03*
D10*
X161270000Y-54610000D03*
D11*
X161270000Y-57150000D03*
X161270000Y-59690000D03*
X161270000Y-62230000D03*
X161270000Y-64770000D03*
X161270000Y-67310000D03*
X161270000Y-69850000D03*
X161270000Y-72390000D03*
D23*
X165100000Y-107950000D03*
D10*
X123190000Y-54610000D03*
D11*
X123190000Y-57150000D03*
X123190000Y-59690000D03*
X123190000Y-62230000D03*
X123190000Y-64770000D03*
X123190000Y-67310000D03*
X123190000Y-69850000D03*
X123190000Y-72390000D03*
X123190000Y-74930000D03*
X123190000Y-77470000D03*
X123190000Y-80010000D03*
X123190000Y-82550000D03*
X123190000Y-85090000D03*
X123190000Y-87630000D03*
X123190000Y-90170000D03*
X123190000Y-92710000D03*
D26*
X136280000Y-103565000D03*
X136280000Y-101915000D03*
D12*
X157480000Y-90500000D03*
X159130000Y-90500000D03*
D27*
X118000000Y-102500000D03*
D28*
X123000000Y-102500000D03*
X128000000Y-102500000D03*
D23*
X118110000Y-46355000D03*
D20*
X136331177Y-106707500D03*
X136331177Y-105132500D03*
D10*
X163830000Y-54610000D03*
D11*
X163830000Y-57150000D03*
X163830000Y-59690000D03*
X163830000Y-62230000D03*
X163830000Y-64770000D03*
X163830000Y-67310000D03*
X163830000Y-69850000D03*
X163830000Y-72390000D03*
D10*
X166370000Y-54610000D03*
D11*
X166370000Y-57150000D03*
X166370000Y-59690000D03*
X166370000Y-62230000D03*
X166370000Y-64770000D03*
X166370000Y-67310000D03*
X166370000Y-69850000D03*
X166370000Y-72390000D03*
D18*
X158960000Y-87500000D03*
D19*
X160230000Y-87500000D03*
X161500000Y-87500000D03*
D10*
X125730000Y-54610000D03*
D11*
X125730000Y-57150000D03*
X125730000Y-59690000D03*
X125730000Y-62230000D03*
X125730000Y-64770000D03*
X125730000Y-67310000D03*
X125730000Y-69850000D03*
X125730000Y-72390000D03*
X125730000Y-74930000D03*
X125730000Y-77470000D03*
X125730000Y-80010000D03*
X125730000Y-82550000D03*
X125730000Y-85090000D03*
X125730000Y-87630000D03*
X125730000Y-90170000D03*
X125730000Y-92710000D03*
M02*
